G75*
%MOIN*%
%OFA0B0*%
%FSLAX25Y25*%
%IPPOS*%
%LPD*%
%AMOC8*
5,1,8,0,0,1.08239X$1,22.5*
%
%ADD10OC8,0.06300*%
%ADD11C,0.06300*%
%ADD12R,0.11811X0.23622*%
%ADD13R,0.01575X0.05512*%
%ADD14R,0.46000X0.07000*%
%ADD15R,0.03937X0.04331*%
%ADD16R,0.03150X0.02362*%
%ADD17R,0.04331X0.03937*%
%ADD18C,0.06000*%
%ADD19R,0.05512X0.07874*%
%ADD20R,0.05039X0.05512*%
%ADD21R,0.07677X0.05512*%
%ADD22R,0.02756X0.05512*%
%ADD23C,0.04756*%
%ADD24C,0.00875*%
%ADD25C,0.01000*%
%ADD26C,0.04000*%
%ADD27C,0.15811*%
D10*
X0054484Y0205988D03*
X0181705Y0260634D03*
X0242453Y0259295D03*
D11*
X0256453Y0259295D03*
X0195705Y0260634D03*
X0040484Y0205988D03*
D12*
X0031539Y0165122D03*
X0051224Y0165122D03*
D13*
X0091500Y0267091D03*
X0094059Y0267091D03*
X0096618Y0267091D03*
X0099177Y0267091D03*
X0101736Y0267091D03*
D14*
X0096618Y0277720D03*
D15*
X0095634Y0250043D03*
X0095634Y0243350D03*
X0106657Y0243350D03*
X0106657Y0250043D03*
X0084807Y0250043D03*
X0084807Y0243350D03*
X0074177Y0243350D03*
X0074177Y0250043D03*
X0060555Y0046972D03*
X0060555Y0040280D03*
X0098744Y0039886D03*
X0098744Y0046579D03*
D16*
X0074295Y0255909D03*
X0074295Y0262602D03*
D17*
X0195004Y0169413D03*
X0201697Y0169413D03*
X0201697Y0157602D03*
X0195004Y0157602D03*
X0200161Y0145122D03*
X0206854Y0145122D03*
X0207130Y0135201D03*
X0200437Y0135201D03*
X0189335Y0134886D03*
X0182642Y0134886D03*
X0182051Y0144728D03*
X0188744Y0144728D03*
D18*
X0102799Y0067965D02*
X0102799Y0061965D01*
X0092799Y0061965D02*
X0092799Y0067965D01*
X0082799Y0067965D02*
X0082799Y0061965D01*
X0072799Y0061965D02*
X0072799Y0067965D01*
D19*
X0121736Y0031185D03*
X0183941Y0031185D03*
D20*
X0184177Y0068980D03*
D21*
X0125181Y0068980D03*
D22*
X0144177Y0072406D03*
X0148508Y0072406D03*
X0152839Y0072406D03*
X0157169Y0072406D03*
X0161500Y0072406D03*
X0165831Y0072406D03*
X0170161Y0072406D03*
X0174492Y0072406D03*
X0178823Y0072406D03*
D23*
X0360831Y0242642D03*
X0360831Y0250122D03*
D24*
X0097431Y0031010D02*
X0097431Y0028384D01*
X0097431Y0031010D02*
X0100057Y0031010D01*
X0100057Y0028384D01*
X0097431Y0028384D01*
X0097431Y0029258D02*
X0100057Y0029258D01*
X0100057Y0030132D02*
X0097431Y0030132D01*
X0097431Y0031006D02*
X0100057Y0031006D01*
X0097431Y0025010D02*
X0097431Y0022384D01*
X0097431Y0025010D02*
X0100057Y0025010D01*
X0100057Y0022384D01*
X0097431Y0022384D01*
X0097431Y0023258D02*
X0100057Y0023258D01*
X0100057Y0024132D02*
X0097431Y0024132D01*
X0097431Y0025006D02*
X0100057Y0025006D01*
X0058848Y0023829D02*
X0058848Y0021203D01*
X0058848Y0023829D02*
X0061474Y0023829D01*
X0061474Y0021203D01*
X0058848Y0021203D01*
X0058848Y0022077D02*
X0061474Y0022077D01*
X0061474Y0022951D02*
X0058848Y0022951D01*
X0058848Y0023825D02*
X0061474Y0023825D01*
X0058848Y0027203D02*
X0058848Y0029829D01*
X0061474Y0029829D01*
X0061474Y0027203D01*
X0058848Y0027203D01*
X0058848Y0028077D02*
X0061474Y0028077D01*
X0061474Y0028951D02*
X0058848Y0028951D01*
X0058848Y0029825D02*
X0061474Y0029825D01*
D25*
X0030712Y0023330D02*
X0026056Y0027237D01*
X0022149Y0031893D01*
X0019110Y0037157D01*
X0017031Y0042869D01*
X0015975Y0048855D01*
X0015843Y0051894D01*
X0015843Y0246854D01*
X0015975Y0249893D01*
X0017031Y0255879D01*
X0019110Y0261591D01*
X0022149Y0266855D01*
X0026056Y0271511D01*
X0030712Y0275418D01*
X0035976Y0278457D01*
X0041688Y0280536D01*
X0047673Y0281592D01*
X0050712Y0281724D01*
X0072200Y0281724D01*
X0072118Y0281418D01*
X0072118Y0278220D01*
X0096118Y0278220D01*
X0096118Y0277220D01*
X0097118Y0277220D01*
X0097118Y0272720D01*
X0099030Y0272720D01*
X0098865Y0272556D01*
X0098281Y0271146D01*
X0094955Y0271146D01*
X0094371Y0272556D01*
X0094207Y0272720D01*
X0096118Y0272720D01*
X0096118Y0277220D01*
X0072118Y0277220D01*
X0072118Y0274023D01*
X0072220Y0273641D01*
X0072418Y0273299D01*
X0072697Y0273020D01*
X0073039Y0272823D01*
X0073421Y0272720D01*
X0084069Y0272720D01*
X0083904Y0272556D01*
X0082965Y0270287D01*
X0082965Y0268891D01*
X0078038Y0268891D01*
X0074231Y0265083D01*
X0072182Y0265083D01*
X0071420Y0264322D01*
X0071420Y0260883D01*
X0072182Y0260121D01*
X0075980Y0260121D01*
X0075980Y0258391D01*
X0072182Y0258391D01*
X0071420Y0257629D01*
X0071420Y0254190D01*
X0072102Y0253509D01*
X0071670Y0253509D01*
X0070909Y0252747D01*
X0070909Y0247339D01*
X0071551Y0246697D01*
X0071379Y0246524D01*
X0070791Y0247113D01*
X0069578Y0247615D01*
X0068265Y0247615D01*
X0067052Y0247113D01*
X0066124Y0246184D01*
X0065621Y0244971D01*
X0065621Y0243659D01*
X0066124Y0242446D01*
X0067052Y0241517D01*
X0068265Y0241015D01*
X0069578Y0241015D01*
X0070791Y0241517D01*
X0070909Y0241635D01*
X0070909Y0240647D01*
X0071670Y0239885D01*
X0075980Y0239885D01*
X0075980Y0230297D01*
X0056121Y0210438D01*
X0052641Y0210438D01*
X0050034Y0207831D01*
X0050034Y0204351D01*
X0049897Y0204214D01*
X0049897Y0178233D01*
X0044780Y0178233D01*
X0044019Y0177472D01*
X0044019Y0152773D01*
X0044780Y0152011D01*
X0057668Y0152011D01*
X0058430Y0152773D01*
X0058430Y0177472D01*
X0057668Y0178233D01*
X0053497Y0178233D01*
X0053497Y0201538D01*
X0056327Y0201538D01*
X0058934Y0204145D01*
X0058934Y0207831D01*
X0058770Y0207996D01*
X0079580Y0228806D01*
X0079580Y0257771D01*
X0086272Y0257771D01*
X0086301Y0257702D01*
X0087229Y0256773D01*
X0088442Y0256271D01*
X0088489Y0256271D01*
X0085727Y0253509D01*
X0082300Y0253509D01*
X0081539Y0252747D01*
X0081539Y0247339D01*
X0082181Y0246697D01*
X0081539Y0246054D01*
X0081539Y0240647D01*
X0082300Y0239885D01*
X0084838Y0239885D01*
X0084838Y0111187D01*
X0101083Y0094942D01*
X0101054Y0094873D01*
X0101054Y0093560D01*
X0101557Y0092347D01*
X0102485Y0091419D01*
X0103698Y0090917D01*
X0105011Y0090917D01*
X0105999Y0091326D01*
X0105999Y0089057D01*
X0097703Y0080761D01*
X0096649Y0079706D01*
X0096649Y0069907D01*
X0096445Y0070400D01*
X0095235Y0071610D01*
X0093655Y0072265D01*
X0091944Y0072265D01*
X0090363Y0071610D01*
X0089154Y0070400D01*
X0088499Y0068820D01*
X0088499Y0061109D01*
X0089154Y0059529D01*
X0090363Y0058319D01*
X0091944Y0057665D01*
X0093655Y0057665D01*
X0095235Y0058319D01*
X0096445Y0059529D01*
X0096649Y0060022D01*
X0096649Y0050044D01*
X0096237Y0050044D01*
X0095476Y0049283D01*
X0095476Y0048772D01*
X0064901Y0048772D01*
X0073112Y0056983D01*
X0073891Y0057762D01*
X0075235Y0058319D01*
X0076445Y0059529D01*
X0077099Y0061109D01*
X0077099Y0068820D01*
X0076445Y0070400D01*
X0075235Y0071610D01*
X0073655Y0072265D01*
X0071944Y0072265D01*
X0070363Y0071610D01*
X0069154Y0070400D01*
X0068499Y0068820D01*
X0068499Y0061109D01*
X0069154Y0059529D01*
X0069860Y0058823D01*
X0061475Y0050438D01*
X0058910Y0050438D01*
X0058910Y0079129D01*
X0081843Y0079129D01*
X0081872Y0079060D01*
X0082800Y0078132D01*
X0084013Y0077629D01*
X0085326Y0077629D01*
X0086539Y0078132D01*
X0087467Y0079060D01*
X0087969Y0080273D01*
X0087969Y0081586D01*
X0087467Y0082798D01*
X0086539Y0083727D01*
X0085326Y0084229D01*
X0084013Y0084229D01*
X0082800Y0083727D01*
X0081872Y0082798D01*
X0081843Y0082729D01*
X0056365Y0082729D01*
X0055310Y0081675D01*
X0055310Y0043274D01*
X0057287Y0041298D01*
X0057287Y0037576D01*
X0058048Y0036814D01*
X0058755Y0036814D01*
X0058755Y0036511D01*
X0058686Y0036483D01*
X0057758Y0035554D01*
X0057255Y0034341D01*
X0057255Y0033029D01*
X0057758Y0031816D01*
X0058068Y0031505D01*
X0057111Y0030548D01*
X0057111Y0026484D01*
X0058012Y0025583D01*
X0057659Y0025379D01*
X0057299Y0025018D01*
X0057043Y0024576D01*
X0056911Y0024083D01*
X0056911Y0022891D01*
X0059786Y0022891D01*
X0059786Y0022141D01*
X0056911Y0022141D01*
X0056911Y0020948D01*
X0057043Y0020455D01*
X0057299Y0020014D01*
X0057659Y0019653D01*
X0058101Y0019398D01*
X0058594Y0019266D01*
X0059786Y0019266D01*
X0059786Y0022141D01*
X0060536Y0022141D01*
X0060536Y0019266D01*
X0061729Y0019266D01*
X0062222Y0019398D01*
X0062664Y0019653D01*
X0063024Y0020014D01*
X0063279Y0020455D01*
X0063411Y0020948D01*
X0063411Y0022141D01*
X0060536Y0022141D01*
X0060536Y0022891D01*
X0063411Y0022891D01*
X0063411Y0024083D01*
X0063279Y0024576D01*
X0063024Y0025018D01*
X0062664Y0025379D01*
X0062310Y0025583D01*
X0063211Y0026484D01*
X0063211Y0030548D01*
X0062648Y0031111D01*
X0063353Y0031816D01*
X0063855Y0033029D01*
X0063855Y0034341D01*
X0063353Y0035554D01*
X0062424Y0036483D01*
X0062355Y0036511D01*
X0062355Y0036814D01*
X0063062Y0036814D01*
X0063824Y0037576D01*
X0063824Y0042983D01*
X0063181Y0043626D01*
X0063824Y0044269D01*
X0063824Y0045172D01*
X0095476Y0045172D01*
X0095476Y0043875D01*
X0096118Y0043232D01*
X0095476Y0042590D01*
X0095476Y0037182D01*
X0095885Y0036772D01*
X0095651Y0036539D01*
X0095149Y0035326D01*
X0095149Y0034013D01*
X0095651Y0032800D01*
X0096208Y0032243D01*
X0095694Y0031729D01*
X0095694Y0027665D01*
X0096595Y0026764D01*
X0096242Y0026560D01*
X0095881Y0026199D01*
X0095626Y0025757D01*
X0095494Y0025264D01*
X0095494Y0024072D01*
X0098369Y0024072D01*
X0098369Y0023322D01*
X0095494Y0023322D01*
X0095494Y0022129D01*
X0095626Y0021636D01*
X0095881Y0021195D01*
X0096242Y0020834D01*
X0096684Y0020579D01*
X0097177Y0020447D01*
X0098369Y0020447D01*
X0098369Y0023322D01*
X0099119Y0023322D01*
X0099119Y0024072D01*
X0101994Y0024072D01*
X0101994Y0025264D01*
X0101862Y0025757D01*
X0101607Y0026199D01*
X0101246Y0026560D01*
X0100893Y0026764D01*
X0101794Y0027665D01*
X0101794Y0031729D01*
X0100985Y0032538D01*
X0101246Y0032800D01*
X0101749Y0034013D01*
X0101749Y0035326D01*
X0101282Y0036452D01*
X0102013Y0037182D01*
X0102013Y0040609D01*
X0109107Y0047703D01*
X0109107Y0084121D01*
X0115440Y0090453D01*
X0115509Y0090424D01*
X0116822Y0090424D01*
X0118035Y0090927D01*
X0118963Y0091855D01*
X0119387Y0092879D01*
X0119779Y0092487D01*
X0119779Y0080311D01*
X0119709Y0080282D01*
X0118781Y0079354D01*
X0118279Y0078141D01*
X0118279Y0076828D01*
X0118781Y0075615D01*
X0119709Y0074687D01*
X0120922Y0074184D01*
X0122235Y0074184D01*
X0123448Y0074687D01*
X0124376Y0075615D01*
X0124879Y0076828D01*
X0124879Y0078141D01*
X0124376Y0079354D01*
X0123448Y0080282D01*
X0123379Y0080311D01*
X0123379Y0093978D01*
X0122324Y0095032D01*
X0121410Y0095946D01*
X0121410Y0106582D01*
X0122399Y0106172D01*
X0123712Y0106172D01*
X0124924Y0106675D01*
X0125853Y0107603D01*
X0126355Y0108816D01*
X0126355Y0110129D01*
X0126326Y0110198D01*
X0133648Y0117520D01*
X0133718Y0117491D01*
X0133942Y0117491D01*
X0129691Y0113241D01*
X0128637Y0112187D01*
X0128637Y0073236D01*
X0125681Y0073236D01*
X0125681Y0069480D01*
X0124681Y0069480D01*
X0124681Y0068480D01*
X0125681Y0068480D01*
X0125681Y0064724D01*
X0128637Y0064724D01*
X0128637Y0029002D01*
X0136019Y0021621D01*
X0137073Y0020566D01*
X0145327Y0020566D01*
X0145356Y0020497D01*
X0146284Y0019569D01*
X0147497Y0019066D01*
X0148810Y0019066D01*
X0150023Y0019569D01*
X0150951Y0020497D01*
X0151454Y0021710D01*
X0151454Y0023023D01*
X0150951Y0024235D01*
X0150023Y0025164D01*
X0148810Y0025666D01*
X0147497Y0025666D01*
X0146284Y0025164D01*
X0145356Y0024235D01*
X0145327Y0024166D01*
X0145034Y0024166D01*
X0146535Y0025667D01*
X0147594Y0028226D01*
X0147594Y0030995D01*
X0147097Y0032196D01*
X0151767Y0027526D01*
X0151767Y0017024D01*
X0050713Y0017024D01*
X0047673Y0017156D01*
X0041688Y0018212D01*
X0035976Y0020291D01*
X0030712Y0023330D01*
X0030500Y0023507D02*
X0056911Y0023507D01*
X0057025Y0024506D02*
X0029310Y0024506D01*
X0028120Y0025504D02*
X0057877Y0025504D01*
X0057111Y0026503D02*
X0026931Y0026503D01*
X0025834Y0027501D02*
X0057111Y0027501D01*
X0057111Y0028500D02*
X0024996Y0028500D01*
X0024158Y0029498D02*
X0027542Y0029498D01*
X0028015Y0029302D02*
X0031678Y0029302D01*
X0035061Y0030704D01*
X0037651Y0033293D01*
X0039052Y0036677D01*
X0039052Y0040339D01*
X0037651Y0043722D01*
X0035061Y0046312D01*
X0031678Y0047713D01*
X0028015Y0047713D01*
X0024632Y0046312D01*
X0022042Y0043722D01*
X0020641Y0040339D01*
X0020641Y0036677D01*
X0022042Y0033293D01*
X0024632Y0030704D01*
X0028015Y0029302D01*
X0025132Y0030497D02*
X0023320Y0030497D01*
X0023840Y0031495D02*
X0022482Y0031495D01*
X0022842Y0032494D02*
X0021802Y0032494D01*
X0021960Y0033492D02*
X0021225Y0033492D01*
X0021546Y0034491D02*
X0020649Y0034491D01*
X0021133Y0035489D02*
X0020072Y0035489D01*
X0019496Y0036488D02*
X0020719Y0036488D01*
X0020641Y0037486D02*
X0018990Y0037486D01*
X0018626Y0038485D02*
X0020641Y0038485D01*
X0020641Y0039483D02*
X0018263Y0039483D01*
X0017899Y0040482D02*
X0020700Y0040482D01*
X0021114Y0041480D02*
X0017536Y0041480D01*
X0017173Y0042479D02*
X0021527Y0042479D01*
X0021941Y0043477D02*
X0016923Y0043477D01*
X0016747Y0044476D02*
X0022796Y0044476D01*
X0023795Y0045474D02*
X0016571Y0045474D01*
X0016395Y0046473D02*
X0025021Y0046473D01*
X0027431Y0047472D02*
X0016219Y0047472D01*
X0016043Y0048470D02*
X0055310Y0048470D01*
X0055310Y0047472D02*
X0032261Y0047472D01*
X0034672Y0046473D02*
X0055310Y0046473D01*
X0055310Y0045474D02*
X0035898Y0045474D01*
X0036897Y0044476D02*
X0055310Y0044476D01*
X0055310Y0043477D02*
X0037752Y0043477D01*
X0038166Y0042479D02*
X0056105Y0042479D01*
X0057104Y0041480D02*
X0038579Y0041480D01*
X0038993Y0040482D02*
X0057287Y0040482D01*
X0057287Y0039483D02*
X0039052Y0039483D01*
X0039052Y0038485D02*
X0057287Y0038485D01*
X0057376Y0037486D02*
X0039052Y0037486D01*
X0038974Y0036488D02*
X0058699Y0036488D01*
X0057731Y0035489D02*
X0038560Y0035489D01*
X0038147Y0034491D02*
X0057317Y0034491D01*
X0057255Y0033492D02*
X0037733Y0033492D01*
X0036851Y0032494D02*
X0057477Y0032494D01*
X0058059Y0031495D02*
X0035852Y0031495D01*
X0034561Y0030497D02*
X0057111Y0030497D01*
X0057111Y0029498D02*
X0032151Y0029498D01*
X0032134Y0022509D02*
X0059786Y0022509D01*
X0060161Y0022516D02*
X0060555Y0022858D01*
X0064984Y0022858D01*
X0064984Y0022366D01*
X0064984Y0022858D02*
X0098449Y0022858D01*
X0098449Y0023350D01*
X0098744Y0023697D01*
X0098941Y0023843D01*
X0121579Y0023843D01*
X0121579Y0030732D01*
X0121736Y0031185D01*
X0122071Y0031224D01*
X0122071Y0065181D01*
X0118626Y0065181D01*
X0119945Y0065645D02*
X0120142Y0065303D01*
X0120421Y0065024D01*
X0120764Y0064827D01*
X0121145Y0064724D01*
X0124681Y0064724D01*
X0124681Y0068480D01*
X0119843Y0068480D01*
X0119843Y0066027D01*
X0119945Y0065645D01*
X0120061Y0065445D02*
X0109107Y0065445D01*
X0109107Y0066443D02*
X0119843Y0066443D01*
X0119843Y0067442D02*
X0109107Y0067442D01*
X0109107Y0068440D02*
X0119843Y0068440D01*
X0119843Y0069480D02*
X0124681Y0069480D01*
X0124681Y0073236D01*
X0121145Y0073236D01*
X0120764Y0073134D01*
X0120421Y0072937D01*
X0120142Y0072657D01*
X0119945Y0072315D01*
X0119843Y0071934D01*
X0119843Y0069480D01*
X0119843Y0070437D02*
X0109107Y0070437D01*
X0109107Y0069439D02*
X0124681Y0069439D01*
X0125181Y0068980D02*
X0125024Y0068626D01*
X0122071Y0065673D01*
X0122071Y0065181D01*
X0124681Y0065445D02*
X0125681Y0065445D01*
X0125681Y0066443D02*
X0124681Y0066443D01*
X0124681Y0067442D02*
X0125681Y0067442D01*
X0125681Y0068440D02*
X0124681Y0068440D01*
X0124681Y0070437D02*
X0125681Y0070437D01*
X0125681Y0071436D02*
X0124681Y0071436D01*
X0124681Y0072434D02*
X0125681Y0072434D01*
X0128637Y0073433D02*
X0109107Y0073433D01*
X0109107Y0074431D02*
X0120326Y0074431D01*
X0118966Y0075430D02*
X0109107Y0075430D01*
X0109107Y0076428D02*
X0118444Y0076428D01*
X0118279Y0077427D02*
X0109107Y0077427D01*
X0109107Y0078425D02*
X0118397Y0078425D01*
X0118851Y0079424D02*
X0109107Y0079424D01*
X0109107Y0080422D02*
X0119779Y0080422D01*
X0119779Y0081421D02*
X0109107Y0081421D01*
X0109107Y0082419D02*
X0119779Y0082419D01*
X0119779Y0083418D02*
X0109107Y0083418D01*
X0109403Y0084416D02*
X0119779Y0084416D01*
X0119779Y0085415D02*
X0110401Y0085415D01*
X0111400Y0086413D02*
X0119779Y0086413D01*
X0119779Y0087412D02*
X0112398Y0087412D01*
X0113397Y0088410D02*
X0119779Y0088410D01*
X0119779Y0089409D02*
X0114396Y0089409D01*
X0115394Y0090408D02*
X0119779Y0090408D01*
X0119779Y0091406D02*
X0118514Y0091406D01*
X0119191Y0092405D02*
X0119779Y0092405D01*
X0121579Y0093232D02*
X0121579Y0077484D01*
X0122832Y0074431D02*
X0128637Y0074431D01*
X0128637Y0075430D02*
X0124191Y0075430D01*
X0124713Y0076428D02*
X0128637Y0076428D01*
X0128637Y0077427D02*
X0124879Y0077427D01*
X0124761Y0078425D02*
X0128637Y0078425D01*
X0128637Y0079424D02*
X0124306Y0079424D01*
X0123379Y0080422D02*
X0128637Y0080422D01*
X0128637Y0081421D02*
X0123379Y0081421D01*
X0123379Y0082419D02*
X0128637Y0082419D01*
X0128637Y0083418D02*
X0123379Y0083418D01*
X0123379Y0084416D02*
X0128637Y0084416D01*
X0128637Y0085415D02*
X0123379Y0085415D01*
X0123379Y0086413D02*
X0128637Y0086413D01*
X0128637Y0087412D02*
X0123379Y0087412D01*
X0123379Y0088410D02*
X0128637Y0088410D01*
X0128637Y0089409D02*
X0123379Y0089409D01*
X0123379Y0090408D02*
X0128637Y0090408D01*
X0128637Y0091406D02*
X0123379Y0091406D01*
X0123379Y0092405D02*
X0128637Y0092405D01*
X0128637Y0093403D02*
X0123379Y0093403D01*
X0122955Y0094402D02*
X0128637Y0094402D01*
X0128637Y0095400D02*
X0121957Y0095400D01*
X0121410Y0096399D02*
X0128637Y0096399D01*
X0128637Y0097397D02*
X0121410Y0097397D01*
X0121410Y0098396D02*
X0128637Y0098396D01*
X0128637Y0099394D02*
X0121410Y0099394D01*
X0121410Y0100393D02*
X0128637Y0100393D01*
X0128637Y0101391D02*
X0121410Y0101391D01*
X0121410Y0102390D02*
X0128637Y0102390D01*
X0128637Y0103388D02*
X0121410Y0103388D01*
X0121410Y0104387D02*
X0128637Y0104387D01*
X0128637Y0105385D02*
X0121410Y0105385D01*
X0121410Y0106384D02*
X0121889Y0106384D01*
X0124222Y0106384D02*
X0128637Y0106384D01*
X0128637Y0107382D02*
X0125632Y0107382D01*
X0126175Y0108381D02*
X0128637Y0108381D01*
X0128637Y0109379D02*
X0126355Y0109379D01*
X0126506Y0110378D02*
X0128637Y0110378D01*
X0128637Y0111376D02*
X0127504Y0111376D01*
X0128503Y0112375D02*
X0128825Y0112375D01*
X0129502Y0113373D02*
X0129824Y0113373D01*
X0130500Y0114372D02*
X0130822Y0114372D01*
X0131499Y0115370D02*
X0131821Y0115370D01*
X0132497Y0116369D02*
X0132819Y0116369D01*
X0133496Y0117367D02*
X0133818Y0117367D01*
X0137819Y0118823D02*
X0130437Y0111441D01*
X0130437Y0029748D01*
X0137819Y0022366D01*
X0148154Y0022366D01*
X0151253Y0023507D02*
X0151767Y0023507D01*
X0151767Y0022509D02*
X0151454Y0022509D01*
X0151371Y0021510D02*
X0151767Y0021510D01*
X0151767Y0020512D02*
X0150957Y0020512D01*
X0151767Y0019513D02*
X0149889Y0019513D01*
X0151767Y0018515D02*
X0040855Y0018515D01*
X0038112Y0019513D02*
X0057901Y0019513D01*
X0057028Y0020512D02*
X0035593Y0020512D01*
X0033864Y0021510D02*
X0056911Y0021510D01*
X0059786Y0021510D02*
X0060536Y0021510D01*
X0060536Y0020512D02*
X0059786Y0020512D01*
X0059786Y0019513D02*
X0060536Y0019513D01*
X0062422Y0019513D02*
X0146418Y0019513D01*
X0145350Y0020512D02*
X0100554Y0020512D01*
X0100312Y0020447D02*
X0100804Y0020579D01*
X0101246Y0020834D01*
X0101607Y0021195D01*
X0101862Y0021636D01*
X0101994Y0022129D01*
X0101994Y0023322D01*
X0099119Y0023322D01*
X0099119Y0020447D01*
X0100312Y0020447D01*
X0099119Y0020512D02*
X0098369Y0020512D01*
X0098369Y0021510D02*
X0099119Y0021510D01*
X0099119Y0022509D02*
X0098369Y0022509D01*
X0098369Y0023507D02*
X0063411Y0023507D01*
X0063298Y0024506D02*
X0095494Y0024506D01*
X0095558Y0025504D02*
X0062446Y0025504D01*
X0063211Y0026503D02*
X0096185Y0026503D01*
X0095857Y0027501D02*
X0063211Y0027501D01*
X0063211Y0028500D02*
X0095694Y0028500D01*
X0095694Y0029498D02*
X0063211Y0029498D01*
X0063211Y0030497D02*
X0095694Y0030497D01*
X0095694Y0031495D02*
X0063032Y0031495D01*
X0063634Y0032494D02*
X0095957Y0032494D01*
X0095364Y0033492D02*
X0063855Y0033492D01*
X0063793Y0034491D02*
X0095149Y0034491D01*
X0095217Y0035489D02*
X0063380Y0035489D01*
X0062412Y0036488D02*
X0095630Y0036488D01*
X0095476Y0037486D02*
X0063734Y0037486D01*
X0063824Y0038485D02*
X0095476Y0038485D01*
X0095476Y0039483D02*
X0063824Y0039483D01*
X0063824Y0040482D02*
X0095476Y0040482D01*
X0095476Y0041480D02*
X0063824Y0041480D01*
X0063824Y0042479D02*
X0095476Y0042479D01*
X0095873Y0043477D02*
X0063329Y0043477D01*
X0063824Y0044476D02*
X0095476Y0044476D01*
X0098449Y0046972D02*
X0098744Y0046579D01*
X0098449Y0047465D01*
X0098449Y0078961D01*
X0107799Y0088311D01*
X0107799Y0108488D01*
X0109276Y0109965D01*
X0109276Y0119807D01*
X0097465Y0131618D01*
X0084838Y0131346D02*
X0015843Y0131346D01*
X0015843Y0130348D02*
X0084838Y0130348D01*
X0084838Y0129349D02*
X0015843Y0129349D01*
X0015843Y0128351D02*
X0084838Y0128351D01*
X0084838Y0127352D02*
X0015843Y0127352D01*
X0015843Y0126354D02*
X0084838Y0126354D01*
X0084838Y0125355D02*
X0015843Y0125355D01*
X0015843Y0124357D02*
X0084838Y0124357D01*
X0084838Y0123358D02*
X0015843Y0123358D01*
X0015843Y0122360D02*
X0084838Y0122360D01*
X0084838Y0121361D02*
X0015843Y0121361D01*
X0015843Y0120363D02*
X0084838Y0120363D01*
X0084838Y0119364D02*
X0015843Y0119364D01*
X0015843Y0118366D02*
X0084838Y0118366D01*
X0084838Y0117367D02*
X0015843Y0117367D01*
X0015843Y0116369D02*
X0084838Y0116369D01*
X0084838Y0115370D02*
X0015843Y0115370D01*
X0015843Y0114372D02*
X0084838Y0114372D01*
X0084838Y0113373D02*
X0015843Y0113373D01*
X0015843Y0112375D02*
X0084838Y0112375D01*
X0084838Y0111376D02*
X0015843Y0111376D01*
X0015843Y0110378D02*
X0085648Y0110378D01*
X0086646Y0109379D02*
X0015843Y0109379D01*
X0015843Y0108381D02*
X0087645Y0108381D01*
X0088643Y0107382D02*
X0015843Y0107382D01*
X0015843Y0106384D02*
X0089642Y0106384D01*
X0090640Y0105385D02*
X0015843Y0105385D01*
X0015843Y0104387D02*
X0091639Y0104387D01*
X0092637Y0103388D02*
X0015843Y0103388D01*
X0015843Y0102390D02*
X0093636Y0102390D01*
X0094634Y0101391D02*
X0015843Y0101391D01*
X0015843Y0100393D02*
X0095633Y0100393D01*
X0096631Y0099394D02*
X0015843Y0099394D01*
X0015843Y0098396D02*
X0097630Y0098396D01*
X0098628Y0097397D02*
X0015843Y0097397D01*
X0015843Y0096399D02*
X0099627Y0096399D01*
X0100625Y0095400D02*
X0015843Y0095400D01*
X0015843Y0094402D02*
X0101054Y0094402D01*
X0101119Y0093403D02*
X0015843Y0093403D01*
X0015843Y0092405D02*
X0101533Y0092405D01*
X0102516Y0091406D02*
X0015843Y0091406D01*
X0015843Y0090408D02*
X0105999Y0090408D01*
X0105999Y0089409D02*
X0015843Y0089409D01*
X0015843Y0088410D02*
X0105353Y0088410D01*
X0104355Y0087412D02*
X0015843Y0087412D01*
X0015843Y0086413D02*
X0103356Y0086413D01*
X0102358Y0085415D02*
X0015843Y0085415D01*
X0015843Y0084416D02*
X0101359Y0084416D01*
X0100361Y0083418D02*
X0086847Y0083418D01*
X0087624Y0082419D02*
X0099362Y0082419D01*
X0098364Y0081421D02*
X0087969Y0081421D01*
X0087969Y0080422D02*
X0097365Y0080422D01*
X0096649Y0079424D02*
X0087618Y0079424D01*
X0086832Y0078425D02*
X0096649Y0078425D01*
X0096649Y0077427D02*
X0058910Y0077427D01*
X0058910Y0078425D02*
X0082506Y0078425D01*
X0084669Y0080929D02*
X0057110Y0080929D01*
X0057110Y0044020D01*
X0060555Y0040575D01*
X0060555Y0040280D01*
X0060555Y0033685D01*
X0060555Y0028764D01*
X0060161Y0028516D01*
X0060536Y0022509D02*
X0095494Y0022509D01*
X0095699Y0021510D02*
X0063411Y0021510D01*
X0063294Y0020512D02*
X0096934Y0020512D01*
X0099119Y0023507D02*
X0134132Y0023507D01*
X0135131Y0022509D02*
X0101994Y0022509D01*
X0101789Y0021510D02*
X0136129Y0021510D01*
X0133134Y0024506D02*
X0101994Y0024506D01*
X0101930Y0025504D02*
X0132135Y0025504D01*
X0131137Y0026503D02*
X0125794Y0026503D01*
X0125890Y0026669D02*
X0125992Y0027051D01*
X0125992Y0030685D01*
X0122236Y0030685D01*
X0122236Y0025748D01*
X0124690Y0025748D01*
X0125071Y0025850D01*
X0125413Y0026048D01*
X0125692Y0026327D01*
X0125890Y0026669D01*
X0125992Y0027501D02*
X0130138Y0027501D01*
X0129140Y0028500D02*
X0125992Y0028500D01*
X0125992Y0029498D02*
X0128637Y0029498D01*
X0128637Y0030497D02*
X0125992Y0030497D01*
X0125992Y0031685D02*
X0125992Y0035320D01*
X0125890Y0035701D01*
X0125692Y0036043D01*
X0125413Y0036322D01*
X0125071Y0036520D01*
X0124690Y0036622D01*
X0122236Y0036622D01*
X0122236Y0031685D01*
X0121236Y0031685D01*
X0121236Y0030685D01*
X0117480Y0030685D01*
X0117480Y0027051D01*
X0117583Y0026669D01*
X0117780Y0026327D01*
X0118059Y0026048D01*
X0118401Y0025850D01*
X0118783Y0025748D01*
X0121236Y0025748D01*
X0121236Y0030685D01*
X0122236Y0030685D01*
X0122236Y0031685D01*
X0125992Y0031685D01*
X0125992Y0032494D02*
X0128637Y0032494D01*
X0128637Y0033492D02*
X0125992Y0033492D01*
X0125992Y0034491D02*
X0128637Y0034491D01*
X0128637Y0035489D02*
X0125947Y0035489D01*
X0125126Y0036488D02*
X0128637Y0036488D01*
X0128637Y0037486D02*
X0102013Y0037486D01*
X0102013Y0038485D02*
X0128637Y0038485D01*
X0128637Y0039483D02*
X0102013Y0039483D01*
X0102013Y0040482D02*
X0128637Y0040482D01*
X0128637Y0041480D02*
X0102884Y0041480D01*
X0103883Y0042479D02*
X0128637Y0042479D01*
X0128637Y0043477D02*
X0104881Y0043477D01*
X0105880Y0044476D02*
X0128637Y0044476D01*
X0128637Y0045474D02*
X0106878Y0045474D01*
X0107877Y0046473D02*
X0128637Y0046473D01*
X0128637Y0047472D02*
X0108875Y0047472D01*
X0109107Y0048470D02*
X0128637Y0048470D01*
X0128637Y0049469D02*
X0109107Y0049469D01*
X0109107Y0050467D02*
X0128637Y0050467D01*
X0128637Y0051466D02*
X0109107Y0051466D01*
X0109107Y0052464D02*
X0128637Y0052464D01*
X0128637Y0053463D02*
X0109107Y0053463D01*
X0109107Y0054461D02*
X0128637Y0054461D01*
X0128637Y0055460D02*
X0109107Y0055460D01*
X0109107Y0056458D02*
X0128637Y0056458D01*
X0128637Y0057457D02*
X0109107Y0057457D01*
X0109107Y0058455D02*
X0128637Y0058455D01*
X0128637Y0059454D02*
X0109107Y0059454D01*
X0109107Y0060452D02*
X0128637Y0060452D01*
X0128637Y0061451D02*
X0109107Y0061451D01*
X0109107Y0062449D02*
X0128637Y0062449D01*
X0128637Y0063448D02*
X0109107Y0063448D01*
X0109107Y0064446D02*
X0128637Y0064446D01*
X0135850Y0061244D02*
X0139787Y0065181D01*
X0139787Y0068134D01*
X0138311Y0069610D01*
X0138311Y0096185D01*
X0139787Y0097661D01*
X0139787Y0106028D01*
X0141264Y0107504D01*
X0142740Y0110949D02*
X0144709Y0108980D01*
X0144709Y0087819D01*
X0149138Y0083390D01*
X0145693Y0079945D02*
X0158488Y0079945D01*
X0157504Y0076500D02*
X0157504Y0072563D01*
X0157169Y0072406D01*
X0157012Y0072071D01*
X0157012Y0035161D01*
X0159354Y0037486D02*
X0165429Y0037486D01*
X0165054Y0037861D02*
X0166109Y0036806D01*
X0175966Y0036806D01*
X0177020Y0037861D01*
X0177020Y0050164D01*
X0177935Y0051078D01*
X0188747Y0051078D01*
X0190645Y0049180D01*
X0191699Y0048125D01*
X0194497Y0048125D01*
X0191694Y0045322D01*
X0191625Y0045351D01*
X0190312Y0045351D01*
X0189099Y0044849D01*
X0188171Y0043920D01*
X0187669Y0042708D01*
X0187669Y0041395D01*
X0188171Y0040182D01*
X0189099Y0039254D01*
X0190312Y0038751D01*
X0191625Y0038751D01*
X0192838Y0039254D01*
X0193766Y0040182D01*
X0194268Y0041395D01*
X0194268Y0042708D01*
X0194240Y0042777D01*
X0206056Y0054593D01*
X0206056Y0084121D01*
X0207432Y0085497D01*
X0207856Y0084473D01*
X0208784Y0083545D01*
X0209997Y0083043D01*
X0211310Y0083043D01*
X0212523Y0083545D01*
X0213451Y0084473D01*
X0213480Y0084543D01*
X0239342Y0084543D01*
X0239342Y0084210D01*
X0239844Y0082997D01*
X0240772Y0082069D01*
X0241985Y0081566D01*
X0243298Y0081566D01*
X0244511Y0082069D01*
X0245439Y0082997D01*
X0245942Y0084210D01*
X0245942Y0085523D01*
X0245439Y0086735D01*
X0244511Y0087664D01*
X0243410Y0088120D01*
X0243387Y0088143D01*
X0243355Y0088143D01*
X0243298Y0088166D01*
X0241985Y0088166D01*
X0241928Y0088143D01*
X0213480Y0088143D01*
X0213451Y0088212D01*
X0212523Y0089140D01*
X0211499Y0089564D01*
X0223280Y0101345D01*
X0223280Y0127577D01*
X0223604Y0126796D01*
X0224532Y0125868D01*
X0225745Y0125365D01*
X0227058Y0125365D01*
X0228271Y0125868D01*
X0229199Y0126796D01*
X0229702Y0128009D01*
X0229702Y0129322D01*
X0229673Y0129391D01*
X0243879Y0143598D01*
X0254706Y0143598D01*
X0255569Y0144460D01*
X0255830Y0144569D01*
X0256758Y0145497D01*
X0257261Y0146710D01*
X0257261Y0148023D01*
X0256758Y0149235D01*
X0255830Y0150164D01*
X0254617Y0150666D01*
X0253304Y0150666D01*
X0252091Y0150164D01*
X0251163Y0149235D01*
X0250863Y0148511D01*
X0250863Y0149499D01*
X0250361Y0150712D01*
X0249432Y0151640D01*
X0249363Y0151669D01*
X0249363Y0153525D01*
X0248309Y0154580D01*
X0228196Y0174692D01*
X0228225Y0174761D01*
X0228225Y0176074D01*
X0227723Y0177287D01*
X0226794Y0178215D01*
X0225582Y0178717D01*
X0224269Y0178717D01*
X0223280Y0178308D01*
X0223280Y0202738D01*
X0222226Y0203792D01*
X0194737Y0231281D01*
X0194737Y0256218D01*
X0194820Y0256184D01*
X0196590Y0256184D01*
X0197386Y0256514D01*
X0208367Y0245533D01*
X0208338Y0245463D01*
X0208338Y0244151D01*
X0208840Y0242938D01*
X0209768Y0242009D01*
X0210981Y0241507D01*
X0212294Y0241507D01*
X0213507Y0242009D01*
X0214435Y0242938D01*
X0214938Y0244151D01*
X0214938Y0245463D01*
X0214435Y0246676D01*
X0213507Y0247605D01*
X0212294Y0248107D01*
X0210981Y0248107D01*
X0210912Y0248078D01*
X0199887Y0259103D01*
X0200155Y0259749D01*
X0200155Y0261519D01*
X0199477Y0263155D01*
X0198225Y0264406D01*
X0196590Y0265084D01*
X0194820Y0265084D01*
X0193184Y0264406D01*
X0191932Y0263155D01*
X0191255Y0261519D01*
X0191255Y0259749D01*
X0191806Y0258418D01*
X0186065Y0258418D01*
X0186355Y0258708D01*
X0186355Y0260334D01*
X0182005Y0260334D01*
X0182005Y0260934D01*
X0186355Y0260934D01*
X0186355Y0262560D01*
X0183631Y0265284D01*
X0182495Y0265284D01*
X0182856Y0265645D01*
X0234936Y0265645D01*
X0234936Y0174180D01*
X0250689Y0158426D01*
X0250661Y0158357D01*
X0250661Y0157044D01*
X0251163Y0155831D01*
X0252091Y0154903D01*
X0253304Y0154401D01*
X0254617Y0154401D01*
X0255830Y0154903D01*
X0256758Y0155831D01*
X0257261Y0157044D01*
X0257261Y0158357D01*
X0256758Y0159570D01*
X0255830Y0160498D01*
X0254617Y0161001D01*
X0253304Y0161001D01*
X0253235Y0160972D01*
X0238536Y0175671D01*
X0238536Y0182861D01*
X0239525Y0182452D01*
X0240838Y0182452D01*
X0240907Y0182481D01*
X0252161Y0171227D01*
X0252161Y0170370D01*
X0252091Y0170341D01*
X0251163Y0169413D01*
X0250661Y0168200D01*
X0250661Y0166887D01*
X0251163Y0165674D01*
X0252091Y0164746D01*
X0253304Y0164243D01*
X0254617Y0164243D01*
X0255830Y0164746D01*
X0256758Y0165674D01*
X0257261Y0166887D01*
X0257261Y0168200D01*
X0256758Y0169413D01*
X0255830Y0170341D01*
X0255761Y0170370D01*
X0255761Y0172718D01*
X0254706Y0173772D01*
X0243452Y0185026D01*
X0243481Y0185096D01*
X0243481Y0186408D01*
X0242979Y0187621D01*
X0242050Y0188550D01*
X0240838Y0189052D01*
X0239525Y0189052D01*
X0238536Y0188643D01*
X0238536Y0256919D01*
X0240610Y0254845D01*
X0244296Y0254845D01*
X0246903Y0257452D01*
X0246903Y0261139D01*
X0244296Y0263745D01*
X0240610Y0263745D01*
X0240565Y0263701D01*
X0240505Y0263761D01*
X0240505Y0269175D01*
X0239520Y0270159D01*
X0238466Y0271213D01*
X0150853Y0271213D01*
X0149798Y0270159D01*
X0149798Y0267198D01*
X0148538Y0268459D01*
X0146296Y0269387D01*
X0143869Y0269387D01*
X0141627Y0268459D01*
X0139911Y0266743D01*
X0138983Y0264501D01*
X0138983Y0262074D01*
X0139911Y0259832D01*
X0141627Y0258116D01*
X0143628Y0257287D01*
X0141627Y0256459D01*
X0139911Y0254743D01*
X0138983Y0252501D01*
X0138983Y0250074D01*
X0139911Y0247832D01*
X0141627Y0246116D01*
X0143869Y0245187D01*
X0146296Y0245187D01*
X0148538Y0246116D01*
X0149798Y0247376D01*
X0149798Y0240631D01*
X0089337Y0180170D01*
X0088438Y0179271D01*
X0088438Y0242600D01*
X0088076Y0242962D01*
X0088076Y0246054D01*
X0087433Y0246697D01*
X0088076Y0247339D01*
X0088076Y0250766D01*
X0094818Y0257509D01*
X0094818Y0253509D01*
X0093127Y0253509D01*
X0092365Y0252747D01*
X0092365Y0247339D01*
X0093008Y0246697D01*
X0092365Y0246054D01*
X0092365Y0240647D01*
X0093127Y0239885D01*
X0096888Y0239885D01*
X0101570Y0235203D01*
X0101570Y0213185D01*
X0101501Y0213156D01*
X0100572Y0212228D01*
X0100070Y0211015D01*
X0100070Y0209702D01*
X0100572Y0208489D01*
X0101501Y0207561D01*
X0102714Y0207058D01*
X0103711Y0207058D01*
X0103515Y0206586D01*
X0103515Y0205273D01*
X0104017Y0204060D01*
X0104946Y0203132D01*
X0106159Y0202629D01*
X0107471Y0202629D01*
X0108684Y0203132D01*
X0109613Y0204060D01*
X0110115Y0205273D01*
X0110115Y0206586D01*
X0109613Y0207798D01*
X0108684Y0208727D01*
X0108615Y0208755D01*
X0108615Y0239885D01*
X0109164Y0239885D01*
X0109926Y0240647D01*
X0109926Y0246054D01*
X0109283Y0246697D01*
X0109926Y0247339D01*
X0109926Y0252747D01*
X0109164Y0253509D01*
X0105738Y0253509D01*
X0100977Y0258269D01*
X0100977Y0262835D01*
X0101736Y0262835D01*
X0101736Y0263356D01*
X0101736Y0263356D01*
X0101736Y0262835D01*
X0102721Y0262835D01*
X0102912Y0262886D01*
X0105326Y0262886D01*
X0107595Y0263826D01*
X0109332Y0265562D01*
X0110272Y0267831D01*
X0110272Y0270287D01*
X0109332Y0272556D01*
X0109167Y0272720D01*
X0119816Y0272720D01*
X0120197Y0272823D01*
X0120539Y0273020D01*
X0120818Y0273299D01*
X0121016Y0273641D01*
X0121118Y0274023D01*
X0121118Y0277220D01*
X0097118Y0277220D01*
X0097118Y0278220D01*
X0121118Y0278220D01*
X0121118Y0281418D01*
X0121036Y0281724D01*
X0363122Y0281724D01*
X0363701Y0281582D01*
X0365303Y0280833D01*
X0366657Y0279695D01*
X0367670Y0278245D01*
X0367704Y0278154D01*
X0306326Y0278154D01*
X0305099Y0278399D01*
X0301632Y0277992D01*
X0301632Y0277992D01*
X0298459Y0276534D01*
X0295893Y0274166D01*
X0294184Y0271122D01*
X0294184Y0271122D01*
X0293937Y0269890D01*
X0293744Y0269424D01*
X0293744Y0268924D01*
X0293646Y0268434D01*
X0293744Y0267939D01*
X0293744Y0266233D01*
X0293609Y0264206D01*
X0294686Y0259944D01*
X0297028Y0256224D01*
X0297028Y0256224D01*
X0300405Y0253409D01*
X0304486Y0251775D01*
X0305858Y0251684D01*
X0306017Y0251618D01*
X0306845Y0251618D01*
X0307672Y0251563D01*
X0307834Y0251618D01*
X0357253Y0251618D01*
X0357102Y0251253D01*
X0356953Y0250504D01*
X0356953Y0250311D01*
X0360642Y0250311D01*
X0360642Y0249933D01*
X0361020Y0249933D01*
X0361020Y0250311D01*
X0364709Y0250311D01*
X0364709Y0250504D01*
X0364560Y0251253D01*
X0364408Y0251618D01*
X0367760Y0251618D01*
X0367760Y0240752D01*
X0364029Y0240752D01*
X0364509Y0241910D01*
X0364509Y0243373D01*
X0363949Y0244725D01*
X0362914Y0245760D01*
X0361572Y0246316D01*
X0361962Y0246393D01*
X0362668Y0246685D01*
X0363303Y0247110D01*
X0363843Y0247650D01*
X0364267Y0248285D01*
X0364560Y0248991D01*
X0364709Y0249740D01*
X0364709Y0249933D01*
X0361020Y0249933D01*
X0361020Y0246320D01*
X0360642Y0246320D01*
X0360642Y0249933D01*
X0356953Y0249933D01*
X0356953Y0249740D01*
X0357102Y0248991D01*
X0357394Y0248285D01*
X0357819Y0247650D01*
X0358359Y0247110D01*
X0358994Y0246685D01*
X0359700Y0246393D01*
X0360089Y0246316D01*
X0359605Y0246115D01*
X0334543Y0246115D01*
X0334514Y0246184D01*
X0333586Y0247113D01*
X0332373Y0247615D01*
X0331060Y0247615D01*
X0329847Y0247113D01*
X0328919Y0246184D01*
X0328890Y0246115D01*
X0297506Y0246115D01*
X0296452Y0245061D01*
X0282738Y0231346D01*
X0282668Y0231375D01*
X0281355Y0231375D01*
X0280143Y0230872D01*
X0279214Y0229944D01*
X0278712Y0228731D01*
X0278712Y0227418D01*
X0279214Y0226205D01*
X0280143Y0225277D01*
X0281355Y0224775D01*
X0282668Y0224775D01*
X0283881Y0225277D01*
X0284809Y0226205D01*
X0293744Y0226205D01*
X0293744Y0226972D02*
X0293744Y0223083D01*
X0295004Y0219205D01*
X0295004Y0219205D01*
X0297401Y0215905D01*
X0297401Y0215905D01*
X0297401Y0215905D01*
X0300701Y0213508D01*
X0304579Y0212248D01*
X0369047Y0212248D01*
X0369047Y0051894D01*
X0368915Y0048855D01*
X0367859Y0042869D01*
X0365780Y0037157D01*
X0362741Y0031893D01*
X0358834Y0027237D01*
X0354178Y0023330D01*
X0348914Y0020291D01*
X0343202Y0018212D01*
X0337216Y0017156D01*
X0334177Y0017024D01*
X0184235Y0017024D01*
X0190800Y0023589D01*
X0190800Y0027926D01*
X0190804Y0027924D01*
X0192117Y0027924D01*
X0193330Y0028427D01*
X0194258Y0029355D01*
X0194761Y0030568D01*
X0194761Y0031881D01*
X0194258Y0033094D01*
X0193330Y0034022D01*
X0192117Y0034524D01*
X0190804Y0034524D01*
X0189591Y0034022D01*
X0188663Y0033094D01*
X0188197Y0031968D01*
X0188197Y0035320D01*
X0188095Y0035701D01*
X0187897Y0036043D01*
X0187618Y0036322D01*
X0187276Y0036520D01*
X0186894Y0036622D01*
X0184441Y0036622D01*
X0184441Y0031685D01*
X0183441Y0031685D01*
X0183441Y0036622D01*
X0180988Y0036622D01*
X0180606Y0036520D01*
X0180264Y0036322D01*
X0179985Y0036043D01*
X0179787Y0035701D01*
X0179685Y0035320D01*
X0179685Y0031685D01*
X0183441Y0031685D01*
X0183441Y0030685D01*
X0184441Y0030685D01*
X0184441Y0025748D01*
X0186894Y0025748D01*
X0187200Y0025830D01*
X0187200Y0025080D01*
X0181365Y0019245D01*
X0155367Y0019245D01*
X0155367Y0027350D01*
X0156355Y0026940D01*
X0157668Y0026940D01*
X0158881Y0027443D01*
X0159809Y0028371D01*
X0160312Y0029584D01*
X0160312Y0030897D01*
X0159809Y0032109D01*
X0159218Y0032701D01*
X0159809Y0033292D01*
X0160312Y0034505D01*
X0160312Y0035818D01*
X0159809Y0037031D01*
X0158881Y0037959D01*
X0158812Y0037988D01*
X0158812Y0055269D01*
X0159572Y0054509D01*
X0160785Y0054007D01*
X0162097Y0054007D01*
X0163310Y0054509D01*
X0164239Y0055438D01*
X0164741Y0056651D01*
X0164741Y0057963D01*
X0164239Y0059176D01*
X0163310Y0060105D01*
X0163241Y0060133D01*
X0163241Y0068350D01*
X0163416Y0068350D01*
X0163524Y0068457D01*
X0163532Y0068449D01*
X0163874Y0068252D01*
X0164255Y0068150D01*
X0165642Y0068150D01*
X0165642Y0072216D01*
X0166020Y0072216D01*
X0166020Y0068150D01*
X0167406Y0068150D01*
X0167788Y0068252D01*
X0168130Y0068449D01*
X0168137Y0068457D01*
X0168245Y0068350D01*
X0168991Y0068350D01*
X0168991Y0051339D01*
X0168003Y0051749D01*
X0166690Y0051749D01*
X0165477Y0051246D01*
X0164549Y0050318D01*
X0164046Y0049105D01*
X0164046Y0047792D01*
X0164075Y0047723D01*
X0163086Y0046734D01*
X0163086Y0039829D01*
X0165054Y0037861D01*
X0164430Y0038485D02*
X0158812Y0038485D01*
X0158812Y0039483D02*
X0163432Y0039483D01*
X0163086Y0040482D02*
X0158812Y0040482D01*
X0158812Y0041480D02*
X0163086Y0041480D01*
X0163086Y0042479D02*
X0158812Y0042479D01*
X0158812Y0043477D02*
X0163086Y0043477D01*
X0163086Y0044476D02*
X0158812Y0044476D01*
X0158812Y0045474D02*
X0163086Y0045474D01*
X0163086Y0046473D02*
X0158812Y0046473D01*
X0158812Y0047472D02*
X0163824Y0047472D01*
X0164046Y0048470D02*
X0158812Y0048470D01*
X0158812Y0049469D02*
X0164197Y0049469D01*
X0164698Y0050467D02*
X0158812Y0050467D01*
X0158812Y0051466D02*
X0166006Y0051466D01*
X0168687Y0051466D02*
X0168991Y0051466D01*
X0168991Y0052464D02*
X0158812Y0052464D01*
X0158812Y0053463D02*
X0168991Y0053463D01*
X0168991Y0054461D02*
X0163193Y0054461D01*
X0162917Y0053862D02*
X0165378Y0056323D01*
X0165378Y0072071D01*
X0165831Y0072406D01*
X0165870Y0072563D01*
X0167346Y0074039D01*
X0167346Y0076008D01*
X0167839Y0076500D01*
X0182110Y0076500D01*
X0182110Y0071087D01*
X0184079Y0069118D01*
X0184177Y0068980D01*
X0184677Y0069439D02*
X0191629Y0069439D01*
X0191629Y0070356D02*
X0191629Y0065912D01*
X0192121Y0065420D01*
X0192121Y0056196D01*
X0192052Y0056168D01*
X0191124Y0055239D01*
X0190891Y0054678D01*
X0176443Y0054678D01*
X0175389Y0053624D01*
X0173420Y0051655D01*
X0173420Y0040406D01*
X0171221Y0040406D01*
X0171631Y0041395D01*
X0171631Y0042708D01*
X0171602Y0042777D01*
X0172591Y0043766D01*
X0172591Y0068350D01*
X0172928Y0068350D01*
X0172928Y0064436D01*
X0173983Y0063381D01*
X0174902Y0062462D01*
X0174873Y0062393D01*
X0174873Y0061080D01*
X0175376Y0059867D01*
X0176304Y0058939D01*
X0177517Y0058436D01*
X0178830Y0058436D01*
X0180043Y0058939D01*
X0180971Y0059867D01*
X0181062Y0060086D01*
X0181717Y0059431D01*
X0182930Y0058928D01*
X0184243Y0058928D01*
X0185456Y0059431D01*
X0186384Y0060359D01*
X0186887Y0061572D01*
X0186887Y0062885D01*
X0186384Y0064098D01*
X0185757Y0064724D01*
X0186894Y0064724D01*
X0187276Y0064827D01*
X0187618Y0065024D01*
X0187897Y0065303D01*
X0188095Y0065645D01*
X0188197Y0066027D01*
X0188197Y0068480D01*
X0184677Y0068480D01*
X0184677Y0069480D01*
X0188197Y0069480D01*
X0188197Y0071934D01*
X0188147Y0072118D01*
X0188409Y0072226D01*
X0189337Y0073154D01*
X0189839Y0074367D01*
X0189839Y0075169D01*
X0190641Y0075169D01*
X0191854Y0075671D01*
X0192121Y0075939D01*
X0192121Y0070848D01*
X0191629Y0070356D01*
X0191711Y0070437D02*
X0188197Y0070437D01*
X0188197Y0071436D02*
X0192121Y0071436D01*
X0192121Y0072434D02*
X0188617Y0072434D01*
X0189452Y0073433D02*
X0192121Y0073433D01*
X0192121Y0074431D02*
X0189839Y0074431D01*
X0191272Y0075430D02*
X0192121Y0075430D01*
X0189984Y0078469D02*
X0173252Y0095201D01*
X0161933Y0095201D01*
X0161933Y0083390D01*
X0166362Y0083390D01*
X0169662Y0083418D02*
X0175599Y0083418D01*
X0174601Y0084416D02*
X0169509Y0084416D01*
X0169662Y0084046D02*
X0169160Y0085259D01*
X0168231Y0086187D01*
X0167019Y0086690D01*
X0165706Y0086690D01*
X0164493Y0086187D01*
X0163733Y0085427D01*
X0163733Y0093401D01*
X0166917Y0093401D01*
X0166507Y0092412D01*
X0166507Y0091099D01*
X0167009Y0089887D01*
X0167938Y0088958D01*
X0169151Y0088456D01*
X0170463Y0088456D01*
X0170533Y0088485D01*
X0183268Y0075749D01*
X0183239Y0075680D01*
X0183239Y0074367D01*
X0183742Y0073154D01*
X0184670Y0072226D01*
X0184677Y0072223D01*
X0184677Y0069480D01*
X0183677Y0069480D01*
X0183677Y0073236D01*
X0181501Y0073236D01*
X0181501Y0075700D01*
X0180739Y0076461D01*
X0176906Y0076461D01*
X0176657Y0076212D01*
X0176409Y0076461D01*
X0172576Y0076461D01*
X0172327Y0076212D01*
X0172078Y0076461D01*
X0168245Y0076461D01*
X0168137Y0076354D01*
X0168130Y0076362D01*
X0167788Y0076559D01*
X0167406Y0076661D01*
X0166020Y0076661D01*
X0166020Y0072595D01*
X0165642Y0072595D01*
X0165642Y0076661D01*
X0164255Y0076661D01*
X0163874Y0076559D01*
X0163532Y0076362D01*
X0163524Y0076354D01*
X0163416Y0076461D01*
X0162472Y0076461D01*
X0163733Y0077723D01*
X0163733Y0081352D01*
X0164493Y0080592D01*
X0165706Y0080090D01*
X0167019Y0080090D01*
X0168231Y0080592D01*
X0169160Y0081520D01*
X0169662Y0082733D01*
X0169662Y0084046D01*
X0169004Y0085415D02*
X0173602Y0085415D01*
X0172604Y0086413D02*
X0167686Y0086413D01*
X0165039Y0086413D02*
X0163733Y0086413D01*
X0163733Y0087412D02*
X0171605Y0087412D01*
X0170607Y0088410D02*
X0163733Y0088410D01*
X0163733Y0089409D02*
X0167487Y0089409D01*
X0166794Y0090408D02*
X0163733Y0090408D01*
X0163733Y0091406D02*
X0166507Y0091406D01*
X0166507Y0092405D02*
X0163733Y0092405D01*
X0169807Y0091756D02*
X0186539Y0075024D01*
X0183626Y0073433D02*
X0181501Y0073433D01*
X0181501Y0074431D02*
X0183239Y0074431D01*
X0183239Y0075430D02*
X0181501Y0075430D01*
X0180772Y0076428D02*
X0182589Y0076428D01*
X0181591Y0077427D02*
X0163437Y0077427D01*
X0163449Y0076428D02*
X0163647Y0076428D01*
X0165642Y0076428D02*
X0166020Y0076428D01*
X0166020Y0075430D02*
X0165642Y0075430D01*
X0165642Y0074431D02*
X0166020Y0074431D01*
X0166020Y0073433D02*
X0165642Y0073433D01*
X0165642Y0071436D02*
X0166020Y0071436D01*
X0166020Y0070437D02*
X0165642Y0070437D01*
X0165642Y0069439D02*
X0166020Y0069439D01*
X0166020Y0068440D02*
X0165642Y0068440D01*
X0163547Y0068440D02*
X0163507Y0068440D01*
X0163241Y0067442D02*
X0168991Y0067442D01*
X0168991Y0066443D02*
X0163241Y0066443D01*
X0163241Y0065445D02*
X0168991Y0065445D01*
X0168991Y0064446D02*
X0163241Y0064446D01*
X0163241Y0063448D02*
X0168991Y0063448D01*
X0168991Y0062449D02*
X0163241Y0062449D01*
X0163241Y0061451D02*
X0168991Y0061451D01*
X0168991Y0060452D02*
X0163241Y0060452D01*
X0163961Y0059454D02*
X0168991Y0059454D01*
X0168991Y0058455D02*
X0164537Y0058455D01*
X0164741Y0057457D02*
X0168991Y0057457D01*
X0168991Y0056458D02*
X0164661Y0056458D01*
X0164248Y0055460D02*
X0168991Y0055460D01*
X0172591Y0055460D02*
X0191344Y0055460D01*
X0192121Y0056458D02*
X0172591Y0056458D01*
X0172591Y0057457D02*
X0192121Y0057457D01*
X0192121Y0058455D02*
X0178875Y0058455D01*
X0177471Y0058455D02*
X0172591Y0058455D01*
X0172591Y0059454D02*
X0175789Y0059454D01*
X0175133Y0060452D02*
X0172591Y0060452D01*
X0172591Y0061451D02*
X0174873Y0061451D01*
X0174897Y0062449D02*
X0172591Y0062449D01*
X0172591Y0063448D02*
X0173916Y0063448D01*
X0172928Y0064446D02*
X0172591Y0064446D01*
X0172591Y0065445D02*
X0172928Y0065445D01*
X0172928Y0066443D02*
X0172591Y0066443D01*
X0172591Y0067442D02*
X0172928Y0067442D01*
X0174728Y0065181D02*
X0174728Y0072071D01*
X0174492Y0072406D01*
X0170791Y0071579D02*
X0170299Y0072071D01*
X0170161Y0072406D01*
X0170791Y0071579D02*
X0170791Y0044512D01*
X0168331Y0042051D01*
X0171253Y0040482D02*
X0173420Y0040482D01*
X0173420Y0041480D02*
X0171631Y0041480D01*
X0171631Y0042479D02*
X0173420Y0042479D01*
X0173420Y0043477D02*
X0172303Y0043477D01*
X0172591Y0044476D02*
X0173420Y0044476D01*
X0173420Y0045474D02*
X0172591Y0045474D01*
X0172591Y0046473D02*
X0173420Y0046473D01*
X0173420Y0047472D02*
X0172591Y0047472D01*
X0172591Y0048470D02*
X0173420Y0048470D01*
X0173420Y0049469D02*
X0172591Y0049469D01*
X0172591Y0050467D02*
X0173420Y0050467D01*
X0173420Y0051466D02*
X0172591Y0051466D01*
X0172591Y0052464D02*
X0174230Y0052464D01*
X0175228Y0053463D02*
X0172591Y0053463D01*
X0172591Y0054461D02*
X0176227Y0054461D01*
X0177189Y0052878D02*
X0190476Y0052878D01*
X0190476Y0051894D01*
X0192445Y0049925D01*
X0195890Y0049925D01*
X0195890Y0050417D01*
X0202287Y0056815D01*
X0202287Y0089295D01*
X0187524Y0104059D01*
X0155535Y0104059D01*
X0151106Y0098154D02*
X0151106Y0128665D01*
X0135850Y0143921D01*
X0135850Y0195102D01*
X0156520Y0215772D01*
X0156520Y0224630D01*
X0185063Y0253173D01*
X0186539Y0253173D01*
X0182005Y0256105D02*
X0135527Y0209627D01*
X0135527Y0200277D01*
X0128210Y0192960D01*
X0128141Y0192989D01*
X0126828Y0192989D01*
X0126331Y0192783D01*
X0126331Y0198309D01*
X0124358Y0200282D01*
X0124387Y0200351D01*
X0124387Y0201664D01*
X0123884Y0202877D01*
X0122956Y0203805D01*
X0121743Y0204308D01*
X0121519Y0204308D01*
X0177055Y0259844D01*
X0177055Y0258708D01*
X0179779Y0255984D01*
X0181405Y0255984D01*
X0181405Y0260334D01*
X0182005Y0260334D01*
X0182005Y0256105D01*
X0182005Y0256160D02*
X0181405Y0256160D01*
X0181405Y0257159D02*
X0182005Y0257159D01*
X0182005Y0258157D02*
X0181405Y0258157D01*
X0181405Y0259156D02*
X0182005Y0259156D01*
X0182005Y0260154D02*
X0181405Y0260154D01*
X0181705Y0260634D02*
X0182110Y0261047D01*
X0190969Y0261047D01*
X0190969Y0262524D01*
X0193921Y0265476D01*
X0215083Y0265476D01*
X0215083Y0219217D01*
X0210797Y0215221D02*
X0234936Y0215221D01*
X0234936Y0214223D02*
X0211795Y0214223D01*
X0212794Y0213224D02*
X0234936Y0213224D01*
X0234936Y0212226D02*
X0213792Y0212226D01*
X0214791Y0211227D02*
X0234936Y0211227D01*
X0234936Y0210229D02*
X0215789Y0210229D01*
X0216788Y0209230D02*
X0234936Y0209230D01*
X0234936Y0208232D02*
X0217786Y0208232D01*
X0218785Y0207233D02*
X0234936Y0207233D01*
X0234936Y0206235D02*
X0219783Y0206235D01*
X0220782Y0205236D02*
X0234936Y0205236D01*
X0234936Y0204238D02*
X0221780Y0204238D01*
X0222779Y0203239D02*
X0234936Y0203239D01*
X0234936Y0202241D02*
X0223280Y0202241D01*
X0223280Y0201242D02*
X0234936Y0201242D01*
X0234936Y0200244D02*
X0223280Y0200244D01*
X0223280Y0199245D02*
X0234936Y0199245D01*
X0234936Y0198247D02*
X0223280Y0198247D01*
X0223280Y0197248D02*
X0234936Y0197248D01*
X0234936Y0196250D02*
X0223280Y0196250D01*
X0223280Y0195251D02*
X0234936Y0195251D01*
X0234936Y0194253D02*
X0223280Y0194253D01*
X0223280Y0193254D02*
X0234936Y0193254D01*
X0234936Y0192256D02*
X0223280Y0192256D01*
X0223280Y0191257D02*
X0234936Y0191257D01*
X0234936Y0190259D02*
X0223280Y0190259D01*
X0223280Y0189260D02*
X0234936Y0189260D01*
X0234936Y0188262D02*
X0223280Y0188262D01*
X0223280Y0187263D02*
X0234936Y0187263D01*
X0234936Y0186265D02*
X0223280Y0186265D01*
X0223280Y0185266D02*
X0234936Y0185266D01*
X0234936Y0184268D02*
X0223280Y0184268D01*
X0223280Y0183269D02*
X0234936Y0183269D01*
X0234936Y0182271D02*
X0223280Y0182271D01*
X0223280Y0181272D02*
X0234936Y0181272D01*
X0234936Y0180274D02*
X0223280Y0180274D01*
X0223280Y0179275D02*
X0234936Y0179275D01*
X0234936Y0178277D02*
X0226646Y0178277D01*
X0227726Y0177278D02*
X0234936Y0177278D01*
X0234936Y0176279D02*
X0228140Y0176279D01*
X0228225Y0175281D02*
X0234936Y0175281D01*
X0234936Y0174282D02*
X0228606Y0174282D01*
X0229604Y0173284D02*
X0235832Y0173284D01*
X0236830Y0172285D02*
X0230603Y0172285D01*
X0231601Y0171287D02*
X0237829Y0171287D01*
X0238827Y0170288D02*
X0232600Y0170288D01*
X0233598Y0169290D02*
X0239826Y0169290D01*
X0240824Y0168291D02*
X0234597Y0168291D01*
X0235595Y0167293D02*
X0241823Y0167293D01*
X0242821Y0166294D02*
X0236594Y0166294D01*
X0237592Y0165296D02*
X0243820Y0165296D01*
X0244818Y0164297D02*
X0238591Y0164297D01*
X0239589Y0163299D02*
X0245817Y0163299D01*
X0246816Y0162300D02*
X0240588Y0162300D01*
X0241586Y0161302D02*
X0247814Y0161302D01*
X0248813Y0160303D02*
X0242585Y0160303D01*
X0243583Y0159305D02*
X0249811Y0159305D01*
X0250661Y0158306D02*
X0244582Y0158306D01*
X0245580Y0157308D02*
X0250661Y0157308D01*
X0250965Y0156309D02*
X0246579Y0156309D01*
X0247577Y0155311D02*
X0251684Y0155311D01*
X0249363Y0153314D02*
X0288706Y0153314D01*
X0289001Y0153609D02*
X0288072Y0152680D01*
X0287570Y0151467D01*
X0287570Y0150155D01*
X0288072Y0148942D01*
X0289001Y0148013D01*
X0290214Y0147511D01*
X0291526Y0147511D01*
X0292739Y0148013D01*
X0293668Y0148942D01*
X0294170Y0150155D01*
X0294170Y0151467D01*
X0294141Y0151537D01*
X0294814Y0152210D01*
X0295869Y0153264D01*
X0297034Y0154429D01*
X0297103Y0154401D01*
X0298416Y0154401D01*
X0299629Y0154903D01*
X0300557Y0155831D01*
X0301060Y0157044D01*
X0301060Y0158357D01*
X0300557Y0159570D01*
X0299629Y0160498D01*
X0298416Y0161001D01*
X0297103Y0161001D01*
X0295891Y0160498D01*
X0295623Y0160231D01*
X0295623Y0163198D01*
X0296522Y0162298D01*
X0300839Y0162298D01*
X0300868Y0162229D01*
X0301796Y0161301D01*
X0303009Y0160798D01*
X0304322Y0160798D01*
X0305310Y0161208D01*
X0305310Y0154495D01*
X0306365Y0153440D01*
X0307776Y0152029D01*
X0307747Y0151960D01*
X0307747Y0150647D01*
X0308250Y0149434D01*
X0309178Y0148506D01*
X0310391Y0148003D01*
X0311704Y0148003D01*
X0312917Y0148506D01*
X0313845Y0149434D01*
X0314347Y0150647D01*
X0314347Y0151960D01*
X0313845Y0153172D01*
X0312917Y0154101D01*
X0311704Y0154603D01*
X0310391Y0154603D01*
X0310322Y0154574D01*
X0308910Y0155986D01*
X0308910Y0166813D01*
X0303582Y0172141D01*
X0310682Y0172141D01*
X0310710Y0172072D01*
X0311639Y0171143D01*
X0312851Y0170641D01*
X0314164Y0170641D01*
X0315377Y0171143D01*
X0316305Y0172072D01*
X0316808Y0173285D01*
X0316808Y0174597D01*
X0316305Y0175810D01*
X0315377Y0176739D01*
X0314164Y0177241D01*
X0312851Y0177241D01*
X0311639Y0176739D01*
X0310710Y0175810D01*
X0310682Y0175741D01*
X0303989Y0175741D01*
X0303989Y0177639D01*
X0300082Y0181546D01*
X0301106Y0181970D01*
X0302034Y0182898D01*
X0302063Y0182968D01*
X0304776Y0182968D01*
X0304805Y0182898D01*
X0305733Y0181970D01*
X0306946Y0181468D01*
X0308259Y0181468D01*
X0309472Y0181970D01*
X0310400Y0182898D01*
X0310902Y0184111D01*
X0310902Y0185424D01*
X0310400Y0186637D01*
X0309472Y0187565D01*
X0308259Y0188068D01*
X0306946Y0188068D01*
X0305733Y0187565D01*
X0304805Y0186637D01*
X0304776Y0186568D01*
X0302063Y0186568D01*
X0302034Y0186637D01*
X0301106Y0187565D01*
X0299893Y0188068D01*
X0298580Y0188068D01*
X0297367Y0187565D01*
X0296439Y0186637D01*
X0296015Y0185614D01*
X0295131Y0186498D01*
X0295131Y0199166D01*
X0295200Y0199195D01*
X0296128Y0200123D01*
X0296552Y0201146D01*
X0311221Y0186478D01*
X0311192Y0186408D01*
X0311192Y0185096D01*
X0311695Y0183883D01*
X0312623Y0182954D01*
X0313836Y0182452D01*
X0315149Y0182452D01*
X0316361Y0182954D01*
X0317290Y0183883D01*
X0317792Y0185096D01*
X0317792Y0186408D01*
X0317290Y0187621D01*
X0316361Y0188550D01*
X0315149Y0189052D01*
X0313836Y0189052D01*
X0313766Y0189023D01*
X0295126Y0207664D01*
X0295154Y0207733D01*
X0295154Y0209046D01*
X0294652Y0210259D01*
X0293724Y0211187D01*
X0292511Y0211690D01*
X0291198Y0211690D01*
X0289985Y0211187D01*
X0289057Y0210259D01*
X0288554Y0209046D01*
X0288554Y0207733D01*
X0289057Y0206520D01*
X0289985Y0205592D01*
X0291198Y0205090D01*
X0292186Y0205090D01*
X0291461Y0204790D01*
X0290533Y0203861D01*
X0290031Y0202649D01*
X0290031Y0201336D01*
X0290533Y0200123D01*
X0291461Y0199195D01*
X0291531Y0199166D01*
X0291531Y0185006D01*
X0292585Y0183952D01*
X0292585Y0183952D01*
X0300389Y0176148D01*
X0300389Y0175334D01*
X0272980Y0202743D01*
X0273009Y0202812D01*
X0273009Y0204125D01*
X0272506Y0205338D01*
X0271578Y0206266D01*
X0270365Y0206768D01*
X0269052Y0206768D01*
X0267839Y0206266D01*
X0266911Y0205338D01*
X0266409Y0204125D01*
X0266409Y0202812D01*
X0266911Y0201599D01*
X0267839Y0200671D01*
X0269052Y0200169D01*
X0270365Y0200169D01*
X0270434Y0200197D01*
X0294649Y0175982D01*
X0293987Y0176257D01*
X0292674Y0176257D01*
X0291461Y0175754D01*
X0290533Y0174826D01*
X0290031Y0173613D01*
X0290031Y0172300D01*
X0290533Y0171087D01*
X0291461Y0170159D01*
X0292023Y0169927D01*
X0292023Y0155001D01*
X0292023Y0154509D01*
X0291596Y0154082D01*
X0291526Y0154111D01*
X0290214Y0154111D01*
X0289001Y0153609D01*
X0287921Y0152315D02*
X0249363Y0152315D01*
X0249756Y0151317D02*
X0287570Y0151317D01*
X0287570Y0150318D02*
X0255457Y0150318D01*
X0256674Y0149320D02*
X0287916Y0149320D01*
X0288693Y0148321D02*
X0257137Y0148321D01*
X0257261Y0147323D02*
X0311750Y0147323D01*
X0312131Y0147703D02*
X0311202Y0146775D01*
X0310700Y0145562D01*
X0310700Y0144249D01*
X0311202Y0143036D01*
X0312131Y0142108D01*
X0313344Y0141606D01*
X0314656Y0141606D01*
X0315869Y0142108D01*
X0316798Y0143036D01*
X0317300Y0144249D01*
X0317300Y0145562D01*
X0317271Y0145631D01*
X0324593Y0152953D01*
X0324662Y0152924D01*
X0325975Y0152924D01*
X0327188Y0153427D01*
X0328116Y0154355D01*
X0328619Y0155568D01*
X0328619Y0156881D01*
X0328116Y0158094D01*
X0327188Y0159022D01*
X0325975Y0159524D01*
X0324662Y0159524D01*
X0323450Y0159022D01*
X0322521Y0158094D01*
X0322019Y0156881D01*
X0322019Y0155568D01*
X0322048Y0155499D01*
X0314726Y0148177D01*
X0314656Y0148205D01*
X0313344Y0148205D01*
X0312131Y0147703D01*
X0312471Y0148321D02*
X0314870Y0148321D01*
X0315869Y0149320D02*
X0313731Y0149320D01*
X0314211Y0150318D02*
X0316867Y0150318D01*
X0317866Y0151317D02*
X0314347Y0151317D01*
X0314200Y0152315D02*
X0318864Y0152315D01*
X0319863Y0153314D02*
X0313704Y0153314D01*
X0312406Y0154312D02*
X0320861Y0154312D01*
X0321860Y0155311D02*
X0309585Y0155311D01*
X0308910Y0156309D02*
X0322019Y0156309D01*
X0322196Y0157308D02*
X0308910Y0157308D01*
X0308910Y0158306D02*
X0322734Y0158306D01*
X0324132Y0159305D02*
X0308910Y0159305D01*
X0308910Y0160303D02*
X0369047Y0160303D01*
X0369047Y0159305D02*
X0326505Y0159305D01*
X0327904Y0158306D02*
X0369047Y0158306D01*
X0369047Y0157308D02*
X0328442Y0157308D01*
X0328619Y0156309D02*
X0369047Y0156309D01*
X0369047Y0155311D02*
X0328512Y0155311D01*
X0328074Y0154312D02*
X0369047Y0154312D01*
X0369047Y0153314D02*
X0326915Y0153314D01*
X0323955Y0152315D02*
X0369047Y0152315D01*
X0369047Y0151317D02*
X0322957Y0151317D01*
X0321958Y0150318D02*
X0369047Y0150318D01*
X0369047Y0149320D02*
X0320960Y0149320D01*
X0319961Y0148321D02*
X0369047Y0148321D01*
X0369047Y0147323D02*
X0318963Y0147323D01*
X0317964Y0146324D02*
X0369047Y0146324D01*
X0369047Y0145326D02*
X0317300Y0145326D01*
X0317300Y0144327D02*
X0369047Y0144327D01*
X0369047Y0143329D02*
X0316919Y0143329D01*
X0316091Y0142330D02*
X0369047Y0142330D01*
X0369047Y0141332D02*
X0241613Y0141332D01*
X0242612Y0142330D02*
X0311909Y0142330D01*
X0311081Y0143329D02*
X0243610Y0143329D01*
X0243134Y0145398D02*
X0253961Y0145398D01*
X0253961Y0147366D01*
X0257101Y0146324D02*
X0311016Y0146324D01*
X0310700Y0145326D02*
X0256587Y0145326D01*
X0255436Y0144327D02*
X0310700Y0144327D01*
X0314000Y0144906D02*
X0325319Y0156224D01*
X0311047Y0151303D02*
X0307110Y0155240D01*
X0307110Y0166067D01*
X0269709Y0203469D01*
X0266645Y0202241D02*
X0238536Y0202241D01*
X0238536Y0203239D02*
X0266409Y0203239D01*
X0266455Y0204238D02*
X0238536Y0204238D01*
X0238536Y0205236D02*
X0266869Y0205236D01*
X0267808Y0206235D02*
X0238536Y0206235D01*
X0238536Y0207233D02*
X0288761Y0207233D01*
X0288554Y0208232D02*
X0238536Y0208232D01*
X0238536Y0209230D02*
X0288631Y0209230D01*
X0289044Y0210229D02*
X0238536Y0210229D01*
X0238536Y0211227D02*
X0290082Y0211227D01*
X0291854Y0208390D02*
X0314492Y0185752D01*
X0312308Y0183269D02*
X0310553Y0183269D01*
X0310902Y0184268D02*
X0311535Y0184268D01*
X0311192Y0185266D02*
X0310902Y0185266D01*
X0311192Y0186265D02*
X0310554Y0186265D01*
X0310435Y0187263D02*
X0309774Y0187263D01*
X0309437Y0188262D02*
X0295131Y0188262D01*
X0295131Y0189260D02*
X0308438Y0189260D01*
X0307440Y0190259D02*
X0295131Y0190259D01*
X0295131Y0191257D02*
X0306441Y0191257D01*
X0305443Y0192256D02*
X0295131Y0192256D01*
X0295131Y0193254D02*
X0304444Y0193254D01*
X0303446Y0194253D02*
X0295131Y0194253D01*
X0295131Y0195251D02*
X0302447Y0195251D01*
X0301449Y0196250D02*
X0295131Y0196250D01*
X0295131Y0197248D02*
X0300450Y0197248D01*
X0299452Y0198247D02*
X0295131Y0198247D01*
X0295251Y0199245D02*
X0298453Y0199245D01*
X0297455Y0200244D02*
X0296178Y0200244D01*
X0293331Y0201992D02*
X0293331Y0185752D01*
X0302189Y0176894D01*
X0302189Y0173941D01*
X0313508Y0173941D01*
X0315836Y0176279D02*
X0369047Y0176279D01*
X0369047Y0175281D02*
X0316525Y0175281D01*
X0316808Y0174282D02*
X0369047Y0174282D01*
X0369047Y0173284D02*
X0316808Y0173284D01*
X0316394Y0172285D02*
X0369047Y0172285D01*
X0369047Y0171287D02*
X0315521Y0171287D01*
X0311495Y0171287D02*
X0304436Y0171287D01*
X0305434Y0170288D02*
X0369047Y0170288D01*
X0369047Y0169290D02*
X0306433Y0169290D01*
X0307431Y0168291D02*
X0369047Y0168291D01*
X0369047Y0167293D02*
X0308430Y0167293D01*
X0308910Y0166294D02*
X0369047Y0166294D01*
X0369047Y0165296D02*
X0308910Y0165296D01*
X0308910Y0164297D02*
X0369047Y0164297D01*
X0369047Y0163299D02*
X0308910Y0163299D01*
X0308910Y0162300D02*
X0369047Y0162300D01*
X0369047Y0161302D02*
X0308910Y0161302D01*
X0305310Y0160303D02*
X0299824Y0160303D01*
X0300667Y0159305D02*
X0305310Y0159305D01*
X0305310Y0158306D02*
X0301060Y0158306D01*
X0301060Y0157308D02*
X0305310Y0157308D01*
X0305310Y0156309D02*
X0300755Y0156309D01*
X0300037Y0155311D02*
X0305310Y0155311D01*
X0305493Y0154312D02*
X0296917Y0154312D01*
X0295918Y0153314D02*
X0306491Y0153314D01*
X0307490Y0152315D02*
X0294920Y0152315D01*
X0294170Y0151317D02*
X0307747Y0151317D01*
X0307883Y0150318D02*
X0294170Y0150318D01*
X0293824Y0149320D02*
X0308364Y0149320D01*
X0309623Y0148321D02*
X0293047Y0148321D01*
X0290870Y0150811D02*
X0294069Y0154010D01*
X0293823Y0154256D01*
X0293823Y0172465D01*
X0293331Y0172957D01*
X0290988Y0175281D02*
X0253198Y0175281D01*
X0254196Y0174282D02*
X0290308Y0174282D01*
X0290031Y0173284D02*
X0255195Y0173284D01*
X0255761Y0172285D02*
X0290037Y0172285D01*
X0290450Y0171287D02*
X0255761Y0171287D01*
X0255882Y0170288D02*
X0291332Y0170288D01*
X0292023Y0169290D02*
X0256809Y0169290D01*
X0257223Y0168291D02*
X0292023Y0168291D01*
X0292023Y0167293D02*
X0257261Y0167293D01*
X0257015Y0166294D02*
X0292023Y0166294D01*
X0292023Y0165296D02*
X0256380Y0165296D01*
X0254747Y0164297D02*
X0292023Y0164297D01*
X0292023Y0163299D02*
X0250908Y0163299D01*
X0249910Y0164297D02*
X0253174Y0164297D01*
X0251541Y0165296D02*
X0248911Y0165296D01*
X0247913Y0166294D02*
X0250906Y0166294D01*
X0250661Y0167293D02*
X0246914Y0167293D01*
X0245916Y0168291D02*
X0250699Y0168291D01*
X0251112Y0169290D02*
X0244917Y0169290D01*
X0243919Y0170288D02*
X0252039Y0170288D01*
X0252101Y0171287D02*
X0242920Y0171287D01*
X0241922Y0172285D02*
X0251102Y0172285D01*
X0250104Y0173284D02*
X0240923Y0173284D01*
X0239925Y0174282D02*
X0249105Y0174282D01*
X0248107Y0175281D02*
X0238926Y0175281D01*
X0238536Y0176279D02*
X0247108Y0176279D01*
X0246109Y0177278D02*
X0238536Y0177278D01*
X0238536Y0178277D02*
X0245111Y0178277D01*
X0244112Y0179275D02*
X0238536Y0179275D01*
X0238536Y0180274D02*
X0243114Y0180274D01*
X0242115Y0181272D02*
X0238536Y0181272D01*
X0238536Y0182271D02*
X0241117Y0182271D01*
X0240181Y0185752D02*
X0253961Y0171972D01*
X0253961Y0167543D01*
X0251907Y0162300D02*
X0292023Y0162300D01*
X0292023Y0161302D02*
X0252905Y0161302D01*
X0256025Y0160303D02*
X0292023Y0160303D01*
X0292023Y0159305D02*
X0256868Y0159305D01*
X0257261Y0158306D02*
X0292023Y0158306D01*
X0292023Y0157308D02*
X0257261Y0157308D01*
X0256956Y0156309D02*
X0292023Y0156309D01*
X0292023Y0155311D02*
X0256237Y0155311D01*
X0253961Y0157701D02*
X0236736Y0174925D01*
X0236736Y0267445D01*
X0182110Y0267445D01*
X0117642Y0202976D01*
X0117642Y0184768D01*
X0109276Y0176402D01*
X0109276Y0157701D01*
X0100417Y0148843D01*
X0090083Y0155240D02*
X0090083Y0178370D01*
X0151598Y0239886D01*
X0151598Y0269413D01*
X0237720Y0269413D01*
X0238705Y0268429D01*
X0238705Y0263016D01*
X0242150Y0259571D01*
X0242453Y0259295D01*
X0246903Y0259156D02*
X0252003Y0259156D01*
X0252003Y0258410D02*
X0252680Y0256775D01*
X0253932Y0255523D01*
X0255568Y0254845D01*
X0257338Y0254845D01*
X0258973Y0255523D01*
X0260225Y0256775D01*
X0260903Y0258410D01*
X0260903Y0260180D01*
X0260225Y0261816D01*
X0258973Y0263068D01*
X0257338Y0263745D01*
X0255568Y0263745D01*
X0253932Y0263068D01*
X0252680Y0261816D01*
X0252003Y0260180D01*
X0252003Y0258410D01*
X0252107Y0258157D02*
X0246903Y0258157D01*
X0246610Y0257159D02*
X0252521Y0257159D01*
X0253294Y0256160D02*
X0245611Y0256160D01*
X0244613Y0255162D02*
X0254803Y0255162D01*
X0258102Y0255162D02*
X0298302Y0255162D01*
X0299500Y0254163D02*
X0238536Y0254163D01*
X0238536Y0253165D02*
X0301015Y0253165D01*
X0300405Y0253409D02*
X0300405Y0253409D01*
X0303509Y0252166D02*
X0238536Y0252166D01*
X0238536Y0251168D02*
X0357085Y0251168D01*
X0357066Y0249171D02*
X0238536Y0249171D01*
X0238536Y0250169D02*
X0360642Y0250169D01*
X0360831Y0250122D02*
X0360752Y0249728D01*
X0360752Y0247760D01*
X0346480Y0247760D01*
X0292346Y0247760D01*
X0295570Y0244178D02*
X0238536Y0244178D01*
X0238536Y0243180D02*
X0294571Y0243180D01*
X0293573Y0242181D02*
X0238536Y0242181D01*
X0238536Y0241183D02*
X0292574Y0241183D01*
X0291576Y0240184D02*
X0238536Y0240184D01*
X0238536Y0239186D02*
X0290577Y0239186D01*
X0289579Y0238187D02*
X0238536Y0238187D01*
X0238536Y0237189D02*
X0288580Y0237189D01*
X0287582Y0236190D02*
X0238536Y0236190D01*
X0238536Y0235192D02*
X0286583Y0235192D01*
X0285585Y0234193D02*
X0238536Y0234193D01*
X0238536Y0233195D02*
X0284586Y0233195D01*
X0283588Y0232196D02*
X0238536Y0232196D01*
X0238536Y0231198D02*
X0280928Y0231198D01*
X0279469Y0230199D02*
X0238536Y0230199D01*
X0238536Y0229201D02*
X0278906Y0229201D01*
X0278712Y0228202D02*
X0238536Y0228202D01*
X0238536Y0227204D02*
X0278801Y0227204D01*
X0279215Y0226205D02*
X0238536Y0226205D01*
X0238536Y0225207D02*
X0280313Y0225207D01*
X0282012Y0228075D02*
X0298252Y0244315D01*
X0331717Y0244315D01*
X0360752Y0244315D01*
X0360752Y0242839D01*
X0360831Y0242642D01*
X0364207Y0241183D02*
X0367760Y0241183D01*
X0367760Y0242181D02*
X0364509Y0242181D01*
X0364509Y0243180D02*
X0367760Y0243180D01*
X0367760Y0244178D02*
X0364175Y0244178D01*
X0363497Y0245177D02*
X0367760Y0245177D01*
X0367760Y0246175D02*
X0361911Y0246175D01*
X0361020Y0247174D02*
X0360642Y0247174D01*
X0360642Y0248172D02*
X0361020Y0248172D01*
X0361020Y0249171D02*
X0360642Y0249171D01*
X0361020Y0250169D02*
X0367760Y0250169D01*
X0367760Y0249171D02*
X0364595Y0249171D01*
X0364192Y0248172D02*
X0367760Y0248172D01*
X0367760Y0247174D02*
X0363367Y0247174D01*
X0359751Y0246175D02*
X0334518Y0246175D01*
X0333438Y0247174D02*
X0358295Y0247174D01*
X0357470Y0248172D02*
X0238536Y0248172D01*
X0238536Y0247174D02*
X0329995Y0247174D01*
X0328915Y0246175D02*
X0238536Y0246175D01*
X0238536Y0245177D02*
X0296568Y0245177D01*
X0298998Y0242515D02*
X0328890Y0242515D01*
X0328919Y0242446D01*
X0329847Y0241517D01*
X0331060Y0241015D01*
X0332373Y0241015D01*
X0333586Y0241517D01*
X0334514Y0242446D01*
X0334543Y0242515D01*
X0357153Y0242515D01*
X0357153Y0241910D01*
X0357632Y0240752D01*
X0307490Y0240752D01*
X0307374Y0240794D01*
X0306499Y0240752D01*
X0305624Y0240752D01*
X0305510Y0240705D01*
X0304280Y0240646D01*
X0304280Y0240646D01*
X0300346Y0239158D01*
X0297065Y0236527D01*
X0297065Y0236527D01*
X0297065Y0236527D01*
X0294758Y0233010D01*
X0293650Y0228953D01*
X0293744Y0226972D01*
X0293733Y0227204D02*
X0285223Y0227204D01*
X0285312Y0227418D02*
X0285312Y0228731D01*
X0285283Y0228801D01*
X0298998Y0242515D01*
X0298664Y0242181D02*
X0329183Y0242181D01*
X0330655Y0241183D02*
X0297665Y0241183D01*
X0296667Y0240184D02*
X0303059Y0240184D01*
X0300420Y0239186D02*
X0295668Y0239186D01*
X0294670Y0238187D02*
X0299136Y0238187D01*
X0300346Y0239158D02*
X0300346Y0239158D01*
X0297891Y0237189D02*
X0293671Y0237189D01*
X0292673Y0236190D02*
X0296844Y0236190D01*
X0296189Y0235192D02*
X0291674Y0235192D01*
X0290676Y0234193D02*
X0295534Y0234193D01*
X0294879Y0233195D02*
X0289677Y0233195D01*
X0288679Y0232196D02*
X0294535Y0232196D01*
X0294758Y0233010D02*
X0294758Y0233010D01*
X0294263Y0231198D02*
X0287680Y0231198D01*
X0286682Y0230199D02*
X0293990Y0230199D01*
X0293717Y0229201D02*
X0285683Y0229201D01*
X0285312Y0228202D02*
X0293685Y0228202D01*
X0293650Y0228953D02*
X0293650Y0228953D01*
X0293744Y0225207D02*
X0283710Y0225207D01*
X0284809Y0226205D02*
X0285312Y0227418D01*
X0293744Y0224208D02*
X0238536Y0224208D01*
X0238536Y0223210D02*
X0293744Y0223210D01*
X0294027Y0222211D02*
X0238536Y0222211D01*
X0238536Y0221212D02*
X0294352Y0221212D01*
X0294676Y0220214D02*
X0238536Y0220214D01*
X0238536Y0219215D02*
X0295001Y0219215D01*
X0295722Y0218217D02*
X0238536Y0218217D01*
X0238536Y0217218D02*
X0296447Y0217218D01*
X0297173Y0216220D02*
X0238536Y0216220D01*
X0238536Y0215221D02*
X0298343Y0215221D01*
X0299717Y0214223D02*
X0238536Y0214223D01*
X0238536Y0213224D02*
X0301574Y0213224D01*
X0300701Y0213508D02*
X0300701Y0213508D01*
X0301796Y0211187D02*
X0300868Y0210259D01*
X0300365Y0209046D01*
X0300365Y0207733D01*
X0300868Y0206520D01*
X0301796Y0205592D01*
X0303009Y0205090D01*
X0304322Y0205090D01*
X0304391Y0205118D01*
X0311132Y0198378D01*
X0310218Y0197464D01*
X0309716Y0196251D01*
X0309716Y0194938D01*
X0310218Y0193725D01*
X0311146Y0192797D01*
X0312359Y0192294D01*
X0313672Y0192294D01*
X0314885Y0192797D01*
X0315813Y0193725D01*
X0316316Y0194938D01*
X0316316Y0196251D01*
X0315813Y0197464D01*
X0314885Y0198392D01*
X0314816Y0198421D01*
X0314816Y0199785D01*
X0313761Y0200839D01*
X0306937Y0207664D01*
X0306965Y0207733D01*
X0306965Y0209046D01*
X0306463Y0210259D01*
X0305535Y0211187D01*
X0304322Y0211690D01*
X0303009Y0211690D01*
X0301796Y0211187D01*
X0301893Y0211227D02*
X0293627Y0211227D01*
X0294664Y0210229D02*
X0300855Y0210229D01*
X0300442Y0209230D02*
X0295078Y0209230D01*
X0295154Y0208232D02*
X0300365Y0208232D01*
X0300572Y0207233D02*
X0295556Y0207233D01*
X0296555Y0206235D02*
X0301153Y0206235D01*
X0302655Y0205236D02*
X0297553Y0205236D01*
X0298552Y0204238D02*
X0305272Y0204238D01*
X0306270Y0203239D02*
X0299550Y0203239D01*
X0300549Y0202241D02*
X0307269Y0202241D01*
X0308267Y0201242D02*
X0301547Y0201242D01*
X0302546Y0200244D02*
X0309266Y0200244D01*
X0310264Y0199245D02*
X0303544Y0199245D01*
X0304543Y0198247D02*
X0311001Y0198247D01*
X0310129Y0197248D02*
X0305541Y0197248D01*
X0306540Y0196250D02*
X0309716Y0196250D01*
X0309716Y0195251D02*
X0307538Y0195251D01*
X0308537Y0194253D02*
X0310000Y0194253D01*
X0309535Y0193254D02*
X0310689Y0193254D01*
X0310534Y0192256D02*
X0318754Y0192256D01*
X0318574Y0191822D02*
X0318574Y0190509D01*
X0319076Y0189296D01*
X0320005Y0188368D01*
X0321218Y0187865D01*
X0322530Y0187865D01*
X0323743Y0188368D01*
X0324672Y0189296D01*
X0325174Y0190509D01*
X0325174Y0191822D01*
X0324672Y0193035D01*
X0324166Y0193540D01*
X0324166Y0198182D01*
X0324235Y0198210D01*
X0325164Y0199139D01*
X0325666Y0200351D01*
X0325666Y0201664D01*
X0325164Y0202877D01*
X0324235Y0203805D01*
X0323023Y0204308D01*
X0321710Y0204308D01*
X0320497Y0203805D01*
X0319569Y0202877D01*
X0319066Y0201664D01*
X0319066Y0200351D01*
X0319569Y0199139D01*
X0320497Y0198210D01*
X0320566Y0198182D01*
X0320566Y0194195D01*
X0320005Y0193963D01*
X0319076Y0193035D01*
X0318574Y0191822D01*
X0318574Y0191257D02*
X0311533Y0191257D01*
X0312531Y0190259D02*
X0318678Y0190259D01*
X0319112Y0189260D02*
X0313530Y0189260D01*
X0316649Y0188262D02*
X0320261Y0188262D01*
X0317438Y0187263D02*
X0369047Y0187263D01*
X0369047Y0186265D02*
X0317792Y0186265D01*
X0317792Y0185266D02*
X0369047Y0185266D01*
X0369047Y0184268D02*
X0317449Y0184268D01*
X0316676Y0183269D02*
X0369047Y0183269D01*
X0369047Y0182271D02*
X0309772Y0182271D01*
X0307602Y0184768D02*
X0299236Y0184768D01*
X0297065Y0187263D02*
X0295131Y0187263D01*
X0295364Y0186265D02*
X0296284Y0186265D01*
X0293268Y0183269D02*
X0292454Y0183269D01*
X0292270Y0184268D02*
X0291455Y0184268D01*
X0291531Y0185266D02*
X0290457Y0185266D01*
X0289458Y0186265D02*
X0291531Y0186265D01*
X0291531Y0187263D02*
X0288460Y0187263D01*
X0287461Y0188262D02*
X0291531Y0188262D01*
X0291531Y0189260D02*
X0286463Y0189260D01*
X0285464Y0190259D02*
X0291531Y0190259D01*
X0291531Y0191257D02*
X0284466Y0191257D01*
X0283467Y0192256D02*
X0291531Y0192256D01*
X0291531Y0193254D02*
X0282469Y0193254D01*
X0281470Y0194253D02*
X0291531Y0194253D01*
X0291531Y0195251D02*
X0280472Y0195251D01*
X0279473Y0196250D02*
X0291531Y0196250D01*
X0291531Y0197248D02*
X0278475Y0197248D01*
X0277476Y0198247D02*
X0291531Y0198247D01*
X0291411Y0199245D02*
X0276477Y0199245D01*
X0275479Y0200244D02*
X0290483Y0200244D01*
X0290069Y0201242D02*
X0274480Y0201242D01*
X0273482Y0202241D02*
X0290031Y0202241D01*
X0290275Y0203239D02*
X0273009Y0203239D01*
X0272962Y0204238D02*
X0290909Y0204238D01*
X0290844Y0205236D02*
X0272548Y0205236D01*
X0271609Y0206235D02*
X0289342Y0206235D01*
X0303665Y0208390D02*
X0313016Y0199039D01*
X0313016Y0195594D01*
X0315342Y0193254D02*
X0319296Y0193254D01*
X0320566Y0194253D02*
X0316032Y0194253D01*
X0316316Y0195251D02*
X0320566Y0195251D01*
X0320566Y0196250D02*
X0316316Y0196250D01*
X0315903Y0197248D02*
X0320566Y0197248D01*
X0320460Y0198247D02*
X0315030Y0198247D01*
X0314816Y0199245D02*
X0319524Y0199245D01*
X0319111Y0200244D02*
X0314357Y0200244D01*
X0313358Y0201242D02*
X0319066Y0201242D01*
X0319305Y0202241D02*
X0312360Y0202241D01*
X0311361Y0203239D02*
X0319931Y0203239D01*
X0321541Y0204238D02*
X0310363Y0204238D01*
X0309364Y0205236D02*
X0348911Y0205236D01*
X0349435Y0205761D02*
X0346846Y0203171D01*
X0345444Y0199788D01*
X0345444Y0196126D01*
X0346846Y0192742D01*
X0349435Y0190153D01*
X0352819Y0188751D01*
X0356481Y0188751D01*
X0359864Y0190153D01*
X0362454Y0192742D01*
X0363855Y0196126D01*
X0363855Y0199788D01*
X0362454Y0203171D01*
X0359864Y0205761D01*
X0356481Y0207162D01*
X0352819Y0207162D01*
X0349435Y0205761D01*
X0350580Y0206235D02*
X0308366Y0206235D01*
X0307367Y0207233D02*
X0369047Y0207233D01*
X0369047Y0206235D02*
X0358720Y0206235D01*
X0360389Y0205236D02*
X0369047Y0205236D01*
X0369047Y0204238D02*
X0361387Y0204238D01*
X0362386Y0203239D02*
X0369047Y0203239D01*
X0369047Y0202241D02*
X0362839Y0202241D01*
X0363253Y0201242D02*
X0369047Y0201242D01*
X0369047Y0200244D02*
X0363666Y0200244D01*
X0363855Y0199245D02*
X0369047Y0199245D01*
X0369047Y0198247D02*
X0363855Y0198247D01*
X0363855Y0197248D02*
X0369047Y0197248D01*
X0369047Y0196250D02*
X0363855Y0196250D01*
X0363493Y0195251D02*
X0369047Y0195251D01*
X0369047Y0194253D02*
X0363079Y0194253D01*
X0362666Y0193254D02*
X0369047Y0193254D01*
X0369047Y0192256D02*
X0361967Y0192256D01*
X0360969Y0191257D02*
X0369047Y0191257D01*
X0369047Y0190259D02*
X0359970Y0190259D01*
X0357709Y0189260D02*
X0369047Y0189260D01*
X0369047Y0188262D02*
X0323487Y0188262D01*
X0324636Y0189260D02*
X0351590Y0189260D01*
X0349329Y0190259D02*
X0325070Y0190259D01*
X0325174Y0191257D02*
X0348331Y0191257D01*
X0347332Y0192256D02*
X0324994Y0192256D01*
X0324452Y0193254D02*
X0346633Y0193254D01*
X0346220Y0194253D02*
X0324166Y0194253D01*
X0324166Y0195251D02*
X0345806Y0195251D01*
X0345444Y0196250D02*
X0324166Y0196250D01*
X0324166Y0197248D02*
X0345444Y0197248D01*
X0345444Y0198247D02*
X0324272Y0198247D01*
X0325208Y0199245D02*
X0345444Y0199245D01*
X0345633Y0200244D02*
X0325622Y0200244D01*
X0325666Y0201242D02*
X0346047Y0201242D01*
X0346460Y0202241D02*
X0325427Y0202241D01*
X0324802Y0203239D02*
X0346914Y0203239D01*
X0347912Y0204238D02*
X0323192Y0204238D01*
X0322366Y0201008D02*
X0322366Y0191657D01*
X0321874Y0191165D01*
X0305431Y0187263D02*
X0301408Y0187263D01*
X0301406Y0182271D02*
X0305433Y0182271D01*
X0302353Y0179275D02*
X0369047Y0179275D01*
X0369047Y0178277D02*
X0303352Y0178277D01*
X0303989Y0177278D02*
X0369047Y0177278D01*
X0369047Y0180274D02*
X0301355Y0180274D01*
X0300356Y0181272D02*
X0369047Y0181272D01*
X0369047Y0208232D02*
X0306965Y0208232D01*
X0306889Y0209230D02*
X0369047Y0209230D01*
X0369047Y0210229D02*
X0306475Y0210229D01*
X0305438Y0211227D02*
X0369047Y0211227D01*
X0369047Y0212226D02*
X0238536Y0212226D01*
X0234936Y0216220D02*
X0209798Y0216220D01*
X0208800Y0217218D02*
X0234936Y0217218D01*
X0234936Y0218217D02*
X0207801Y0218217D01*
X0206803Y0219215D02*
X0234936Y0219215D01*
X0234936Y0220214D02*
X0205804Y0220214D01*
X0204806Y0221212D02*
X0234936Y0221212D01*
X0234936Y0222211D02*
X0203807Y0222211D01*
X0202809Y0223210D02*
X0234936Y0223210D01*
X0234936Y0224208D02*
X0201810Y0224208D01*
X0200811Y0225207D02*
X0234936Y0225207D01*
X0234936Y0226205D02*
X0199813Y0226205D01*
X0198814Y0227204D02*
X0234936Y0227204D01*
X0234936Y0228202D02*
X0197816Y0228202D01*
X0196817Y0229201D02*
X0234936Y0229201D01*
X0234936Y0230199D02*
X0195819Y0230199D01*
X0194820Y0231198D02*
X0234936Y0231198D01*
X0234936Y0232196D02*
X0194737Y0232196D01*
X0194737Y0233195D02*
X0234936Y0233195D01*
X0234936Y0234193D02*
X0194737Y0234193D01*
X0194737Y0235192D02*
X0234936Y0235192D01*
X0234936Y0236190D02*
X0194737Y0236190D01*
X0194737Y0237189D02*
X0234936Y0237189D01*
X0234936Y0238187D02*
X0194737Y0238187D01*
X0194737Y0239186D02*
X0234936Y0239186D01*
X0234936Y0240184D02*
X0194737Y0240184D01*
X0194737Y0241183D02*
X0234936Y0241183D01*
X0234936Y0242181D02*
X0213679Y0242181D01*
X0214536Y0243180D02*
X0234936Y0243180D01*
X0234936Y0244178D02*
X0214938Y0244178D01*
X0214938Y0245177D02*
X0234936Y0245177D01*
X0234936Y0246175D02*
X0214643Y0246175D01*
X0213938Y0247174D02*
X0234936Y0247174D01*
X0234936Y0248172D02*
X0210818Y0248172D01*
X0209820Y0249171D02*
X0234936Y0249171D01*
X0234936Y0250169D02*
X0208821Y0250169D01*
X0207823Y0251168D02*
X0234936Y0251168D01*
X0234936Y0252166D02*
X0206824Y0252166D01*
X0205826Y0253165D02*
X0234936Y0253165D01*
X0234936Y0254163D02*
X0204827Y0254163D01*
X0203829Y0255162D02*
X0234936Y0255162D01*
X0234936Y0256160D02*
X0202830Y0256160D01*
X0201832Y0257159D02*
X0234936Y0257159D01*
X0234936Y0258157D02*
X0200833Y0258157D01*
X0199909Y0259156D02*
X0234936Y0259156D01*
X0234936Y0260154D02*
X0200155Y0260154D01*
X0200155Y0261153D02*
X0234936Y0261153D01*
X0234936Y0262151D02*
X0199893Y0262151D01*
X0199479Y0263150D02*
X0234936Y0263150D01*
X0234936Y0264148D02*
X0198483Y0264148D01*
X0195890Y0260555D02*
X0195705Y0260634D01*
X0195890Y0260555D02*
X0211638Y0244807D01*
X0208338Y0245177D02*
X0194737Y0245177D01*
X0194737Y0246175D02*
X0207724Y0246175D01*
X0206726Y0247174D02*
X0194737Y0247174D01*
X0194737Y0248172D02*
X0205727Y0248172D01*
X0204728Y0249171D02*
X0194737Y0249171D01*
X0194737Y0250169D02*
X0203730Y0250169D01*
X0202731Y0251168D02*
X0194737Y0251168D01*
X0194737Y0252166D02*
X0201733Y0252166D01*
X0200734Y0253165D02*
X0194737Y0253165D01*
X0194737Y0254163D02*
X0199736Y0254163D01*
X0198737Y0255162D02*
X0194737Y0255162D01*
X0194737Y0256160D02*
X0197739Y0256160D01*
X0192937Y0256618D02*
X0192937Y0230535D01*
X0221480Y0201992D01*
X0221480Y0102091D01*
X0204256Y0084866D01*
X0204256Y0055339D01*
X0190969Y0042051D01*
X0188726Y0044476D02*
X0177020Y0044476D01*
X0177020Y0045474D02*
X0191846Y0045474D01*
X0192845Y0046473D02*
X0177020Y0046473D01*
X0177020Y0047472D02*
X0193843Y0047472D01*
X0191354Y0048470D02*
X0177020Y0048470D01*
X0177020Y0049469D02*
X0190356Y0049469D01*
X0189357Y0050467D02*
X0177324Y0050467D01*
X0175220Y0050909D02*
X0177189Y0052878D01*
X0175220Y0050909D02*
X0175220Y0038606D01*
X0166854Y0038606D01*
X0164886Y0040575D01*
X0164886Y0045988D01*
X0167346Y0048449D01*
X0162917Y0053862D02*
X0162917Y0036638D01*
X0178173Y0036638D01*
X0183587Y0031224D01*
X0183941Y0031185D01*
X0184079Y0031224D01*
X0189000Y0036146D01*
X0202287Y0036146D01*
X0194507Y0032494D02*
X0254121Y0032494D01*
X0253145Y0031518D02*
X0251743Y0028134D01*
X0251743Y0024472D01*
X0253145Y0021089D01*
X0255734Y0018499D01*
X0259118Y0017098D01*
X0262780Y0017098D01*
X0266163Y0018499D01*
X0268753Y0021089D01*
X0270154Y0024472D01*
X0270154Y0028134D01*
X0268753Y0031518D01*
X0266163Y0034107D01*
X0262780Y0035509D01*
X0259118Y0035509D01*
X0255734Y0034107D01*
X0253145Y0031518D01*
X0253136Y0031495D02*
X0194761Y0031495D01*
X0194731Y0030497D02*
X0252722Y0030497D01*
X0252308Y0029498D02*
X0194318Y0029498D01*
X0193403Y0028500D02*
X0251895Y0028500D01*
X0251743Y0027501D02*
X0190800Y0027501D01*
X0190800Y0026503D02*
X0251743Y0026503D01*
X0251743Y0025504D02*
X0190800Y0025504D01*
X0190800Y0024506D02*
X0251743Y0024506D01*
X0252143Y0023507D02*
X0190718Y0023507D01*
X0189720Y0022509D02*
X0252557Y0022509D01*
X0252970Y0021510D02*
X0188721Y0021510D01*
X0187723Y0020512D02*
X0253722Y0020512D01*
X0254720Y0019513D02*
X0186724Y0019513D01*
X0185726Y0018515D02*
X0255719Y0018515D01*
X0258107Y0017516D02*
X0184727Y0017516D01*
X0182110Y0017445D02*
X0153567Y0017445D01*
X0153567Y0028272D01*
X0143232Y0038606D01*
X0135850Y0038606D01*
X0128637Y0031495D02*
X0122236Y0031495D01*
X0122236Y0030497D02*
X0121236Y0030497D01*
X0121236Y0031495D02*
X0101794Y0031495D01*
X0101794Y0030497D02*
X0117480Y0030497D01*
X0117480Y0029498D02*
X0101794Y0029498D01*
X0101794Y0028500D02*
X0117480Y0028500D01*
X0117480Y0027501D02*
X0101631Y0027501D01*
X0101303Y0026503D02*
X0117679Y0026503D01*
X0121236Y0026503D02*
X0122236Y0026503D01*
X0122236Y0027501D02*
X0121236Y0027501D01*
X0121236Y0028500D02*
X0122236Y0028500D01*
X0122236Y0029498D02*
X0121236Y0029498D01*
X0121236Y0031685D02*
X0117480Y0031685D01*
X0117480Y0035320D01*
X0117583Y0035701D01*
X0117780Y0036043D01*
X0118059Y0036322D01*
X0118401Y0036520D01*
X0118783Y0036622D01*
X0121236Y0036622D01*
X0121236Y0031685D01*
X0121236Y0032494D02*
X0122236Y0032494D01*
X0122236Y0033492D02*
X0121236Y0033492D01*
X0121236Y0034491D02*
X0122236Y0034491D01*
X0122236Y0035489D02*
X0121236Y0035489D01*
X0121236Y0036488D02*
X0122236Y0036488D01*
X0118346Y0036488D02*
X0101318Y0036488D01*
X0101681Y0035489D02*
X0117526Y0035489D01*
X0117480Y0034491D02*
X0101749Y0034491D01*
X0101533Y0033492D02*
X0117480Y0033492D01*
X0117480Y0032494D02*
X0101029Y0032494D01*
X0098941Y0034669D02*
X0098941Y0029748D01*
X0098744Y0029697D01*
X0098941Y0034669D02*
X0098449Y0034669D01*
X0098941Y0034669D02*
X0098941Y0039591D01*
X0098744Y0039886D01*
X0107307Y0048449D01*
X0107307Y0084866D01*
X0116165Y0093724D01*
X0112720Y0095201D02*
X0112720Y0174925D01*
X0121087Y0183783D02*
X0122563Y0182307D01*
X0122563Y0141953D01*
X0119610Y0139000D01*
X0119610Y0095201D01*
X0121579Y0093232D01*
X0112720Y0095201D02*
X0111244Y0093724D01*
X0104354Y0094217D02*
X0086638Y0111933D01*
X0086638Y0241854D01*
X0085161Y0243331D01*
X0084807Y0243350D01*
X0081539Y0243180D02*
X0079580Y0243180D01*
X0079580Y0244178D02*
X0081539Y0244178D01*
X0081539Y0245177D02*
X0079580Y0245177D01*
X0079580Y0246175D02*
X0081660Y0246175D01*
X0081704Y0247174D02*
X0079580Y0247174D01*
X0079580Y0248172D02*
X0081539Y0248172D01*
X0081539Y0249171D02*
X0079580Y0249171D01*
X0079580Y0250169D02*
X0081539Y0250169D01*
X0081539Y0251168D02*
X0079580Y0251168D01*
X0079580Y0252166D02*
X0081539Y0252166D01*
X0081956Y0253165D02*
X0079580Y0253165D01*
X0079580Y0254163D02*
X0086382Y0254163D01*
X0087380Y0255162D02*
X0079580Y0255162D01*
X0079580Y0256160D02*
X0088379Y0256160D01*
X0086843Y0257159D02*
X0079580Y0257159D01*
X0077780Y0259571D02*
X0077780Y0229551D01*
X0054650Y0206421D01*
X0054484Y0205988D01*
X0054157Y0205929D01*
X0051697Y0203469D01*
X0051697Y0165575D01*
X0051224Y0165122D01*
X0044019Y0165296D02*
X0038745Y0165296D01*
X0038745Y0166294D02*
X0044019Y0166294D01*
X0044019Y0167293D02*
X0038745Y0167293D01*
X0038745Y0168291D02*
X0044019Y0168291D01*
X0044019Y0169290D02*
X0038745Y0169290D01*
X0038745Y0170288D02*
X0044019Y0170288D01*
X0044019Y0171287D02*
X0038745Y0171287D01*
X0038745Y0172285D02*
X0044019Y0172285D01*
X0044019Y0173284D02*
X0038745Y0173284D01*
X0038745Y0174282D02*
X0044019Y0174282D01*
X0044019Y0175281D02*
X0038745Y0175281D01*
X0038745Y0176279D02*
X0044019Y0176279D01*
X0044019Y0177278D02*
X0038745Y0177278D01*
X0038745Y0177472D02*
X0037983Y0178233D01*
X0033812Y0178233D01*
X0033812Y0196817D01*
X0038845Y0201851D01*
X0039599Y0201538D01*
X0041369Y0201538D01*
X0043005Y0202216D01*
X0044257Y0203467D01*
X0044934Y0205103D01*
X0044934Y0206873D01*
X0044257Y0208509D01*
X0043005Y0209761D01*
X0041369Y0210438D01*
X0039599Y0210438D01*
X0037964Y0209761D01*
X0036712Y0208509D01*
X0036034Y0206873D01*
X0036034Y0205103D01*
X0036319Y0204416D01*
X0031266Y0199363D01*
X0030212Y0198309D01*
X0030212Y0178233D01*
X0025095Y0178233D01*
X0024334Y0177472D01*
X0024334Y0152773D01*
X0025095Y0152011D01*
X0037983Y0152011D01*
X0038745Y0152773D01*
X0038745Y0177472D01*
X0033812Y0178277D02*
X0049897Y0178277D01*
X0049897Y0179275D02*
X0033812Y0179275D01*
X0033812Y0180274D02*
X0049897Y0180274D01*
X0049897Y0181272D02*
X0033812Y0181272D01*
X0033812Y0182271D02*
X0049897Y0182271D01*
X0049897Y0183269D02*
X0033812Y0183269D01*
X0033812Y0184268D02*
X0049897Y0184268D01*
X0049897Y0185266D02*
X0033812Y0185266D01*
X0033812Y0186265D02*
X0049897Y0186265D01*
X0049897Y0187263D02*
X0033812Y0187263D01*
X0033812Y0188262D02*
X0049897Y0188262D01*
X0049897Y0189260D02*
X0033812Y0189260D01*
X0033812Y0190259D02*
X0049897Y0190259D01*
X0049897Y0191257D02*
X0033812Y0191257D01*
X0033812Y0192256D02*
X0049897Y0192256D01*
X0049897Y0193254D02*
X0033812Y0193254D01*
X0033812Y0194253D02*
X0049897Y0194253D01*
X0049897Y0195251D02*
X0033812Y0195251D01*
X0033812Y0196250D02*
X0049897Y0196250D01*
X0049897Y0197248D02*
X0034243Y0197248D01*
X0035241Y0198247D02*
X0049897Y0198247D01*
X0049897Y0199245D02*
X0036240Y0199245D01*
X0037238Y0200244D02*
X0049897Y0200244D01*
X0049897Y0201242D02*
X0038237Y0201242D01*
X0036141Y0204238D02*
X0015843Y0204238D01*
X0015843Y0205236D02*
X0036034Y0205236D01*
X0036034Y0206235D02*
X0015843Y0206235D01*
X0015843Y0207233D02*
X0036183Y0207233D01*
X0036597Y0208232D02*
X0015843Y0208232D01*
X0015843Y0209230D02*
X0037433Y0209230D01*
X0039094Y0210229D02*
X0015843Y0210229D01*
X0015843Y0211227D02*
X0056910Y0211227D01*
X0057909Y0212226D02*
X0015843Y0212226D01*
X0015843Y0213224D02*
X0058907Y0213224D01*
X0059906Y0214223D02*
X0015843Y0214223D01*
X0015843Y0215221D02*
X0060904Y0215221D01*
X0061903Y0216220D02*
X0015843Y0216220D01*
X0015843Y0217218D02*
X0062901Y0217218D01*
X0063900Y0218217D02*
X0015843Y0218217D01*
X0015843Y0219215D02*
X0064898Y0219215D01*
X0065897Y0220214D02*
X0015843Y0220214D01*
X0015843Y0221212D02*
X0066895Y0221212D01*
X0067894Y0222211D02*
X0015843Y0222211D01*
X0015843Y0223210D02*
X0068892Y0223210D01*
X0069891Y0224208D02*
X0015843Y0224208D01*
X0015843Y0225207D02*
X0070889Y0225207D01*
X0071888Y0226205D02*
X0015843Y0226205D01*
X0015843Y0227204D02*
X0072886Y0227204D01*
X0073885Y0228202D02*
X0015843Y0228202D01*
X0015843Y0229201D02*
X0074883Y0229201D01*
X0075882Y0230199D02*
X0015843Y0230199D01*
X0015843Y0231198D02*
X0075980Y0231198D01*
X0075980Y0232196D02*
X0015843Y0232196D01*
X0015843Y0233195D02*
X0075980Y0233195D01*
X0075980Y0234193D02*
X0015843Y0234193D01*
X0015843Y0235192D02*
X0075980Y0235192D01*
X0075980Y0236190D02*
X0015843Y0236190D01*
X0015843Y0237189D02*
X0075980Y0237189D01*
X0075980Y0238187D02*
X0015843Y0238187D01*
X0015843Y0239186D02*
X0075980Y0239186D01*
X0079580Y0239186D02*
X0084838Y0239186D01*
X0084838Y0238187D02*
X0079580Y0238187D01*
X0079580Y0237189D02*
X0084838Y0237189D01*
X0084838Y0236190D02*
X0079580Y0236190D01*
X0079580Y0235192D02*
X0084838Y0235192D01*
X0084838Y0234193D02*
X0079580Y0234193D01*
X0079580Y0233195D02*
X0084838Y0233195D01*
X0084838Y0232196D02*
X0079580Y0232196D01*
X0079580Y0231198D02*
X0084838Y0231198D01*
X0084838Y0230199D02*
X0079580Y0230199D01*
X0079580Y0229201D02*
X0084838Y0229201D01*
X0084838Y0228202D02*
X0078976Y0228202D01*
X0077977Y0227204D02*
X0084838Y0227204D01*
X0084838Y0226205D02*
X0076979Y0226205D01*
X0075980Y0225207D02*
X0084838Y0225207D01*
X0084838Y0224208D02*
X0074982Y0224208D01*
X0073983Y0223210D02*
X0084838Y0223210D01*
X0084838Y0222211D02*
X0072985Y0222211D01*
X0071986Y0221212D02*
X0084838Y0221212D01*
X0084838Y0220214D02*
X0070988Y0220214D01*
X0069989Y0219215D02*
X0084838Y0219215D01*
X0084838Y0218217D02*
X0068991Y0218217D01*
X0067992Y0217218D02*
X0084838Y0217218D01*
X0084838Y0216220D02*
X0066994Y0216220D01*
X0065995Y0215221D02*
X0084838Y0215221D01*
X0084838Y0214223D02*
X0064997Y0214223D01*
X0063998Y0213224D02*
X0084838Y0213224D01*
X0084838Y0212226D02*
X0063000Y0212226D01*
X0062001Y0211227D02*
X0084838Y0211227D01*
X0084838Y0210229D02*
X0061003Y0210229D01*
X0060004Y0209230D02*
X0084838Y0209230D01*
X0084838Y0208232D02*
X0059006Y0208232D01*
X0058934Y0207233D02*
X0084838Y0207233D01*
X0084838Y0206235D02*
X0058934Y0206235D01*
X0058934Y0205236D02*
X0084838Y0205236D01*
X0084838Y0204238D02*
X0058934Y0204238D01*
X0058029Y0203239D02*
X0084838Y0203239D01*
X0084838Y0202241D02*
X0057030Y0202241D01*
X0053497Y0201242D02*
X0084838Y0201242D01*
X0084838Y0200244D02*
X0053497Y0200244D01*
X0053497Y0199245D02*
X0084838Y0199245D01*
X0084838Y0198247D02*
X0053497Y0198247D01*
X0053497Y0197248D02*
X0084838Y0197248D01*
X0084838Y0196250D02*
X0053497Y0196250D01*
X0053497Y0195251D02*
X0084838Y0195251D01*
X0084838Y0194253D02*
X0053497Y0194253D01*
X0053497Y0193254D02*
X0084838Y0193254D01*
X0084838Y0192256D02*
X0053497Y0192256D01*
X0053497Y0191257D02*
X0084838Y0191257D01*
X0084838Y0190259D02*
X0053497Y0190259D01*
X0053497Y0189260D02*
X0084838Y0189260D01*
X0084838Y0188262D02*
X0053497Y0188262D01*
X0053497Y0187263D02*
X0084838Y0187263D01*
X0084838Y0186265D02*
X0053497Y0186265D01*
X0053497Y0185266D02*
X0084838Y0185266D01*
X0084838Y0184268D02*
X0053497Y0184268D01*
X0053497Y0183269D02*
X0084838Y0183269D01*
X0084838Y0182271D02*
X0053497Y0182271D01*
X0053497Y0181272D02*
X0084838Y0181272D01*
X0084838Y0180274D02*
X0053497Y0180274D01*
X0053497Y0179275D02*
X0084838Y0179275D01*
X0084838Y0178277D02*
X0053497Y0178277D01*
X0058430Y0177278D02*
X0084838Y0177278D01*
X0084838Y0176279D02*
X0058430Y0176279D01*
X0058430Y0175281D02*
X0084838Y0175281D01*
X0084838Y0174282D02*
X0058430Y0174282D01*
X0058430Y0173284D02*
X0084838Y0173284D01*
X0084838Y0172285D02*
X0058430Y0172285D01*
X0058430Y0171287D02*
X0084838Y0171287D01*
X0084838Y0170288D02*
X0058430Y0170288D01*
X0058430Y0169290D02*
X0084838Y0169290D01*
X0084838Y0168291D02*
X0058430Y0168291D01*
X0058430Y0167293D02*
X0084838Y0167293D01*
X0084838Y0166294D02*
X0058430Y0166294D01*
X0058430Y0165296D02*
X0084838Y0165296D01*
X0084838Y0164297D02*
X0058430Y0164297D01*
X0058430Y0163299D02*
X0084838Y0163299D01*
X0084838Y0162300D02*
X0058430Y0162300D01*
X0058430Y0161302D02*
X0084838Y0161302D01*
X0084838Y0160303D02*
X0058430Y0160303D01*
X0058430Y0159305D02*
X0084838Y0159305D01*
X0084838Y0158306D02*
X0058430Y0158306D01*
X0058430Y0157308D02*
X0084838Y0157308D01*
X0084838Y0156309D02*
X0058430Y0156309D01*
X0058430Y0155311D02*
X0084838Y0155311D01*
X0084838Y0154312D02*
X0058430Y0154312D01*
X0058430Y0153314D02*
X0084838Y0153314D01*
X0084838Y0152315D02*
X0057973Y0152315D01*
X0044476Y0152315D02*
X0038288Y0152315D01*
X0038745Y0153314D02*
X0044019Y0153314D01*
X0044019Y0154312D02*
X0038745Y0154312D01*
X0038745Y0155311D02*
X0044019Y0155311D01*
X0044019Y0156309D02*
X0038745Y0156309D01*
X0038745Y0157308D02*
X0044019Y0157308D01*
X0044019Y0158306D02*
X0038745Y0158306D01*
X0038745Y0159305D02*
X0044019Y0159305D01*
X0044019Y0160303D02*
X0038745Y0160303D01*
X0038745Y0161302D02*
X0044019Y0161302D01*
X0044019Y0162300D02*
X0038745Y0162300D01*
X0038745Y0163299D02*
X0044019Y0163299D01*
X0044019Y0164297D02*
X0038745Y0164297D01*
X0032012Y0165575D02*
X0031539Y0165122D01*
X0032012Y0165575D02*
X0032012Y0197563D01*
X0040378Y0205929D01*
X0040484Y0205988D01*
X0044576Y0204238D02*
X0049921Y0204238D01*
X0049897Y0203239D02*
X0044029Y0203239D01*
X0043030Y0202241D02*
X0049897Y0202241D01*
X0050034Y0205236D02*
X0044934Y0205236D01*
X0044934Y0206235D02*
X0050034Y0206235D01*
X0050034Y0207233D02*
X0044785Y0207233D01*
X0044372Y0208232D02*
X0050435Y0208232D01*
X0051433Y0209230D02*
X0043535Y0209230D01*
X0041875Y0210229D02*
X0052432Y0210229D01*
X0035143Y0203239D02*
X0015843Y0203239D01*
X0015843Y0202241D02*
X0034144Y0202241D01*
X0033146Y0201242D02*
X0015843Y0201242D01*
X0015843Y0200244D02*
X0032147Y0200244D01*
X0031148Y0199245D02*
X0015843Y0199245D01*
X0015843Y0198247D02*
X0030212Y0198247D01*
X0030212Y0197248D02*
X0015843Y0197248D01*
X0015843Y0196250D02*
X0030212Y0196250D01*
X0030212Y0195251D02*
X0015843Y0195251D01*
X0015843Y0194253D02*
X0030212Y0194253D01*
X0030212Y0193254D02*
X0015843Y0193254D01*
X0015843Y0192256D02*
X0030212Y0192256D01*
X0030212Y0191257D02*
X0015843Y0191257D01*
X0015843Y0190259D02*
X0030212Y0190259D01*
X0030212Y0189260D02*
X0015843Y0189260D01*
X0015843Y0188262D02*
X0030212Y0188262D01*
X0030212Y0187263D02*
X0015843Y0187263D01*
X0015843Y0186265D02*
X0030212Y0186265D01*
X0030212Y0185266D02*
X0015843Y0185266D01*
X0015843Y0184268D02*
X0030212Y0184268D01*
X0030212Y0183269D02*
X0015843Y0183269D01*
X0015843Y0182271D02*
X0030212Y0182271D01*
X0030212Y0181272D02*
X0015843Y0181272D01*
X0015843Y0180274D02*
X0030212Y0180274D01*
X0030212Y0179275D02*
X0015843Y0179275D01*
X0015843Y0178277D02*
X0030212Y0178277D01*
X0024334Y0177278D02*
X0015843Y0177278D01*
X0015843Y0176279D02*
X0024334Y0176279D01*
X0024334Y0175281D02*
X0015843Y0175281D01*
X0015843Y0174282D02*
X0024334Y0174282D01*
X0024334Y0173284D02*
X0015843Y0173284D01*
X0015843Y0172285D02*
X0024334Y0172285D01*
X0024334Y0171287D02*
X0015843Y0171287D01*
X0015843Y0170288D02*
X0024334Y0170288D01*
X0024334Y0169290D02*
X0015843Y0169290D01*
X0015843Y0168291D02*
X0024334Y0168291D01*
X0024334Y0167293D02*
X0015843Y0167293D01*
X0015843Y0166294D02*
X0024334Y0166294D01*
X0024334Y0165296D02*
X0015843Y0165296D01*
X0015843Y0164297D02*
X0024334Y0164297D01*
X0024334Y0163299D02*
X0015843Y0163299D01*
X0015843Y0162300D02*
X0024334Y0162300D01*
X0024334Y0161302D02*
X0015843Y0161302D01*
X0015843Y0160303D02*
X0024334Y0160303D01*
X0024334Y0159305D02*
X0015843Y0159305D01*
X0015843Y0158306D02*
X0024334Y0158306D01*
X0024334Y0157308D02*
X0015843Y0157308D01*
X0015843Y0156309D02*
X0024334Y0156309D01*
X0024334Y0155311D02*
X0015843Y0155311D01*
X0015843Y0154312D02*
X0024334Y0154312D01*
X0024334Y0153314D02*
X0015843Y0153314D01*
X0015843Y0152315D02*
X0024791Y0152315D01*
X0015843Y0151317D02*
X0084838Y0151317D01*
X0084838Y0150318D02*
X0015843Y0150318D01*
X0015843Y0149320D02*
X0084838Y0149320D01*
X0084838Y0148321D02*
X0015843Y0148321D01*
X0015843Y0147323D02*
X0084838Y0147323D01*
X0084838Y0146324D02*
X0015843Y0146324D01*
X0015843Y0145326D02*
X0084838Y0145326D01*
X0084838Y0144327D02*
X0015843Y0144327D01*
X0015843Y0143329D02*
X0084838Y0143329D01*
X0084838Y0142330D02*
X0015843Y0142330D01*
X0015843Y0141332D02*
X0084838Y0141332D01*
X0084838Y0140333D02*
X0015843Y0140333D01*
X0015843Y0139335D02*
X0084838Y0139335D01*
X0084838Y0138336D02*
X0015843Y0138336D01*
X0015843Y0137338D02*
X0084838Y0137338D01*
X0084838Y0136339D02*
X0015843Y0136339D01*
X0015843Y0135341D02*
X0084838Y0135341D01*
X0084838Y0134342D02*
X0015843Y0134342D01*
X0015843Y0133343D02*
X0084838Y0133343D01*
X0084838Y0132345D02*
X0015843Y0132345D01*
X0015843Y0083418D02*
X0082491Y0083418D01*
X0096649Y0076428D02*
X0058910Y0076428D01*
X0058910Y0075430D02*
X0096649Y0075430D01*
X0096649Y0074431D02*
X0058910Y0074431D01*
X0058910Y0073433D02*
X0096649Y0073433D01*
X0096649Y0072434D02*
X0058910Y0072434D01*
X0058910Y0071436D02*
X0070189Y0071436D01*
X0069191Y0070437D02*
X0058910Y0070437D01*
X0058910Y0069439D02*
X0068756Y0069439D01*
X0068499Y0068440D02*
X0058910Y0068440D01*
X0058910Y0067442D02*
X0068499Y0067442D01*
X0068499Y0066443D02*
X0058910Y0066443D01*
X0058910Y0065445D02*
X0068499Y0065445D01*
X0068499Y0064446D02*
X0058910Y0064446D01*
X0058910Y0063448D02*
X0068499Y0063448D01*
X0068499Y0062449D02*
X0058910Y0062449D01*
X0058910Y0061451D02*
X0068499Y0061451D01*
X0068771Y0060452D02*
X0058910Y0060452D01*
X0058910Y0059454D02*
X0069229Y0059454D01*
X0069492Y0058455D02*
X0058910Y0058455D01*
X0058910Y0057457D02*
X0068494Y0057457D01*
X0067495Y0056458D02*
X0058910Y0056458D01*
X0058910Y0055460D02*
X0066497Y0055460D01*
X0065498Y0054461D02*
X0058910Y0054461D01*
X0058910Y0053463D02*
X0064500Y0053463D01*
X0063501Y0052464D02*
X0058910Y0052464D01*
X0058910Y0051466D02*
X0062503Y0051466D01*
X0061504Y0050467D02*
X0058910Y0050467D01*
X0055310Y0050467D02*
X0015905Y0050467D01*
X0015948Y0049469D02*
X0055310Y0049469D01*
X0055310Y0051466D02*
X0015861Y0051466D01*
X0015843Y0052464D02*
X0055310Y0052464D01*
X0055310Y0053463D02*
X0015843Y0053463D01*
X0015843Y0054461D02*
X0055310Y0054461D01*
X0055310Y0055460D02*
X0015843Y0055460D01*
X0015843Y0056458D02*
X0055310Y0056458D01*
X0055310Y0057457D02*
X0015843Y0057457D01*
X0015843Y0058455D02*
X0055310Y0058455D01*
X0055310Y0059454D02*
X0015843Y0059454D01*
X0015843Y0060452D02*
X0055310Y0060452D01*
X0055310Y0061451D02*
X0015843Y0061451D01*
X0015843Y0062449D02*
X0055310Y0062449D01*
X0055310Y0063448D02*
X0015843Y0063448D01*
X0015843Y0064446D02*
X0055310Y0064446D01*
X0055310Y0065445D02*
X0015843Y0065445D01*
X0015843Y0066443D02*
X0055310Y0066443D01*
X0055310Y0067442D02*
X0015843Y0067442D01*
X0015843Y0068440D02*
X0055310Y0068440D01*
X0055310Y0069439D02*
X0015843Y0069439D01*
X0015843Y0070437D02*
X0055310Y0070437D01*
X0055310Y0071436D02*
X0015843Y0071436D01*
X0015843Y0072434D02*
X0055310Y0072434D01*
X0055310Y0073433D02*
X0015843Y0073433D01*
X0015843Y0074431D02*
X0055310Y0074431D01*
X0055310Y0075430D02*
X0015843Y0075430D01*
X0015843Y0076428D02*
X0055310Y0076428D01*
X0055310Y0077427D02*
X0015843Y0077427D01*
X0015843Y0078425D02*
X0055310Y0078425D01*
X0055310Y0079424D02*
X0015843Y0079424D01*
X0015843Y0080422D02*
X0055310Y0080422D01*
X0055310Y0081421D02*
X0015843Y0081421D01*
X0015843Y0082419D02*
X0056055Y0082419D01*
X0075409Y0071436D02*
X0080189Y0071436D01*
X0080363Y0071610D02*
X0079154Y0070400D01*
X0078499Y0068820D01*
X0078499Y0061109D01*
X0079154Y0059529D01*
X0080363Y0058319D01*
X0081944Y0057665D01*
X0083655Y0057665D01*
X0085235Y0058319D01*
X0086445Y0059529D01*
X0087099Y0061109D01*
X0087099Y0068820D01*
X0086445Y0070400D01*
X0085235Y0071610D01*
X0083655Y0072265D01*
X0081944Y0072265D01*
X0080363Y0071610D01*
X0079191Y0070437D02*
X0076408Y0070437D01*
X0076843Y0069439D02*
X0078756Y0069439D01*
X0078499Y0068440D02*
X0077099Y0068440D01*
X0077099Y0067442D02*
X0078499Y0067442D01*
X0078499Y0066443D02*
X0077099Y0066443D01*
X0077099Y0065445D02*
X0078499Y0065445D01*
X0078499Y0064446D02*
X0077099Y0064446D01*
X0077099Y0063448D02*
X0078499Y0063448D01*
X0078499Y0062449D02*
X0077099Y0062449D01*
X0077099Y0061451D02*
X0078499Y0061451D01*
X0078771Y0060452D02*
X0076827Y0060452D01*
X0076369Y0059454D02*
X0079229Y0059454D01*
X0080228Y0058455D02*
X0075371Y0058455D01*
X0073585Y0057457D02*
X0096649Y0057457D01*
X0096649Y0058455D02*
X0095371Y0058455D01*
X0096369Y0059454D02*
X0096649Y0059454D01*
X0096649Y0056458D02*
X0072586Y0056458D01*
X0071588Y0055460D02*
X0096649Y0055460D01*
X0096649Y0054461D02*
X0070589Y0054461D01*
X0069591Y0053463D02*
X0096649Y0053463D01*
X0096649Y0052464D02*
X0068592Y0052464D01*
X0067594Y0051466D02*
X0096649Y0051466D01*
X0096649Y0050467D02*
X0066595Y0050467D01*
X0065597Y0049469D02*
X0095662Y0049469D01*
X0098449Y0046972D02*
X0060555Y0046972D01*
X0072366Y0058783D01*
X0072366Y0064689D01*
X0072799Y0064965D01*
X0085371Y0058455D02*
X0090228Y0058455D01*
X0089229Y0059454D02*
X0086369Y0059454D01*
X0086827Y0060452D02*
X0088771Y0060452D01*
X0088499Y0061451D02*
X0087099Y0061451D01*
X0087099Y0062449D02*
X0088499Y0062449D01*
X0088499Y0063448D02*
X0087099Y0063448D01*
X0087099Y0064446D02*
X0088499Y0064446D01*
X0088499Y0065445D02*
X0087099Y0065445D01*
X0087099Y0066443D02*
X0088499Y0066443D01*
X0088499Y0067442D02*
X0087099Y0067442D01*
X0087099Y0068440D02*
X0088499Y0068440D01*
X0088756Y0069439D02*
X0086843Y0069439D01*
X0086408Y0070437D02*
X0089191Y0070437D01*
X0090189Y0071436D02*
X0085409Y0071436D01*
X0095409Y0071436D02*
X0096649Y0071436D01*
X0096649Y0070437D02*
X0096408Y0070437D01*
X0100249Y0071674D02*
X0100249Y0078215D01*
X0105507Y0083473D01*
X0105507Y0071559D01*
X0105158Y0071813D01*
X0104527Y0072135D01*
X0103853Y0072354D01*
X0103299Y0072441D01*
X0103299Y0065465D01*
X0102299Y0065465D01*
X0102299Y0072441D01*
X0101745Y0072354D01*
X0101072Y0072135D01*
X0100441Y0071813D01*
X0100249Y0071674D01*
X0100249Y0072434D02*
X0102254Y0072434D01*
X0102299Y0072434D02*
X0103299Y0072434D01*
X0103344Y0072434D02*
X0105507Y0072434D01*
X0105507Y0073433D02*
X0100249Y0073433D01*
X0100249Y0074431D02*
X0105507Y0074431D01*
X0105507Y0075430D02*
X0100249Y0075430D01*
X0100249Y0076428D02*
X0105507Y0076428D01*
X0105507Y0077427D02*
X0100249Y0077427D01*
X0100459Y0078425D02*
X0105507Y0078425D01*
X0105507Y0079424D02*
X0101458Y0079424D01*
X0102456Y0080422D02*
X0105507Y0080422D01*
X0105507Y0081421D02*
X0103455Y0081421D01*
X0104453Y0082419D02*
X0105507Y0082419D01*
X0105507Y0083418D02*
X0105452Y0083418D01*
X0109107Y0072434D02*
X0120014Y0072434D01*
X0119843Y0071436D02*
X0109107Y0071436D01*
X0103299Y0071436D02*
X0102299Y0071436D01*
X0102299Y0070437D02*
X0103299Y0070437D01*
X0103299Y0069439D02*
X0102299Y0069439D01*
X0102299Y0068440D02*
X0103299Y0068440D01*
X0103299Y0067442D02*
X0102299Y0067442D01*
X0102299Y0066443D02*
X0103299Y0066443D01*
X0103299Y0064465D02*
X0103299Y0057488D01*
X0103853Y0057575D01*
X0104527Y0057794D01*
X0105158Y0058116D01*
X0105507Y0058370D01*
X0105507Y0049194D01*
X0102013Y0045700D01*
X0102013Y0049283D01*
X0101251Y0050044D01*
X0100249Y0050044D01*
X0100249Y0058255D01*
X0100441Y0058116D01*
X0101072Y0057794D01*
X0101745Y0057575D01*
X0102299Y0057488D01*
X0102299Y0064465D01*
X0103299Y0064465D01*
X0103299Y0064446D02*
X0102299Y0064446D01*
X0102299Y0063448D02*
X0103299Y0063448D01*
X0103299Y0062449D02*
X0102299Y0062449D01*
X0102299Y0061451D02*
X0103299Y0061451D01*
X0103299Y0060452D02*
X0102299Y0060452D01*
X0102299Y0059454D02*
X0103299Y0059454D01*
X0103299Y0058455D02*
X0102299Y0058455D01*
X0100249Y0057457D02*
X0105507Y0057457D01*
X0105507Y0056458D02*
X0100249Y0056458D01*
X0100249Y0055460D02*
X0105507Y0055460D01*
X0105507Y0054461D02*
X0100249Y0054461D01*
X0100249Y0053463D02*
X0105507Y0053463D01*
X0105507Y0052464D02*
X0100249Y0052464D01*
X0100249Y0051466D02*
X0105507Y0051466D01*
X0105507Y0050467D02*
X0100249Y0050467D01*
X0101827Y0049469D02*
X0105507Y0049469D01*
X0104783Y0048470D02*
X0102013Y0048470D01*
X0102013Y0047472D02*
X0103784Y0047472D01*
X0102786Y0046473D02*
X0102013Y0046473D01*
X0132406Y0054846D02*
X0157012Y0030240D01*
X0160064Y0031495D02*
X0165377Y0031495D01*
X0165169Y0030995D02*
X0165169Y0028226D01*
X0166229Y0025667D01*
X0168187Y0023709D01*
X0170745Y0022650D01*
X0173514Y0022650D01*
X0176073Y0023709D01*
X0178031Y0025667D01*
X0179091Y0028226D01*
X0179091Y0030995D01*
X0178031Y0033553D01*
X0176073Y0035511D01*
X0173514Y0036571D01*
X0170745Y0036571D01*
X0168187Y0035511D01*
X0166229Y0033553D01*
X0165169Y0030995D01*
X0165169Y0030497D02*
X0160312Y0030497D01*
X0160276Y0029498D02*
X0165169Y0029498D01*
X0165169Y0028500D02*
X0159863Y0028500D01*
X0158940Y0027501D02*
X0165469Y0027501D01*
X0165883Y0026503D02*
X0155367Y0026503D01*
X0155367Y0025504D02*
X0166392Y0025504D01*
X0167391Y0024506D02*
X0155367Y0024506D01*
X0155367Y0023507D02*
X0168675Y0023507D01*
X0175585Y0023507D02*
X0185627Y0023507D01*
X0184629Y0022509D02*
X0155367Y0022509D01*
X0155367Y0021510D02*
X0183630Y0021510D01*
X0182631Y0020512D02*
X0155367Y0020512D01*
X0155367Y0019513D02*
X0181633Y0019513D01*
X0182110Y0017445D02*
X0189000Y0024335D01*
X0189000Y0028764D01*
X0191461Y0031224D01*
X0188415Y0032494D02*
X0188197Y0032494D01*
X0188197Y0033492D02*
X0189062Y0033492D01*
X0188197Y0034491D02*
X0190723Y0034491D01*
X0192198Y0034491D02*
X0256661Y0034491D01*
X0255119Y0033492D02*
X0193860Y0033492D01*
X0193068Y0039483D02*
X0366627Y0039483D01*
X0366264Y0038485D02*
X0177020Y0038485D01*
X0177020Y0039483D02*
X0188869Y0039483D01*
X0188047Y0040482D02*
X0177020Y0040482D01*
X0177020Y0041480D02*
X0187669Y0041480D01*
X0187669Y0042479D02*
X0177020Y0042479D01*
X0177020Y0043477D02*
X0187987Y0043477D01*
X0194268Y0042479D02*
X0367717Y0042479D01*
X0367966Y0043477D02*
X0194940Y0043477D01*
X0195939Y0044476D02*
X0368142Y0044476D01*
X0368319Y0045474D02*
X0196937Y0045474D01*
X0197936Y0046473D02*
X0368495Y0046473D01*
X0368671Y0047472D02*
X0222008Y0047472D01*
X0222365Y0047620D02*
X0223294Y0048548D01*
X0223796Y0049761D01*
X0223796Y0051074D01*
X0223294Y0052287D01*
X0222365Y0053215D01*
X0221152Y0053717D01*
X0219840Y0053717D01*
X0219770Y0053689D01*
X0218354Y0055105D01*
X0218383Y0055174D01*
X0218383Y0056487D01*
X0217880Y0057700D01*
X0216952Y0058628D01*
X0215739Y0059131D01*
X0214426Y0059131D01*
X0213213Y0058628D01*
X0212285Y0057700D01*
X0211783Y0056487D01*
X0211783Y0055174D01*
X0212285Y0053961D01*
X0213213Y0053033D01*
X0214426Y0052531D01*
X0215739Y0052531D01*
X0215808Y0052559D01*
X0217225Y0051143D01*
X0217196Y0051074D01*
X0217196Y0049761D01*
X0217698Y0048548D01*
X0218627Y0047620D01*
X0219840Y0047117D01*
X0221152Y0047117D01*
X0222365Y0047620D01*
X0223216Y0048470D02*
X0368847Y0048470D01*
X0368941Y0049469D02*
X0223675Y0049469D01*
X0223796Y0050467D02*
X0368985Y0050467D01*
X0369029Y0051466D02*
X0223634Y0051466D01*
X0223116Y0052464D02*
X0369047Y0052464D01*
X0369047Y0053463D02*
X0221767Y0053463D01*
X0218998Y0054461D02*
X0369047Y0054461D01*
X0369047Y0055460D02*
X0218383Y0055460D01*
X0218383Y0056458D02*
X0369047Y0056458D01*
X0369047Y0057457D02*
X0217981Y0057457D01*
X0217125Y0058455D02*
X0369047Y0058455D01*
X0369047Y0059454D02*
X0206056Y0059454D01*
X0206056Y0060452D02*
X0369047Y0060452D01*
X0369047Y0061451D02*
X0206056Y0061451D01*
X0206056Y0062449D02*
X0369047Y0062449D01*
X0369047Y0063448D02*
X0206056Y0063448D01*
X0206056Y0064446D02*
X0369047Y0064446D01*
X0369047Y0065445D02*
X0206056Y0065445D01*
X0206056Y0066443D02*
X0369047Y0066443D01*
X0369047Y0067442D02*
X0206056Y0067442D01*
X0206056Y0068440D02*
X0369047Y0068440D01*
X0369047Y0069439D02*
X0206056Y0069439D01*
X0206056Y0070437D02*
X0369047Y0070437D01*
X0369047Y0071436D02*
X0206056Y0071436D01*
X0206056Y0072434D02*
X0369047Y0072434D01*
X0369047Y0073433D02*
X0206056Y0073433D01*
X0206056Y0074431D02*
X0369047Y0074431D01*
X0369047Y0075430D02*
X0206056Y0075430D01*
X0206056Y0076428D02*
X0369047Y0076428D01*
X0369047Y0077427D02*
X0206056Y0077427D01*
X0206056Y0078425D02*
X0369047Y0078425D01*
X0369047Y0079424D02*
X0206056Y0079424D01*
X0206056Y0080422D02*
X0369047Y0080422D01*
X0369047Y0081421D02*
X0206056Y0081421D01*
X0206056Y0082419D02*
X0240422Y0082419D01*
X0239670Y0083418D02*
X0212216Y0083418D01*
X0213394Y0084416D02*
X0239342Y0084416D01*
X0242642Y0084866D02*
X0242642Y0086343D01*
X0210654Y0086343D01*
X0211874Y0089409D02*
X0369047Y0089409D01*
X0369047Y0090408D02*
X0212343Y0090408D01*
X0213341Y0091406D02*
X0369047Y0091406D01*
X0369047Y0092405D02*
X0214340Y0092405D01*
X0215338Y0093403D02*
X0369047Y0093403D01*
X0369047Y0094402D02*
X0216337Y0094402D01*
X0217335Y0095400D02*
X0369047Y0095400D01*
X0369047Y0096399D02*
X0218334Y0096399D01*
X0219332Y0097397D02*
X0369047Y0097397D01*
X0369047Y0098396D02*
X0220331Y0098396D01*
X0221329Y0099394D02*
X0369047Y0099394D01*
X0369047Y0100393D02*
X0222328Y0100393D01*
X0223280Y0101391D02*
X0369047Y0101391D01*
X0369047Y0102390D02*
X0223280Y0102390D01*
X0223280Y0103388D02*
X0369047Y0103388D01*
X0369047Y0104387D02*
X0223280Y0104387D01*
X0223280Y0105385D02*
X0369047Y0105385D01*
X0369047Y0106384D02*
X0223280Y0106384D01*
X0223280Y0107382D02*
X0369047Y0107382D01*
X0369047Y0108381D02*
X0223280Y0108381D01*
X0223280Y0109379D02*
X0369047Y0109379D01*
X0369047Y0110378D02*
X0223280Y0110378D01*
X0223280Y0111376D02*
X0369047Y0111376D01*
X0369047Y0112375D02*
X0223280Y0112375D01*
X0223280Y0113373D02*
X0369047Y0113373D01*
X0369047Y0114372D02*
X0223280Y0114372D01*
X0223280Y0115370D02*
X0369047Y0115370D01*
X0369047Y0116369D02*
X0223280Y0116369D01*
X0223280Y0117367D02*
X0369047Y0117367D01*
X0369047Y0118366D02*
X0223280Y0118366D01*
X0223280Y0119364D02*
X0369047Y0119364D01*
X0369047Y0120363D02*
X0223280Y0120363D01*
X0223280Y0121361D02*
X0369047Y0121361D01*
X0369047Y0122360D02*
X0223280Y0122360D01*
X0223280Y0123358D02*
X0369047Y0123358D01*
X0369047Y0124357D02*
X0223280Y0124357D01*
X0223280Y0125355D02*
X0369047Y0125355D01*
X0369047Y0126354D02*
X0228757Y0126354D01*
X0229430Y0127352D02*
X0369047Y0127352D01*
X0369047Y0128351D02*
X0229702Y0128351D01*
X0229690Y0129349D02*
X0369047Y0129349D01*
X0369047Y0130348D02*
X0230630Y0130348D01*
X0231628Y0131346D02*
X0369047Y0131346D01*
X0369047Y0132345D02*
X0232627Y0132345D01*
X0233625Y0133343D02*
X0369047Y0133343D01*
X0369047Y0134342D02*
X0234624Y0134342D01*
X0235622Y0135341D02*
X0369047Y0135341D01*
X0369047Y0136339D02*
X0236621Y0136339D01*
X0237619Y0137338D02*
X0369047Y0137338D01*
X0369047Y0138336D02*
X0238618Y0138336D01*
X0239616Y0139335D02*
X0369047Y0139335D01*
X0369047Y0140333D02*
X0240615Y0140333D01*
X0243134Y0145398D02*
X0226402Y0128665D01*
X0224046Y0126354D02*
X0223280Y0126354D01*
X0223280Y0127352D02*
X0223374Y0127352D01*
X0217712Y0129753D02*
X0217388Y0130535D01*
X0216460Y0131463D01*
X0215247Y0131965D01*
X0213934Y0131965D01*
X0212721Y0131463D01*
X0211793Y0130535D01*
X0211291Y0129322D01*
X0211291Y0128009D01*
X0211793Y0126796D01*
X0212721Y0125868D01*
X0212791Y0125839D01*
X0212791Y0108320D01*
X0192383Y0108320D01*
X0192792Y0109308D01*
X0192792Y0110621D01*
X0192763Y0110690D01*
X0201064Y0118991D01*
X0202119Y0120046D01*
X0202119Y0131932D01*
X0203141Y0131932D01*
X0203783Y0132575D01*
X0204426Y0131932D01*
X0209834Y0131932D01*
X0210595Y0132694D01*
X0210595Y0137708D01*
X0210059Y0138244D01*
X0210509Y0139328D01*
X0210509Y0140641D01*
X0210006Y0141854D01*
X0209919Y0141941D01*
X0209941Y0141953D01*
X0210220Y0142233D01*
X0210417Y0142575D01*
X0210520Y0142956D01*
X0210520Y0144638D01*
X0207339Y0144638D01*
X0207339Y0145606D01*
X0210520Y0145606D01*
X0210520Y0147288D01*
X0210417Y0147670D01*
X0210220Y0148012D01*
X0209941Y0148291D01*
X0209599Y0148488D01*
X0209217Y0148591D01*
X0207339Y0148591D01*
X0207339Y0145606D01*
X0206370Y0145606D01*
X0206370Y0148591D01*
X0204491Y0148591D01*
X0204110Y0148488D01*
X0203768Y0148291D01*
X0203489Y0148012D01*
X0203399Y0147857D01*
X0202865Y0148391D01*
X0198968Y0148391D01*
X0200085Y0149508D01*
X0200155Y0149480D01*
X0201467Y0149480D01*
X0202680Y0149982D01*
X0203609Y0150910D01*
X0204111Y0152123D01*
X0204111Y0153436D01*
X0203739Y0154334D01*
X0204401Y0154334D01*
X0205162Y0155095D01*
X0205162Y0155757D01*
X0206060Y0155385D01*
X0207373Y0155385D01*
X0208586Y0155887D01*
X0209514Y0156816D01*
X0210017Y0158029D01*
X0210017Y0159341D01*
X0209514Y0160554D01*
X0208586Y0161483D01*
X0207373Y0161985D01*
X0206060Y0161985D01*
X0204847Y0161483D01*
X0204235Y0160871D01*
X0198993Y0160871D01*
X0198350Y0160228D01*
X0197708Y0160871D01*
X0196705Y0160871D01*
X0196705Y0166145D01*
X0197708Y0166145D01*
X0198350Y0166788D01*
X0198993Y0166145D01*
X0199995Y0166145D01*
X0199995Y0164829D01*
X0201050Y0163775D01*
X0203398Y0163775D01*
X0203427Y0163705D01*
X0204355Y0162777D01*
X0205568Y0162275D01*
X0206881Y0162275D01*
X0208094Y0162777D01*
X0209022Y0163705D01*
X0209524Y0164918D01*
X0209524Y0166231D01*
X0209022Y0167444D01*
X0208094Y0168372D01*
X0206881Y0168875D01*
X0205568Y0168875D01*
X0205162Y0168707D01*
X0205162Y0171920D01*
X0204401Y0172682D01*
X0201113Y0172682D01*
X0202546Y0174115D01*
X0202615Y0174086D01*
X0203928Y0174086D01*
X0205141Y0174588D01*
X0206069Y0175517D01*
X0206572Y0176729D01*
X0206572Y0178042D01*
X0206069Y0179255D01*
X0205906Y0179419D01*
X0206125Y0179509D01*
X0207053Y0180438D01*
X0207477Y0181461D01*
X0212796Y0176143D01*
X0212767Y0176074D01*
X0212767Y0174761D01*
X0213269Y0173548D01*
X0214198Y0172620D01*
X0215411Y0172117D01*
X0216723Y0172117D01*
X0217712Y0172527D01*
X0217712Y0129753D01*
X0217712Y0130348D02*
X0217465Y0130348D01*
X0217712Y0131346D02*
X0216576Y0131346D01*
X0217712Y0132345D02*
X0210246Y0132345D01*
X0210595Y0133343D02*
X0217712Y0133343D01*
X0217712Y0134342D02*
X0210595Y0134342D01*
X0210595Y0135341D02*
X0217712Y0135341D01*
X0217712Y0136339D02*
X0210595Y0136339D01*
X0210595Y0137338D02*
X0217712Y0137338D01*
X0217712Y0138336D02*
X0210098Y0138336D01*
X0210509Y0139335D02*
X0217712Y0139335D01*
X0217712Y0140333D02*
X0210509Y0140333D01*
X0210222Y0141332D02*
X0217712Y0141332D01*
X0217712Y0142330D02*
X0210276Y0142330D01*
X0210520Y0143329D02*
X0217712Y0143329D01*
X0217712Y0144327D02*
X0210520Y0144327D01*
X0210520Y0146324D02*
X0217712Y0146324D01*
X0217712Y0145326D02*
X0207339Y0145326D01*
X0207209Y0144906D02*
X0206854Y0145122D01*
X0207209Y0144906D02*
X0216067Y0144906D01*
X0216067Y0144413D01*
X0217712Y0147323D02*
X0210510Y0147323D01*
X0209888Y0148321D02*
X0217712Y0148321D01*
X0217712Y0149320D02*
X0199897Y0149320D01*
X0202935Y0148321D02*
X0203820Y0148321D01*
X0203017Y0150318D02*
X0217712Y0150318D01*
X0217712Y0151317D02*
X0203777Y0151317D01*
X0204111Y0152315D02*
X0217712Y0152315D01*
X0217712Y0153314D02*
X0204111Y0153314D01*
X0203748Y0154312D02*
X0217712Y0154312D01*
X0217712Y0155311D02*
X0205162Y0155311D01*
X0206717Y0158685D02*
X0201795Y0158685D01*
X0201795Y0157701D01*
X0201697Y0157602D01*
X0198425Y0160303D02*
X0198275Y0160303D01*
X0196705Y0161302D02*
X0204666Y0161302D01*
X0205506Y0162300D02*
X0196705Y0162300D01*
X0196705Y0163299D02*
X0203833Y0163299D01*
X0201795Y0165575D02*
X0206224Y0165575D01*
X0209267Y0164297D02*
X0217712Y0164297D01*
X0217712Y0163299D02*
X0208615Y0163299D01*
X0206942Y0162300D02*
X0217712Y0162300D01*
X0217712Y0161302D02*
X0208767Y0161302D01*
X0209618Y0160303D02*
X0217712Y0160303D01*
X0217712Y0159305D02*
X0210017Y0159305D01*
X0210017Y0158306D02*
X0217712Y0158306D01*
X0217712Y0157308D02*
X0209718Y0157308D01*
X0209008Y0156309D02*
X0217712Y0156309D01*
X0217712Y0165296D02*
X0209524Y0165296D01*
X0209498Y0166294D02*
X0217712Y0166294D01*
X0217712Y0167293D02*
X0209085Y0167293D01*
X0208175Y0168291D02*
X0217712Y0168291D01*
X0217712Y0169290D02*
X0205162Y0169290D01*
X0205162Y0170288D02*
X0217712Y0170288D01*
X0217712Y0171287D02*
X0205162Y0171287D01*
X0204797Y0172285D02*
X0215005Y0172285D01*
X0213533Y0173284D02*
X0201715Y0173284D01*
X0204403Y0174282D02*
X0212965Y0174282D01*
X0212767Y0175281D02*
X0205834Y0175281D01*
X0206385Y0176279D02*
X0212659Y0176279D01*
X0211661Y0177278D02*
X0206572Y0177278D01*
X0206475Y0178277D02*
X0210662Y0178277D01*
X0209664Y0179275D02*
X0206049Y0179275D01*
X0206889Y0180274D02*
X0208665Y0180274D01*
X0207667Y0181272D02*
X0207399Y0181272D01*
X0204256Y0182307D02*
X0189984Y0182307D01*
X0183587Y0175909D01*
X0179157Y0175909D01*
X0181618Y0173449D02*
X0181618Y0169512D01*
X0168331Y0156224D01*
X0168331Y0120791D01*
X0172268Y0116854D02*
X0172268Y0129650D01*
X0175713Y0134571D02*
X0175713Y0115870D01*
X0179157Y0112425D01*
X0172268Y0116854D02*
X0169807Y0114394D01*
X0168331Y0114394D01*
X0163409Y0114394D02*
X0168823Y0108980D01*
X0185063Y0108980D01*
X0185063Y0132602D01*
X0183094Y0134571D01*
X0182642Y0134886D01*
X0182602Y0135063D01*
X0182110Y0135555D01*
X0182110Y0144413D01*
X0182051Y0144728D01*
X0179973Y0147997D02*
X0179973Y0160400D01*
X0185809Y0166235D01*
X0192210Y0166235D01*
X0192300Y0166145D01*
X0193106Y0166145D01*
X0193106Y0160871D01*
X0192300Y0160871D01*
X0191539Y0160109D01*
X0191539Y0155095D01*
X0191629Y0155005D01*
X0191629Y0148013D01*
X0191488Y0148095D01*
X0191107Y0148197D01*
X0189228Y0148197D01*
X0189228Y0145213D01*
X0188260Y0145213D01*
X0188260Y0148197D01*
X0186381Y0148197D01*
X0186000Y0148095D01*
X0185658Y0147897D01*
X0185378Y0147618D01*
X0185289Y0147463D01*
X0184755Y0147997D01*
X0179973Y0147997D01*
X0179973Y0148321D02*
X0191629Y0148321D01*
X0191629Y0149320D02*
X0179973Y0149320D01*
X0179973Y0150318D02*
X0191629Y0150318D01*
X0191629Y0151317D02*
X0179973Y0151317D01*
X0179973Y0152315D02*
X0191629Y0152315D01*
X0191629Y0153314D02*
X0179973Y0153314D01*
X0179973Y0154312D02*
X0191629Y0154312D01*
X0191539Y0155311D02*
X0179973Y0155311D01*
X0179973Y0156309D02*
X0191539Y0156309D01*
X0191539Y0157308D02*
X0179973Y0157308D01*
X0179973Y0158306D02*
X0191539Y0158306D01*
X0191539Y0159305D02*
X0179973Y0159305D01*
X0179973Y0160303D02*
X0191733Y0160303D01*
X0193106Y0161302D02*
X0180875Y0161302D01*
X0181873Y0162300D02*
X0193106Y0162300D01*
X0193106Y0163299D02*
X0182872Y0163299D01*
X0183870Y0164297D02*
X0193106Y0164297D01*
X0193106Y0165296D02*
X0184869Y0165296D01*
X0186539Y0164591D02*
X0186539Y0146874D01*
X0188508Y0144906D01*
X0188744Y0144728D01*
X0188260Y0144244D02*
X0189228Y0144244D01*
X0189228Y0141260D01*
X0190153Y0141260D01*
X0190153Y0138269D01*
X0190038Y0138154D01*
X0186631Y0138154D01*
X0185988Y0137512D01*
X0185346Y0138154D01*
X0183910Y0138154D01*
X0183910Y0141460D01*
X0184755Y0141460D01*
X0185289Y0141994D01*
X0185378Y0141839D01*
X0185658Y0141560D01*
X0186000Y0141362D01*
X0186381Y0141260D01*
X0188260Y0141260D01*
X0188260Y0144244D01*
X0188260Y0143329D02*
X0189228Y0143329D01*
X0189228Y0142330D02*
X0188260Y0142330D01*
X0188260Y0141332D02*
X0189228Y0141332D01*
X0190153Y0140333D02*
X0183910Y0140333D01*
X0183910Y0139335D02*
X0190153Y0139335D01*
X0190153Y0138336D02*
X0183910Y0138336D01*
X0183910Y0141332D02*
X0186114Y0141332D01*
X0191953Y0141953D02*
X0191953Y0137524D01*
X0192445Y0137524D01*
X0195398Y0134571D01*
X0191953Y0137524D02*
X0189492Y0135063D01*
X0189335Y0134886D01*
X0195398Y0140476D02*
X0195398Y0147366D01*
X0200811Y0152780D01*
X0206370Y0148321D02*
X0207339Y0148321D01*
X0207339Y0147323D02*
X0206370Y0147323D01*
X0206370Y0146324D02*
X0207339Y0146324D01*
X0200319Y0144906D02*
X0200161Y0145122D01*
X0200319Y0144906D02*
X0200319Y0135555D01*
X0200437Y0135201D01*
X0200319Y0135063D01*
X0200319Y0120791D01*
X0189492Y0109965D01*
X0192408Y0108381D02*
X0212791Y0108381D01*
X0212791Y0109379D02*
X0192792Y0109379D01*
X0192792Y0110378D02*
X0212791Y0110378D01*
X0212791Y0111376D02*
X0193449Y0111376D01*
X0194448Y0112375D02*
X0212791Y0112375D01*
X0212791Y0113373D02*
X0195446Y0113373D01*
X0196445Y0114372D02*
X0212791Y0114372D01*
X0212791Y0115370D02*
X0197443Y0115370D01*
X0198442Y0116369D02*
X0212791Y0116369D01*
X0212791Y0117367D02*
X0199440Y0117367D01*
X0200439Y0118366D02*
X0212791Y0118366D01*
X0212791Y0119364D02*
X0201437Y0119364D01*
X0202119Y0120363D02*
X0212791Y0120363D01*
X0212791Y0121361D02*
X0202119Y0121361D01*
X0202119Y0122360D02*
X0212791Y0122360D01*
X0212791Y0123358D02*
X0202119Y0123358D01*
X0202119Y0124357D02*
X0212791Y0124357D01*
X0212791Y0125355D02*
X0202119Y0125355D01*
X0202119Y0126354D02*
X0212235Y0126354D01*
X0211562Y0127352D02*
X0202119Y0127352D01*
X0202119Y0128351D02*
X0211291Y0128351D01*
X0211302Y0129349D02*
X0202119Y0129349D01*
X0202119Y0130348D02*
X0211716Y0130348D01*
X0212605Y0131346D02*
X0202119Y0131346D01*
X0203554Y0132345D02*
X0204013Y0132345D01*
X0207130Y0135201D02*
X0207209Y0135555D01*
X0207209Y0139984D01*
X0193429Y0143429D02*
X0193429Y0155732D01*
X0194906Y0157209D01*
X0195004Y0157602D01*
X0194906Y0157701D01*
X0194906Y0169020D01*
X0195004Y0169413D01*
X0195398Y0169512D01*
X0203272Y0177386D01*
X0201697Y0169413D02*
X0201795Y0169020D01*
X0201795Y0165575D01*
X0200527Y0164297D02*
X0196705Y0164297D01*
X0196705Y0165296D02*
X0199995Y0165296D01*
X0198844Y0166294D02*
X0197857Y0166294D01*
X0194413Y0168035D02*
X0195004Y0169413D01*
X0194413Y0168035D02*
X0185063Y0168035D01*
X0178173Y0161146D01*
X0178173Y0145890D01*
X0176697Y0144413D01*
X0188260Y0145326D02*
X0189228Y0145326D01*
X0189228Y0146324D02*
X0188260Y0146324D01*
X0188260Y0147323D02*
X0189228Y0147323D01*
X0193429Y0143429D02*
X0191953Y0141953D01*
X0179157Y0130142D02*
X0181618Y0127681D01*
X0181618Y0122760D01*
X0160949Y0128173D02*
X0160457Y0128665D01*
X0160457Y0218724D01*
X0158488Y0220693D01*
X0158488Y0223646D01*
X0160457Y0225614D01*
X0194906Y0225614D01*
X0194906Y0196579D01*
X0216067Y0175417D01*
X0217129Y0172285D02*
X0217712Y0172285D01*
X0224925Y0175417D02*
X0247563Y0152780D01*
X0247563Y0148843D01*
X0250524Y0150318D02*
X0252464Y0150318D01*
X0251247Y0149320D02*
X0250863Y0149320D01*
X0248576Y0154312D02*
X0291826Y0154312D01*
X0294069Y0154010D02*
X0297760Y0157701D01*
X0295695Y0160303D02*
X0295623Y0160303D01*
X0295623Y0161302D02*
X0301795Y0161302D01*
X0303665Y0164098D02*
X0297268Y0164098D01*
X0297268Y0168035D01*
X0296520Y0162300D02*
X0295623Y0162300D01*
X0294352Y0176279D02*
X0252199Y0176279D01*
X0251201Y0177278D02*
X0293354Y0177278D01*
X0292355Y0178277D02*
X0250202Y0178277D01*
X0249204Y0179275D02*
X0291357Y0179275D01*
X0290358Y0180274D02*
X0248205Y0180274D01*
X0247207Y0181272D02*
X0289360Y0181272D01*
X0288361Y0182271D02*
X0246208Y0182271D01*
X0245210Y0183269D02*
X0287363Y0183269D01*
X0286364Y0184268D02*
X0244211Y0184268D01*
X0243481Y0185266D02*
X0285366Y0185266D01*
X0284367Y0186265D02*
X0243481Y0186265D01*
X0243127Y0187263D02*
X0283368Y0187263D01*
X0282370Y0188262D02*
X0242338Y0188262D01*
X0238536Y0189260D02*
X0281371Y0189260D01*
X0280373Y0190259D02*
X0238536Y0190259D01*
X0238536Y0191257D02*
X0279374Y0191257D01*
X0278376Y0192256D02*
X0238536Y0192256D01*
X0238536Y0193254D02*
X0277377Y0193254D01*
X0276379Y0194253D02*
X0238536Y0194253D01*
X0238536Y0195251D02*
X0275380Y0195251D01*
X0274382Y0196250D02*
X0238536Y0196250D01*
X0238536Y0197248D02*
X0273383Y0197248D01*
X0272385Y0198247D02*
X0238536Y0198247D01*
X0238536Y0199245D02*
X0271386Y0199245D01*
X0268871Y0200244D02*
X0238536Y0200244D01*
X0238536Y0201242D02*
X0267268Y0201242D01*
X0293452Y0182271D02*
X0294267Y0182271D01*
X0294451Y0181272D02*
X0295265Y0181272D01*
X0295449Y0180274D02*
X0296264Y0180274D01*
X0296448Y0179275D02*
X0297262Y0179275D01*
X0297446Y0178277D02*
X0298261Y0178277D01*
X0298445Y0177278D02*
X0299259Y0177278D01*
X0299443Y0176279D02*
X0300258Y0176279D01*
X0303989Y0176279D02*
X0311180Y0176279D01*
X0219512Y0177878D02*
X0198350Y0199039D01*
X0219512Y0177878D02*
X0219512Y0110949D01*
X0218035Y0109472D01*
X0218035Y0108980D01*
X0218035Y0104059D01*
X0215575Y0101598D01*
X0214591Y0106520D02*
X0214591Y0128665D01*
X0214591Y0106520D02*
X0166362Y0106520D01*
X0157504Y0115378D01*
X0157504Y0127189D01*
X0144709Y0139984D01*
X0142740Y0144906D02*
X0142740Y0148350D01*
X0139295Y0151795D01*
X0116657Y0144413D02*
X0116165Y0143921D01*
X0116165Y0122268D01*
X0123055Y0118331D02*
X0123055Y0132602D01*
X0133882Y0134571D02*
X0144217Y0124236D01*
X0142740Y0120791D02*
X0137819Y0120791D01*
X0137819Y0118823D01*
X0141264Y0117346D02*
X0134374Y0110457D01*
X0137819Y0110949D02*
X0137819Y0105535D01*
X0132406Y0100122D01*
X0132406Y0054846D01*
X0135850Y0056323D02*
X0143724Y0064197D01*
X0143724Y0072071D01*
X0144177Y0072406D01*
X0148154Y0072071D02*
X0148508Y0072406D01*
X0148154Y0072071D02*
X0148154Y0057799D01*
X0141264Y0050909D01*
X0152583Y0063213D02*
X0152583Y0072071D01*
X0152839Y0072406D01*
X0157504Y0076500D02*
X0159965Y0076500D01*
X0161933Y0078469D01*
X0161933Y0083390D01*
X0163733Y0080422D02*
X0164903Y0080422D01*
X0163733Y0079424D02*
X0179594Y0079424D01*
X0180592Y0078425D02*
X0163733Y0078425D01*
X0167822Y0080422D02*
X0178595Y0080422D01*
X0177596Y0081421D02*
X0169060Y0081421D01*
X0169532Y0082419D02*
X0176598Y0082419D01*
X0176442Y0076428D02*
X0176873Y0076428D01*
X0172543Y0076428D02*
X0172111Y0076428D01*
X0168212Y0076428D02*
X0168014Y0076428D01*
X0161500Y0072406D02*
X0161441Y0072071D01*
X0161441Y0057307D01*
X0159688Y0054461D02*
X0158812Y0054461D01*
X0168114Y0068440D02*
X0168154Y0068440D01*
X0174728Y0065181D02*
X0178173Y0061736D01*
X0180558Y0059454D02*
X0181694Y0059454D01*
X0183587Y0062228D02*
X0179650Y0066165D01*
X0179650Y0071579D01*
X0178823Y0072406D01*
X0183677Y0072434D02*
X0184462Y0072434D01*
X0184677Y0071436D02*
X0183677Y0071436D01*
X0183677Y0070437D02*
X0184677Y0070437D01*
X0188197Y0068440D02*
X0191629Y0068440D01*
X0191629Y0067442D02*
X0188197Y0067442D01*
X0188197Y0066443D02*
X0191629Y0066443D01*
X0192096Y0065445D02*
X0187979Y0065445D01*
X0186036Y0064446D02*
X0192121Y0064446D01*
X0192121Y0063448D02*
X0186653Y0063448D01*
X0186887Y0062449D02*
X0192121Y0062449D01*
X0192121Y0061451D02*
X0186836Y0061451D01*
X0186423Y0060452D02*
X0192121Y0060452D01*
X0192121Y0059454D02*
X0185479Y0059454D01*
X0193921Y0053370D02*
X0193921Y0066165D01*
X0193429Y0066657D01*
X0193429Y0069610D01*
X0193921Y0070102D01*
X0193921Y0080929D01*
X0191953Y0082898D01*
X0191953Y0090280D01*
X0189492Y0092740D01*
X0189492Y0093232D01*
X0188508Y0093232D01*
X0181618Y0100122D01*
X0186539Y0100122D02*
X0200319Y0086343D01*
X0200319Y0064689D01*
X0198843Y0063213D01*
X0206056Y0058455D02*
X0213040Y0058455D01*
X0212184Y0057457D02*
X0206056Y0057457D01*
X0206056Y0056458D02*
X0211783Y0056458D01*
X0211783Y0055460D02*
X0206056Y0055460D01*
X0205924Y0054461D02*
X0212078Y0054461D01*
X0212784Y0053463D02*
X0204925Y0053463D01*
X0203927Y0052464D02*
X0215904Y0052464D01*
X0216902Y0051466D02*
X0202928Y0051466D01*
X0201930Y0050467D02*
X0217196Y0050467D01*
X0217317Y0049469D02*
X0200931Y0049469D01*
X0199933Y0048470D02*
X0217776Y0048470D01*
X0218985Y0047472D02*
X0198934Y0047472D01*
X0194268Y0041480D02*
X0367354Y0041480D01*
X0366990Y0040482D02*
X0193890Y0040482D01*
X0188151Y0035489D02*
X0259071Y0035489D01*
X0262826Y0035489D02*
X0364817Y0035489D01*
X0364241Y0034491D02*
X0265237Y0034491D01*
X0266778Y0033492D02*
X0363664Y0033492D01*
X0363088Y0032494D02*
X0267777Y0032494D01*
X0268762Y0031495D02*
X0362407Y0031495D01*
X0361570Y0030497D02*
X0269176Y0030497D01*
X0269589Y0029498D02*
X0360732Y0029498D01*
X0359894Y0028500D02*
X0270003Y0028500D01*
X0270154Y0027501D02*
X0359056Y0027501D01*
X0357959Y0026503D02*
X0270154Y0026503D01*
X0270154Y0025504D02*
X0356769Y0025504D01*
X0355579Y0024506D02*
X0270154Y0024506D01*
X0269755Y0023507D02*
X0354389Y0023507D01*
X0352756Y0022509D02*
X0269341Y0022509D01*
X0268927Y0021510D02*
X0351026Y0021510D01*
X0349297Y0020512D02*
X0268176Y0020512D01*
X0267177Y0019513D02*
X0346778Y0019513D01*
X0344034Y0018515D02*
X0266179Y0018515D01*
X0263790Y0017516D02*
X0339257Y0017516D01*
X0365394Y0036488D02*
X0187331Y0036488D01*
X0184441Y0036488D02*
X0183441Y0036488D01*
X0183441Y0035489D02*
X0184441Y0035489D01*
X0184441Y0034491D02*
X0183441Y0034491D01*
X0183441Y0033492D02*
X0184441Y0033492D01*
X0184441Y0032494D02*
X0183441Y0032494D01*
X0183441Y0031495D02*
X0178883Y0031495D01*
X0179091Y0030497D02*
X0179685Y0030497D01*
X0179685Y0030685D02*
X0179685Y0027051D01*
X0179787Y0026669D01*
X0179985Y0026327D01*
X0180264Y0026048D01*
X0180606Y0025850D01*
X0180988Y0025748D01*
X0183441Y0025748D01*
X0183441Y0030685D01*
X0179685Y0030685D01*
X0179685Y0029498D02*
X0179091Y0029498D01*
X0179091Y0028500D02*
X0179685Y0028500D01*
X0179685Y0027501D02*
X0178790Y0027501D01*
X0178377Y0026503D02*
X0179883Y0026503D01*
X0177868Y0025504D02*
X0187200Y0025504D01*
X0186626Y0024506D02*
X0176869Y0024506D01*
X0183441Y0026503D02*
X0184441Y0026503D01*
X0184441Y0027501D02*
X0183441Y0027501D01*
X0183441Y0028500D02*
X0184441Y0028500D01*
X0184441Y0029498D02*
X0183441Y0029498D01*
X0183441Y0030497D02*
X0184441Y0030497D01*
X0179685Y0032494D02*
X0178470Y0032494D01*
X0178056Y0033492D02*
X0179685Y0033492D01*
X0179685Y0034491D02*
X0177093Y0034491D01*
X0176095Y0035489D02*
X0179731Y0035489D01*
X0180551Y0036488D02*
X0173715Y0036488D01*
X0176646Y0037486D02*
X0365900Y0037486D01*
X0369047Y0082419D02*
X0244862Y0082419D01*
X0245614Y0083418D02*
X0369047Y0083418D01*
X0369047Y0084416D02*
X0245942Y0084416D01*
X0245942Y0085415D02*
X0369047Y0085415D01*
X0369047Y0086413D02*
X0245573Y0086413D01*
X0244763Y0087412D02*
X0369047Y0087412D01*
X0369047Y0088410D02*
X0213252Y0088410D01*
X0207913Y0084416D02*
X0206352Y0084416D01*
X0206056Y0083418D02*
X0209091Y0083418D01*
X0207466Y0085415D02*
X0207350Y0085415D01*
X0196874Y0082898D02*
X0196874Y0068134D01*
X0215083Y0055831D02*
X0220496Y0050417D01*
X0170545Y0036488D02*
X0160034Y0036488D01*
X0160312Y0035489D02*
X0168165Y0035489D01*
X0167167Y0034491D02*
X0160306Y0034491D01*
X0159892Y0033492D02*
X0166204Y0033492D01*
X0165790Y0032494D02*
X0159425Y0032494D01*
X0151767Y0027501D02*
X0147294Y0027501D01*
X0147594Y0028500D02*
X0150793Y0028500D01*
X0149795Y0029498D02*
X0147594Y0029498D01*
X0147594Y0030497D02*
X0148796Y0030497D01*
X0147798Y0031495D02*
X0147387Y0031495D01*
X0146881Y0026503D02*
X0151767Y0026503D01*
X0151767Y0025504D02*
X0149201Y0025504D01*
X0150681Y0024506D02*
X0151767Y0024506D01*
X0147106Y0025504D02*
X0146372Y0025504D01*
X0145626Y0024506D02*
X0145373Y0024506D01*
X0151767Y0017516D02*
X0045632Y0017516D01*
X0136343Y0066657D02*
X0136343Y0098154D01*
X0135850Y0098646D01*
X0151106Y0098154D02*
X0154551Y0094709D01*
X0142248Y0083390D02*
X0145693Y0079945D01*
X0116165Y0102583D02*
X0116165Y0109472D01*
X0123055Y0109472D02*
X0134374Y0120791D01*
X0142740Y0120791D02*
X0144709Y0118823D01*
X0144709Y0117839D01*
X0147661Y0114886D01*
X0142740Y0110949D02*
X0137819Y0110949D01*
X0133882Y0134571D02*
X0133882Y0173941D01*
X0124039Y0183783D01*
X0124039Y0191165D01*
X0124531Y0191657D01*
X0124531Y0197563D01*
X0121087Y0201008D01*
X0124148Y0202241D02*
X0135527Y0202241D01*
X0135527Y0203239D02*
X0123522Y0203239D01*
X0121912Y0204238D02*
X0135527Y0204238D01*
X0135527Y0205236D02*
X0122447Y0205236D01*
X0123446Y0206235D02*
X0135527Y0206235D01*
X0135527Y0207233D02*
X0124444Y0207233D01*
X0125443Y0208232D02*
X0135527Y0208232D01*
X0135527Y0209230D02*
X0126441Y0209230D01*
X0127440Y0210229D02*
X0136128Y0210229D01*
X0137127Y0211227D02*
X0128438Y0211227D01*
X0129437Y0212226D02*
X0138125Y0212226D01*
X0139124Y0213224D02*
X0130435Y0213224D01*
X0131434Y0214223D02*
X0140122Y0214223D01*
X0141121Y0215221D02*
X0132432Y0215221D01*
X0133431Y0216220D02*
X0142119Y0216220D01*
X0143118Y0217218D02*
X0134429Y0217218D01*
X0135428Y0218217D02*
X0144116Y0218217D01*
X0145115Y0219215D02*
X0136426Y0219215D01*
X0137425Y0220214D02*
X0146113Y0220214D01*
X0147112Y0221212D02*
X0138423Y0221212D01*
X0139422Y0222211D02*
X0148110Y0222211D01*
X0149109Y0223210D02*
X0140420Y0223210D01*
X0141419Y0224208D02*
X0150107Y0224208D01*
X0151106Y0225207D02*
X0142417Y0225207D01*
X0143416Y0226205D02*
X0152104Y0226205D01*
X0153103Y0227204D02*
X0144414Y0227204D01*
X0145413Y0228202D02*
X0154101Y0228202D01*
X0155100Y0229201D02*
X0146412Y0229201D01*
X0147410Y0230199D02*
X0156098Y0230199D01*
X0157097Y0231198D02*
X0148409Y0231198D01*
X0149407Y0232196D02*
X0158095Y0232196D01*
X0159094Y0233195D02*
X0150406Y0233195D01*
X0151404Y0234193D02*
X0160092Y0234193D01*
X0161091Y0235192D02*
X0152403Y0235192D01*
X0153401Y0236190D02*
X0162089Y0236190D01*
X0163088Y0237189D02*
X0154400Y0237189D01*
X0155398Y0238187D02*
X0164086Y0238187D01*
X0165085Y0239186D02*
X0156397Y0239186D01*
X0157395Y0240184D02*
X0166084Y0240184D01*
X0167082Y0241183D02*
X0158394Y0241183D01*
X0159392Y0242181D02*
X0168081Y0242181D01*
X0169079Y0243180D02*
X0160391Y0243180D01*
X0161389Y0244178D02*
X0170078Y0244178D01*
X0171076Y0245177D02*
X0162388Y0245177D01*
X0163386Y0246175D02*
X0172075Y0246175D01*
X0173073Y0247174D02*
X0164385Y0247174D01*
X0165383Y0248172D02*
X0174072Y0248172D01*
X0175070Y0249171D02*
X0166382Y0249171D01*
X0167380Y0250169D02*
X0176069Y0250169D01*
X0177067Y0251168D02*
X0168379Y0251168D01*
X0169377Y0252166D02*
X0178066Y0252166D01*
X0179064Y0253165D02*
X0170376Y0253165D01*
X0171374Y0254163D02*
X0180063Y0254163D01*
X0181061Y0255162D02*
X0172373Y0255162D01*
X0173371Y0256160D02*
X0179602Y0256160D01*
X0178604Y0257159D02*
X0174370Y0257159D01*
X0175368Y0258157D02*
X0177605Y0258157D01*
X0177055Y0259156D02*
X0176367Y0259156D01*
X0185063Y0256618D02*
X0192937Y0256618D01*
X0191500Y0259156D02*
X0186355Y0259156D01*
X0186355Y0260154D02*
X0191255Y0260154D01*
X0191255Y0261153D02*
X0186355Y0261153D01*
X0186355Y0262151D02*
X0191517Y0262151D01*
X0191930Y0263150D02*
X0185765Y0263150D01*
X0184766Y0264148D02*
X0192926Y0264148D01*
X0183768Y0265147D02*
X0234936Y0265147D01*
X0240505Y0265147D02*
X0293672Y0265147D01*
X0293609Y0264206D02*
X0293609Y0264206D01*
X0293624Y0264148D02*
X0240505Y0264148D01*
X0240505Y0266145D02*
X0293738Y0266145D01*
X0293744Y0267144D02*
X0240505Y0267144D01*
X0240505Y0268143D02*
X0293704Y0268143D01*
X0293744Y0269141D02*
X0240505Y0269141D01*
X0239540Y0270140D02*
X0293987Y0270140D01*
X0294193Y0271138D02*
X0238541Y0271138D01*
X0244891Y0263150D02*
X0254130Y0263150D01*
X0253016Y0262151D02*
X0245890Y0262151D01*
X0246888Y0261153D02*
X0252406Y0261153D01*
X0252003Y0260154D02*
X0246903Y0260154D01*
X0240293Y0255162D02*
X0238536Y0255162D01*
X0238536Y0256160D02*
X0239294Y0256160D01*
X0259611Y0256160D02*
X0297104Y0256160D01*
X0296439Y0257159D02*
X0260384Y0257159D01*
X0260798Y0258157D02*
X0295811Y0258157D01*
X0295182Y0259156D02*
X0260903Y0259156D01*
X0260903Y0260154D02*
X0294633Y0260154D01*
X0294686Y0259944D02*
X0294686Y0259944D01*
X0294381Y0261153D02*
X0260500Y0261153D01*
X0259890Y0262151D02*
X0294128Y0262151D01*
X0293876Y0263150D02*
X0258775Y0263150D01*
X0294753Y0272137D02*
X0117518Y0272137D01*
X0117314Y0272221D02*
X0116001Y0272221D01*
X0114788Y0271719D01*
X0113860Y0270791D01*
X0113357Y0269578D01*
X0113357Y0268265D01*
X0113860Y0267052D01*
X0114788Y0266124D01*
X0114857Y0266095D01*
X0114857Y0223501D01*
X0114525Y0223501D01*
X0113312Y0222998D01*
X0112384Y0222070D01*
X0111881Y0220857D01*
X0111881Y0219544D01*
X0112384Y0218331D01*
X0113312Y0217403D01*
X0114525Y0216901D01*
X0115838Y0216901D01*
X0117050Y0217403D01*
X0117979Y0218331D01*
X0118481Y0219544D01*
X0118481Y0220857D01*
X0118452Y0220926D01*
X0118457Y0220932D01*
X0118457Y0222100D01*
X0119217Y0221340D01*
X0120430Y0220838D01*
X0121743Y0220838D01*
X0122956Y0221340D01*
X0123884Y0222268D01*
X0124387Y0223481D01*
X0124387Y0224794D01*
X0124358Y0224863D01*
X0124363Y0224869D01*
X0124363Y0244441D01*
X0124432Y0244470D01*
X0125361Y0245398D01*
X0125863Y0246611D01*
X0125863Y0247924D01*
X0125361Y0249137D01*
X0124432Y0250065D01*
X0123219Y0250568D01*
X0121907Y0250568D01*
X0120694Y0250065D01*
X0119765Y0249137D01*
X0119263Y0247924D01*
X0119263Y0246611D01*
X0119765Y0245398D01*
X0120694Y0244470D01*
X0120763Y0244441D01*
X0120763Y0227438D01*
X0120430Y0227438D01*
X0119217Y0226935D01*
X0118457Y0226176D01*
X0118457Y0266095D01*
X0118527Y0266124D01*
X0119455Y0267052D01*
X0119957Y0268265D01*
X0119957Y0269578D01*
X0119455Y0270791D01*
X0118527Y0271719D01*
X0117314Y0272221D01*
X0115797Y0272137D02*
X0109506Y0272137D01*
X0109919Y0271138D02*
X0114207Y0271138D01*
X0113590Y0270140D02*
X0110272Y0270140D01*
X0110272Y0269141D02*
X0113357Y0269141D01*
X0113408Y0268143D02*
X0110272Y0268143D01*
X0109987Y0267144D02*
X0113822Y0267144D01*
X0114766Y0266145D02*
X0109573Y0266145D01*
X0108917Y0265147D02*
X0114857Y0265147D01*
X0114857Y0264148D02*
X0107918Y0264148D01*
X0105964Y0263150D02*
X0114857Y0263150D01*
X0114857Y0262151D02*
X0100977Y0262151D01*
X0100977Y0261153D02*
X0114857Y0261153D01*
X0114857Y0260154D02*
X0100977Y0260154D01*
X0100977Y0259156D02*
X0114857Y0259156D01*
X0114857Y0258157D02*
X0101089Y0258157D01*
X0102087Y0257159D02*
X0114857Y0257159D01*
X0114857Y0256160D02*
X0103086Y0256160D01*
X0104084Y0255162D02*
X0114857Y0255162D01*
X0114857Y0254163D02*
X0105083Y0254163D01*
X0106657Y0250043D02*
X0099177Y0257524D01*
X0099177Y0267091D01*
X0096618Y0267091D02*
X0096618Y0251028D01*
X0095634Y0250043D01*
X0092365Y0250169D02*
X0088076Y0250169D01*
X0088076Y0249171D02*
X0092365Y0249171D01*
X0092365Y0248172D02*
X0088076Y0248172D01*
X0087910Y0247174D02*
X0092531Y0247174D01*
X0092486Y0246175D02*
X0087955Y0246175D01*
X0088076Y0245177D02*
X0092365Y0245177D01*
X0092365Y0244178D02*
X0088076Y0244178D01*
X0088076Y0243180D02*
X0092365Y0243180D01*
X0092365Y0242181D02*
X0088438Y0242181D01*
X0088438Y0241183D02*
X0092365Y0241183D01*
X0092828Y0240184D02*
X0088438Y0240184D01*
X0088438Y0239186D02*
X0097588Y0239186D01*
X0098586Y0238187D02*
X0088438Y0238187D01*
X0088438Y0237189D02*
X0099585Y0237189D01*
X0100583Y0236190D02*
X0088438Y0236190D01*
X0088438Y0235192D02*
X0101570Y0235192D01*
X0101570Y0234193D02*
X0088438Y0234193D01*
X0088438Y0233195D02*
X0101570Y0233195D01*
X0101570Y0232196D02*
X0088438Y0232196D01*
X0088438Y0231198D02*
X0101570Y0231198D01*
X0101570Y0230199D02*
X0088438Y0230199D01*
X0088438Y0229201D02*
X0101570Y0229201D01*
X0101570Y0228202D02*
X0088438Y0228202D01*
X0088438Y0227204D02*
X0101570Y0227204D01*
X0101570Y0226205D02*
X0088438Y0226205D01*
X0088438Y0225207D02*
X0101570Y0225207D01*
X0101570Y0224208D02*
X0088438Y0224208D01*
X0088438Y0223210D02*
X0101570Y0223210D01*
X0101570Y0222211D02*
X0088438Y0222211D01*
X0088438Y0221212D02*
X0101570Y0221212D01*
X0101570Y0220214D02*
X0088438Y0220214D01*
X0088438Y0219215D02*
X0101570Y0219215D01*
X0101570Y0218217D02*
X0088438Y0218217D01*
X0088438Y0217218D02*
X0101570Y0217218D01*
X0101570Y0216220D02*
X0088438Y0216220D01*
X0088438Y0215221D02*
X0101570Y0215221D01*
X0101570Y0214223D02*
X0088438Y0214223D01*
X0088438Y0213224D02*
X0101570Y0213224D01*
X0100572Y0212226D02*
X0088438Y0212226D01*
X0088438Y0211227D02*
X0100158Y0211227D01*
X0100070Y0210229D02*
X0088438Y0210229D01*
X0088438Y0209230D02*
X0100265Y0209230D01*
X0100830Y0208232D02*
X0088438Y0208232D01*
X0088438Y0207233D02*
X0102291Y0207233D01*
X0103515Y0206235D02*
X0088438Y0206235D01*
X0088438Y0205236D02*
X0103530Y0205236D01*
X0103944Y0204238D02*
X0088438Y0204238D01*
X0088438Y0203239D02*
X0104838Y0203239D01*
X0106815Y0205929D02*
X0106815Y0243331D01*
X0106657Y0243350D01*
X0109926Y0243180D02*
X0114857Y0243180D01*
X0114857Y0244178D02*
X0109926Y0244178D01*
X0109926Y0245177D02*
X0114857Y0245177D01*
X0114857Y0246175D02*
X0109805Y0246175D01*
X0109760Y0247174D02*
X0114857Y0247174D01*
X0114857Y0248172D02*
X0109926Y0248172D01*
X0109926Y0249171D02*
X0114857Y0249171D01*
X0114857Y0250169D02*
X0109926Y0250169D01*
X0109926Y0251168D02*
X0114857Y0251168D01*
X0114857Y0252166D02*
X0109926Y0252166D01*
X0109508Y0253165D02*
X0114857Y0253165D01*
X0118457Y0253165D02*
X0139258Y0253165D01*
X0138983Y0252166D02*
X0118457Y0252166D01*
X0118457Y0251168D02*
X0138983Y0251168D01*
X0138983Y0250169D02*
X0124181Y0250169D01*
X0125327Y0249171D02*
X0139357Y0249171D01*
X0139770Y0248172D02*
X0125760Y0248172D01*
X0125863Y0247174D02*
X0140570Y0247174D01*
X0141568Y0246175D02*
X0125682Y0246175D01*
X0125139Y0245177D02*
X0149798Y0245177D01*
X0149798Y0246175D02*
X0148597Y0246175D01*
X0149596Y0247174D02*
X0149798Y0247174D01*
X0149798Y0244178D02*
X0124363Y0244178D01*
X0124363Y0243180D02*
X0149798Y0243180D01*
X0149798Y0242181D02*
X0124363Y0242181D01*
X0124363Y0241183D02*
X0149798Y0241183D01*
X0149351Y0240184D02*
X0124363Y0240184D01*
X0124363Y0239186D02*
X0148353Y0239186D01*
X0147354Y0238187D02*
X0124363Y0238187D01*
X0124363Y0237189D02*
X0146356Y0237189D01*
X0145357Y0236190D02*
X0124363Y0236190D01*
X0124363Y0235192D02*
X0144359Y0235192D01*
X0143360Y0234193D02*
X0124363Y0234193D01*
X0124363Y0233195D02*
X0142362Y0233195D01*
X0141363Y0232196D02*
X0124363Y0232196D01*
X0124363Y0231198D02*
X0140365Y0231198D01*
X0139366Y0230199D02*
X0124363Y0230199D01*
X0124363Y0229201D02*
X0138368Y0229201D01*
X0137369Y0228202D02*
X0124363Y0228202D01*
X0124363Y0227204D02*
X0136371Y0227204D01*
X0135372Y0226205D02*
X0124363Y0226205D01*
X0124363Y0225207D02*
X0134374Y0225207D01*
X0133375Y0224208D02*
X0124387Y0224208D01*
X0124274Y0223210D02*
X0132377Y0223210D01*
X0131378Y0222211D02*
X0123827Y0222211D01*
X0122648Y0221212D02*
X0130380Y0221212D01*
X0129381Y0220214D02*
X0118481Y0220214D01*
X0118457Y0221212D02*
X0119526Y0221212D01*
X0118345Y0219215D02*
X0128382Y0219215D01*
X0127384Y0218217D02*
X0117864Y0218217D01*
X0116604Y0217218D02*
X0126385Y0217218D01*
X0125387Y0216220D02*
X0108615Y0216220D01*
X0108615Y0217218D02*
X0113758Y0217218D01*
X0112498Y0218217D02*
X0108615Y0218217D01*
X0108615Y0219215D02*
X0112017Y0219215D01*
X0111881Y0220214D02*
X0108615Y0220214D01*
X0108615Y0221212D02*
X0112028Y0221212D01*
X0112524Y0222211D02*
X0108615Y0222211D01*
X0108615Y0223210D02*
X0113822Y0223210D01*
X0114857Y0224208D02*
X0108615Y0224208D01*
X0108615Y0225207D02*
X0114857Y0225207D01*
X0114857Y0226205D02*
X0108615Y0226205D01*
X0108615Y0227204D02*
X0114857Y0227204D01*
X0114857Y0228202D02*
X0108615Y0228202D01*
X0108615Y0229201D02*
X0114857Y0229201D01*
X0114857Y0230199D02*
X0108615Y0230199D01*
X0108615Y0231198D02*
X0114857Y0231198D01*
X0114857Y0232196D02*
X0108615Y0232196D01*
X0108615Y0233195D02*
X0114857Y0233195D01*
X0114857Y0234193D02*
X0108615Y0234193D01*
X0108615Y0235192D02*
X0114857Y0235192D01*
X0114857Y0236190D02*
X0108615Y0236190D01*
X0108615Y0237189D02*
X0114857Y0237189D01*
X0114857Y0238187D02*
X0108615Y0238187D01*
X0108615Y0239186D02*
X0114857Y0239186D01*
X0114857Y0240184D02*
X0109464Y0240184D01*
X0109926Y0241183D02*
X0114857Y0241183D01*
X0114857Y0242181D02*
X0109926Y0242181D01*
X0118457Y0242181D02*
X0120763Y0242181D01*
X0120763Y0241183D02*
X0118457Y0241183D01*
X0118457Y0240184D02*
X0120763Y0240184D01*
X0120763Y0239186D02*
X0118457Y0239186D01*
X0118457Y0238187D02*
X0120763Y0238187D01*
X0120763Y0237189D02*
X0118457Y0237189D01*
X0118457Y0236190D02*
X0120763Y0236190D01*
X0120763Y0235192D02*
X0118457Y0235192D01*
X0118457Y0234193D02*
X0120763Y0234193D01*
X0120763Y0233195D02*
X0118457Y0233195D01*
X0118457Y0232196D02*
X0120763Y0232196D01*
X0120763Y0231198D02*
X0118457Y0231198D01*
X0118457Y0230199D02*
X0120763Y0230199D01*
X0120763Y0229201D02*
X0118457Y0229201D01*
X0118457Y0228202D02*
X0120763Y0228202D01*
X0119865Y0227204D02*
X0118457Y0227204D01*
X0118457Y0226205D02*
X0118487Y0226205D01*
X0121087Y0224138D02*
X0122563Y0225614D01*
X0122563Y0247268D01*
X0119263Y0247174D02*
X0118457Y0247174D01*
X0118457Y0248172D02*
X0119366Y0248172D01*
X0119799Y0249171D02*
X0118457Y0249171D01*
X0118457Y0250169D02*
X0120945Y0250169D01*
X0119444Y0246175D02*
X0118457Y0246175D01*
X0118457Y0245177D02*
X0119987Y0245177D01*
X0120763Y0244178D02*
X0118457Y0244178D01*
X0118457Y0243180D02*
X0120763Y0243180D01*
X0118457Y0254163D02*
X0139671Y0254163D01*
X0140330Y0255162D02*
X0118457Y0255162D01*
X0118457Y0256160D02*
X0141329Y0256160D01*
X0141586Y0258157D02*
X0118457Y0258157D01*
X0118457Y0257159D02*
X0143318Y0257159D01*
X0140587Y0259156D02*
X0118457Y0259156D01*
X0118457Y0260154D02*
X0139778Y0260154D01*
X0139364Y0261153D02*
X0118457Y0261153D01*
X0118457Y0262151D02*
X0138983Y0262151D01*
X0138983Y0263150D02*
X0118457Y0263150D01*
X0118457Y0264148D02*
X0138983Y0264148D01*
X0139250Y0265147D02*
X0118457Y0265147D01*
X0118549Y0266145D02*
X0139664Y0266145D01*
X0140313Y0267144D02*
X0119493Y0267144D01*
X0119907Y0268143D02*
X0141311Y0268143D01*
X0143275Y0269141D02*
X0119957Y0269141D01*
X0119725Y0270140D02*
X0149798Y0270140D01*
X0149798Y0269141D02*
X0146891Y0269141D01*
X0148854Y0268143D02*
X0149798Y0268143D01*
X0150778Y0271138D02*
X0119108Y0271138D01*
X0120654Y0273135D02*
X0295314Y0273135D01*
X0295875Y0274134D02*
X0121118Y0274134D01*
X0121118Y0275132D02*
X0296940Y0275132D01*
X0295893Y0274166D02*
X0295893Y0274166D01*
X0298022Y0276131D02*
X0121118Y0276131D01*
X0121118Y0277129D02*
X0299755Y0277129D01*
X0298459Y0276534D02*
X0298459Y0276534D01*
X0302788Y0278128D02*
X0097118Y0278128D01*
X0096618Y0277720D02*
X0096480Y0277287D01*
X0082701Y0277287D01*
X0053173Y0247760D01*
X0065706Y0245177D02*
X0033786Y0245177D01*
X0034501Y0245892D02*
X0035902Y0249275D01*
X0035902Y0252937D01*
X0034501Y0256321D01*
X0031911Y0258910D01*
X0028528Y0260312D01*
X0024866Y0260312D01*
X0021482Y0258910D01*
X0018893Y0256321D01*
X0017491Y0252937D01*
X0017491Y0249275D01*
X0018893Y0245892D01*
X0021482Y0243302D01*
X0024866Y0241901D01*
X0028528Y0241901D01*
X0031911Y0243302D01*
X0034501Y0245892D01*
X0034618Y0246175D02*
X0066120Y0246175D01*
X0067200Y0247174D02*
X0035032Y0247174D01*
X0035446Y0248172D02*
X0070909Y0248172D01*
X0070909Y0249171D02*
X0035859Y0249171D01*
X0035902Y0250169D02*
X0070909Y0250169D01*
X0070909Y0251168D02*
X0035902Y0251168D01*
X0035902Y0252166D02*
X0070909Y0252166D01*
X0071326Y0253165D02*
X0035808Y0253165D01*
X0035395Y0254163D02*
X0071447Y0254163D01*
X0071420Y0255162D02*
X0034981Y0255162D01*
X0034567Y0256160D02*
X0071420Y0256160D01*
X0071420Y0257159D02*
X0033663Y0257159D01*
X0032664Y0258157D02*
X0071949Y0258157D01*
X0072149Y0260154D02*
X0028908Y0260154D01*
X0031318Y0259156D02*
X0075980Y0259156D01*
X0077780Y0259571D02*
X0089098Y0259571D01*
X0094059Y0259295D02*
X0084807Y0250043D01*
X0088477Y0251168D02*
X0092365Y0251168D01*
X0092365Y0252166D02*
X0089476Y0252166D01*
X0090474Y0253165D02*
X0092783Y0253165D01*
X0091473Y0254163D02*
X0094818Y0254163D01*
X0094818Y0255162D02*
X0092471Y0255162D01*
X0093470Y0256160D02*
X0094818Y0256160D01*
X0094818Y0257159D02*
X0094468Y0257159D01*
X0094059Y0259295D02*
X0094059Y0267091D01*
X0091500Y0267091D02*
X0078783Y0267091D01*
X0074295Y0262602D01*
X0074294Y0265147D02*
X0021163Y0265147D01*
X0021739Y0266145D02*
X0075293Y0266145D01*
X0076291Y0267144D02*
X0022391Y0267144D01*
X0023229Y0268143D02*
X0077290Y0268143D01*
X0082965Y0269141D02*
X0024067Y0269141D01*
X0024905Y0270140D02*
X0082965Y0270140D01*
X0083317Y0271138D02*
X0025743Y0271138D01*
X0026801Y0272137D02*
X0083731Y0272137D01*
X0072582Y0273135D02*
X0027991Y0273135D01*
X0029181Y0274134D02*
X0072118Y0274134D01*
X0072118Y0275132D02*
X0030371Y0275132D01*
X0031946Y0276131D02*
X0072118Y0276131D01*
X0072118Y0277129D02*
X0033675Y0277129D01*
X0035405Y0278128D02*
X0096118Y0278128D01*
X0096618Y0277720D02*
X0100417Y0274335D01*
X0102878Y0276795D01*
X0122563Y0276795D01*
X0121118Y0279126D02*
X0367055Y0279126D01*
X0366146Y0280125D02*
X0121118Y0280125D01*
X0121118Y0281123D02*
X0364683Y0281123D01*
X0364577Y0251168D02*
X0367760Y0251168D01*
X0357153Y0242181D02*
X0334250Y0242181D01*
X0332778Y0241183D02*
X0357454Y0241183D01*
X0304486Y0251775D02*
X0304486Y0251775D01*
X0305099Y0278399D02*
X0305099Y0278399D01*
X0209597Y0242181D02*
X0194737Y0242181D01*
X0194737Y0243180D02*
X0208740Y0243180D01*
X0208338Y0244178D02*
X0194737Y0244178D01*
X0185063Y0256618D02*
X0137327Y0208882D01*
X0137327Y0199531D01*
X0127484Y0189689D01*
X0128504Y0193254D02*
X0126331Y0193254D01*
X0126331Y0194253D02*
X0129502Y0194253D01*
X0130501Y0195251D02*
X0126331Y0195251D01*
X0126331Y0196250D02*
X0131499Y0196250D01*
X0132498Y0197248D02*
X0126331Y0197248D01*
X0126331Y0198247D02*
X0133496Y0198247D01*
X0134495Y0199245D02*
X0125395Y0199245D01*
X0124396Y0200244D02*
X0135493Y0200244D01*
X0135527Y0201242D02*
X0124387Y0201242D01*
X0121087Y0196087D02*
X0121087Y0183783D01*
X0104418Y0195251D02*
X0088438Y0195251D01*
X0088438Y0194253D02*
X0103420Y0194253D01*
X0102421Y0193254D02*
X0088438Y0193254D01*
X0088438Y0192256D02*
X0101423Y0192256D01*
X0100424Y0191257D02*
X0088438Y0191257D01*
X0088438Y0190259D02*
X0099426Y0190259D01*
X0098427Y0189260D02*
X0088438Y0189260D01*
X0088438Y0188262D02*
X0097429Y0188262D01*
X0096430Y0187263D02*
X0088438Y0187263D01*
X0088438Y0186265D02*
X0095432Y0186265D01*
X0094433Y0185266D02*
X0088438Y0185266D01*
X0088438Y0184268D02*
X0093435Y0184268D01*
X0092436Y0183269D02*
X0088438Y0183269D01*
X0088438Y0182271D02*
X0091438Y0182271D01*
X0090439Y0181272D02*
X0088438Y0181272D01*
X0088438Y0180274D02*
X0089441Y0180274D01*
X0088442Y0179275D02*
X0088438Y0179275D01*
X0098449Y0165083D02*
X0098449Y0162130D01*
X0105339Y0162130D01*
X0105417Y0196250D02*
X0088438Y0196250D01*
X0088438Y0197248D02*
X0106415Y0197248D01*
X0107414Y0198247D02*
X0088438Y0198247D01*
X0088438Y0199245D02*
X0108412Y0199245D01*
X0109411Y0200244D02*
X0088438Y0200244D01*
X0088438Y0201242D02*
X0110409Y0201242D01*
X0111408Y0202241D02*
X0088438Y0202241D01*
X0103370Y0210358D02*
X0103370Y0235949D01*
X0095988Y0243331D01*
X0095634Y0243350D01*
X0082001Y0240184D02*
X0079580Y0240184D01*
X0079580Y0241183D02*
X0081539Y0241183D01*
X0081539Y0242181D02*
X0079580Y0242181D01*
X0074177Y0243350D02*
X0073843Y0243823D01*
X0068921Y0243823D01*
X0068921Y0244315D01*
X0065621Y0244178D02*
X0032787Y0244178D01*
X0031616Y0243180D02*
X0065820Y0243180D01*
X0066388Y0242181D02*
X0029205Y0242181D01*
X0024189Y0242181D02*
X0015843Y0242181D01*
X0015843Y0241183D02*
X0067860Y0241183D01*
X0069983Y0241183D02*
X0070909Y0241183D01*
X0071371Y0240184D02*
X0015843Y0240184D01*
X0015843Y0243180D02*
X0021778Y0243180D01*
X0020606Y0244178D02*
X0015843Y0244178D01*
X0015843Y0245177D02*
X0019608Y0245177D01*
X0018775Y0246175D02*
X0015843Y0246175D01*
X0015856Y0247174D02*
X0018362Y0247174D01*
X0017948Y0248172D02*
X0015900Y0248172D01*
X0015944Y0249171D02*
X0017535Y0249171D01*
X0017491Y0250169D02*
X0016024Y0250169D01*
X0016200Y0251168D02*
X0017491Y0251168D01*
X0017491Y0252166D02*
X0016376Y0252166D01*
X0016552Y0253165D02*
X0017586Y0253165D01*
X0017999Y0254163D02*
X0016728Y0254163D01*
X0016904Y0255162D02*
X0018413Y0255162D01*
X0018826Y0256160D02*
X0017133Y0256160D01*
X0017496Y0257159D02*
X0019731Y0257159D01*
X0020729Y0258157D02*
X0017860Y0258157D01*
X0018223Y0259156D02*
X0022075Y0259156D01*
X0024486Y0260154D02*
X0018587Y0260154D01*
X0018950Y0261153D02*
X0071420Y0261153D01*
X0071420Y0262151D02*
X0019433Y0262151D01*
X0020010Y0263150D02*
X0071420Y0263150D01*
X0071420Y0264148D02*
X0020586Y0264148D01*
X0037813Y0279126D02*
X0072118Y0279126D01*
X0072118Y0280125D02*
X0040557Y0280125D01*
X0045016Y0281123D02*
X0072118Y0281123D01*
X0094545Y0272137D02*
X0098691Y0272137D01*
X0097118Y0273135D02*
X0096118Y0273135D01*
X0096118Y0274134D02*
X0097118Y0274134D01*
X0097118Y0275132D02*
X0096118Y0275132D01*
X0096118Y0276131D02*
X0097118Y0276131D01*
X0097118Y0277129D02*
X0096118Y0277129D01*
X0096618Y0277720D02*
X0101736Y0272602D01*
X0101736Y0267091D01*
X0101736Y0263150D02*
X0101736Y0263150D01*
X0116657Y0268921D02*
X0116657Y0221677D01*
X0115181Y0220201D01*
X0108615Y0215221D02*
X0124388Y0215221D01*
X0123390Y0214223D02*
X0108615Y0214223D01*
X0108615Y0213224D02*
X0122391Y0213224D01*
X0121393Y0212226D02*
X0108615Y0212226D01*
X0108615Y0211227D02*
X0120394Y0211227D01*
X0119396Y0210229D02*
X0108615Y0210229D01*
X0108615Y0209230D02*
X0118397Y0209230D01*
X0117399Y0208232D02*
X0109179Y0208232D01*
X0109847Y0207233D02*
X0116400Y0207233D01*
X0115402Y0206235D02*
X0110115Y0206235D01*
X0110100Y0205236D02*
X0114403Y0205236D01*
X0113405Y0204238D02*
X0109686Y0204238D01*
X0108792Y0203239D02*
X0112406Y0203239D01*
X0071074Y0247174D02*
X0070643Y0247174D01*
X0074177Y0250043D02*
X0074335Y0250220D01*
X0074335Y0255634D01*
X0074295Y0255909D01*
X0181618Y0173449D02*
X0186047Y0173449D01*
X0100417Y0108980D02*
X0100417Y0103075D01*
X0103370Y0100122D01*
D26*
X0103370Y0100122D03*
X0104354Y0094217D03*
X0111244Y0093724D03*
X0116165Y0093724D03*
X0116165Y0102583D03*
X0116165Y0109472D03*
X0109276Y0109965D03*
X0100417Y0108980D03*
X0116165Y0122268D03*
X0123055Y0118331D03*
X0134374Y0120791D03*
X0141264Y0117346D03*
X0147661Y0114886D03*
X0141264Y0107504D03*
X0134374Y0110457D03*
X0123055Y0109472D03*
X0135850Y0098646D03*
X0154551Y0094709D03*
X0155535Y0104059D03*
X0163409Y0114394D03*
X0168331Y0114394D03*
X0179157Y0112425D03*
X0181618Y0122760D03*
X0179157Y0130142D03*
X0175713Y0134571D03*
X0172268Y0129650D03*
X0160949Y0128173D03*
X0168331Y0120791D03*
X0189492Y0109965D03*
X0186539Y0100122D03*
X0181618Y0100122D03*
X0169807Y0091756D03*
X0166362Y0083390D03*
X0158488Y0079945D03*
X0149138Y0083390D03*
X0142248Y0083390D03*
X0136343Y0066657D03*
X0135850Y0061244D03*
X0135850Y0056323D03*
X0141264Y0050909D03*
X0135850Y0038606D03*
X0148154Y0022366D03*
X0157012Y0030240D03*
X0157012Y0035161D03*
X0168331Y0042051D03*
X0167346Y0048449D03*
X0161441Y0057307D03*
X0152583Y0063213D03*
X0178173Y0061736D03*
X0183587Y0062228D03*
X0193921Y0053370D03*
X0198843Y0063213D03*
X0196874Y0068134D03*
X0186539Y0075024D03*
X0189984Y0078469D03*
X0196874Y0082898D03*
X0210654Y0086343D03*
X0215575Y0101598D03*
X0218035Y0108980D03*
X0214591Y0128665D03*
X0226402Y0128665D03*
X0207209Y0139984D03*
X0216067Y0144413D03*
X0200811Y0152780D03*
X0206717Y0158685D03*
X0206224Y0165575D03*
X0203272Y0177386D03*
X0204256Y0182307D03*
X0216067Y0175417D03*
X0224925Y0175417D03*
X0240181Y0185752D03*
X0253961Y0167543D03*
X0253961Y0157701D03*
X0247563Y0148843D03*
X0253961Y0147366D03*
X0290870Y0150811D03*
X0297760Y0157701D03*
X0303665Y0164098D03*
X0297268Y0168035D03*
X0293331Y0172957D03*
X0299236Y0184768D03*
X0307602Y0184768D03*
X0314492Y0185752D03*
X0321874Y0191165D03*
X0313016Y0195594D03*
X0322366Y0201008D03*
X0303665Y0208390D03*
X0293331Y0201992D03*
X0291854Y0208390D03*
X0269709Y0203469D03*
X0282012Y0228075D03*
X0292346Y0247760D03*
X0331717Y0244315D03*
X0346480Y0247760D03*
X0313508Y0173941D03*
X0325319Y0156224D03*
X0311047Y0151303D03*
X0314000Y0144906D03*
X0242642Y0084866D03*
X0215083Y0055831D03*
X0220496Y0050417D03*
X0202287Y0036146D03*
X0191461Y0031224D03*
X0190969Y0042051D03*
X0118626Y0065181D03*
X0121579Y0077484D03*
X0084669Y0080929D03*
X0098449Y0034669D03*
X0064984Y0022366D03*
X0060555Y0033685D03*
X0144217Y0124236D03*
X0123055Y0132602D03*
X0116657Y0144413D03*
X0100417Y0148843D03*
X0090083Y0155240D03*
X0098449Y0165083D03*
X0105339Y0162130D03*
X0112720Y0174925D03*
X0127484Y0189689D03*
X0121087Y0196087D03*
X0121087Y0201008D03*
X0106815Y0205929D03*
X0103370Y0210358D03*
X0115181Y0220201D03*
X0121087Y0224138D03*
X0122563Y0247268D03*
X0116657Y0268921D03*
X0122563Y0276795D03*
X0089098Y0259571D03*
X0068921Y0244315D03*
X0053173Y0247760D03*
X0179157Y0175909D03*
X0186047Y0173449D03*
X0186539Y0164591D03*
X0176697Y0144413D03*
X0195398Y0140476D03*
X0195398Y0134571D03*
X0144709Y0139984D03*
X0142740Y0144906D03*
X0139295Y0151795D03*
X0097465Y0131618D03*
X0198350Y0199039D03*
X0215083Y0219217D03*
X0211638Y0244807D03*
X0186539Y0253173D03*
D27*
X0026697Y0251106D03*
X0354650Y0197957D03*
X0260949Y0026303D03*
X0029846Y0038508D03*
M02*
