G75*
%MOIN*%
%OFA0B0*%
%FSLAX25Y25*%
%IPPOS*%
%LPD*%
%AMOC8*
5,1,8,0,0,1.08239X$1,22.5*
%
%ADD10C,0.00000*%
%ADD11C,0.01000*%
%ADD12C,0.00400*%
%ADD13C,0.00500*%
%ADD14C,0.00787*%
%ADD15C,0.00600*%
%ADD16C,0.00800*%
%ADD17C,0.02559*%
%ADD18C,0.00100*%
%ADD19R,0.01800X0.03000*%
%ADD20R,0.03000X0.01800*%
%ADD21C,0.02200*%
%ADD22C,0.00394*%
%ADD23R,0.00787X0.04724*%
%ADD24R,0.04724X0.00787*%
%ADD25C,0.02000*%
%ADD26C,0.03369*%
%ADD27C,0.00300*%
%ADD28C,0.00200*%
D10*
X0050713Y0012524D02*
X0334177Y0012524D01*
X0335128Y0012535D01*
X0336079Y0012570D01*
X0337029Y0012627D01*
X0337977Y0012708D01*
X0338923Y0012811D01*
X0339866Y0012937D01*
X0340805Y0013086D01*
X0341741Y0013257D01*
X0342672Y0013452D01*
X0343599Y0013668D01*
X0344520Y0013907D01*
X0345435Y0014168D01*
X0346343Y0014451D01*
X0347244Y0014756D01*
X0348138Y0015082D01*
X0349023Y0015431D01*
X0349900Y0015800D01*
X0350768Y0016190D01*
X0351625Y0016602D01*
X0352473Y0017034D01*
X0353310Y0017486D01*
X0354136Y0017958D01*
X0354950Y0018450D01*
X0355752Y0018962D01*
X0356542Y0019493D01*
X0357318Y0020043D01*
X0358081Y0020611D01*
X0358830Y0021198D01*
X0359564Y0021803D01*
X0360284Y0022425D01*
X0360989Y0023065D01*
X0361677Y0023721D01*
X0362350Y0024394D01*
X0363006Y0025082D01*
X0363646Y0025787D01*
X0364268Y0026507D01*
X0364873Y0027241D01*
X0365460Y0027990D01*
X0366028Y0028753D01*
X0366578Y0029529D01*
X0367109Y0030319D01*
X0367621Y0031121D01*
X0368113Y0031935D01*
X0368585Y0032761D01*
X0369037Y0033598D01*
X0369469Y0034446D01*
X0369881Y0035303D01*
X0370271Y0036171D01*
X0370640Y0037048D01*
X0370989Y0037933D01*
X0371315Y0038827D01*
X0371620Y0039728D01*
X0371903Y0040636D01*
X0372164Y0041551D01*
X0372403Y0042472D01*
X0372619Y0043399D01*
X0372814Y0044330D01*
X0372985Y0045266D01*
X0373134Y0046205D01*
X0373260Y0047148D01*
X0373363Y0048094D01*
X0373444Y0049042D01*
X0373501Y0049992D01*
X0373536Y0050943D01*
X0373547Y0051894D01*
X0373547Y0217248D01*
X0372760Y0273153D02*
X0372804Y0273422D01*
X0372842Y0273692D01*
X0372873Y0273963D01*
X0372898Y0274234D01*
X0372916Y0274506D01*
X0372928Y0274778D01*
X0372933Y0275051D01*
X0372931Y0275323D01*
X0372923Y0275596D01*
X0372908Y0275868D01*
X0372887Y0276139D01*
X0372859Y0276410D01*
X0372825Y0276681D01*
X0372784Y0276950D01*
X0372736Y0277218D01*
X0372683Y0277486D01*
X0372622Y0277751D01*
X0372555Y0278015D01*
X0372482Y0278278D01*
X0372403Y0278539D01*
X0372317Y0278797D01*
X0372225Y0279054D01*
X0372127Y0279308D01*
X0372023Y0279560D01*
X0371913Y0279809D01*
X0371796Y0280055D01*
X0371674Y0280299D01*
X0371546Y0280540D01*
X0371412Y0280777D01*
X0371273Y0281011D01*
X0371128Y0281242D01*
X0370977Y0281469D01*
X0370821Y0281692D01*
X0370660Y0281912D01*
X0370493Y0282127D01*
X0370321Y0282339D01*
X0370144Y0282546D01*
X0369962Y0282749D01*
X0369776Y0282947D01*
X0369584Y0283141D01*
X0369388Y0283330D01*
X0369188Y0283515D01*
X0368983Y0283694D01*
X0368773Y0283869D01*
X0368560Y0284038D01*
X0368342Y0284202D01*
X0368121Y0284361D01*
X0367896Y0284515D01*
X0367667Y0284663D01*
X0367435Y0284805D01*
X0367199Y0284942D01*
X0366960Y0285073D01*
X0366718Y0285198D01*
X0366473Y0285318D01*
X0366225Y0285431D01*
X0365975Y0285538D01*
X0365722Y0285640D01*
X0365467Y0285735D01*
X0365209Y0285824D01*
X0364950Y0285907D01*
X0364688Y0285983D01*
X0364425Y0286053D01*
X0364160Y0286117D01*
X0363893Y0286174D01*
X0363626Y0286225D01*
X0363626Y0286224D02*
X0050713Y0286224D01*
X0087465Y0269059D02*
X0087467Y0269140D01*
X0087473Y0269222D01*
X0087483Y0269303D01*
X0087497Y0269383D01*
X0087514Y0269462D01*
X0087536Y0269541D01*
X0087561Y0269618D01*
X0087590Y0269695D01*
X0087623Y0269769D01*
X0087660Y0269842D01*
X0087699Y0269913D01*
X0087743Y0269982D01*
X0087789Y0270049D01*
X0087839Y0270113D01*
X0087892Y0270175D01*
X0087948Y0270235D01*
X0088006Y0270291D01*
X0088068Y0270345D01*
X0088132Y0270396D01*
X0088198Y0270443D01*
X0088266Y0270487D01*
X0088337Y0270528D01*
X0088409Y0270565D01*
X0088484Y0270599D01*
X0088559Y0270629D01*
X0088637Y0270655D01*
X0088715Y0270678D01*
X0088794Y0270696D01*
X0088874Y0270711D01*
X0088955Y0270722D01*
X0089036Y0270729D01*
X0089118Y0270732D01*
X0089199Y0270731D01*
X0089280Y0270726D01*
X0089361Y0270717D01*
X0089442Y0270704D01*
X0089522Y0270687D01*
X0089600Y0270667D01*
X0089678Y0270642D01*
X0089755Y0270614D01*
X0089830Y0270582D01*
X0089903Y0270547D01*
X0089974Y0270508D01*
X0090044Y0270465D01*
X0090111Y0270420D01*
X0090177Y0270371D01*
X0090239Y0270319D01*
X0090299Y0270263D01*
X0090356Y0270205D01*
X0090411Y0270145D01*
X0090462Y0270081D01*
X0090510Y0270016D01*
X0090555Y0269948D01*
X0090597Y0269878D01*
X0090635Y0269806D01*
X0090670Y0269732D01*
X0090701Y0269657D01*
X0090728Y0269580D01*
X0090751Y0269502D01*
X0090771Y0269423D01*
X0090787Y0269343D01*
X0090799Y0269262D01*
X0090807Y0269181D01*
X0090811Y0269100D01*
X0090811Y0269018D01*
X0090807Y0268937D01*
X0090799Y0268856D01*
X0090787Y0268775D01*
X0090771Y0268695D01*
X0090751Y0268616D01*
X0090728Y0268538D01*
X0090701Y0268461D01*
X0090670Y0268386D01*
X0090635Y0268312D01*
X0090597Y0268240D01*
X0090555Y0268170D01*
X0090510Y0268102D01*
X0090462Y0268037D01*
X0090411Y0267973D01*
X0090356Y0267913D01*
X0090299Y0267855D01*
X0090239Y0267799D01*
X0090177Y0267747D01*
X0090111Y0267698D01*
X0090044Y0267653D01*
X0089975Y0267610D01*
X0089903Y0267571D01*
X0089830Y0267536D01*
X0089755Y0267504D01*
X0089678Y0267476D01*
X0089600Y0267451D01*
X0089522Y0267431D01*
X0089442Y0267414D01*
X0089361Y0267401D01*
X0089280Y0267392D01*
X0089199Y0267387D01*
X0089118Y0267386D01*
X0089036Y0267389D01*
X0088955Y0267396D01*
X0088874Y0267407D01*
X0088794Y0267422D01*
X0088715Y0267440D01*
X0088637Y0267463D01*
X0088559Y0267489D01*
X0088484Y0267519D01*
X0088409Y0267553D01*
X0088337Y0267590D01*
X0088266Y0267631D01*
X0088198Y0267675D01*
X0088132Y0267722D01*
X0088068Y0267773D01*
X0088006Y0267827D01*
X0087948Y0267883D01*
X0087892Y0267943D01*
X0087839Y0268005D01*
X0087789Y0268069D01*
X0087743Y0268136D01*
X0087699Y0268205D01*
X0087660Y0268276D01*
X0087623Y0268349D01*
X0087590Y0268423D01*
X0087561Y0268500D01*
X0087536Y0268577D01*
X0087514Y0268656D01*
X0087497Y0268735D01*
X0087483Y0268815D01*
X0087473Y0268896D01*
X0087467Y0268978D01*
X0087465Y0269059D01*
X0102425Y0269059D02*
X0102427Y0269140D01*
X0102433Y0269222D01*
X0102443Y0269303D01*
X0102457Y0269383D01*
X0102474Y0269462D01*
X0102496Y0269541D01*
X0102521Y0269618D01*
X0102550Y0269695D01*
X0102583Y0269769D01*
X0102620Y0269842D01*
X0102659Y0269913D01*
X0102703Y0269982D01*
X0102749Y0270049D01*
X0102799Y0270113D01*
X0102852Y0270175D01*
X0102908Y0270235D01*
X0102966Y0270291D01*
X0103028Y0270345D01*
X0103092Y0270396D01*
X0103158Y0270443D01*
X0103226Y0270487D01*
X0103297Y0270528D01*
X0103369Y0270565D01*
X0103444Y0270599D01*
X0103519Y0270629D01*
X0103597Y0270655D01*
X0103675Y0270678D01*
X0103754Y0270696D01*
X0103834Y0270711D01*
X0103915Y0270722D01*
X0103996Y0270729D01*
X0104078Y0270732D01*
X0104159Y0270731D01*
X0104240Y0270726D01*
X0104321Y0270717D01*
X0104402Y0270704D01*
X0104482Y0270687D01*
X0104560Y0270667D01*
X0104638Y0270642D01*
X0104715Y0270614D01*
X0104790Y0270582D01*
X0104863Y0270547D01*
X0104934Y0270508D01*
X0105004Y0270465D01*
X0105071Y0270420D01*
X0105137Y0270371D01*
X0105199Y0270319D01*
X0105259Y0270263D01*
X0105316Y0270205D01*
X0105371Y0270145D01*
X0105422Y0270081D01*
X0105470Y0270016D01*
X0105515Y0269948D01*
X0105557Y0269878D01*
X0105595Y0269806D01*
X0105630Y0269732D01*
X0105661Y0269657D01*
X0105688Y0269580D01*
X0105711Y0269502D01*
X0105731Y0269423D01*
X0105747Y0269343D01*
X0105759Y0269262D01*
X0105767Y0269181D01*
X0105771Y0269100D01*
X0105771Y0269018D01*
X0105767Y0268937D01*
X0105759Y0268856D01*
X0105747Y0268775D01*
X0105731Y0268695D01*
X0105711Y0268616D01*
X0105688Y0268538D01*
X0105661Y0268461D01*
X0105630Y0268386D01*
X0105595Y0268312D01*
X0105557Y0268240D01*
X0105515Y0268170D01*
X0105470Y0268102D01*
X0105422Y0268037D01*
X0105371Y0267973D01*
X0105316Y0267913D01*
X0105259Y0267855D01*
X0105199Y0267799D01*
X0105137Y0267747D01*
X0105071Y0267698D01*
X0105004Y0267653D01*
X0104935Y0267610D01*
X0104863Y0267571D01*
X0104790Y0267536D01*
X0104715Y0267504D01*
X0104638Y0267476D01*
X0104560Y0267451D01*
X0104482Y0267431D01*
X0104402Y0267414D01*
X0104321Y0267401D01*
X0104240Y0267392D01*
X0104159Y0267387D01*
X0104078Y0267386D01*
X0103996Y0267389D01*
X0103915Y0267396D01*
X0103834Y0267407D01*
X0103754Y0267422D01*
X0103675Y0267440D01*
X0103597Y0267463D01*
X0103519Y0267489D01*
X0103444Y0267519D01*
X0103369Y0267553D01*
X0103297Y0267590D01*
X0103226Y0267631D01*
X0103158Y0267675D01*
X0103092Y0267722D01*
X0103028Y0267773D01*
X0102966Y0267827D01*
X0102908Y0267883D01*
X0102852Y0267943D01*
X0102799Y0268005D01*
X0102749Y0268069D01*
X0102703Y0268136D01*
X0102659Y0268205D01*
X0102620Y0268276D01*
X0102583Y0268349D01*
X0102550Y0268423D01*
X0102521Y0268500D01*
X0102496Y0268577D01*
X0102474Y0268656D01*
X0102457Y0268735D01*
X0102443Y0268815D01*
X0102433Y0268896D01*
X0102427Y0268978D01*
X0102425Y0269059D01*
X0143483Y0263287D02*
X0143485Y0263367D01*
X0143491Y0263446D01*
X0143501Y0263525D01*
X0143515Y0263604D01*
X0143532Y0263682D01*
X0143554Y0263759D01*
X0143579Y0263834D01*
X0143609Y0263908D01*
X0143641Y0263981D01*
X0143678Y0264052D01*
X0143718Y0264121D01*
X0143761Y0264188D01*
X0143808Y0264253D01*
X0143857Y0264315D01*
X0143910Y0264375D01*
X0143966Y0264432D01*
X0144024Y0264487D01*
X0144085Y0264538D01*
X0144149Y0264586D01*
X0144215Y0264631D01*
X0144283Y0264673D01*
X0144353Y0264711D01*
X0144425Y0264745D01*
X0144498Y0264776D01*
X0144573Y0264804D01*
X0144650Y0264827D01*
X0144727Y0264847D01*
X0144805Y0264863D01*
X0144884Y0264875D01*
X0144963Y0264883D01*
X0145043Y0264887D01*
X0145123Y0264887D01*
X0145203Y0264883D01*
X0145282Y0264875D01*
X0145361Y0264863D01*
X0145439Y0264847D01*
X0145516Y0264827D01*
X0145593Y0264804D01*
X0145668Y0264776D01*
X0145741Y0264745D01*
X0145813Y0264711D01*
X0145883Y0264673D01*
X0145951Y0264631D01*
X0146017Y0264586D01*
X0146081Y0264538D01*
X0146142Y0264487D01*
X0146200Y0264432D01*
X0146256Y0264375D01*
X0146309Y0264315D01*
X0146358Y0264253D01*
X0146405Y0264188D01*
X0146448Y0264121D01*
X0146488Y0264052D01*
X0146525Y0263981D01*
X0146557Y0263908D01*
X0146587Y0263834D01*
X0146612Y0263759D01*
X0146634Y0263682D01*
X0146651Y0263604D01*
X0146665Y0263525D01*
X0146675Y0263446D01*
X0146681Y0263367D01*
X0146683Y0263287D01*
X0146681Y0263207D01*
X0146675Y0263128D01*
X0146665Y0263049D01*
X0146651Y0262970D01*
X0146634Y0262892D01*
X0146612Y0262815D01*
X0146587Y0262740D01*
X0146557Y0262666D01*
X0146525Y0262593D01*
X0146488Y0262522D01*
X0146448Y0262453D01*
X0146405Y0262386D01*
X0146358Y0262321D01*
X0146309Y0262259D01*
X0146256Y0262199D01*
X0146200Y0262142D01*
X0146142Y0262087D01*
X0146081Y0262036D01*
X0146017Y0261988D01*
X0145951Y0261943D01*
X0145883Y0261901D01*
X0145813Y0261863D01*
X0145741Y0261829D01*
X0145668Y0261798D01*
X0145593Y0261770D01*
X0145516Y0261747D01*
X0145439Y0261727D01*
X0145361Y0261711D01*
X0145282Y0261699D01*
X0145203Y0261691D01*
X0145123Y0261687D01*
X0145043Y0261687D01*
X0144963Y0261691D01*
X0144884Y0261699D01*
X0144805Y0261711D01*
X0144727Y0261727D01*
X0144650Y0261747D01*
X0144573Y0261770D01*
X0144498Y0261798D01*
X0144425Y0261829D01*
X0144353Y0261863D01*
X0144283Y0261901D01*
X0144215Y0261943D01*
X0144149Y0261988D01*
X0144085Y0262036D01*
X0144024Y0262087D01*
X0143966Y0262142D01*
X0143910Y0262199D01*
X0143857Y0262259D01*
X0143808Y0262321D01*
X0143761Y0262386D01*
X0143718Y0262453D01*
X0143678Y0262522D01*
X0143641Y0262593D01*
X0143609Y0262666D01*
X0143579Y0262740D01*
X0143554Y0262815D01*
X0143532Y0262892D01*
X0143515Y0262970D01*
X0143501Y0263049D01*
X0143491Y0263128D01*
X0143485Y0263207D01*
X0143483Y0263287D01*
X0143483Y0251287D02*
X0143485Y0251367D01*
X0143491Y0251446D01*
X0143501Y0251525D01*
X0143515Y0251604D01*
X0143532Y0251682D01*
X0143554Y0251759D01*
X0143579Y0251834D01*
X0143609Y0251908D01*
X0143641Y0251981D01*
X0143678Y0252052D01*
X0143718Y0252121D01*
X0143761Y0252188D01*
X0143808Y0252253D01*
X0143857Y0252315D01*
X0143910Y0252375D01*
X0143966Y0252432D01*
X0144024Y0252487D01*
X0144085Y0252538D01*
X0144149Y0252586D01*
X0144215Y0252631D01*
X0144283Y0252673D01*
X0144353Y0252711D01*
X0144425Y0252745D01*
X0144498Y0252776D01*
X0144573Y0252804D01*
X0144650Y0252827D01*
X0144727Y0252847D01*
X0144805Y0252863D01*
X0144884Y0252875D01*
X0144963Y0252883D01*
X0145043Y0252887D01*
X0145123Y0252887D01*
X0145203Y0252883D01*
X0145282Y0252875D01*
X0145361Y0252863D01*
X0145439Y0252847D01*
X0145516Y0252827D01*
X0145593Y0252804D01*
X0145668Y0252776D01*
X0145741Y0252745D01*
X0145813Y0252711D01*
X0145883Y0252673D01*
X0145951Y0252631D01*
X0146017Y0252586D01*
X0146081Y0252538D01*
X0146142Y0252487D01*
X0146200Y0252432D01*
X0146256Y0252375D01*
X0146309Y0252315D01*
X0146358Y0252253D01*
X0146405Y0252188D01*
X0146448Y0252121D01*
X0146488Y0252052D01*
X0146525Y0251981D01*
X0146557Y0251908D01*
X0146587Y0251834D01*
X0146612Y0251759D01*
X0146634Y0251682D01*
X0146651Y0251604D01*
X0146665Y0251525D01*
X0146675Y0251446D01*
X0146681Y0251367D01*
X0146683Y0251287D01*
X0146681Y0251207D01*
X0146675Y0251128D01*
X0146665Y0251049D01*
X0146651Y0250970D01*
X0146634Y0250892D01*
X0146612Y0250815D01*
X0146587Y0250740D01*
X0146557Y0250666D01*
X0146525Y0250593D01*
X0146488Y0250522D01*
X0146448Y0250453D01*
X0146405Y0250386D01*
X0146358Y0250321D01*
X0146309Y0250259D01*
X0146256Y0250199D01*
X0146200Y0250142D01*
X0146142Y0250087D01*
X0146081Y0250036D01*
X0146017Y0249988D01*
X0145951Y0249943D01*
X0145883Y0249901D01*
X0145813Y0249863D01*
X0145741Y0249829D01*
X0145668Y0249798D01*
X0145593Y0249770D01*
X0145516Y0249747D01*
X0145439Y0249727D01*
X0145361Y0249711D01*
X0145282Y0249699D01*
X0145203Y0249691D01*
X0145123Y0249687D01*
X0145043Y0249687D01*
X0144963Y0249691D01*
X0144884Y0249699D01*
X0144805Y0249711D01*
X0144727Y0249727D01*
X0144650Y0249747D01*
X0144573Y0249770D01*
X0144498Y0249798D01*
X0144425Y0249829D01*
X0144353Y0249863D01*
X0144283Y0249901D01*
X0144215Y0249943D01*
X0144149Y0249988D01*
X0144085Y0250036D01*
X0144024Y0250087D01*
X0143966Y0250142D01*
X0143910Y0250199D01*
X0143857Y0250259D01*
X0143808Y0250321D01*
X0143761Y0250386D01*
X0143718Y0250453D01*
X0143678Y0250522D01*
X0143641Y0250593D01*
X0143609Y0250666D01*
X0143579Y0250740D01*
X0143554Y0250815D01*
X0143532Y0250892D01*
X0143515Y0250970D01*
X0143501Y0251049D01*
X0143491Y0251128D01*
X0143485Y0251207D01*
X0143483Y0251287D01*
X0050713Y0286224D02*
X0049762Y0286213D01*
X0048811Y0286178D01*
X0047861Y0286121D01*
X0046913Y0286040D01*
X0045967Y0285937D01*
X0045024Y0285811D01*
X0044085Y0285662D01*
X0043149Y0285491D01*
X0042218Y0285296D01*
X0041291Y0285080D01*
X0040370Y0284841D01*
X0039455Y0284580D01*
X0038547Y0284297D01*
X0037646Y0283992D01*
X0036752Y0283666D01*
X0035867Y0283317D01*
X0034990Y0282948D01*
X0034122Y0282558D01*
X0033265Y0282146D01*
X0032417Y0281714D01*
X0031580Y0281262D01*
X0030754Y0280790D01*
X0029940Y0280298D01*
X0029138Y0279786D01*
X0028348Y0279255D01*
X0027572Y0278705D01*
X0026809Y0278137D01*
X0026060Y0277550D01*
X0025326Y0276945D01*
X0024606Y0276323D01*
X0023901Y0275683D01*
X0023213Y0275027D01*
X0022540Y0274354D01*
X0021884Y0273666D01*
X0021244Y0272961D01*
X0020622Y0272241D01*
X0020017Y0271507D01*
X0019430Y0270758D01*
X0018862Y0269995D01*
X0018312Y0269219D01*
X0017781Y0268429D01*
X0017269Y0267627D01*
X0016777Y0266813D01*
X0016305Y0265987D01*
X0015853Y0265150D01*
X0015421Y0264302D01*
X0015009Y0263445D01*
X0014619Y0262577D01*
X0014250Y0261700D01*
X0013901Y0260815D01*
X0013575Y0259921D01*
X0013270Y0259020D01*
X0012987Y0258112D01*
X0012726Y0257197D01*
X0012487Y0256276D01*
X0012271Y0255349D01*
X0012076Y0254418D01*
X0011905Y0253482D01*
X0011756Y0252543D01*
X0011630Y0251600D01*
X0011527Y0250654D01*
X0011446Y0249706D01*
X0011389Y0248756D01*
X0011354Y0247805D01*
X0011343Y0246854D01*
X0011343Y0051894D01*
X0011354Y0050943D01*
X0011389Y0049992D01*
X0011446Y0049042D01*
X0011527Y0048094D01*
X0011630Y0047148D01*
X0011756Y0046205D01*
X0011905Y0045266D01*
X0012076Y0044330D01*
X0012271Y0043399D01*
X0012487Y0042472D01*
X0012726Y0041551D01*
X0012987Y0040636D01*
X0013270Y0039728D01*
X0013575Y0038827D01*
X0013901Y0037933D01*
X0014250Y0037048D01*
X0014619Y0036171D01*
X0015009Y0035303D01*
X0015421Y0034446D01*
X0015853Y0033598D01*
X0016305Y0032761D01*
X0016777Y0031935D01*
X0017269Y0031121D01*
X0017781Y0030319D01*
X0018312Y0029529D01*
X0018862Y0028753D01*
X0019430Y0027990D01*
X0020017Y0027241D01*
X0020622Y0026507D01*
X0021244Y0025787D01*
X0021884Y0025082D01*
X0022540Y0024394D01*
X0023213Y0023721D01*
X0023901Y0023065D01*
X0024606Y0022425D01*
X0025326Y0021803D01*
X0026060Y0021198D01*
X0026809Y0020611D01*
X0027572Y0020043D01*
X0028348Y0019493D01*
X0029138Y0018962D01*
X0029940Y0018450D01*
X0030754Y0017958D01*
X0031580Y0017486D01*
X0032417Y0017034D01*
X0033265Y0016602D01*
X0034122Y0016190D01*
X0034990Y0015800D01*
X0035867Y0015431D01*
X0036752Y0015082D01*
X0037646Y0014756D01*
X0038547Y0014451D01*
X0039455Y0014168D01*
X0040370Y0013907D01*
X0041291Y0013668D01*
X0042218Y0013452D01*
X0043149Y0013257D01*
X0044085Y0013086D01*
X0045024Y0012937D01*
X0045967Y0012811D01*
X0046913Y0012708D01*
X0047861Y0012627D01*
X0048811Y0012570D01*
X0049762Y0012535D01*
X0050713Y0012524D01*
X0138173Y0029610D02*
X0138175Y0029709D01*
X0138181Y0029808D01*
X0138191Y0029907D01*
X0138205Y0030005D01*
X0138223Y0030102D01*
X0138245Y0030199D01*
X0138270Y0030295D01*
X0138300Y0030389D01*
X0138333Y0030483D01*
X0138370Y0030575D01*
X0138411Y0030665D01*
X0138455Y0030754D01*
X0138503Y0030840D01*
X0138554Y0030925D01*
X0138609Y0031008D01*
X0138667Y0031088D01*
X0138728Y0031166D01*
X0138792Y0031242D01*
X0138859Y0031315D01*
X0138929Y0031385D01*
X0139002Y0031452D01*
X0139078Y0031516D01*
X0139156Y0031577D01*
X0139236Y0031635D01*
X0139319Y0031690D01*
X0139403Y0031741D01*
X0139490Y0031789D01*
X0139579Y0031833D01*
X0139669Y0031874D01*
X0139761Y0031911D01*
X0139855Y0031944D01*
X0139949Y0031974D01*
X0140045Y0031999D01*
X0140142Y0032021D01*
X0140239Y0032039D01*
X0140337Y0032053D01*
X0140436Y0032063D01*
X0140535Y0032069D01*
X0140634Y0032071D01*
X0140733Y0032069D01*
X0140832Y0032063D01*
X0140931Y0032053D01*
X0141029Y0032039D01*
X0141126Y0032021D01*
X0141223Y0031999D01*
X0141319Y0031974D01*
X0141413Y0031944D01*
X0141507Y0031911D01*
X0141599Y0031874D01*
X0141689Y0031833D01*
X0141778Y0031789D01*
X0141864Y0031741D01*
X0141949Y0031690D01*
X0142032Y0031635D01*
X0142112Y0031577D01*
X0142190Y0031516D01*
X0142266Y0031452D01*
X0142339Y0031385D01*
X0142409Y0031315D01*
X0142476Y0031242D01*
X0142540Y0031166D01*
X0142601Y0031088D01*
X0142659Y0031008D01*
X0142714Y0030925D01*
X0142765Y0030841D01*
X0142813Y0030754D01*
X0142857Y0030665D01*
X0142898Y0030575D01*
X0142935Y0030483D01*
X0142968Y0030389D01*
X0142998Y0030295D01*
X0143023Y0030199D01*
X0143045Y0030102D01*
X0143063Y0030005D01*
X0143077Y0029907D01*
X0143087Y0029808D01*
X0143093Y0029709D01*
X0143095Y0029610D01*
X0143093Y0029511D01*
X0143087Y0029412D01*
X0143077Y0029313D01*
X0143063Y0029215D01*
X0143045Y0029118D01*
X0143023Y0029021D01*
X0142998Y0028925D01*
X0142968Y0028831D01*
X0142935Y0028737D01*
X0142898Y0028645D01*
X0142857Y0028555D01*
X0142813Y0028466D01*
X0142765Y0028380D01*
X0142714Y0028295D01*
X0142659Y0028212D01*
X0142601Y0028132D01*
X0142540Y0028054D01*
X0142476Y0027978D01*
X0142409Y0027905D01*
X0142339Y0027835D01*
X0142266Y0027768D01*
X0142190Y0027704D01*
X0142112Y0027643D01*
X0142032Y0027585D01*
X0141949Y0027530D01*
X0141865Y0027479D01*
X0141778Y0027431D01*
X0141689Y0027387D01*
X0141599Y0027346D01*
X0141507Y0027309D01*
X0141413Y0027276D01*
X0141319Y0027246D01*
X0141223Y0027221D01*
X0141126Y0027199D01*
X0141029Y0027181D01*
X0140931Y0027167D01*
X0140832Y0027157D01*
X0140733Y0027151D01*
X0140634Y0027149D01*
X0140535Y0027151D01*
X0140436Y0027157D01*
X0140337Y0027167D01*
X0140239Y0027181D01*
X0140142Y0027199D01*
X0140045Y0027221D01*
X0139949Y0027246D01*
X0139855Y0027276D01*
X0139761Y0027309D01*
X0139669Y0027346D01*
X0139579Y0027387D01*
X0139490Y0027431D01*
X0139404Y0027479D01*
X0139319Y0027530D01*
X0139236Y0027585D01*
X0139156Y0027643D01*
X0139078Y0027704D01*
X0139002Y0027768D01*
X0138929Y0027835D01*
X0138859Y0027905D01*
X0138792Y0027978D01*
X0138728Y0028054D01*
X0138667Y0028132D01*
X0138609Y0028212D01*
X0138554Y0028295D01*
X0138503Y0028379D01*
X0138455Y0028466D01*
X0138411Y0028555D01*
X0138370Y0028645D01*
X0138333Y0028737D01*
X0138300Y0028831D01*
X0138270Y0028925D01*
X0138245Y0029021D01*
X0138223Y0029118D01*
X0138205Y0029215D01*
X0138191Y0029313D01*
X0138181Y0029412D01*
X0138175Y0029511D01*
X0138173Y0029610D01*
X0169669Y0029610D02*
X0169671Y0029709D01*
X0169677Y0029808D01*
X0169687Y0029907D01*
X0169701Y0030005D01*
X0169719Y0030102D01*
X0169741Y0030199D01*
X0169766Y0030295D01*
X0169796Y0030389D01*
X0169829Y0030483D01*
X0169866Y0030575D01*
X0169907Y0030665D01*
X0169951Y0030754D01*
X0169999Y0030840D01*
X0170050Y0030925D01*
X0170105Y0031008D01*
X0170163Y0031088D01*
X0170224Y0031166D01*
X0170288Y0031242D01*
X0170355Y0031315D01*
X0170425Y0031385D01*
X0170498Y0031452D01*
X0170574Y0031516D01*
X0170652Y0031577D01*
X0170732Y0031635D01*
X0170815Y0031690D01*
X0170899Y0031741D01*
X0170986Y0031789D01*
X0171075Y0031833D01*
X0171165Y0031874D01*
X0171257Y0031911D01*
X0171351Y0031944D01*
X0171445Y0031974D01*
X0171541Y0031999D01*
X0171638Y0032021D01*
X0171735Y0032039D01*
X0171833Y0032053D01*
X0171932Y0032063D01*
X0172031Y0032069D01*
X0172130Y0032071D01*
X0172229Y0032069D01*
X0172328Y0032063D01*
X0172427Y0032053D01*
X0172525Y0032039D01*
X0172622Y0032021D01*
X0172719Y0031999D01*
X0172815Y0031974D01*
X0172909Y0031944D01*
X0173003Y0031911D01*
X0173095Y0031874D01*
X0173185Y0031833D01*
X0173274Y0031789D01*
X0173360Y0031741D01*
X0173445Y0031690D01*
X0173528Y0031635D01*
X0173608Y0031577D01*
X0173686Y0031516D01*
X0173762Y0031452D01*
X0173835Y0031385D01*
X0173905Y0031315D01*
X0173972Y0031242D01*
X0174036Y0031166D01*
X0174097Y0031088D01*
X0174155Y0031008D01*
X0174210Y0030925D01*
X0174261Y0030841D01*
X0174309Y0030754D01*
X0174353Y0030665D01*
X0174394Y0030575D01*
X0174431Y0030483D01*
X0174464Y0030389D01*
X0174494Y0030295D01*
X0174519Y0030199D01*
X0174541Y0030102D01*
X0174559Y0030005D01*
X0174573Y0029907D01*
X0174583Y0029808D01*
X0174589Y0029709D01*
X0174591Y0029610D01*
X0174589Y0029511D01*
X0174583Y0029412D01*
X0174573Y0029313D01*
X0174559Y0029215D01*
X0174541Y0029118D01*
X0174519Y0029021D01*
X0174494Y0028925D01*
X0174464Y0028831D01*
X0174431Y0028737D01*
X0174394Y0028645D01*
X0174353Y0028555D01*
X0174309Y0028466D01*
X0174261Y0028380D01*
X0174210Y0028295D01*
X0174155Y0028212D01*
X0174097Y0028132D01*
X0174036Y0028054D01*
X0173972Y0027978D01*
X0173905Y0027905D01*
X0173835Y0027835D01*
X0173762Y0027768D01*
X0173686Y0027704D01*
X0173608Y0027643D01*
X0173528Y0027585D01*
X0173445Y0027530D01*
X0173361Y0027479D01*
X0173274Y0027431D01*
X0173185Y0027387D01*
X0173095Y0027346D01*
X0173003Y0027309D01*
X0172909Y0027276D01*
X0172815Y0027246D01*
X0172719Y0027221D01*
X0172622Y0027199D01*
X0172525Y0027181D01*
X0172427Y0027167D01*
X0172328Y0027157D01*
X0172229Y0027151D01*
X0172130Y0027149D01*
X0172031Y0027151D01*
X0171932Y0027157D01*
X0171833Y0027167D01*
X0171735Y0027181D01*
X0171638Y0027199D01*
X0171541Y0027221D01*
X0171445Y0027246D01*
X0171351Y0027276D01*
X0171257Y0027309D01*
X0171165Y0027346D01*
X0171075Y0027387D01*
X0170986Y0027431D01*
X0170900Y0027479D01*
X0170815Y0027530D01*
X0170732Y0027585D01*
X0170652Y0027643D01*
X0170574Y0027704D01*
X0170498Y0027768D01*
X0170425Y0027835D01*
X0170355Y0027905D01*
X0170288Y0027978D01*
X0170224Y0028054D01*
X0170163Y0028132D01*
X0170105Y0028212D01*
X0170050Y0028295D01*
X0169999Y0028379D01*
X0169951Y0028466D01*
X0169907Y0028555D01*
X0169866Y0028645D01*
X0169829Y0028737D01*
X0169796Y0028831D01*
X0169766Y0028925D01*
X0169741Y0029021D01*
X0169719Y0029118D01*
X0169701Y0029215D01*
X0169687Y0029313D01*
X0169677Y0029412D01*
X0169671Y0029511D01*
X0169669Y0029610D01*
D11*
X0166174Y0127130D02*
X0166176Y0127197D01*
X0166182Y0127263D01*
X0166192Y0127329D01*
X0166206Y0127394D01*
X0166223Y0127458D01*
X0166245Y0127521D01*
X0166270Y0127583D01*
X0166299Y0127643D01*
X0166332Y0127701D01*
X0166367Y0127757D01*
X0166407Y0127811D01*
X0166449Y0127862D01*
X0166494Y0127911D01*
X0166542Y0127957D01*
X0166593Y0128000D01*
X0166646Y0128040D01*
X0166702Y0128077D01*
X0166760Y0128110D01*
X0166819Y0128140D01*
X0166880Y0128166D01*
X0166943Y0128189D01*
X0167007Y0128207D01*
X0167072Y0128222D01*
X0167138Y0128233D01*
X0167204Y0128240D01*
X0167270Y0128243D01*
X0167337Y0128242D01*
X0167403Y0128237D01*
X0167469Y0128228D01*
X0167535Y0128215D01*
X0167599Y0128198D01*
X0167662Y0128178D01*
X0167724Y0128153D01*
X0167785Y0128125D01*
X0167844Y0128094D01*
X0167900Y0128059D01*
X0167955Y0128021D01*
X0168007Y0127979D01*
X0168056Y0127934D01*
X0168103Y0127887D01*
X0168147Y0127837D01*
X0168187Y0127784D01*
X0168225Y0127729D01*
X0168259Y0127672D01*
X0168290Y0127613D01*
X0168317Y0127552D01*
X0168340Y0127490D01*
X0168360Y0127426D01*
X0168376Y0127361D01*
X0168388Y0127296D01*
X0168396Y0127230D01*
X0168400Y0127163D01*
X0168400Y0127097D01*
X0168396Y0127030D01*
X0168388Y0126964D01*
X0168376Y0126899D01*
X0168360Y0126834D01*
X0168340Y0126770D01*
X0168317Y0126708D01*
X0168290Y0126647D01*
X0168259Y0126588D01*
X0168225Y0126531D01*
X0168187Y0126476D01*
X0168147Y0126423D01*
X0168103Y0126373D01*
X0168056Y0126326D01*
X0168007Y0126281D01*
X0167955Y0126239D01*
X0167900Y0126201D01*
X0167843Y0126166D01*
X0167785Y0126135D01*
X0167724Y0126107D01*
X0167662Y0126082D01*
X0167599Y0126062D01*
X0167535Y0126045D01*
X0167469Y0126032D01*
X0167403Y0126023D01*
X0167337Y0126018D01*
X0167270Y0126017D01*
X0167204Y0126020D01*
X0167138Y0126027D01*
X0167072Y0126038D01*
X0167007Y0126053D01*
X0166943Y0126071D01*
X0166880Y0126094D01*
X0166819Y0126120D01*
X0166760Y0126150D01*
X0166702Y0126183D01*
X0166646Y0126220D01*
X0166593Y0126260D01*
X0166542Y0126303D01*
X0166494Y0126349D01*
X0166449Y0126398D01*
X0166407Y0126449D01*
X0166367Y0126503D01*
X0166332Y0126559D01*
X0166299Y0126617D01*
X0166270Y0126677D01*
X0166245Y0126739D01*
X0166223Y0126802D01*
X0166206Y0126866D01*
X0166192Y0126931D01*
X0166182Y0126997D01*
X0166176Y0127063D01*
X0166174Y0127130D01*
X0306618Y0217248D02*
X0373547Y0217248D01*
X0369610Y0235752D02*
X0306618Y0235752D01*
X0306419Y0235740D01*
X0306219Y0235723D01*
X0306020Y0235701D01*
X0305822Y0235675D01*
X0305625Y0235644D01*
X0305428Y0235608D01*
X0305232Y0235567D01*
X0305037Y0235522D01*
X0304844Y0235472D01*
X0304651Y0235417D01*
X0304460Y0235358D01*
X0304271Y0235294D01*
X0304083Y0235225D01*
X0303897Y0235152D01*
X0303712Y0235075D01*
X0303530Y0234993D01*
X0303349Y0234906D01*
X0303171Y0234816D01*
X0302995Y0234721D01*
X0302821Y0234622D01*
X0302650Y0234518D01*
X0302481Y0234411D01*
X0302315Y0234299D01*
X0302152Y0234184D01*
X0301991Y0234064D01*
X0301834Y0233941D01*
X0301679Y0233814D01*
X0301528Y0233684D01*
X0301380Y0233549D01*
X0301235Y0233411D01*
X0301093Y0233270D01*
X0300955Y0233125D01*
X0300821Y0232977D01*
X0300690Y0232826D01*
X0300563Y0232672D01*
X0300439Y0232514D01*
X0300319Y0232354D01*
X0300204Y0232191D01*
X0300092Y0232025D01*
X0299984Y0231857D01*
X0299881Y0231685D01*
X0299781Y0231512D01*
X0299686Y0231336D01*
X0299595Y0231158D01*
X0299508Y0230978D01*
X0299426Y0230795D01*
X0299348Y0230611D01*
X0299275Y0230425D01*
X0299206Y0230237D01*
X0299142Y0230048D01*
X0299082Y0229857D01*
X0299027Y0229664D01*
X0298977Y0229471D01*
X0298931Y0229276D01*
X0298890Y0229080D01*
X0298854Y0228884D01*
X0298823Y0228686D01*
X0298796Y0228488D01*
X0298774Y0228289D01*
X0298757Y0228090D01*
X0298745Y0227890D01*
X0298738Y0227690D01*
X0298735Y0227490D01*
X0298737Y0227290D01*
X0298744Y0227090D01*
X0298744Y0227091D02*
X0298744Y0225122D01*
X0298746Y0224932D01*
X0298753Y0224742D01*
X0298765Y0224552D01*
X0298781Y0224362D01*
X0298801Y0224173D01*
X0298827Y0223984D01*
X0298856Y0223796D01*
X0298891Y0223609D01*
X0298930Y0223423D01*
X0298973Y0223238D01*
X0299021Y0223053D01*
X0299073Y0222870D01*
X0299129Y0222689D01*
X0299190Y0222509D01*
X0299256Y0222330D01*
X0299325Y0222153D01*
X0299399Y0221977D01*
X0299477Y0221804D01*
X0299560Y0221632D01*
X0299646Y0221463D01*
X0299736Y0221295D01*
X0299831Y0221130D01*
X0299929Y0220967D01*
X0300032Y0220807D01*
X0300138Y0220649D01*
X0300248Y0220494D01*
X0300361Y0220341D01*
X0300479Y0220191D01*
X0300600Y0220045D01*
X0300724Y0219901D01*
X0300852Y0219760D01*
X0300983Y0219622D01*
X0301118Y0219487D01*
X0301256Y0219356D01*
X0301397Y0219228D01*
X0301541Y0219104D01*
X0301687Y0218983D01*
X0301837Y0218865D01*
X0301990Y0218752D01*
X0302145Y0218642D01*
X0302303Y0218536D01*
X0302463Y0218433D01*
X0302626Y0218335D01*
X0302791Y0218240D01*
X0302959Y0218150D01*
X0303128Y0218064D01*
X0303300Y0217981D01*
X0303473Y0217903D01*
X0303649Y0217829D01*
X0303826Y0217760D01*
X0304005Y0217694D01*
X0304185Y0217633D01*
X0304366Y0217577D01*
X0304549Y0217525D01*
X0304734Y0217477D01*
X0304919Y0217434D01*
X0305105Y0217395D01*
X0305292Y0217360D01*
X0305480Y0217331D01*
X0305669Y0217305D01*
X0305858Y0217285D01*
X0306048Y0217269D01*
X0306238Y0217257D01*
X0306428Y0217250D01*
X0306618Y0217248D01*
X0307012Y0256618D02*
X0370004Y0256618D01*
X0370105Y0256624D01*
X0370206Y0256626D01*
X0370306Y0256624D01*
X0370407Y0256618D01*
X0370507Y0256608D01*
X0370607Y0256594D01*
X0370706Y0256576D01*
X0370805Y0256554D01*
X0370902Y0256528D01*
X0370999Y0256499D01*
X0371094Y0256466D01*
X0371188Y0256429D01*
X0371280Y0256388D01*
X0371370Y0256344D01*
X0371459Y0256296D01*
X0371546Y0256245D01*
X0371631Y0256191D01*
X0371714Y0256133D01*
X0371794Y0256072D01*
X0371872Y0256008D01*
X0371947Y0255941D01*
X0372019Y0255871D01*
X0372089Y0255798D01*
X0372156Y0255723D01*
X0372220Y0255645D01*
X0372280Y0255564D01*
X0372338Y0255481D01*
X0372392Y0255396D01*
X0372443Y0255309D01*
X0372490Y0255220D01*
X0372534Y0255130D01*
X0372574Y0255037D01*
X0372611Y0254943D01*
X0372644Y0254848D01*
X0372673Y0254751D01*
X0372698Y0254654D01*
X0372720Y0254555D01*
X0372737Y0254456D01*
X0372751Y0254356D01*
X0372760Y0254256D01*
X0372760Y0238902D01*
X0372758Y0238792D01*
X0372752Y0238682D01*
X0372743Y0238573D01*
X0372729Y0238464D01*
X0372712Y0238355D01*
X0372691Y0238247D01*
X0372666Y0238140D01*
X0372638Y0238034D01*
X0372606Y0237929D01*
X0372570Y0237825D01*
X0372531Y0237722D01*
X0372488Y0237621D01*
X0372441Y0237521D01*
X0372391Y0237423D01*
X0372338Y0237327D01*
X0372281Y0237233D01*
X0372221Y0237141D01*
X0372158Y0237050D01*
X0372092Y0236963D01*
X0372023Y0236877D01*
X0371951Y0236794D01*
X0371876Y0236714D01*
X0371798Y0236636D01*
X0371718Y0236561D01*
X0371635Y0236489D01*
X0371549Y0236420D01*
X0371462Y0236354D01*
X0371371Y0236291D01*
X0371279Y0236231D01*
X0371185Y0236174D01*
X0371089Y0236121D01*
X0370991Y0236071D01*
X0370891Y0236024D01*
X0370790Y0235981D01*
X0370687Y0235942D01*
X0370583Y0235906D01*
X0370478Y0235874D01*
X0370372Y0235846D01*
X0370265Y0235821D01*
X0370157Y0235800D01*
X0370048Y0235783D01*
X0369939Y0235769D01*
X0369830Y0235760D01*
X0369720Y0235754D01*
X0369610Y0235752D01*
X0372760Y0273154D02*
X0305831Y0273154D01*
X0298744Y0268429D02*
X0298744Y0266067D01*
X0298745Y0268429D02*
X0298777Y0268581D01*
X0298814Y0268731D01*
X0298854Y0268881D01*
X0298898Y0269030D01*
X0298945Y0269177D01*
X0298997Y0269324D01*
X0299052Y0269469D01*
X0299111Y0269612D01*
X0299174Y0269754D01*
X0299240Y0269894D01*
X0299310Y0270032D01*
X0299384Y0270169D01*
X0299461Y0270304D01*
X0299541Y0270436D01*
X0299625Y0270567D01*
X0299712Y0270695D01*
X0299802Y0270821D01*
X0299896Y0270945D01*
X0299993Y0271066D01*
X0300093Y0271184D01*
X0300195Y0271300D01*
X0300301Y0271414D01*
X0300410Y0271524D01*
X0300522Y0271632D01*
X0300636Y0271737D01*
X0300753Y0271839D01*
X0300872Y0271938D01*
X0300994Y0272033D01*
X0301119Y0272126D01*
X0301245Y0272215D01*
X0301374Y0272301D01*
X0301506Y0272384D01*
X0301639Y0272463D01*
X0301774Y0272539D01*
X0301911Y0272611D01*
X0302050Y0272680D01*
X0302191Y0272745D01*
X0302333Y0272807D01*
X0302477Y0272864D01*
X0302623Y0272918D01*
X0302769Y0272969D01*
X0302917Y0273015D01*
X0303066Y0273058D01*
X0303216Y0273097D01*
X0303367Y0273132D01*
X0303519Y0273163D01*
X0303672Y0273190D01*
X0303825Y0273213D01*
X0303979Y0273233D01*
X0304134Y0273248D01*
X0304288Y0273259D01*
X0304443Y0273266D01*
X0304598Y0273270D01*
X0304753Y0273269D01*
X0304908Y0273264D01*
X0305063Y0273256D01*
X0305218Y0273243D01*
X0305372Y0273227D01*
X0305525Y0273206D01*
X0305679Y0273182D01*
X0305831Y0273153D01*
X0298744Y0266067D02*
X0298732Y0265852D01*
X0298725Y0265638D01*
X0298724Y0265423D01*
X0298728Y0265209D01*
X0298737Y0264994D01*
X0298751Y0264780D01*
X0298771Y0264567D01*
X0298795Y0264354D01*
X0298825Y0264141D01*
X0298860Y0263929D01*
X0298900Y0263719D01*
X0298945Y0263509D01*
X0298995Y0263300D01*
X0299050Y0263093D01*
X0299110Y0262887D01*
X0299175Y0262683D01*
X0299245Y0262480D01*
X0299320Y0262279D01*
X0299399Y0262079D01*
X0299484Y0261882D01*
X0299573Y0261687D01*
X0299667Y0261494D01*
X0299766Y0261304D01*
X0299869Y0261116D01*
X0299976Y0260930D01*
X0300088Y0260747D01*
X0300205Y0260567D01*
X0300326Y0260389D01*
X0300451Y0260215D01*
X0300580Y0260044D01*
X0300713Y0259876D01*
X0300850Y0259711D01*
X0300992Y0259549D01*
X0301137Y0259391D01*
X0301286Y0259237D01*
X0301438Y0259086D01*
X0301595Y0258939D01*
X0301754Y0258796D01*
X0301917Y0258657D01*
X0302084Y0258521D01*
X0302254Y0258390D01*
X0302426Y0258263D01*
X0302602Y0258140D01*
X0302781Y0258021D01*
X0302962Y0257907D01*
X0303147Y0257797D01*
X0303334Y0257691D01*
X0303523Y0257591D01*
X0303715Y0257494D01*
X0303909Y0257403D01*
X0304105Y0257316D01*
X0304303Y0257234D01*
X0304503Y0257156D01*
X0304705Y0257084D01*
X0304909Y0257016D01*
X0305114Y0256954D01*
X0305321Y0256896D01*
X0305529Y0256844D01*
X0305738Y0256796D01*
X0305948Y0256753D01*
X0306159Y0256716D01*
X0306371Y0256684D01*
X0306584Y0256657D01*
X0306798Y0256635D01*
X0307011Y0256618D01*
D12*
X0329540Y0250883D02*
X0330057Y0249849D01*
X0331091Y0248815D01*
X0331091Y0250366D01*
X0331608Y0250883D01*
X0332125Y0250883D01*
X0332643Y0250366D01*
X0332643Y0249332D01*
X0332125Y0248815D01*
X0331091Y0248815D01*
X0330574Y0247660D02*
X0330057Y0247660D01*
X0329540Y0247143D01*
X0329540Y0246109D01*
X0330057Y0245592D01*
X0330057Y0244438D02*
X0329540Y0243921D01*
X0329540Y0242886D01*
X0330057Y0242369D01*
X0332125Y0242369D01*
X0332643Y0242886D01*
X0332643Y0243921D01*
X0332125Y0244438D01*
X0332643Y0245592D02*
X0330574Y0247660D01*
X0332643Y0247660D02*
X0332643Y0245592D01*
X0344287Y0242266D02*
X0347757Y0242266D01*
X0346022Y0240531D02*
X0346022Y0244001D01*
X0347757Y0250666D02*
X0344287Y0250666D01*
X0351582Y0259180D02*
X0351582Y0263784D01*
X0353117Y0262250D01*
X0354651Y0263784D01*
X0354651Y0259180D01*
X0356186Y0259180D02*
X0359255Y0259180D01*
X0357720Y0259180D02*
X0357720Y0263784D01*
X0356186Y0262250D01*
X0321692Y0211710D02*
X0319624Y0211710D01*
X0321692Y0209642D01*
X0322209Y0210159D01*
X0322209Y0211193D01*
X0321692Y0211710D01*
X0319624Y0211710D02*
X0319107Y0211193D01*
X0319107Y0210159D01*
X0319624Y0209642D01*
X0321692Y0209642D01*
X0321692Y0208487D02*
X0322209Y0207970D01*
X0322209Y0206936D01*
X0321692Y0206419D01*
X0321692Y0205264D02*
X0322209Y0204747D01*
X0322209Y0203713D01*
X0321692Y0203196D01*
X0319624Y0203196D01*
X0319107Y0203713D01*
X0319107Y0204747D01*
X0319624Y0205264D01*
X0319624Y0206419D02*
X0319107Y0206936D01*
X0319107Y0207970D01*
X0319624Y0208487D01*
X0320141Y0208487D01*
X0320658Y0207970D01*
X0321175Y0208487D01*
X0321692Y0208487D01*
X0320658Y0207970D02*
X0320658Y0207453D01*
X0304887Y0198718D02*
X0304887Y0196649D01*
X0302818Y0198718D01*
X0302301Y0198718D01*
X0301784Y0198201D01*
X0301784Y0197167D01*
X0302301Y0196649D01*
X0303335Y0195495D02*
X0303335Y0193427D01*
X0301784Y0194978D01*
X0304887Y0194978D01*
X0304370Y0192272D02*
X0304887Y0191755D01*
X0304887Y0190721D01*
X0304370Y0190204D01*
X0302301Y0190204D01*
X0301784Y0190721D01*
X0301784Y0191755D01*
X0302301Y0192272D01*
X0294650Y0191755D02*
X0294133Y0192272D01*
X0294650Y0191755D02*
X0294650Y0190721D01*
X0294133Y0190204D01*
X0292065Y0190204D01*
X0291548Y0190721D01*
X0291548Y0191755D01*
X0292065Y0192272D01*
X0293099Y0193427D02*
X0291548Y0194978D01*
X0294650Y0194978D01*
X0293099Y0195495D02*
X0293099Y0193427D01*
X0292065Y0196649D02*
X0291548Y0197167D01*
X0291548Y0198201D01*
X0292065Y0198718D01*
X0292582Y0198718D01*
X0293099Y0198201D01*
X0293616Y0198718D01*
X0294133Y0198718D01*
X0294650Y0198201D01*
X0294650Y0197167D01*
X0294133Y0196649D01*
X0293099Y0197684D02*
X0293099Y0198201D01*
X0271299Y0220125D02*
X0271816Y0220642D01*
X0271816Y0221677D01*
X0271299Y0222194D01*
X0271816Y0223348D02*
X0269747Y0225416D01*
X0269230Y0225416D01*
X0268713Y0224899D01*
X0268713Y0223865D01*
X0269230Y0223348D01*
X0269230Y0222194D02*
X0268713Y0221677D01*
X0268713Y0220642D01*
X0269230Y0220125D01*
X0271299Y0220125D01*
X0271816Y0223348D02*
X0271816Y0225416D01*
X0271299Y0226571D02*
X0270782Y0226571D01*
X0270264Y0227088D01*
X0270264Y0228122D01*
X0270782Y0228639D01*
X0271299Y0228639D01*
X0271816Y0228122D01*
X0271816Y0227088D01*
X0271299Y0226571D01*
X0270264Y0227088D02*
X0269747Y0226571D01*
X0269230Y0226571D01*
X0268713Y0227088D01*
X0268713Y0228122D01*
X0269230Y0228639D01*
X0269747Y0228639D01*
X0270264Y0228122D01*
X0260792Y0228122D02*
X0260275Y0228639D01*
X0258207Y0228639D01*
X0257689Y0228122D01*
X0257689Y0227088D01*
X0258207Y0226571D01*
X0258724Y0226571D01*
X0259241Y0227088D01*
X0259241Y0228639D01*
X0260792Y0228122D02*
X0260792Y0227088D01*
X0260275Y0226571D01*
X0260792Y0225416D02*
X0260792Y0223348D01*
X0258724Y0225416D01*
X0258207Y0225416D01*
X0257689Y0224899D01*
X0257689Y0223865D01*
X0258207Y0223348D01*
X0258207Y0222194D02*
X0257689Y0221677D01*
X0257689Y0220642D01*
X0258207Y0220125D01*
X0260275Y0220125D01*
X0260792Y0220642D01*
X0260792Y0221677D01*
X0260275Y0222194D01*
X0246883Y0197351D02*
X0243780Y0197351D01*
X0245331Y0195800D01*
X0245331Y0197869D01*
X0245331Y0194646D02*
X0245331Y0192577D01*
X0243780Y0194129D01*
X0246883Y0194129D01*
X0246366Y0191423D02*
X0246883Y0190906D01*
X0246883Y0189872D01*
X0246366Y0189355D01*
X0244297Y0189355D01*
X0243780Y0189872D01*
X0243780Y0190906D01*
X0244297Y0191423D01*
X0277245Y0170063D02*
X0280347Y0170063D01*
X0280347Y0171097D02*
X0280347Y0169028D01*
X0279830Y0167874D02*
X0280347Y0167357D01*
X0280347Y0166323D01*
X0279830Y0165806D01*
X0279830Y0164651D02*
X0280347Y0164134D01*
X0280347Y0163100D01*
X0279830Y0162583D01*
X0277762Y0162583D01*
X0277245Y0163100D01*
X0277245Y0164134D01*
X0277762Y0164651D01*
X0277762Y0165806D02*
X0277245Y0166323D01*
X0277245Y0167357D01*
X0277762Y0167874D01*
X0278279Y0167874D01*
X0278796Y0167357D01*
X0279313Y0167874D01*
X0279830Y0167874D01*
X0278796Y0167357D02*
X0278796Y0166840D01*
X0278279Y0169028D02*
X0277245Y0170063D01*
X0310315Y0146834D02*
X0313418Y0146834D01*
X0313418Y0145800D02*
X0313418Y0147869D01*
X0311350Y0145800D02*
X0310315Y0146834D01*
X0311867Y0144646D02*
X0311867Y0142577D01*
X0310315Y0144129D01*
X0313418Y0144129D01*
X0312901Y0141423D02*
X0313418Y0140906D01*
X0313418Y0139872D01*
X0312901Y0139355D01*
X0310833Y0139355D01*
X0310315Y0139872D01*
X0310315Y0140906D01*
X0310833Y0141423D01*
X0325406Y0142369D02*
X0325406Y0143403D01*
X0325923Y0143920D01*
X0326440Y0143920D01*
X0326957Y0143403D01*
X0327474Y0143920D01*
X0327992Y0143920D01*
X0328509Y0143403D01*
X0328509Y0142369D01*
X0327992Y0141852D01*
X0327992Y0140698D02*
X0328509Y0140180D01*
X0328509Y0139146D01*
X0327992Y0138629D01*
X0325923Y0138629D01*
X0325406Y0139146D01*
X0325406Y0140180D01*
X0325923Y0140698D01*
X0325923Y0141852D02*
X0325406Y0142369D01*
X0326957Y0142886D02*
X0326957Y0143403D01*
X0325923Y0145075D02*
X0325406Y0145592D01*
X0325406Y0146626D01*
X0325923Y0147143D01*
X0326440Y0147143D01*
X0328509Y0145075D01*
X0328509Y0147143D01*
X0328948Y0169290D02*
X0329465Y0169807D01*
X0329465Y0170841D01*
X0328948Y0171358D01*
X0326363Y0171358D01*
X0326880Y0172513D02*
X0326363Y0173030D01*
X0326363Y0174064D01*
X0326880Y0174581D01*
X0327397Y0174581D01*
X0329465Y0172513D01*
X0329465Y0174581D01*
X0328948Y0169290D02*
X0326363Y0169290D01*
X0209072Y0137555D02*
X0207004Y0137555D01*
X0207004Y0136003D01*
X0208038Y0136520D01*
X0208555Y0136520D01*
X0209072Y0136003D01*
X0209072Y0134969D01*
X0208555Y0134452D01*
X0207521Y0134452D01*
X0207004Y0134969D01*
X0205849Y0134452D02*
X0203781Y0134452D01*
X0204815Y0134452D02*
X0204815Y0137555D01*
X0203781Y0136520D01*
X0202627Y0137038D02*
X0202110Y0137555D01*
X0201075Y0137555D01*
X0200558Y0137038D01*
X0200558Y0134969D01*
X0201075Y0134452D01*
X0202110Y0134452D01*
X0202627Y0134969D01*
X0202678Y0115244D02*
X0201643Y0115244D01*
X0201126Y0114726D01*
X0201126Y0112658D01*
X0201643Y0112141D01*
X0202678Y0112141D01*
X0203195Y0112658D01*
X0204349Y0112658D02*
X0204866Y0112141D01*
X0205900Y0112141D01*
X0206417Y0112658D01*
X0206417Y0113175D01*
X0205900Y0113692D01*
X0205383Y0113692D01*
X0205900Y0113692D02*
X0206417Y0114209D01*
X0206417Y0114726D01*
X0205900Y0115244D01*
X0204866Y0115244D01*
X0204349Y0114726D01*
X0203195Y0114726D02*
X0202678Y0115244D01*
X0207572Y0113692D02*
X0209123Y0113692D01*
X0209640Y0113175D01*
X0209640Y0112658D01*
X0209123Y0112141D01*
X0208089Y0112141D01*
X0207572Y0112658D01*
X0207572Y0113692D01*
X0208606Y0114726D01*
X0209640Y0115244D01*
X0208847Y0103393D02*
X0207813Y0103393D01*
X0207296Y0102876D01*
X0206142Y0102876D02*
X0205625Y0103393D01*
X0204591Y0103393D01*
X0204073Y0102876D01*
X0204073Y0100808D01*
X0204591Y0100291D01*
X0205625Y0100291D01*
X0206142Y0100808D01*
X0207296Y0100291D02*
X0209365Y0102359D01*
X0209365Y0102876D01*
X0208847Y0103393D01*
X0209365Y0100291D02*
X0207296Y0100291D01*
X0186737Y0069657D02*
X0183634Y0069657D01*
X0185186Y0068106D01*
X0185186Y0070175D01*
X0184669Y0066952D02*
X0184151Y0066952D01*
X0183634Y0066435D01*
X0183634Y0065400D01*
X0184151Y0064883D01*
X0184151Y0063729D02*
X0183634Y0063212D01*
X0183634Y0062178D01*
X0184151Y0061661D01*
X0186220Y0061661D01*
X0186737Y0062178D01*
X0186737Y0063212D01*
X0186220Y0063729D01*
X0186737Y0064883D02*
X0184669Y0066952D01*
X0186737Y0066952D02*
X0186737Y0064883D01*
X0201784Y0049759D02*
X0201267Y0049242D01*
X0201267Y0047174D01*
X0201784Y0046657D01*
X0202818Y0046657D01*
X0203335Y0047174D01*
X0204490Y0046657D02*
X0206558Y0048725D01*
X0206558Y0049242D01*
X0206041Y0049759D01*
X0205007Y0049759D01*
X0204490Y0049242D01*
X0203335Y0049242D02*
X0202818Y0049759D01*
X0201784Y0049759D01*
X0204490Y0046657D02*
X0206558Y0046657D01*
X0207712Y0046657D02*
X0209781Y0048725D01*
X0209781Y0049242D01*
X0209264Y0049759D01*
X0208230Y0049759D01*
X0207712Y0049242D01*
X0207712Y0046657D02*
X0209781Y0046657D01*
X0209623Y0038342D02*
X0207555Y0038342D01*
X0206401Y0037825D02*
X0206401Y0037308D01*
X0205884Y0036791D01*
X0206401Y0036274D01*
X0206401Y0035756D01*
X0205884Y0035239D01*
X0204849Y0035239D01*
X0204332Y0035756D01*
X0203178Y0035756D02*
X0202661Y0035239D01*
X0201627Y0035239D01*
X0201109Y0035756D01*
X0201109Y0037825D01*
X0201627Y0038342D01*
X0202661Y0038342D01*
X0203178Y0037825D01*
X0204332Y0037825D02*
X0204849Y0038342D01*
X0205884Y0038342D01*
X0206401Y0037825D01*
X0205884Y0036791D02*
X0205366Y0036791D01*
X0207555Y0035756D02*
X0207555Y0035239D01*
X0207555Y0035756D02*
X0209623Y0037825D01*
X0209623Y0038342D01*
X0115820Y0098336D02*
X0115820Y0099370D01*
X0115303Y0099888D01*
X0115820Y0101042D02*
X0113751Y0103110D01*
X0113234Y0103110D01*
X0112717Y0102593D01*
X0112717Y0101559D01*
X0113234Y0101042D01*
X0113234Y0099888D02*
X0112717Y0099370D01*
X0112717Y0098336D01*
X0113234Y0097819D01*
X0115303Y0097819D01*
X0115820Y0098336D01*
X0115820Y0101042D02*
X0115820Y0103110D01*
X0115303Y0104265D02*
X0115820Y0104782D01*
X0115820Y0105816D01*
X0115303Y0106333D01*
X0114785Y0106333D01*
X0114268Y0105816D01*
X0114268Y0105299D01*
X0114268Y0105816D02*
X0113751Y0106333D01*
X0113234Y0106333D01*
X0112717Y0105816D01*
X0112717Y0104782D01*
X0113234Y0104265D01*
X0097064Y0104098D02*
X0094996Y0104098D01*
X0096030Y0104098D02*
X0096030Y0107200D01*
X0094996Y0106166D01*
X0093842Y0104098D02*
X0091773Y0104098D01*
X0092807Y0104098D02*
X0092807Y0107200D01*
X0091773Y0106166D01*
X0090619Y0106683D02*
X0090102Y0107200D01*
X0089067Y0107200D01*
X0088550Y0106683D01*
X0088550Y0104615D01*
X0089067Y0104098D01*
X0090102Y0104098D01*
X0090619Y0104615D01*
X0090102Y0094287D02*
X0089067Y0094287D01*
X0088550Y0093770D01*
X0088550Y0091701D01*
X0089067Y0091184D01*
X0090102Y0091184D01*
X0090619Y0091701D01*
X0091773Y0091184D02*
X0093842Y0091184D01*
X0092807Y0091184D02*
X0092807Y0094287D01*
X0091773Y0093253D01*
X0090619Y0093770D02*
X0090102Y0094287D01*
X0094996Y0093770D02*
X0094996Y0091701D01*
X0097064Y0093770D01*
X0097064Y0091701D01*
X0096547Y0091184D01*
X0095513Y0091184D01*
X0094996Y0091701D01*
X0094996Y0093770D02*
X0095513Y0094287D01*
X0096547Y0094287D01*
X0097064Y0093770D01*
X0080062Y0094208D02*
X0079028Y0093691D01*
X0077994Y0092657D01*
X0079545Y0092657D01*
X0080062Y0092140D01*
X0080062Y0091623D01*
X0079545Y0091106D01*
X0078511Y0091106D01*
X0077994Y0091623D01*
X0077994Y0092657D01*
X0076839Y0093691D02*
X0076322Y0094208D01*
X0075288Y0094208D01*
X0074771Y0093691D01*
X0074771Y0091623D01*
X0075288Y0091106D01*
X0076322Y0091106D01*
X0076839Y0091623D01*
X0076322Y0104413D02*
X0075288Y0104413D01*
X0074771Y0104930D01*
X0074771Y0106998D01*
X0075288Y0107515D01*
X0076322Y0107515D01*
X0076839Y0106998D01*
X0077994Y0107515D02*
X0080062Y0107515D01*
X0080062Y0106998D01*
X0077994Y0104930D01*
X0077994Y0104413D01*
X0076839Y0104930D02*
X0076322Y0104413D01*
X0075928Y0116932D02*
X0074894Y0116932D01*
X0074377Y0117449D01*
X0074377Y0119518D01*
X0074894Y0120035D01*
X0075928Y0120035D01*
X0076446Y0119518D01*
X0077600Y0119518D02*
X0077600Y0119001D01*
X0078117Y0118484D01*
X0079151Y0118484D01*
X0079668Y0117966D01*
X0079668Y0117449D01*
X0079151Y0116932D01*
X0078117Y0116932D01*
X0077600Y0117449D01*
X0077600Y0117966D01*
X0078117Y0118484D01*
X0079151Y0118484D02*
X0079668Y0119001D01*
X0079668Y0119518D01*
X0079151Y0120035D01*
X0078117Y0120035D01*
X0077600Y0119518D01*
X0076446Y0117449D02*
X0075928Y0116932D01*
X0088944Y0117134D02*
X0089461Y0116617D01*
X0090495Y0116617D01*
X0091013Y0117134D01*
X0092167Y0116617D02*
X0094235Y0116617D01*
X0093201Y0116617D02*
X0093201Y0119720D01*
X0092167Y0118686D01*
X0091013Y0119203D02*
X0090495Y0119720D01*
X0089461Y0119720D01*
X0088944Y0119203D01*
X0088944Y0117134D01*
X0095390Y0116617D02*
X0097458Y0118686D01*
X0097458Y0119203D01*
X0096941Y0119720D01*
X0095907Y0119720D01*
X0095390Y0119203D01*
X0095390Y0116617D02*
X0097458Y0116617D01*
X0097335Y0130318D02*
X0096300Y0130318D01*
X0095783Y0130835D01*
X0094629Y0130318D02*
X0092561Y0130318D01*
X0093595Y0130318D02*
X0093595Y0133421D01*
X0092561Y0132387D01*
X0091406Y0132904D02*
X0090889Y0133421D01*
X0089855Y0133421D01*
X0089338Y0132904D01*
X0089338Y0130835D01*
X0089855Y0130318D01*
X0090889Y0130318D01*
X0091406Y0130835D01*
X0095783Y0132904D02*
X0096300Y0133421D01*
X0097335Y0133421D01*
X0097852Y0132904D01*
X0097852Y0132387D01*
X0097335Y0131869D01*
X0097852Y0131352D01*
X0097852Y0130835D01*
X0097335Y0130318D01*
X0097335Y0131869D02*
X0096818Y0131869D01*
X0080062Y0131791D02*
X0078511Y0131791D01*
X0077994Y0132308D01*
X0077994Y0132825D01*
X0078511Y0133342D01*
X0079545Y0133342D01*
X0080062Y0132825D01*
X0080062Y0130756D01*
X0079545Y0130239D01*
X0078511Y0130239D01*
X0077994Y0130756D01*
X0076839Y0130756D02*
X0076322Y0130239D01*
X0075288Y0130239D01*
X0074771Y0130756D01*
X0074771Y0132825D01*
X0075288Y0133342D01*
X0076322Y0133342D01*
X0076839Y0132825D01*
X0083943Y0159236D02*
X0086011Y0159236D01*
X0086528Y0159754D01*
X0086528Y0160788D01*
X0086011Y0161305D01*
X0086528Y0162459D02*
X0084460Y0164528D01*
X0083943Y0164528D01*
X0083426Y0164011D01*
X0083426Y0162976D01*
X0083943Y0162459D01*
X0083943Y0161305D02*
X0083426Y0160788D01*
X0083426Y0159754D01*
X0083943Y0159236D01*
X0086528Y0162459D02*
X0086528Y0164528D01*
X0086011Y0165682D02*
X0086528Y0166199D01*
X0086528Y0167233D01*
X0086011Y0167750D01*
X0084977Y0167750D01*
X0084460Y0167233D01*
X0084460Y0166716D01*
X0084977Y0165682D01*
X0083426Y0165682D01*
X0083426Y0167750D01*
X0141405Y0202586D02*
X0142939Y0202586D01*
X0142172Y0202586D02*
X0142172Y0207190D01*
X0141405Y0207190D02*
X0142939Y0207190D01*
X0144474Y0206422D02*
X0144474Y0203353D01*
X0145241Y0202586D01*
X0146776Y0202586D01*
X0147543Y0203353D01*
X0149078Y0202586D02*
X0152147Y0202586D01*
X0150613Y0202586D02*
X0150613Y0207190D01*
X0149078Y0205655D01*
X0147543Y0206422D02*
X0146776Y0207190D01*
X0145241Y0207190D01*
X0144474Y0206422D01*
X0147368Y0210378D02*
X0149436Y0210378D01*
X0149954Y0210895D01*
X0149954Y0211930D01*
X0149436Y0212447D01*
X0149954Y0213601D02*
X0149954Y0215669D01*
X0149954Y0214635D02*
X0146851Y0214635D01*
X0147885Y0213601D01*
X0147368Y0212447D02*
X0146851Y0211930D01*
X0146851Y0210895D01*
X0147368Y0210378D01*
X0147368Y0216824D02*
X0147885Y0216824D01*
X0148402Y0217341D01*
X0148402Y0218892D01*
X0147368Y0218892D02*
X0146851Y0218375D01*
X0146851Y0217341D01*
X0147368Y0216824D01*
X0147368Y0218892D02*
X0149436Y0218892D01*
X0149954Y0218375D01*
X0149954Y0217341D01*
X0149436Y0216824D01*
X0162520Y0216947D02*
X0162520Y0217981D01*
X0163037Y0218498D01*
X0165106Y0216430D01*
X0165623Y0216947D01*
X0165623Y0217981D01*
X0165106Y0218498D01*
X0163037Y0218498D01*
X0162520Y0216947D02*
X0163037Y0216430D01*
X0165106Y0216430D01*
X0165623Y0215276D02*
X0165623Y0213207D01*
X0163554Y0215276D01*
X0163037Y0215276D01*
X0162520Y0214759D01*
X0162520Y0213724D01*
X0163037Y0213207D01*
X0163037Y0212053D02*
X0162520Y0211536D01*
X0162520Y0210502D01*
X0163037Y0209984D01*
X0165106Y0209984D01*
X0165623Y0210502D01*
X0165623Y0211536D01*
X0165106Y0212053D01*
X0180130Y0226154D02*
X0180648Y0225637D01*
X0182716Y0225637D01*
X0183233Y0226154D01*
X0183233Y0227188D01*
X0182716Y0227705D01*
X0182716Y0228860D02*
X0183233Y0229377D01*
X0183233Y0230411D01*
X0182716Y0230928D01*
X0181682Y0230928D01*
X0181165Y0230411D01*
X0181165Y0229894D01*
X0181682Y0228860D01*
X0180130Y0228860D01*
X0180130Y0230928D01*
X0180648Y0227705D02*
X0180130Y0227188D01*
X0180130Y0226154D01*
X0199267Y0224884D02*
X0199267Y0223349D01*
X0200034Y0222582D01*
X0200034Y0221047D02*
X0199267Y0220280D01*
X0199267Y0218745D01*
X0200034Y0217978D01*
X0203104Y0217978D01*
X0203871Y0218745D01*
X0203871Y0220280D01*
X0203104Y0221047D01*
X0203871Y0222582D02*
X0200802Y0225651D01*
X0200034Y0225651D01*
X0199267Y0224884D01*
X0203871Y0225651D02*
X0203871Y0222582D01*
X0203871Y0216443D02*
X0203871Y0214909D01*
X0203871Y0215676D02*
X0199267Y0215676D01*
X0199267Y0214909D02*
X0199267Y0216443D01*
X0169087Y0198813D02*
X0169087Y0196745D01*
X0169087Y0197779D02*
X0165985Y0197779D01*
X0167019Y0196745D01*
X0167019Y0195591D02*
X0166502Y0195591D01*
X0165985Y0195074D01*
X0165985Y0194039D01*
X0166502Y0193522D01*
X0166502Y0192368D02*
X0165985Y0191851D01*
X0165985Y0190817D01*
X0166502Y0190299D01*
X0168570Y0190299D01*
X0169087Y0190817D01*
X0169087Y0191851D01*
X0168570Y0192368D01*
X0169087Y0193522D02*
X0167019Y0195591D01*
X0169087Y0195591D02*
X0169087Y0193522D01*
X0166029Y0172829D02*
X0168098Y0170761D01*
X0168615Y0170761D01*
X0168615Y0169606D02*
X0168615Y0167538D01*
X0168615Y0168572D02*
X0165512Y0168572D01*
X0166547Y0167538D01*
X0166029Y0166384D02*
X0165512Y0165867D01*
X0165512Y0164832D01*
X0166029Y0164315D01*
X0168098Y0164315D01*
X0168615Y0164832D01*
X0168615Y0165867D01*
X0168098Y0166384D01*
X0165512Y0170761D02*
X0165512Y0172829D01*
X0166029Y0172829D01*
X0175670Y0170344D02*
X0176187Y0170861D01*
X0176704Y0170861D01*
X0177221Y0170344D01*
X0177221Y0169309D01*
X0176704Y0168792D01*
X0176187Y0168792D01*
X0175670Y0169309D01*
X0175670Y0170344D01*
X0177221Y0170344D02*
X0177738Y0170861D01*
X0178255Y0170861D01*
X0178772Y0170344D01*
X0178772Y0169309D01*
X0178255Y0168792D01*
X0177738Y0168792D01*
X0177221Y0169309D01*
X0178772Y0167638D02*
X0178772Y0165569D01*
X0178772Y0166604D02*
X0175670Y0166604D01*
X0176704Y0165569D01*
X0176187Y0164415D02*
X0175670Y0163898D01*
X0175670Y0162864D01*
X0176187Y0162347D01*
X0178255Y0162347D01*
X0178772Y0162864D01*
X0178772Y0163898D01*
X0178255Y0164415D01*
X0185434Y0165693D02*
X0185951Y0165176D01*
X0188019Y0165176D01*
X0188536Y0165693D01*
X0188536Y0166727D01*
X0188019Y0167244D01*
X0188019Y0168399D02*
X0188536Y0168916D01*
X0188536Y0169950D01*
X0188019Y0170467D01*
X0187502Y0170467D01*
X0186985Y0169950D01*
X0186985Y0169433D01*
X0186985Y0169950D02*
X0186468Y0170467D01*
X0185951Y0170467D01*
X0185434Y0169950D01*
X0185434Y0168916D01*
X0185951Y0168399D01*
X0185951Y0167244D02*
X0185434Y0166727D01*
X0185434Y0165693D01*
X0151765Y0166181D02*
X0151765Y0165147D01*
X0151247Y0164630D01*
X0149179Y0164630D01*
X0148662Y0165147D01*
X0148662Y0166181D01*
X0149179Y0166699D01*
X0149696Y0167853D02*
X0148662Y0168887D01*
X0151765Y0168887D01*
X0151765Y0167853D02*
X0151765Y0169921D01*
X0151247Y0171076D02*
X0151765Y0171593D01*
X0151765Y0172627D01*
X0151247Y0173144D01*
X0150730Y0173144D01*
X0150213Y0172627D01*
X0150213Y0171076D01*
X0151247Y0171076D01*
X0150213Y0171076D02*
X0149179Y0172110D01*
X0148662Y0173144D01*
X0151247Y0166699D02*
X0151765Y0166181D01*
X0109826Y0231275D02*
X0109826Y0231875D01*
X0112228Y0234277D01*
X0112228Y0234878D01*
X0109826Y0234878D01*
X0108545Y0234277D02*
X0107945Y0234878D01*
X0106743Y0234878D01*
X0106143Y0234277D01*
X0106143Y0233677D01*
X0106743Y0233076D01*
X0107945Y0233076D01*
X0108545Y0232476D01*
X0108545Y0231875D01*
X0107945Y0231275D01*
X0106743Y0231275D01*
X0106143Y0231875D01*
X0104862Y0231875D02*
X0104862Y0234878D01*
X0102460Y0234878D02*
X0102460Y0231875D01*
X0103060Y0231275D01*
X0104261Y0231275D01*
X0104862Y0231875D01*
X0107344Y0230674D02*
X0107344Y0235478D01*
X0085102Y0246088D02*
X0085102Y0246688D01*
X0084502Y0247289D01*
X0082700Y0247289D01*
X0082700Y0246088D01*
X0083301Y0245487D01*
X0084502Y0245487D01*
X0085102Y0246088D01*
X0083901Y0248490D02*
X0082700Y0247289D01*
X0081419Y0246688D02*
X0080819Y0247289D01*
X0079618Y0247289D01*
X0079017Y0247889D01*
X0079017Y0248490D01*
X0079618Y0249090D01*
X0080819Y0249090D01*
X0081419Y0248490D01*
X0080218Y0249691D02*
X0080218Y0244887D01*
X0079618Y0245487D02*
X0080819Y0245487D01*
X0081419Y0246088D01*
X0081419Y0246688D01*
X0079618Y0245487D02*
X0079017Y0246088D01*
X0077736Y0246088D02*
X0077736Y0249090D01*
X0075334Y0249090D02*
X0075334Y0246088D01*
X0075934Y0245487D01*
X0077135Y0245487D01*
X0077736Y0246088D01*
X0083901Y0248490D02*
X0085102Y0249090D01*
X0104669Y0250696D02*
X0104669Y0253765D01*
X0104669Y0252231D02*
X0109272Y0252231D01*
X0109272Y0255300D02*
X0109272Y0258369D01*
X0109272Y0256835D02*
X0104669Y0256835D01*
X0106203Y0255300D01*
X0143114Y0241573D02*
X0143114Y0241056D01*
X0143632Y0240539D01*
X0144666Y0240539D01*
X0145183Y0240022D01*
X0145183Y0239505D01*
X0144666Y0238987D01*
X0143632Y0238987D01*
X0143114Y0239505D01*
X0143114Y0241573D02*
X0143632Y0242090D01*
X0144666Y0242090D01*
X0145183Y0241573D01*
X0146337Y0242090D02*
X0146337Y0238987D01*
X0147371Y0240022D01*
X0148406Y0238987D01*
X0148406Y0242090D01*
X0149560Y0241056D02*
X0150594Y0242090D01*
X0150594Y0238987D01*
X0149560Y0238987D02*
X0151628Y0238987D01*
X0268910Y0265524D02*
X0269427Y0265007D01*
X0271495Y0265007D01*
X0272013Y0265524D01*
X0272013Y0266558D01*
X0271495Y0267076D01*
X0272013Y0268230D02*
X0269944Y0270298D01*
X0269427Y0270298D01*
X0268910Y0269781D01*
X0268910Y0268747D01*
X0269427Y0268230D01*
X0269427Y0267076D02*
X0268910Y0266558D01*
X0268910Y0265524D01*
X0272013Y0268230D02*
X0272013Y0270298D01*
X0272013Y0271453D02*
X0271495Y0271453D01*
X0269427Y0273521D01*
X0268910Y0273521D01*
X0268910Y0271453D01*
D13*
X0273213Y0275307D02*
X0278213Y0275307D01*
X0278213Y0264307D01*
X0273213Y0264307D01*
X0273213Y0275307D01*
X0234351Y0248049D02*
X0232099Y0245797D01*
X0235101Y0245797D01*
X0234351Y0243545D02*
X0234351Y0248049D01*
X0228996Y0248049D02*
X0227495Y0246548D01*
X0225894Y0247298D02*
X0225143Y0248049D01*
X0223642Y0248049D01*
X0222891Y0247298D01*
X0222891Y0244296D01*
X0223642Y0243545D01*
X0225143Y0243545D01*
X0225894Y0244296D01*
X0227495Y0243545D02*
X0230497Y0243545D01*
X0228996Y0243545D02*
X0228996Y0248049D01*
X0261992Y0230425D02*
X0266992Y0230425D01*
X0266992Y0219425D01*
X0261992Y0219425D01*
X0261992Y0230425D01*
X0273016Y0230425D02*
X0278016Y0230425D01*
X0278016Y0219425D01*
X0273016Y0219425D01*
X0273016Y0230425D01*
X0295850Y0200504D02*
X0300850Y0200504D01*
X0300850Y0189504D01*
X0295850Y0189504D01*
X0295850Y0200504D01*
X0306087Y0200504D02*
X0311087Y0200504D01*
X0311087Y0189504D01*
X0306087Y0189504D01*
X0306087Y0200504D01*
X0323409Y0202496D02*
X0323409Y0213496D01*
X0328409Y0213496D01*
X0328409Y0202496D01*
X0323409Y0202496D01*
X0322008Y0176697D02*
X0303823Y0176697D01*
X0303823Y0159374D01*
X0323508Y0159374D01*
X0323508Y0175197D01*
X0322008Y0176697D01*
X0329709Y0148929D02*
X0334709Y0148929D01*
X0334709Y0137929D01*
X0329709Y0137929D01*
X0329709Y0148929D01*
X0309118Y0149323D02*
X0309118Y0138323D01*
X0304118Y0138323D01*
X0304118Y0149323D01*
X0309118Y0149323D01*
X0285555Y0130398D02*
X0285555Y0109138D01*
X0270988Y0109138D01*
X0270988Y0101264D01*
X0250516Y0101264D01*
X0242248Y0120949D01*
X0241867Y0129305D02*
X0241867Y0132308D01*
X0243369Y0133809D01*
X0244870Y0132308D01*
X0244870Y0129305D01*
X0246471Y0130056D02*
X0247222Y0129305D01*
X0248723Y0129305D01*
X0249474Y0130056D01*
X0249474Y0130806D01*
X0248723Y0131557D01*
X0247222Y0131557D01*
X0246471Y0132308D01*
X0246471Y0133058D01*
X0247222Y0133809D01*
X0248723Y0133809D01*
X0249474Y0133058D01*
X0251075Y0133809D02*
X0251075Y0129305D01*
X0252576Y0130806D01*
X0254078Y0129305D01*
X0254078Y0133809D01*
X0244870Y0131557D02*
X0241867Y0131557D01*
X0210858Y0133252D02*
X0210858Y0128252D01*
X0199858Y0128252D01*
X0199858Y0133252D01*
X0210858Y0133252D01*
X0211094Y0121441D02*
X0200094Y0121441D01*
X0200094Y0116441D01*
X0211094Y0116441D01*
X0211094Y0121441D01*
X0210819Y0109591D02*
X0199819Y0109591D01*
X0199819Y0104591D01*
X0210819Y0104591D01*
X0210819Y0109591D01*
X0192937Y0071961D02*
X0187937Y0071961D01*
X0187937Y0060961D01*
X0192937Y0060961D01*
X0192937Y0071961D01*
X0200567Y0045457D02*
X0200567Y0040457D01*
X0211567Y0040457D01*
X0211567Y0045457D01*
X0200567Y0045457D01*
X0200409Y0034039D02*
X0200409Y0029039D01*
X0211409Y0029039D01*
X0211409Y0034039D01*
X0200409Y0034039D01*
X0242248Y0034335D02*
X0250516Y0054020D01*
X0270988Y0054020D01*
X0270988Y0046146D01*
X0285555Y0046146D01*
X0285555Y0025280D01*
X0346579Y0025280D01*
X0346579Y0130398D01*
X0285555Y0130398D01*
X0285555Y0109138D02*
X0285555Y0046146D01*
X0162602Y0148823D02*
X0144098Y0148823D01*
X0144098Y0160634D01*
X0162602Y0160634D01*
X0162602Y0148823D01*
X0170083Y0152248D02*
X0170083Y0159335D01*
X0183469Y0159335D01*
X0183469Y0152248D01*
X0170083Y0152248D01*
X0169472Y0161315D02*
X0169472Y0172315D01*
X0174472Y0172315D01*
X0174472Y0161315D01*
X0169472Y0161315D01*
X0164315Y0163283D02*
X0159315Y0163283D01*
X0159315Y0174283D01*
X0164315Y0174283D01*
X0164315Y0163283D01*
X0179236Y0160921D02*
X0179236Y0171921D01*
X0184236Y0171921D01*
X0184236Y0160921D01*
X0179236Y0160921D01*
X0191313Y0163601D02*
X0191313Y0167351D01*
X0195603Y0162728D02*
X0196554Y0162728D01*
X0196871Y0162411D01*
X0196871Y0161143D01*
X0196554Y0160826D01*
X0195603Y0160826D01*
X0195603Y0162728D01*
X0197813Y0162411D02*
X0198130Y0162728D01*
X0198764Y0162728D01*
X0199081Y0162411D01*
X0199081Y0162094D01*
X0197813Y0160826D01*
X0199081Y0160826D01*
X0198841Y0156232D02*
X0198207Y0155598D01*
X0198841Y0156232D02*
X0198841Y0154330D01*
X0199474Y0154330D02*
X0198207Y0154330D01*
X0197265Y0154647D02*
X0197265Y0155915D01*
X0196948Y0156232D01*
X0195997Y0156232D01*
X0195997Y0154330D01*
X0196948Y0154330D01*
X0197265Y0154647D01*
X0191707Y0157105D02*
X0191707Y0160855D01*
X0217091Y0188272D02*
X0229295Y0188272D01*
X0229295Y0191421D01*
X0229295Y0197327D02*
X0229295Y0200476D01*
X0217091Y0200476D01*
X0217091Y0200280D01*
X0217091Y0195555D02*
X0217091Y0193193D01*
X0217091Y0188469D02*
X0217091Y0188272D01*
X0237583Y0188323D02*
X0237583Y0199323D01*
X0242583Y0199323D01*
X0242583Y0188323D01*
X0237583Y0188323D01*
X0271047Y0172551D02*
X0276047Y0172551D01*
X0276047Y0161551D01*
X0271047Y0161551D01*
X0271047Y0172551D01*
X0196618Y0205909D02*
X0196618Y0209059D01*
X0196618Y0205909D02*
X0184413Y0205909D01*
X0184413Y0206106D01*
X0184413Y0210831D02*
X0184413Y0213193D01*
X0184413Y0217917D02*
X0184413Y0218114D01*
X0196618Y0218114D01*
X0196618Y0214965D01*
X0189433Y0224937D02*
X0184433Y0224937D01*
X0184433Y0235937D01*
X0189433Y0235937D01*
X0189433Y0224937D01*
X0161323Y0219953D02*
X0161323Y0208953D01*
X0156323Y0208953D01*
X0156323Y0219953D01*
X0161323Y0219953D01*
X0145654Y0220346D02*
X0145654Y0209346D01*
X0140654Y0209346D01*
X0140654Y0220346D01*
X0145654Y0220346D01*
X0151972Y0243114D02*
X0138193Y0243114D01*
X0138193Y0271461D01*
X0151972Y0271461D01*
X0151972Y0243114D01*
X0166747Y0245634D02*
X0167498Y0244884D01*
X0168999Y0244884D01*
X0169749Y0245634D01*
X0171351Y0247136D02*
X0173603Y0249388D01*
X0173603Y0244884D01*
X0174353Y0247136D02*
X0171351Y0247136D01*
X0169749Y0248637D02*
X0168999Y0249388D01*
X0167498Y0249388D01*
X0166747Y0248637D01*
X0166747Y0245634D01*
X0164787Y0200268D02*
X0159787Y0200268D01*
X0159787Y0189268D01*
X0164787Y0189268D01*
X0164787Y0200268D01*
X0147465Y0174598D02*
X0142465Y0174598D01*
X0142465Y0163598D01*
X0147465Y0163598D01*
X0147465Y0174598D01*
X0082228Y0169205D02*
X0082228Y0158205D01*
X0077228Y0158205D01*
X0077228Y0169205D01*
X0082228Y0169205D01*
X0085071Y0129039D02*
X0074071Y0129039D01*
X0074071Y0124039D01*
X0085071Y0124039D01*
X0085071Y0129039D01*
X0088638Y0129118D02*
X0088638Y0124118D01*
X0099638Y0124118D01*
X0099638Y0129118D01*
X0088638Y0129118D01*
X0088244Y0115417D02*
X0088244Y0110417D01*
X0099244Y0110417D01*
X0099244Y0115417D01*
X0088244Y0115417D01*
X0084677Y0115732D02*
X0084677Y0110732D01*
X0073677Y0110732D01*
X0073677Y0115732D01*
X0084677Y0115732D01*
X0085071Y0103213D02*
X0074071Y0103213D01*
X0074071Y0098213D01*
X0085071Y0098213D01*
X0085071Y0103213D01*
X0087850Y0102898D02*
X0087850Y0097898D01*
X0098850Y0097898D01*
X0098850Y0102898D01*
X0087850Y0102898D01*
X0106520Y0107787D02*
X0106520Y0096787D01*
X0111520Y0096787D01*
X0111520Y0107787D01*
X0106520Y0107787D01*
X0098850Y0089984D02*
X0087850Y0089984D01*
X0087850Y0084984D01*
X0098850Y0084984D01*
X0098850Y0089984D01*
X0085071Y0089906D02*
X0085071Y0084906D01*
X0074071Y0084906D01*
X0074071Y0089906D01*
X0085071Y0089906D01*
X0078458Y0076918D02*
X0078458Y0072415D01*
X0076957Y0072415D02*
X0079960Y0072415D01*
X0076957Y0075417D02*
X0078458Y0076918D01*
X0075356Y0076168D02*
X0075356Y0074666D01*
X0074605Y0073916D01*
X0072353Y0073916D01*
X0072353Y0072415D02*
X0072353Y0076918D01*
X0074605Y0076918D01*
X0075356Y0076168D01*
X0070752Y0076918D02*
X0069250Y0076918D01*
X0070001Y0076918D02*
X0070001Y0073165D01*
X0069250Y0072415D01*
X0068500Y0072415D01*
X0067749Y0073165D01*
X0062406Y0102484D02*
X0015161Y0102484D01*
X0015161Y0105240D01*
X0011618Y0105240D01*
X0011618Y0124138D01*
X0014768Y0124138D01*
X0015161Y0126894D02*
X0062406Y0126894D01*
X0062406Y0102484D01*
X0015161Y0105240D02*
X0015161Y0126894D01*
X0061485Y0217238D02*
X0060734Y0217989D01*
X0060734Y0220991D01*
X0061485Y0221742D01*
X0062986Y0221742D01*
X0063737Y0220991D01*
X0065338Y0220241D02*
X0066839Y0221742D01*
X0066839Y0217238D01*
X0065338Y0217238D02*
X0068341Y0217238D01*
X0063737Y0217989D02*
X0062986Y0217238D01*
X0061485Y0217238D01*
X0070988Y0225909D02*
X0090280Y0225909D01*
X0090280Y0241264D01*
X0070988Y0241264D01*
X0070988Y0225909D01*
X0056386Y0234193D02*
X0056386Y0242193D01*
X0055756Y0249941D02*
X0055756Y0257941D01*
X0073247Y0270762D02*
X0076997Y0270762D01*
X0081475Y0270368D02*
X0085225Y0270368D01*
X0086099Y0274658D02*
X0086099Y0275609D01*
X0086416Y0275926D01*
X0087683Y0275926D01*
X0088000Y0275609D01*
X0088000Y0274658D01*
X0086099Y0274658D01*
X0086099Y0276868D02*
X0087050Y0276868D01*
X0086733Y0277502D01*
X0086733Y0277819D01*
X0087050Y0278136D01*
X0087683Y0278136D01*
X0088000Y0277819D01*
X0088000Y0277185D01*
X0087683Y0276868D01*
X0086099Y0276868D02*
X0086099Y0278136D01*
X0079772Y0278213D02*
X0079455Y0278530D01*
X0079138Y0278530D01*
X0078821Y0278213D01*
X0078821Y0277262D01*
X0079455Y0277262D01*
X0079772Y0277579D01*
X0079772Y0278213D01*
X0078821Y0277262D02*
X0078187Y0277896D01*
X0077870Y0278530D01*
X0078187Y0276320D02*
X0077870Y0276003D01*
X0077870Y0275052D01*
X0079772Y0275052D01*
X0079772Y0276003D01*
X0079455Y0276320D01*
X0078187Y0276320D01*
X0333843Y0252669D02*
X0333843Y0241669D01*
X0338843Y0241669D01*
X0338843Y0252669D01*
X0333843Y0252669D01*
D14*
X0103232Y0222406D03*
X0072563Y0227287D03*
D15*
X0102157Y0227449D02*
X0102157Y0221299D01*
X0113358Y0221299D02*
X0113358Y0227449D01*
X0143106Y0198075D02*
X0143106Y0191697D01*
X0146650Y0191697D02*
X0147020Y0191697D01*
X0150390Y0191697D02*
X0150760Y0191697D01*
X0154303Y0191697D02*
X0154303Y0198075D01*
X0150760Y0198075D02*
X0146650Y0198075D01*
X0200705Y0254634D02*
X0200705Y0257634D01*
X0202205Y0256134D02*
X0199205Y0256134D01*
X0172705Y0260634D02*
X0172710Y0261027D01*
X0172724Y0261419D01*
X0172748Y0261811D01*
X0172782Y0262202D01*
X0172825Y0262593D01*
X0172878Y0262982D01*
X0172941Y0263369D01*
X0173012Y0263755D01*
X0173094Y0264140D01*
X0173184Y0264522D01*
X0173285Y0264901D01*
X0173394Y0265279D01*
X0173513Y0265653D01*
X0173640Y0266024D01*
X0173777Y0266392D01*
X0173923Y0266757D01*
X0174078Y0267118D01*
X0174241Y0267475D01*
X0174413Y0267828D01*
X0174594Y0268176D01*
X0174784Y0268520D01*
X0174981Y0268860D01*
X0175187Y0269194D01*
X0175401Y0269523D01*
X0175624Y0269847D01*
X0175854Y0270165D01*
X0176091Y0270478D01*
X0176337Y0270784D01*
X0176590Y0271085D01*
X0176850Y0271379D01*
X0177117Y0271667D01*
X0177391Y0271948D01*
X0177672Y0272222D01*
X0177960Y0272489D01*
X0178254Y0272749D01*
X0178555Y0273002D01*
X0178861Y0273248D01*
X0179174Y0273485D01*
X0179492Y0273715D01*
X0179816Y0273938D01*
X0180145Y0274152D01*
X0180479Y0274358D01*
X0180819Y0274555D01*
X0181163Y0274745D01*
X0181511Y0274926D01*
X0181864Y0275098D01*
X0182221Y0275261D01*
X0182582Y0275416D01*
X0182947Y0275562D01*
X0183315Y0275699D01*
X0183686Y0275826D01*
X0184060Y0275945D01*
X0184438Y0276054D01*
X0184817Y0276155D01*
X0185199Y0276245D01*
X0185584Y0276327D01*
X0185970Y0276398D01*
X0186357Y0276461D01*
X0186746Y0276514D01*
X0187137Y0276557D01*
X0187528Y0276591D01*
X0187920Y0276615D01*
X0188312Y0276629D01*
X0188705Y0276634D01*
X0189098Y0276629D01*
X0189490Y0276615D01*
X0189882Y0276591D01*
X0190273Y0276557D01*
X0190664Y0276514D01*
X0191053Y0276461D01*
X0191440Y0276398D01*
X0191826Y0276327D01*
X0192211Y0276245D01*
X0192593Y0276155D01*
X0192972Y0276054D01*
X0193350Y0275945D01*
X0193724Y0275826D01*
X0194095Y0275699D01*
X0194463Y0275562D01*
X0194828Y0275416D01*
X0195189Y0275261D01*
X0195546Y0275098D01*
X0195899Y0274926D01*
X0196247Y0274745D01*
X0196591Y0274555D01*
X0196931Y0274358D01*
X0197265Y0274152D01*
X0197594Y0273938D01*
X0197918Y0273715D01*
X0198236Y0273485D01*
X0198549Y0273248D01*
X0198855Y0273002D01*
X0199156Y0272749D01*
X0199450Y0272489D01*
X0199738Y0272222D01*
X0200019Y0271948D01*
X0200293Y0271667D01*
X0200560Y0271379D01*
X0200820Y0271085D01*
X0201073Y0270784D01*
X0201319Y0270478D01*
X0201556Y0270165D01*
X0201786Y0269847D01*
X0202009Y0269523D01*
X0202223Y0269194D01*
X0202429Y0268860D01*
X0202626Y0268520D01*
X0202816Y0268176D01*
X0202997Y0267828D01*
X0203169Y0267475D01*
X0203332Y0267118D01*
X0203487Y0266757D01*
X0203633Y0266392D01*
X0203770Y0266024D01*
X0203897Y0265653D01*
X0204016Y0265279D01*
X0204125Y0264901D01*
X0204226Y0264522D01*
X0204316Y0264140D01*
X0204398Y0263755D01*
X0204469Y0263369D01*
X0204532Y0262982D01*
X0204585Y0262593D01*
X0204628Y0262202D01*
X0204662Y0261811D01*
X0204686Y0261419D01*
X0204700Y0261027D01*
X0204705Y0260634D01*
X0204700Y0260241D01*
X0204686Y0259849D01*
X0204662Y0259457D01*
X0204628Y0259066D01*
X0204585Y0258675D01*
X0204532Y0258286D01*
X0204469Y0257899D01*
X0204398Y0257513D01*
X0204316Y0257128D01*
X0204226Y0256746D01*
X0204125Y0256367D01*
X0204016Y0255989D01*
X0203897Y0255615D01*
X0203770Y0255244D01*
X0203633Y0254876D01*
X0203487Y0254511D01*
X0203332Y0254150D01*
X0203169Y0253793D01*
X0202997Y0253440D01*
X0202816Y0253092D01*
X0202626Y0252748D01*
X0202429Y0252408D01*
X0202223Y0252074D01*
X0202009Y0251745D01*
X0201786Y0251421D01*
X0201556Y0251103D01*
X0201319Y0250790D01*
X0201073Y0250484D01*
X0200820Y0250183D01*
X0200560Y0249889D01*
X0200293Y0249601D01*
X0200019Y0249320D01*
X0199738Y0249046D01*
X0199450Y0248779D01*
X0199156Y0248519D01*
X0198855Y0248266D01*
X0198549Y0248020D01*
X0198236Y0247783D01*
X0197918Y0247553D01*
X0197594Y0247330D01*
X0197265Y0247116D01*
X0196931Y0246910D01*
X0196591Y0246713D01*
X0196247Y0246523D01*
X0195899Y0246342D01*
X0195546Y0246170D01*
X0195189Y0246007D01*
X0194828Y0245852D01*
X0194463Y0245706D01*
X0194095Y0245569D01*
X0193724Y0245442D01*
X0193350Y0245323D01*
X0192972Y0245214D01*
X0192593Y0245113D01*
X0192211Y0245023D01*
X0191826Y0244941D01*
X0191440Y0244870D01*
X0191053Y0244807D01*
X0190664Y0244754D01*
X0190273Y0244711D01*
X0189882Y0244677D01*
X0189490Y0244653D01*
X0189098Y0244639D01*
X0188705Y0244634D01*
X0188312Y0244639D01*
X0187920Y0244653D01*
X0187528Y0244677D01*
X0187137Y0244711D01*
X0186746Y0244754D01*
X0186357Y0244807D01*
X0185970Y0244870D01*
X0185584Y0244941D01*
X0185199Y0245023D01*
X0184817Y0245113D01*
X0184438Y0245214D01*
X0184060Y0245323D01*
X0183686Y0245442D01*
X0183315Y0245569D01*
X0182947Y0245706D01*
X0182582Y0245852D01*
X0182221Y0246007D01*
X0181864Y0246170D01*
X0181511Y0246342D01*
X0181163Y0246523D01*
X0180819Y0246713D01*
X0180479Y0246910D01*
X0180145Y0247116D01*
X0179816Y0247330D01*
X0179492Y0247553D01*
X0179174Y0247783D01*
X0178861Y0248020D01*
X0178555Y0248266D01*
X0178254Y0248519D01*
X0177960Y0248779D01*
X0177672Y0249046D01*
X0177391Y0249320D01*
X0177117Y0249601D01*
X0176850Y0249889D01*
X0176590Y0250183D01*
X0176337Y0250484D01*
X0176091Y0250790D01*
X0175854Y0251103D01*
X0175624Y0251421D01*
X0175401Y0251745D01*
X0175187Y0252074D01*
X0174981Y0252408D01*
X0174784Y0252748D01*
X0174594Y0253092D01*
X0174413Y0253440D01*
X0174241Y0253793D01*
X0174078Y0254150D01*
X0173923Y0254511D01*
X0173777Y0254876D01*
X0173640Y0255244D01*
X0173513Y0255615D01*
X0173394Y0255989D01*
X0173285Y0256367D01*
X0173184Y0256746D01*
X0173094Y0257128D01*
X0173012Y0257513D01*
X0172941Y0257899D01*
X0172878Y0258286D01*
X0172825Y0258675D01*
X0172782Y0259066D01*
X0172748Y0259457D01*
X0172724Y0259849D01*
X0172710Y0260241D01*
X0172705Y0260634D01*
X0233453Y0259295D02*
X0233458Y0259688D01*
X0233472Y0260080D01*
X0233496Y0260472D01*
X0233530Y0260863D01*
X0233573Y0261254D01*
X0233626Y0261643D01*
X0233689Y0262030D01*
X0233760Y0262416D01*
X0233842Y0262801D01*
X0233932Y0263183D01*
X0234033Y0263562D01*
X0234142Y0263940D01*
X0234261Y0264314D01*
X0234388Y0264685D01*
X0234525Y0265053D01*
X0234671Y0265418D01*
X0234826Y0265779D01*
X0234989Y0266136D01*
X0235161Y0266489D01*
X0235342Y0266837D01*
X0235532Y0267181D01*
X0235729Y0267521D01*
X0235935Y0267855D01*
X0236149Y0268184D01*
X0236372Y0268508D01*
X0236602Y0268826D01*
X0236839Y0269139D01*
X0237085Y0269445D01*
X0237338Y0269746D01*
X0237598Y0270040D01*
X0237865Y0270328D01*
X0238139Y0270609D01*
X0238420Y0270883D01*
X0238708Y0271150D01*
X0239002Y0271410D01*
X0239303Y0271663D01*
X0239609Y0271909D01*
X0239922Y0272146D01*
X0240240Y0272376D01*
X0240564Y0272599D01*
X0240893Y0272813D01*
X0241227Y0273019D01*
X0241567Y0273216D01*
X0241911Y0273406D01*
X0242259Y0273587D01*
X0242612Y0273759D01*
X0242969Y0273922D01*
X0243330Y0274077D01*
X0243695Y0274223D01*
X0244063Y0274360D01*
X0244434Y0274487D01*
X0244808Y0274606D01*
X0245186Y0274715D01*
X0245565Y0274816D01*
X0245947Y0274906D01*
X0246332Y0274988D01*
X0246718Y0275059D01*
X0247105Y0275122D01*
X0247494Y0275175D01*
X0247885Y0275218D01*
X0248276Y0275252D01*
X0248668Y0275276D01*
X0249060Y0275290D01*
X0249453Y0275295D01*
X0249846Y0275290D01*
X0250238Y0275276D01*
X0250630Y0275252D01*
X0251021Y0275218D01*
X0251412Y0275175D01*
X0251801Y0275122D01*
X0252188Y0275059D01*
X0252574Y0274988D01*
X0252959Y0274906D01*
X0253341Y0274816D01*
X0253720Y0274715D01*
X0254098Y0274606D01*
X0254472Y0274487D01*
X0254843Y0274360D01*
X0255211Y0274223D01*
X0255576Y0274077D01*
X0255937Y0273922D01*
X0256294Y0273759D01*
X0256647Y0273587D01*
X0256995Y0273406D01*
X0257339Y0273216D01*
X0257679Y0273019D01*
X0258013Y0272813D01*
X0258342Y0272599D01*
X0258666Y0272376D01*
X0258984Y0272146D01*
X0259297Y0271909D01*
X0259603Y0271663D01*
X0259904Y0271410D01*
X0260198Y0271150D01*
X0260486Y0270883D01*
X0260767Y0270609D01*
X0261041Y0270328D01*
X0261308Y0270040D01*
X0261568Y0269746D01*
X0261821Y0269445D01*
X0262067Y0269139D01*
X0262304Y0268826D01*
X0262534Y0268508D01*
X0262757Y0268184D01*
X0262971Y0267855D01*
X0263177Y0267521D01*
X0263374Y0267181D01*
X0263564Y0266837D01*
X0263745Y0266489D01*
X0263917Y0266136D01*
X0264080Y0265779D01*
X0264235Y0265418D01*
X0264381Y0265053D01*
X0264518Y0264685D01*
X0264645Y0264314D01*
X0264764Y0263940D01*
X0264873Y0263562D01*
X0264974Y0263183D01*
X0265064Y0262801D01*
X0265146Y0262416D01*
X0265217Y0262030D01*
X0265280Y0261643D01*
X0265333Y0261254D01*
X0265376Y0260863D01*
X0265410Y0260472D01*
X0265434Y0260080D01*
X0265448Y0259688D01*
X0265453Y0259295D01*
X0265448Y0258902D01*
X0265434Y0258510D01*
X0265410Y0258118D01*
X0265376Y0257727D01*
X0265333Y0257336D01*
X0265280Y0256947D01*
X0265217Y0256560D01*
X0265146Y0256174D01*
X0265064Y0255789D01*
X0264974Y0255407D01*
X0264873Y0255028D01*
X0264764Y0254650D01*
X0264645Y0254276D01*
X0264518Y0253905D01*
X0264381Y0253537D01*
X0264235Y0253172D01*
X0264080Y0252811D01*
X0263917Y0252454D01*
X0263745Y0252101D01*
X0263564Y0251753D01*
X0263374Y0251409D01*
X0263177Y0251069D01*
X0262971Y0250735D01*
X0262757Y0250406D01*
X0262534Y0250082D01*
X0262304Y0249764D01*
X0262067Y0249451D01*
X0261821Y0249145D01*
X0261568Y0248844D01*
X0261308Y0248550D01*
X0261041Y0248262D01*
X0260767Y0247981D01*
X0260486Y0247707D01*
X0260198Y0247440D01*
X0259904Y0247180D01*
X0259603Y0246927D01*
X0259297Y0246681D01*
X0258984Y0246444D01*
X0258666Y0246214D01*
X0258342Y0245991D01*
X0258013Y0245777D01*
X0257679Y0245571D01*
X0257339Y0245374D01*
X0256995Y0245184D01*
X0256647Y0245003D01*
X0256294Y0244831D01*
X0255937Y0244668D01*
X0255576Y0244513D01*
X0255211Y0244367D01*
X0254843Y0244230D01*
X0254472Y0244103D01*
X0254098Y0243984D01*
X0253720Y0243875D01*
X0253341Y0243774D01*
X0252959Y0243684D01*
X0252574Y0243602D01*
X0252188Y0243531D01*
X0251801Y0243468D01*
X0251412Y0243415D01*
X0251021Y0243372D01*
X0250630Y0243338D01*
X0250238Y0243314D01*
X0249846Y0243300D01*
X0249453Y0243295D01*
X0249060Y0243300D01*
X0248668Y0243314D01*
X0248276Y0243338D01*
X0247885Y0243372D01*
X0247494Y0243415D01*
X0247105Y0243468D01*
X0246718Y0243531D01*
X0246332Y0243602D01*
X0245947Y0243684D01*
X0245565Y0243774D01*
X0245186Y0243875D01*
X0244808Y0243984D01*
X0244434Y0244103D01*
X0244063Y0244230D01*
X0243695Y0244367D01*
X0243330Y0244513D01*
X0242969Y0244668D01*
X0242612Y0244831D01*
X0242259Y0245003D01*
X0241911Y0245184D01*
X0241567Y0245374D01*
X0241227Y0245571D01*
X0240893Y0245777D01*
X0240564Y0245991D01*
X0240240Y0246214D01*
X0239922Y0246444D01*
X0239609Y0246681D01*
X0239303Y0246927D01*
X0239002Y0247180D01*
X0238708Y0247440D01*
X0238420Y0247707D01*
X0238139Y0247981D01*
X0237865Y0248262D01*
X0237598Y0248550D01*
X0237338Y0248844D01*
X0237085Y0249145D01*
X0236839Y0249451D01*
X0236602Y0249764D01*
X0236372Y0250082D01*
X0236149Y0250406D01*
X0235935Y0250735D01*
X0235729Y0251069D01*
X0235532Y0251409D01*
X0235342Y0251753D01*
X0235161Y0252101D01*
X0234989Y0252454D01*
X0234826Y0252811D01*
X0234671Y0253172D01*
X0234525Y0253537D01*
X0234388Y0253905D01*
X0234261Y0254276D01*
X0234142Y0254650D01*
X0234033Y0255028D01*
X0233932Y0255407D01*
X0233842Y0255789D01*
X0233760Y0256174D01*
X0233689Y0256560D01*
X0233626Y0256947D01*
X0233573Y0257336D01*
X0233530Y0257727D01*
X0233496Y0258118D01*
X0233472Y0258510D01*
X0233458Y0258902D01*
X0233453Y0259295D01*
X0259953Y0254795D02*
X0262953Y0254795D01*
X0261453Y0256295D02*
X0261453Y0253295D01*
X0254629Y0175555D02*
X0242229Y0175555D01*
X0242153Y0175553D01*
X0242077Y0175547D01*
X0242002Y0175538D01*
X0241927Y0175524D01*
X0241853Y0175507D01*
X0241780Y0175486D01*
X0241708Y0175462D01*
X0241637Y0175433D01*
X0241568Y0175402D01*
X0241501Y0175367D01*
X0241436Y0175328D01*
X0241372Y0175286D01*
X0241311Y0175241D01*
X0241252Y0175193D01*
X0241196Y0175142D01*
X0241142Y0175088D01*
X0241091Y0175032D01*
X0241043Y0174973D01*
X0240998Y0174912D01*
X0240956Y0174848D01*
X0240917Y0174783D01*
X0240882Y0174716D01*
X0240851Y0174647D01*
X0240822Y0174576D01*
X0240798Y0174504D01*
X0240777Y0174431D01*
X0240760Y0174357D01*
X0240746Y0174282D01*
X0240737Y0174207D01*
X0240731Y0174131D01*
X0240729Y0174055D01*
X0240729Y0137055D01*
X0240731Y0136979D01*
X0240737Y0136903D01*
X0240746Y0136828D01*
X0240760Y0136753D01*
X0240777Y0136679D01*
X0240798Y0136606D01*
X0240822Y0136534D01*
X0240851Y0136463D01*
X0240882Y0136394D01*
X0240917Y0136327D01*
X0240956Y0136262D01*
X0240998Y0136198D01*
X0241043Y0136137D01*
X0241091Y0136078D01*
X0241142Y0136022D01*
X0241196Y0135968D01*
X0241252Y0135917D01*
X0241311Y0135869D01*
X0241372Y0135824D01*
X0241436Y0135782D01*
X0241501Y0135743D01*
X0241568Y0135708D01*
X0241637Y0135677D01*
X0241708Y0135648D01*
X0241780Y0135624D01*
X0241853Y0135603D01*
X0241927Y0135586D01*
X0242002Y0135572D01*
X0242077Y0135563D01*
X0242153Y0135557D01*
X0242229Y0135555D01*
X0246429Y0135555D01*
X0250429Y0135555D01*
X0254629Y0135555D01*
X0254705Y0135557D01*
X0254781Y0135563D01*
X0254856Y0135572D01*
X0254931Y0135586D01*
X0255005Y0135603D01*
X0255078Y0135624D01*
X0255150Y0135648D01*
X0255221Y0135677D01*
X0255290Y0135708D01*
X0255357Y0135743D01*
X0255422Y0135782D01*
X0255486Y0135824D01*
X0255547Y0135869D01*
X0255606Y0135917D01*
X0255662Y0135968D01*
X0255716Y0136022D01*
X0255767Y0136078D01*
X0255815Y0136137D01*
X0255860Y0136198D01*
X0255902Y0136262D01*
X0255941Y0136327D01*
X0255976Y0136394D01*
X0256007Y0136463D01*
X0256036Y0136534D01*
X0256060Y0136606D01*
X0256081Y0136679D01*
X0256098Y0136753D01*
X0256112Y0136828D01*
X0256121Y0136903D01*
X0256127Y0136979D01*
X0256129Y0137055D01*
X0256129Y0174055D01*
X0256127Y0174131D01*
X0256121Y0174207D01*
X0256112Y0174282D01*
X0256098Y0174357D01*
X0256081Y0174431D01*
X0256060Y0174504D01*
X0256036Y0174576D01*
X0256007Y0174647D01*
X0255976Y0174716D01*
X0255941Y0174783D01*
X0255902Y0174848D01*
X0255860Y0174912D01*
X0255815Y0174973D01*
X0255767Y0175032D01*
X0255716Y0175088D01*
X0255662Y0175142D01*
X0255606Y0175193D01*
X0255547Y0175241D01*
X0255486Y0175286D01*
X0255422Y0175328D01*
X0255357Y0175367D01*
X0255290Y0175402D01*
X0255221Y0175433D01*
X0255150Y0175462D01*
X0255078Y0175486D01*
X0255005Y0175507D01*
X0254931Y0175524D01*
X0254856Y0175538D01*
X0254781Y0175547D01*
X0254705Y0175553D01*
X0254629Y0175555D01*
X0250429Y0135555D02*
X0250427Y0135643D01*
X0250421Y0135732D01*
X0250411Y0135820D01*
X0250398Y0135907D01*
X0250380Y0135994D01*
X0250359Y0136080D01*
X0250334Y0136165D01*
X0250305Y0136248D01*
X0250272Y0136331D01*
X0250236Y0136411D01*
X0250197Y0136490D01*
X0250154Y0136568D01*
X0250107Y0136643D01*
X0250057Y0136716D01*
X0250004Y0136787D01*
X0249948Y0136856D01*
X0249889Y0136922D01*
X0249827Y0136985D01*
X0249763Y0137045D01*
X0249696Y0137103D01*
X0249626Y0137157D01*
X0249554Y0137209D01*
X0249480Y0137257D01*
X0249403Y0137302D01*
X0249325Y0137343D01*
X0249245Y0137381D01*
X0249164Y0137415D01*
X0249081Y0137446D01*
X0248996Y0137473D01*
X0248911Y0137496D01*
X0248825Y0137515D01*
X0248737Y0137531D01*
X0248650Y0137543D01*
X0248562Y0137551D01*
X0248473Y0137555D01*
X0248385Y0137555D01*
X0248296Y0137551D01*
X0248208Y0137543D01*
X0248121Y0137531D01*
X0248033Y0137515D01*
X0247947Y0137496D01*
X0247862Y0137473D01*
X0247777Y0137446D01*
X0247694Y0137415D01*
X0247613Y0137381D01*
X0247533Y0137343D01*
X0247455Y0137302D01*
X0247378Y0137257D01*
X0247304Y0137209D01*
X0247232Y0137157D01*
X0247162Y0137103D01*
X0247095Y0137045D01*
X0247031Y0136985D01*
X0246969Y0136922D01*
X0246910Y0136856D01*
X0246854Y0136787D01*
X0246801Y0136716D01*
X0246751Y0136643D01*
X0246704Y0136568D01*
X0246661Y0136490D01*
X0246622Y0136411D01*
X0246586Y0136331D01*
X0246553Y0136248D01*
X0246524Y0136165D01*
X0246499Y0136080D01*
X0246478Y0135994D01*
X0246460Y0135907D01*
X0246447Y0135820D01*
X0246437Y0135732D01*
X0246431Y0135643D01*
X0246429Y0135555D01*
X0184239Y0124507D02*
X0184239Y0120236D01*
X0184239Y0122372D02*
X0177834Y0122372D01*
X0179969Y0120236D01*
X0178901Y0118061D02*
X0177834Y0116994D01*
X0177834Y0114858D01*
X0178901Y0113791D01*
X0179969Y0113791D01*
X0181037Y0114858D01*
X0181037Y0116994D01*
X0182104Y0118061D01*
X0183172Y0118061D01*
X0184239Y0116994D01*
X0184239Y0114858D01*
X0183172Y0113791D01*
X0183172Y0111616D02*
X0177834Y0111616D01*
X0176766Y0115926D02*
X0185307Y0115926D01*
X0183172Y0111616D02*
X0184239Y0110548D01*
X0184239Y0108413D01*
X0183172Y0107345D01*
X0177834Y0107345D01*
X0107799Y0067465D02*
X0107799Y0062465D01*
X0105299Y0059965D01*
X0100299Y0059965D01*
X0097799Y0062465D01*
X0095299Y0059965D01*
X0090299Y0059965D01*
X0087799Y0062465D01*
X0085299Y0059965D01*
X0080299Y0059965D01*
X0077799Y0062465D01*
X0075299Y0059965D01*
X0070299Y0059965D01*
X0067799Y0062465D01*
X0067799Y0067465D01*
X0070299Y0069965D01*
X0075299Y0069965D01*
X0077799Y0067465D01*
X0080299Y0069965D01*
X0085299Y0069965D01*
X0087799Y0067465D01*
X0087799Y0062465D01*
X0087799Y0067465D02*
X0090299Y0069965D01*
X0095299Y0069965D01*
X0097799Y0067465D01*
X0100299Y0069965D01*
X0105299Y0069965D01*
X0107799Y0067465D01*
X0097799Y0067465D02*
X0097799Y0062465D01*
X0077799Y0062465D02*
X0077799Y0067465D01*
X0031484Y0205988D02*
X0031489Y0206381D01*
X0031503Y0206773D01*
X0031527Y0207165D01*
X0031561Y0207556D01*
X0031604Y0207947D01*
X0031657Y0208336D01*
X0031720Y0208723D01*
X0031791Y0209109D01*
X0031873Y0209494D01*
X0031963Y0209876D01*
X0032064Y0210255D01*
X0032173Y0210633D01*
X0032292Y0211007D01*
X0032419Y0211378D01*
X0032556Y0211746D01*
X0032702Y0212111D01*
X0032857Y0212472D01*
X0033020Y0212829D01*
X0033192Y0213182D01*
X0033373Y0213530D01*
X0033563Y0213874D01*
X0033760Y0214214D01*
X0033966Y0214548D01*
X0034180Y0214877D01*
X0034403Y0215201D01*
X0034633Y0215519D01*
X0034870Y0215832D01*
X0035116Y0216138D01*
X0035369Y0216439D01*
X0035629Y0216733D01*
X0035896Y0217021D01*
X0036170Y0217302D01*
X0036451Y0217576D01*
X0036739Y0217843D01*
X0037033Y0218103D01*
X0037334Y0218356D01*
X0037640Y0218602D01*
X0037953Y0218839D01*
X0038271Y0219069D01*
X0038595Y0219292D01*
X0038924Y0219506D01*
X0039258Y0219712D01*
X0039598Y0219909D01*
X0039942Y0220099D01*
X0040290Y0220280D01*
X0040643Y0220452D01*
X0041000Y0220615D01*
X0041361Y0220770D01*
X0041726Y0220916D01*
X0042094Y0221053D01*
X0042465Y0221180D01*
X0042839Y0221299D01*
X0043217Y0221408D01*
X0043596Y0221509D01*
X0043978Y0221599D01*
X0044363Y0221681D01*
X0044749Y0221752D01*
X0045136Y0221815D01*
X0045525Y0221868D01*
X0045916Y0221911D01*
X0046307Y0221945D01*
X0046699Y0221969D01*
X0047091Y0221983D01*
X0047484Y0221988D01*
X0047877Y0221983D01*
X0048269Y0221969D01*
X0048661Y0221945D01*
X0049052Y0221911D01*
X0049443Y0221868D01*
X0049832Y0221815D01*
X0050219Y0221752D01*
X0050605Y0221681D01*
X0050990Y0221599D01*
X0051372Y0221509D01*
X0051751Y0221408D01*
X0052129Y0221299D01*
X0052503Y0221180D01*
X0052874Y0221053D01*
X0053242Y0220916D01*
X0053607Y0220770D01*
X0053968Y0220615D01*
X0054325Y0220452D01*
X0054678Y0220280D01*
X0055026Y0220099D01*
X0055370Y0219909D01*
X0055710Y0219712D01*
X0056044Y0219506D01*
X0056373Y0219292D01*
X0056697Y0219069D01*
X0057015Y0218839D01*
X0057328Y0218602D01*
X0057634Y0218356D01*
X0057935Y0218103D01*
X0058229Y0217843D01*
X0058517Y0217576D01*
X0058798Y0217302D01*
X0059072Y0217021D01*
X0059339Y0216733D01*
X0059599Y0216439D01*
X0059852Y0216138D01*
X0060098Y0215832D01*
X0060335Y0215519D01*
X0060565Y0215201D01*
X0060788Y0214877D01*
X0061002Y0214548D01*
X0061208Y0214214D01*
X0061405Y0213874D01*
X0061595Y0213530D01*
X0061776Y0213182D01*
X0061948Y0212829D01*
X0062111Y0212472D01*
X0062266Y0212111D01*
X0062412Y0211746D01*
X0062549Y0211378D01*
X0062676Y0211007D01*
X0062795Y0210633D01*
X0062904Y0210255D01*
X0063005Y0209876D01*
X0063095Y0209494D01*
X0063177Y0209109D01*
X0063248Y0208723D01*
X0063311Y0208336D01*
X0063364Y0207947D01*
X0063407Y0207556D01*
X0063441Y0207165D01*
X0063465Y0206773D01*
X0063479Y0206381D01*
X0063484Y0205988D01*
X0063479Y0205595D01*
X0063465Y0205203D01*
X0063441Y0204811D01*
X0063407Y0204420D01*
X0063364Y0204029D01*
X0063311Y0203640D01*
X0063248Y0203253D01*
X0063177Y0202867D01*
X0063095Y0202482D01*
X0063005Y0202100D01*
X0062904Y0201721D01*
X0062795Y0201343D01*
X0062676Y0200969D01*
X0062549Y0200598D01*
X0062412Y0200230D01*
X0062266Y0199865D01*
X0062111Y0199504D01*
X0061948Y0199147D01*
X0061776Y0198794D01*
X0061595Y0198446D01*
X0061405Y0198102D01*
X0061208Y0197762D01*
X0061002Y0197428D01*
X0060788Y0197099D01*
X0060565Y0196775D01*
X0060335Y0196457D01*
X0060098Y0196144D01*
X0059852Y0195838D01*
X0059599Y0195537D01*
X0059339Y0195243D01*
X0059072Y0194955D01*
X0058798Y0194674D01*
X0058517Y0194400D01*
X0058229Y0194133D01*
X0057935Y0193873D01*
X0057634Y0193620D01*
X0057328Y0193374D01*
X0057015Y0193137D01*
X0056697Y0192907D01*
X0056373Y0192684D01*
X0056044Y0192470D01*
X0055710Y0192264D01*
X0055370Y0192067D01*
X0055026Y0191877D01*
X0054678Y0191696D01*
X0054325Y0191524D01*
X0053968Y0191361D01*
X0053607Y0191206D01*
X0053242Y0191060D01*
X0052874Y0190923D01*
X0052503Y0190796D01*
X0052129Y0190677D01*
X0051751Y0190568D01*
X0051372Y0190467D01*
X0050990Y0190377D01*
X0050605Y0190295D01*
X0050219Y0190224D01*
X0049832Y0190161D01*
X0049443Y0190108D01*
X0049052Y0190065D01*
X0048661Y0190031D01*
X0048269Y0190007D01*
X0047877Y0189993D01*
X0047484Y0189988D01*
X0047091Y0189993D01*
X0046699Y0190007D01*
X0046307Y0190031D01*
X0045916Y0190065D01*
X0045525Y0190108D01*
X0045136Y0190161D01*
X0044749Y0190224D01*
X0044363Y0190295D01*
X0043978Y0190377D01*
X0043596Y0190467D01*
X0043217Y0190568D01*
X0042839Y0190677D01*
X0042465Y0190796D01*
X0042094Y0190923D01*
X0041726Y0191060D01*
X0041361Y0191206D01*
X0041000Y0191361D01*
X0040643Y0191524D01*
X0040290Y0191696D01*
X0039942Y0191877D01*
X0039598Y0192067D01*
X0039258Y0192264D01*
X0038924Y0192470D01*
X0038595Y0192684D01*
X0038271Y0192907D01*
X0037953Y0193137D01*
X0037640Y0193374D01*
X0037334Y0193620D01*
X0037033Y0193873D01*
X0036739Y0194133D01*
X0036451Y0194400D01*
X0036170Y0194674D01*
X0035896Y0194955D01*
X0035629Y0195243D01*
X0035369Y0195537D01*
X0035116Y0195838D01*
X0034870Y0196144D01*
X0034633Y0196457D01*
X0034403Y0196775D01*
X0034180Y0197099D01*
X0033966Y0197428D01*
X0033760Y0197762D01*
X0033563Y0198102D01*
X0033373Y0198446D01*
X0033192Y0198794D01*
X0033020Y0199147D01*
X0032857Y0199504D01*
X0032702Y0199865D01*
X0032556Y0200230D01*
X0032419Y0200598D01*
X0032292Y0200969D01*
X0032173Y0201343D01*
X0032064Y0201721D01*
X0031963Y0202100D01*
X0031873Y0202482D01*
X0031791Y0202867D01*
X0031720Y0203253D01*
X0031657Y0203640D01*
X0031604Y0204029D01*
X0031561Y0204420D01*
X0031527Y0204811D01*
X0031503Y0205203D01*
X0031489Y0205595D01*
X0031484Y0205988D01*
X0035484Y0208988D02*
X0035484Y0211988D01*
X0033984Y0210488D02*
X0036984Y0210488D01*
D16*
X0043075Y0233469D02*
X0043075Y0242917D01*
X0050949Y0242917D01*
X0050319Y0249217D02*
X0042445Y0249217D01*
X0042445Y0258665D01*
X0050319Y0258665D01*
X0058193Y0258665D02*
X0064492Y0258665D01*
X0066067Y0257091D01*
X0066067Y0250791D01*
X0064492Y0249217D01*
X0058193Y0249217D01*
X0058823Y0242917D02*
X0065122Y0242917D01*
X0066697Y0241343D01*
X0066697Y0235043D01*
X0065122Y0233469D01*
X0058823Y0233469D01*
X0050949Y0233469D02*
X0043075Y0233469D01*
X0080988Y0195358D02*
X0090870Y0195358D01*
X0095870Y0191421D02*
X0095870Y0179295D01*
X0090752Y0175358D02*
X0080988Y0175358D01*
X0075870Y0179295D02*
X0075870Y0191421D01*
X0080870Y0185358D02*
X0080872Y0185499D01*
X0080878Y0185640D01*
X0080888Y0185780D01*
X0080902Y0185920D01*
X0080920Y0186060D01*
X0080941Y0186199D01*
X0080967Y0186338D01*
X0080996Y0186476D01*
X0081030Y0186612D01*
X0081067Y0186748D01*
X0081108Y0186883D01*
X0081153Y0187017D01*
X0081202Y0187149D01*
X0081254Y0187280D01*
X0081310Y0187409D01*
X0081370Y0187536D01*
X0081433Y0187662D01*
X0081499Y0187786D01*
X0081570Y0187909D01*
X0081643Y0188029D01*
X0081720Y0188147D01*
X0081800Y0188263D01*
X0081884Y0188376D01*
X0081970Y0188487D01*
X0082060Y0188596D01*
X0082153Y0188702D01*
X0082248Y0188805D01*
X0082347Y0188906D01*
X0082448Y0189004D01*
X0082552Y0189099D01*
X0082659Y0189191D01*
X0082768Y0189280D01*
X0082880Y0189365D01*
X0082994Y0189448D01*
X0083110Y0189528D01*
X0083229Y0189604D01*
X0083350Y0189676D01*
X0083472Y0189746D01*
X0083597Y0189811D01*
X0083723Y0189874D01*
X0083851Y0189932D01*
X0083981Y0189987D01*
X0084112Y0190039D01*
X0084245Y0190086D01*
X0084379Y0190130D01*
X0084514Y0190171D01*
X0084650Y0190207D01*
X0084787Y0190239D01*
X0084925Y0190268D01*
X0085063Y0190293D01*
X0085203Y0190313D01*
X0085343Y0190330D01*
X0085483Y0190343D01*
X0085624Y0190352D01*
X0085764Y0190357D01*
X0085905Y0190358D01*
X0086046Y0190355D01*
X0086187Y0190348D01*
X0086327Y0190337D01*
X0086467Y0190322D01*
X0086607Y0190303D01*
X0086746Y0190281D01*
X0086884Y0190254D01*
X0087022Y0190224D01*
X0087158Y0190189D01*
X0087294Y0190151D01*
X0087428Y0190109D01*
X0087562Y0190063D01*
X0087694Y0190014D01*
X0087824Y0189960D01*
X0087953Y0189903D01*
X0088080Y0189843D01*
X0088206Y0189779D01*
X0088329Y0189711D01*
X0088451Y0189640D01*
X0088571Y0189566D01*
X0088688Y0189488D01*
X0088803Y0189407D01*
X0088916Y0189323D01*
X0089027Y0189236D01*
X0089135Y0189145D01*
X0089240Y0189052D01*
X0089343Y0188955D01*
X0089443Y0188856D01*
X0089540Y0188754D01*
X0089634Y0188649D01*
X0089725Y0188542D01*
X0089813Y0188432D01*
X0089898Y0188320D01*
X0089980Y0188205D01*
X0090059Y0188088D01*
X0090134Y0187969D01*
X0090206Y0187848D01*
X0090274Y0187725D01*
X0090339Y0187600D01*
X0090401Y0187473D01*
X0090458Y0187344D01*
X0090513Y0187214D01*
X0090563Y0187083D01*
X0090610Y0186950D01*
X0090653Y0186816D01*
X0090692Y0186680D01*
X0090727Y0186544D01*
X0090759Y0186407D01*
X0090786Y0186269D01*
X0090810Y0186130D01*
X0090830Y0185990D01*
X0090846Y0185850D01*
X0090858Y0185710D01*
X0090866Y0185569D01*
X0090870Y0185428D01*
X0090870Y0185288D01*
X0090866Y0185147D01*
X0090858Y0185006D01*
X0090846Y0184866D01*
X0090830Y0184726D01*
X0090810Y0184586D01*
X0090786Y0184447D01*
X0090759Y0184309D01*
X0090727Y0184172D01*
X0090692Y0184036D01*
X0090653Y0183900D01*
X0090610Y0183766D01*
X0090563Y0183633D01*
X0090513Y0183502D01*
X0090458Y0183372D01*
X0090401Y0183243D01*
X0090339Y0183116D01*
X0090274Y0182991D01*
X0090206Y0182868D01*
X0090134Y0182747D01*
X0090059Y0182628D01*
X0089980Y0182511D01*
X0089898Y0182396D01*
X0089813Y0182284D01*
X0089725Y0182174D01*
X0089634Y0182067D01*
X0089540Y0181962D01*
X0089443Y0181860D01*
X0089343Y0181761D01*
X0089240Y0181664D01*
X0089135Y0181571D01*
X0089027Y0181480D01*
X0088916Y0181393D01*
X0088803Y0181309D01*
X0088688Y0181228D01*
X0088571Y0181150D01*
X0088451Y0181076D01*
X0088329Y0181005D01*
X0088206Y0180937D01*
X0088080Y0180873D01*
X0087953Y0180813D01*
X0087824Y0180756D01*
X0087694Y0180702D01*
X0087562Y0180653D01*
X0087428Y0180607D01*
X0087294Y0180565D01*
X0087158Y0180527D01*
X0087022Y0180492D01*
X0086884Y0180462D01*
X0086746Y0180435D01*
X0086607Y0180413D01*
X0086467Y0180394D01*
X0086327Y0180379D01*
X0086187Y0180368D01*
X0086046Y0180361D01*
X0085905Y0180358D01*
X0085764Y0180359D01*
X0085624Y0180364D01*
X0085483Y0180373D01*
X0085343Y0180386D01*
X0085203Y0180403D01*
X0085063Y0180423D01*
X0084925Y0180448D01*
X0084787Y0180477D01*
X0084650Y0180509D01*
X0084514Y0180545D01*
X0084379Y0180586D01*
X0084245Y0180630D01*
X0084112Y0180677D01*
X0083981Y0180729D01*
X0083851Y0180784D01*
X0083723Y0180842D01*
X0083597Y0180905D01*
X0083472Y0180970D01*
X0083350Y0181040D01*
X0083229Y0181112D01*
X0083110Y0181188D01*
X0082994Y0181268D01*
X0082880Y0181351D01*
X0082768Y0181436D01*
X0082659Y0181525D01*
X0082552Y0181617D01*
X0082448Y0181712D01*
X0082347Y0181810D01*
X0082248Y0181911D01*
X0082153Y0182014D01*
X0082060Y0182120D01*
X0081970Y0182229D01*
X0081884Y0182340D01*
X0081800Y0182453D01*
X0081720Y0182569D01*
X0081643Y0182687D01*
X0081570Y0182807D01*
X0081499Y0182930D01*
X0081433Y0183054D01*
X0081370Y0183180D01*
X0081310Y0183307D01*
X0081254Y0183436D01*
X0081202Y0183567D01*
X0081153Y0183699D01*
X0081108Y0183833D01*
X0081067Y0183968D01*
X0081030Y0184104D01*
X0080996Y0184240D01*
X0080967Y0184378D01*
X0080941Y0184517D01*
X0080920Y0184656D01*
X0080902Y0184796D01*
X0080888Y0184936D01*
X0080878Y0185076D01*
X0080872Y0185217D01*
X0080870Y0185358D01*
X0134217Y0130280D02*
X0168862Y0130280D01*
X0170437Y0128705D01*
X0170437Y0094059D01*
X0168862Y0092484D01*
X0134217Y0092484D01*
X0132642Y0094059D01*
X0132642Y0128705D01*
X0134217Y0130280D01*
X0104413Y0036303D02*
X0092287Y0036303D01*
X0088350Y0031303D02*
X0088350Y0021421D01*
X0092287Y0016303D02*
X0104413Y0016303D01*
X0108350Y0021421D02*
X0108350Y0031185D01*
X0093350Y0026303D02*
X0093352Y0026444D01*
X0093358Y0026585D01*
X0093368Y0026725D01*
X0093382Y0026865D01*
X0093400Y0027005D01*
X0093421Y0027144D01*
X0093447Y0027283D01*
X0093476Y0027421D01*
X0093510Y0027557D01*
X0093547Y0027693D01*
X0093588Y0027828D01*
X0093633Y0027962D01*
X0093682Y0028094D01*
X0093734Y0028225D01*
X0093790Y0028354D01*
X0093850Y0028481D01*
X0093913Y0028607D01*
X0093979Y0028731D01*
X0094050Y0028854D01*
X0094123Y0028974D01*
X0094200Y0029092D01*
X0094280Y0029208D01*
X0094364Y0029321D01*
X0094450Y0029432D01*
X0094540Y0029541D01*
X0094633Y0029647D01*
X0094728Y0029750D01*
X0094827Y0029851D01*
X0094928Y0029949D01*
X0095032Y0030044D01*
X0095139Y0030136D01*
X0095248Y0030225D01*
X0095360Y0030310D01*
X0095474Y0030393D01*
X0095590Y0030473D01*
X0095709Y0030549D01*
X0095830Y0030621D01*
X0095952Y0030691D01*
X0096077Y0030756D01*
X0096203Y0030819D01*
X0096331Y0030877D01*
X0096461Y0030932D01*
X0096592Y0030984D01*
X0096725Y0031031D01*
X0096859Y0031075D01*
X0096994Y0031116D01*
X0097130Y0031152D01*
X0097267Y0031184D01*
X0097405Y0031213D01*
X0097543Y0031238D01*
X0097683Y0031258D01*
X0097823Y0031275D01*
X0097963Y0031288D01*
X0098104Y0031297D01*
X0098244Y0031302D01*
X0098385Y0031303D01*
X0098526Y0031300D01*
X0098667Y0031293D01*
X0098807Y0031282D01*
X0098947Y0031267D01*
X0099087Y0031248D01*
X0099226Y0031226D01*
X0099364Y0031199D01*
X0099502Y0031169D01*
X0099638Y0031134D01*
X0099774Y0031096D01*
X0099908Y0031054D01*
X0100042Y0031008D01*
X0100174Y0030959D01*
X0100304Y0030905D01*
X0100433Y0030848D01*
X0100560Y0030788D01*
X0100686Y0030724D01*
X0100809Y0030656D01*
X0100931Y0030585D01*
X0101051Y0030511D01*
X0101168Y0030433D01*
X0101283Y0030352D01*
X0101396Y0030268D01*
X0101507Y0030181D01*
X0101615Y0030090D01*
X0101720Y0029997D01*
X0101823Y0029900D01*
X0101923Y0029801D01*
X0102020Y0029699D01*
X0102114Y0029594D01*
X0102205Y0029487D01*
X0102293Y0029377D01*
X0102378Y0029265D01*
X0102460Y0029150D01*
X0102539Y0029033D01*
X0102614Y0028914D01*
X0102686Y0028793D01*
X0102754Y0028670D01*
X0102819Y0028545D01*
X0102881Y0028418D01*
X0102938Y0028289D01*
X0102993Y0028159D01*
X0103043Y0028028D01*
X0103090Y0027895D01*
X0103133Y0027761D01*
X0103172Y0027625D01*
X0103207Y0027489D01*
X0103239Y0027352D01*
X0103266Y0027214D01*
X0103290Y0027075D01*
X0103310Y0026935D01*
X0103326Y0026795D01*
X0103338Y0026655D01*
X0103346Y0026514D01*
X0103350Y0026373D01*
X0103350Y0026233D01*
X0103346Y0026092D01*
X0103338Y0025951D01*
X0103326Y0025811D01*
X0103310Y0025671D01*
X0103290Y0025531D01*
X0103266Y0025392D01*
X0103239Y0025254D01*
X0103207Y0025117D01*
X0103172Y0024981D01*
X0103133Y0024845D01*
X0103090Y0024711D01*
X0103043Y0024578D01*
X0102993Y0024447D01*
X0102938Y0024317D01*
X0102881Y0024188D01*
X0102819Y0024061D01*
X0102754Y0023936D01*
X0102686Y0023813D01*
X0102614Y0023692D01*
X0102539Y0023573D01*
X0102460Y0023456D01*
X0102378Y0023341D01*
X0102293Y0023229D01*
X0102205Y0023119D01*
X0102114Y0023012D01*
X0102020Y0022907D01*
X0101923Y0022805D01*
X0101823Y0022706D01*
X0101720Y0022609D01*
X0101615Y0022516D01*
X0101507Y0022425D01*
X0101396Y0022338D01*
X0101283Y0022254D01*
X0101168Y0022173D01*
X0101051Y0022095D01*
X0100931Y0022021D01*
X0100809Y0021950D01*
X0100686Y0021882D01*
X0100560Y0021818D01*
X0100433Y0021758D01*
X0100304Y0021701D01*
X0100174Y0021647D01*
X0100042Y0021598D01*
X0099908Y0021552D01*
X0099774Y0021510D01*
X0099638Y0021472D01*
X0099502Y0021437D01*
X0099364Y0021407D01*
X0099226Y0021380D01*
X0099087Y0021358D01*
X0098947Y0021339D01*
X0098807Y0021324D01*
X0098667Y0021313D01*
X0098526Y0021306D01*
X0098385Y0021303D01*
X0098244Y0021304D01*
X0098104Y0021309D01*
X0097963Y0021318D01*
X0097823Y0021331D01*
X0097683Y0021348D01*
X0097543Y0021368D01*
X0097405Y0021393D01*
X0097267Y0021422D01*
X0097130Y0021454D01*
X0096994Y0021490D01*
X0096859Y0021531D01*
X0096725Y0021575D01*
X0096592Y0021622D01*
X0096461Y0021674D01*
X0096331Y0021729D01*
X0096203Y0021787D01*
X0096077Y0021850D01*
X0095952Y0021915D01*
X0095830Y0021985D01*
X0095709Y0022057D01*
X0095590Y0022133D01*
X0095474Y0022213D01*
X0095360Y0022296D01*
X0095248Y0022381D01*
X0095139Y0022470D01*
X0095032Y0022562D01*
X0094928Y0022657D01*
X0094827Y0022755D01*
X0094728Y0022856D01*
X0094633Y0022959D01*
X0094540Y0023065D01*
X0094450Y0023174D01*
X0094364Y0023285D01*
X0094280Y0023398D01*
X0094200Y0023514D01*
X0094123Y0023632D01*
X0094050Y0023752D01*
X0093979Y0023875D01*
X0093913Y0023999D01*
X0093850Y0024125D01*
X0093790Y0024252D01*
X0093734Y0024381D01*
X0093682Y0024512D01*
X0093633Y0024644D01*
X0093588Y0024778D01*
X0093547Y0024913D01*
X0093510Y0025049D01*
X0093476Y0025185D01*
X0093447Y0025323D01*
X0093421Y0025462D01*
X0093400Y0025601D01*
X0093382Y0025741D01*
X0093368Y0025881D01*
X0093358Y0026021D01*
X0093352Y0026162D01*
X0093350Y0026303D01*
X0070555Y0031185D02*
X0070555Y0021421D01*
X0066618Y0016303D02*
X0054492Y0016303D01*
X0050555Y0021421D02*
X0050555Y0031303D01*
X0054492Y0036303D02*
X0066618Y0036303D01*
X0055555Y0026303D02*
X0055557Y0026444D01*
X0055563Y0026585D01*
X0055573Y0026725D01*
X0055587Y0026865D01*
X0055605Y0027005D01*
X0055626Y0027144D01*
X0055652Y0027283D01*
X0055681Y0027421D01*
X0055715Y0027557D01*
X0055752Y0027693D01*
X0055793Y0027828D01*
X0055838Y0027962D01*
X0055887Y0028094D01*
X0055939Y0028225D01*
X0055995Y0028354D01*
X0056055Y0028481D01*
X0056118Y0028607D01*
X0056184Y0028731D01*
X0056255Y0028854D01*
X0056328Y0028974D01*
X0056405Y0029092D01*
X0056485Y0029208D01*
X0056569Y0029321D01*
X0056655Y0029432D01*
X0056745Y0029541D01*
X0056838Y0029647D01*
X0056933Y0029750D01*
X0057032Y0029851D01*
X0057133Y0029949D01*
X0057237Y0030044D01*
X0057344Y0030136D01*
X0057453Y0030225D01*
X0057565Y0030310D01*
X0057679Y0030393D01*
X0057795Y0030473D01*
X0057914Y0030549D01*
X0058035Y0030621D01*
X0058157Y0030691D01*
X0058282Y0030756D01*
X0058408Y0030819D01*
X0058536Y0030877D01*
X0058666Y0030932D01*
X0058797Y0030984D01*
X0058930Y0031031D01*
X0059064Y0031075D01*
X0059199Y0031116D01*
X0059335Y0031152D01*
X0059472Y0031184D01*
X0059610Y0031213D01*
X0059748Y0031238D01*
X0059888Y0031258D01*
X0060028Y0031275D01*
X0060168Y0031288D01*
X0060309Y0031297D01*
X0060449Y0031302D01*
X0060590Y0031303D01*
X0060731Y0031300D01*
X0060872Y0031293D01*
X0061012Y0031282D01*
X0061152Y0031267D01*
X0061292Y0031248D01*
X0061431Y0031226D01*
X0061569Y0031199D01*
X0061707Y0031169D01*
X0061843Y0031134D01*
X0061979Y0031096D01*
X0062113Y0031054D01*
X0062247Y0031008D01*
X0062379Y0030959D01*
X0062509Y0030905D01*
X0062638Y0030848D01*
X0062765Y0030788D01*
X0062891Y0030724D01*
X0063014Y0030656D01*
X0063136Y0030585D01*
X0063256Y0030511D01*
X0063373Y0030433D01*
X0063488Y0030352D01*
X0063601Y0030268D01*
X0063712Y0030181D01*
X0063820Y0030090D01*
X0063925Y0029997D01*
X0064028Y0029900D01*
X0064128Y0029801D01*
X0064225Y0029699D01*
X0064319Y0029594D01*
X0064410Y0029487D01*
X0064498Y0029377D01*
X0064583Y0029265D01*
X0064665Y0029150D01*
X0064744Y0029033D01*
X0064819Y0028914D01*
X0064891Y0028793D01*
X0064959Y0028670D01*
X0065024Y0028545D01*
X0065086Y0028418D01*
X0065143Y0028289D01*
X0065198Y0028159D01*
X0065248Y0028028D01*
X0065295Y0027895D01*
X0065338Y0027761D01*
X0065377Y0027625D01*
X0065412Y0027489D01*
X0065444Y0027352D01*
X0065471Y0027214D01*
X0065495Y0027075D01*
X0065515Y0026935D01*
X0065531Y0026795D01*
X0065543Y0026655D01*
X0065551Y0026514D01*
X0065555Y0026373D01*
X0065555Y0026233D01*
X0065551Y0026092D01*
X0065543Y0025951D01*
X0065531Y0025811D01*
X0065515Y0025671D01*
X0065495Y0025531D01*
X0065471Y0025392D01*
X0065444Y0025254D01*
X0065412Y0025117D01*
X0065377Y0024981D01*
X0065338Y0024845D01*
X0065295Y0024711D01*
X0065248Y0024578D01*
X0065198Y0024447D01*
X0065143Y0024317D01*
X0065086Y0024188D01*
X0065024Y0024061D01*
X0064959Y0023936D01*
X0064891Y0023813D01*
X0064819Y0023692D01*
X0064744Y0023573D01*
X0064665Y0023456D01*
X0064583Y0023341D01*
X0064498Y0023229D01*
X0064410Y0023119D01*
X0064319Y0023012D01*
X0064225Y0022907D01*
X0064128Y0022805D01*
X0064028Y0022706D01*
X0063925Y0022609D01*
X0063820Y0022516D01*
X0063712Y0022425D01*
X0063601Y0022338D01*
X0063488Y0022254D01*
X0063373Y0022173D01*
X0063256Y0022095D01*
X0063136Y0022021D01*
X0063014Y0021950D01*
X0062891Y0021882D01*
X0062765Y0021818D01*
X0062638Y0021758D01*
X0062509Y0021701D01*
X0062379Y0021647D01*
X0062247Y0021598D01*
X0062113Y0021552D01*
X0061979Y0021510D01*
X0061843Y0021472D01*
X0061707Y0021437D01*
X0061569Y0021407D01*
X0061431Y0021380D01*
X0061292Y0021358D01*
X0061152Y0021339D01*
X0061012Y0021324D01*
X0060872Y0021313D01*
X0060731Y0021306D01*
X0060590Y0021303D01*
X0060449Y0021304D01*
X0060309Y0021309D01*
X0060168Y0021318D01*
X0060028Y0021331D01*
X0059888Y0021348D01*
X0059748Y0021368D01*
X0059610Y0021393D01*
X0059472Y0021422D01*
X0059335Y0021454D01*
X0059199Y0021490D01*
X0059064Y0021531D01*
X0058930Y0021575D01*
X0058797Y0021622D01*
X0058666Y0021674D01*
X0058536Y0021729D01*
X0058408Y0021787D01*
X0058282Y0021850D01*
X0058157Y0021915D01*
X0058035Y0021985D01*
X0057914Y0022057D01*
X0057795Y0022133D01*
X0057679Y0022213D01*
X0057565Y0022296D01*
X0057453Y0022381D01*
X0057344Y0022470D01*
X0057237Y0022562D01*
X0057133Y0022657D01*
X0057032Y0022755D01*
X0056933Y0022856D01*
X0056838Y0022959D01*
X0056745Y0023065D01*
X0056655Y0023174D01*
X0056569Y0023285D01*
X0056485Y0023398D01*
X0056405Y0023514D01*
X0056328Y0023632D01*
X0056255Y0023752D01*
X0056184Y0023875D01*
X0056118Y0023999D01*
X0056055Y0024125D01*
X0055995Y0024252D01*
X0055939Y0024381D01*
X0055887Y0024512D01*
X0055838Y0024644D01*
X0055793Y0024778D01*
X0055752Y0024913D01*
X0055715Y0025049D01*
X0055681Y0025185D01*
X0055652Y0025323D01*
X0055626Y0025462D01*
X0055605Y0025601D01*
X0055587Y0025741D01*
X0055573Y0025881D01*
X0055563Y0026021D01*
X0055557Y0026162D01*
X0055555Y0026303D01*
X0310397Y0045717D02*
X0313466Y0045717D01*
X0315001Y0044183D01*
X0315001Y0047252D02*
X0313466Y0048787D01*
X0310397Y0048787D01*
X0311932Y0041113D02*
X0313466Y0038044D01*
X0316535Y0034975D01*
X0316535Y0039579D01*
X0318070Y0041113D01*
X0319605Y0041113D01*
X0321139Y0039579D01*
X0321139Y0036509D01*
X0319605Y0034975D01*
X0316535Y0034975D01*
X0316535Y0031906D02*
X0316535Y0027302D01*
X0315001Y0025767D01*
X0313466Y0025767D01*
X0311932Y0027302D01*
X0311932Y0030371D01*
X0313466Y0031906D01*
X0319605Y0031906D01*
X0321139Y0030371D01*
X0321139Y0027302D01*
X0319605Y0025767D01*
X0319605Y0022698D02*
X0321139Y0022698D01*
X0321139Y0021163D01*
X0319605Y0021163D01*
X0319605Y0022698D01*
X0319605Y0018094D02*
X0313466Y0018094D01*
X0319605Y0011955D01*
X0321139Y0013490D01*
X0321139Y0016559D01*
X0319605Y0018094D01*
X0313466Y0018094D02*
X0311932Y0016559D01*
X0311932Y0013490D01*
X0313466Y0011955D01*
X0319605Y0011955D01*
X0321139Y0061064D02*
X0311932Y0061064D01*
X0311932Y0065668D01*
X0313466Y0067202D01*
X0319605Y0067202D01*
X0321139Y0065668D01*
X0321139Y0061064D01*
X0321139Y0070272D02*
X0321139Y0073341D01*
X0321139Y0071806D02*
X0315001Y0071806D01*
X0315001Y0070272D01*
X0311932Y0071806D02*
X0310397Y0071806D01*
X0316535Y0076410D02*
X0315001Y0077945D01*
X0315001Y0082549D01*
X0315001Y0085618D02*
X0315001Y0090222D01*
X0316535Y0091757D01*
X0319605Y0091757D01*
X0321139Y0090222D01*
X0321139Y0085618D01*
X0324209Y0085618D02*
X0315001Y0085618D01*
X0319605Y0082549D02*
X0318070Y0081014D01*
X0318070Y0077945D01*
X0316535Y0076410D01*
X0321139Y0076410D02*
X0321139Y0081014D01*
X0319605Y0082549D01*
X0321139Y0094826D02*
X0321139Y0097895D01*
X0321139Y0096361D02*
X0311932Y0096361D01*
X0311932Y0094826D01*
X0319605Y0100964D02*
X0318070Y0102499D01*
X0318070Y0107103D01*
X0316535Y0107103D02*
X0321139Y0107103D01*
X0321139Y0102499D01*
X0319605Y0100964D01*
X0315001Y0102499D02*
X0315001Y0105568D01*
X0316535Y0107103D01*
X0315001Y0110172D02*
X0319605Y0110172D01*
X0321139Y0111707D01*
X0321139Y0116311D01*
X0322674Y0116311D02*
X0324209Y0114776D01*
X0324209Y0113242D01*
X0322674Y0116311D02*
X0315001Y0116311D01*
X0349511Y0246382D02*
X0349514Y0246660D01*
X0349525Y0246937D01*
X0349542Y0247215D01*
X0349566Y0247492D01*
X0349596Y0247768D01*
X0349634Y0248043D01*
X0349678Y0248317D01*
X0349729Y0248590D01*
X0349786Y0248862D01*
X0349850Y0249133D01*
X0349921Y0249401D01*
X0349998Y0249668D01*
X0350082Y0249933D01*
X0350173Y0250196D01*
X0350270Y0250456D01*
X0350373Y0250714D01*
X0350482Y0250969D01*
X0350598Y0251222D01*
X0350720Y0251472D01*
X0350848Y0251718D01*
X0350982Y0251962D01*
X0351122Y0252202D01*
X0351267Y0252438D01*
X0351419Y0252671D01*
X0351576Y0252900D01*
X0351739Y0253125D01*
X0351907Y0253346D01*
X0352081Y0253563D01*
X0352259Y0253776D01*
X0352443Y0253984D01*
X0352633Y0254188D01*
X0352827Y0254386D01*
X0353025Y0254580D01*
X0353229Y0254770D01*
X0353437Y0254954D01*
X0353650Y0255132D01*
X0353867Y0255306D01*
X0354088Y0255474D01*
X0354313Y0255637D01*
X0354542Y0255794D01*
X0354775Y0255946D01*
X0355011Y0256091D01*
X0355251Y0256231D01*
X0355495Y0256365D01*
X0355741Y0256493D01*
X0355991Y0256615D01*
X0356244Y0256731D01*
X0356499Y0256840D01*
X0356757Y0256943D01*
X0357017Y0257040D01*
X0357280Y0257131D01*
X0357545Y0257215D01*
X0357812Y0257292D01*
X0358080Y0257363D01*
X0358351Y0257427D01*
X0358623Y0257484D01*
X0358896Y0257535D01*
X0359170Y0257579D01*
X0359445Y0257617D01*
X0359721Y0257647D01*
X0359998Y0257671D01*
X0360276Y0257688D01*
X0360553Y0257699D01*
X0360831Y0257702D01*
X0361109Y0257699D01*
X0361386Y0257688D01*
X0361664Y0257671D01*
X0361941Y0257647D01*
X0362217Y0257617D01*
X0362492Y0257579D01*
X0362766Y0257535D01*
X0363039Y0257484D01*
X0363311Y0257427D01*
X0363582Y0257363D01*
X0363850Y0257292D01*
X0364117Y0257215D01*
X0364382Y0257131D01*
X0364645Y0257040D01*
X0364905Y0256943D01*
X0365163Y0256840D01*
X0365418Y0256731D01*
X0365671Y0256615D01*
X0365921Y0256493D01*
X0366167Y0256365D01*
X0366411Y0256231D01*
X0366651Y0256091D01*
X0366887Y0255946D01*
X0367120Y0255794D01*
X0367349Y0255637D01*
X0367574Y0255474D01*
X0367795Y0255306D01*
X0368012Y0255132D01*
X0368225Y0254954D01*
X0368433Y0254770D01*
X0368637Y0254580D01*
X0368835Y0254386D01*
X0369029Y0254188D01*
X0369219Y0253984D01*
X0369403Y0253776D01*
X0369581Y0253563D01*
X0369755Y0253346D01*
X0369923Y0253125D01*
X0370086Y0252900D01*
X0370243Y0252671D01*
X0370395Y0252438D01*
X0370540Y0252202D01*
X0370680Y0251962D01*
X0370814Y0251718D01*
X0370942Y0251472D01*
X0371064Y0251222D01*
X0371180Y0250969D01*
X0371289Y0250714D01*
X0371392Y0250456D01*
X0371489Y0250196D01*
X0371580Y0249933D01*
X0371664Y0249668D01*
X0371741Y0249401D01*
X0371812Y0249133D01*
X0371876Y0248862D01*
X0371933Y0248590D01*
X0371984Y0248317D01*
X0372028Y0248043D01*
X0372066Y0247768D01*
X0372096Y0247492D01*
X0372120Y0247215D01*
X0372137Y0246937D01*
X0372148Y0246660D01*
X0372151Y0246382D01*
X0372148Y0246104D01*
X0372137Y0245827D01*
X0372120Y0245549D01*
X0372096Y0245272D01*
X0372066Y0244996D01*
X0372028Y0244721D01*
X0371984Y0244447D01*
X0371933Y0244174D01*
X0371876Y0243902D01*
X0371812Y0243631D01*
X0371741Y0243363D01*
X0371664Y0243096D01*
X0371580Y0242831D01*
X0371489Y0242568D01*
X0371392Y0242308D01*
X0371289Y0242050D01*
X0371180Y0241795D01*
X0371064Y0241542D01*
X0370942Y0241292D01*
X0370814Y0241046D01*
X0370680Y0240802D01*
X0370540Y0240562D01*
X0370395Y0240326D01*
X0370243Y0240093D01*
X0370086Y0239864D01*
X0369923Y0239639D01*
X0369755Y0239418D01*
X0369581Y0239201D01*
X0369403Y0238988D01*
X0369219Y0238780D01*
X0369029Y0238576D01*
X0368835Y0238378D01*
X0368637Y0238184D01*
X0368433Y0237994D01*
X0368225Y0237810D01*
X0368012Y0237632D01*
X0367795Y0237458D01*
X0367574Y0237290D01*
X0367349Y0237127D01*
X0367120Y0236970D01*
X0366887Y0236818D01*
X0366651Y0236673D01*
X0366411Y0236533D01*
X0366167Y0236399D01*
X0365921Y0236271D01*
X0365671Y0236149D01*
X0365418Y0236033D01*
X0365163Y0235924D01*
X0364905Y0235821D01*
X0364645Y0235724D01*
X0364382Y0235633D01*
X0364117Y0235549D01*
X0363850Y0235472D01*
X0363582Y0235401D01*
X0363311Y0235337D01*
X0363039Y0235280D01*
X0362766Y0235229D01*
X0362492Y0235185D01*
X0362217Y0235147D01*
X0361941Y0235117D01*
X0361664Y0235093D01*
X0361386Y0235076D01*
X0361109Y0235065D01*
X0360831Y0235062D01*
X0360553Y0235065D01*
X0360276Y0235076D01*
X0359998Y0235093D01*
X0359721Y0235117D01*
X0359445Y0235147D01*
X0359170Y0235185D01*
X0358896Y0235229D01*
X0358623Y0235280D01*
X0358351Y0235337D01*
X0358080Y0235401D01*
X0357812Y0235472D01*
X0357545Y0235549D01*
X0357280Y0235633D01*
X0357017Y0235724D01*
X0356757Y0235821D01*
X0356499Y0235924D01*
X0356244Y0236033D01*
X0355991Y0236149D01*
X0355741Y0236271D01*
X0355495Y0236399D01*
X0355251Y0236533D01*
X0355011Y0236673D01*
X0354775Y0236818D01*
X0354542Y0236970D01*
X0354313Y0237127D01*
X0354088Y0237290D01*
X0353867Y0237458D01*
X0353650Y0237632D01*
X0353437Y0237810D01*
X0353229Y0237994D01*
X0353025Y0238184D01*
X0352827Y0238378D01*
X0352633Y0238576D01*
X0352443Y0238780D01*
X0352259Y0238988D01*
X0352081Y0239201D01*
X0351907Y0239418D01*
X0351739Y0239639D01*
X0351576Y0239864D01*
X0351419Y0240093D01*
X0351267Y0240326D01*
X0351122Y0240562D01*
X0350982Y0240802D01*
X0350848Y0241046D01*
X0350720Y0241292D01*
X0350598Y0241542D01*
X0350482Y0241795D01*
X0350373Y0242050D01*
X0350270Y0242308D01*
X0350173Y0242568D01*
X0350082Y0242831D01*
X0349998Y0243096D01*
X0349921Y0243363D01*
X0349850Y0243631D01*
X0349786Y0243902D01*
X0349729Y0244174D01*
X0349678Y0244447D01*
X0349634Y0244721D01*
X0349596Y0244996D01*
X0349566Y0245272D01*
X0349542Y0245549D01*
X0349525Y0245827D01*
X0349514Y0246104D01*
X0349511Y0246382D01*
X0121382Y0253547D02*
X0110358Y0253547D01*
X0110358Y0270476D01*
X0121382Y0270476D01*
X0121382Y0253547D01*
D17*
X0113311Y0255614D03*
D18*
X0116949Y0239438D02*
X0116949Y0238437D01*
X0117699Y0238437D01*
X0117449Y0238938D01*
X0117449Y0239188D01*
X0117699Y0239438D01*
X0118200Y0239438D01*
X0118450Y0239188D01*
X0118450Y0238688D01*
X0118200Y0238437D01*
X0118200Y0237965D02*
X0117950Y0237965D01*
X0117699Y0237715D01*
X0117699Y0236964D01*
X0118200Y0236964D01*
X0118450Y0237214D01*
X0118450Y0237715D01*
X0118200Y0237965D01*
X0117199Y0237465D02*
X0117699Y0236964D01*
X0117699Y0236492D02*
X0117950Y0236242D01*
X0117950Y0235491D01*
X0118450Y0235491D02*
X0116949Y0235491D01*
X0116949Y0236242D01*
X0117199Y0236492D01*
X0117699Y0236492D01*
X0117950Y0235991D02*
X0118450Y0236492D01*
X0117199Y0237465D02*
X0116949Y0237965D01*
X0110404Y0235563D02*
X0109404Y0234562D01*
X0109654Y0234312D01*
X0110154Y0234312D01*
X0110404Y0234562D01*
X0110404Y0235563D01*
X0110154Y0235813D01*
X0109654Y0235813D01*
X0109404Y0235563D01*
X0109404Y0234562D01*
X0108931Y0235063D02*
X0107930Y0235063D01*
X0108681Y0235813D01*
X0108681Y0234312D01*
X0107458Y0234562D02*
X0107208Y0234312D01*
X0106707Y0234312D01*
X0106457Y0234562D01*
X0106457Y0235563D01*
X0106707Y0235813D01*
X0107208Y0235813D01*
X0107458Y0235563D01*
X0092667Y0217508D02*
X0092166Y0217258D01*
X0091666Y0216757D01*
X0092416Y0216757D01*
X0092667Y0216507D01*
X0092667Y0216257D01*
X0092416Y0216007D01*
X0091916Y0216007D01*
X0091666Y0216257D01*
X0091666Y0216757D01*
X0091193Y0216507D02*
X0090943Y0216757D01*
X0090193Y0216757D01*
X0090193Y0216257D01*
X0090443Y0216007D01*
X0090943Y0216007D01*
X0091193Y0216257D01*
X0091193Y0216507D01*
X0090693Y0217258D02*
X0090193Y0216757D01*
X0089720Y0216757D02*
X0089720Y0217258D01*
X0089470Y0217508D01*
X0088719Y0217508D01*
X0088719Y0216007D01*
X0088719Y0216507D02*
X0089470Y0216507D01*
X0089720Y0216757D01*
X0089220Y0216507D02*
X0089720Y0216007D01*
X0090693Y0217258D02*
X0091193Y0217508D01*
X0076131Y0217179D02*
X0076131Y0216929D01*
X0075130Y0215928D01*
X0076131Y0215928D01*
X0076131Y0217179D02*
X0075881Y0217429D01*
X0075381Y0217429D01*
X0075130Y0217179D01*
X0074658Y0217429D02*
X0074158Y0217179D01*
X0073657Y0216679D01*
X0074408Y0216679D01*
X0074658Y0216428D01*
X0074658Y0216178D01*
X0074408Y0215928D01*
X0073907Y0215928D01*
X0073657Y0216178D01*
X0073657Y0216679D01*
X0073185Y0216679D02*
X0072934Y0216428D01*
X0072184Y0216428D01*
X0072184Y0215928D02*
X0072184Y0217429D01*
X0072934Y0217429D01*
X0073185Y0217179D01*
X0073185Y0216679D01*
X0072684Y0216428D02*
X0073185Y0215928D01*
X0093169Y0188436D02*
X0092919Y0188186D01*
X0092919Y0187685D01*
X0093169Y0187435D01*
X0093169Y0186963D02*
X0092919Y0186712D01*
X0092919Y0186212D01*
X0093169Y0185962D01*
X0093419Y0185962D01*
X0093669Y0186212D01*
X0093669Y0186712D01*
X0093920Y0186963D01*
X0094170Y0186963D01*
X0094420Y0186712D01*
X0094420Y0186212D01*
X0094170Y0185962D01*
X0094420Y0187435D02*
X0093419Y0188436D01*
X0093169Y0188436D01*
X0094420Y0188436D02*
X0094420Y0187435D01*
X0123050Y0165894D02*
X0123801Y0165894D01*
X0124051Y0165644D01*
X0124051Y0165143D01*
X0123801Y0164893D01*
X0123050Y0164893D01*
X0123550Y0164893D02*
X0124051Y0164393D01*
X0124523Y0164643D02*
X0124773Y0164393D01*
X0125274Y0164393D01*
X0125524Y0164643D01*
X0125524Y0164893D01*
X0125274Y0165143D01*
X0125024Y0165143D01*
X0125274Y0165143D02*
X0125524Y0165393D01*
X0125524Y0165644D01*
X0125274Y0165894D01*
X0124773Y0165894D01*
X0124523Y0165644D01*
X0123050Y0165894D02*
X0123050Y0164393D01*
X0125997Y0164643D02*
X0126247Y0164393D01*
X0126747Y0164393D01*
X0126997Y0164643D01*
X0126997Y0164893D01*
X0126747Y0165143D01*
X0125997Y0165143D01*
X0125997Y0164643D01*
X0125997Y0165143D02*
X0126497Y0165644D01*
X0126997Y0165894D01*
X0112255Y0145695D02*
X0112255Y0145445D01*
X0111254Y0144444D01*
X0111254Y0144194D01*
X0110781Y0144444D02*
X0110531Y0144194D01*
X0110031Y0144194D01*
X0109781Y0144444D01*
X0109308Y0144194D02*
X0108808Y0144695D01*
X0109058Y0144695D02*
X0108307Y0144695D01*
X0108307Y0144194D02*
X0108307Y0145695D01*
X0109058Y0145695D01*
X0109308Y0145445D01*
X0109308Y0144945D01*
X0109058Y0144695D01*
X0109781Y0145445D02*
X0110031Y0145695D01*
X0110531Y0145695D01*
X0110781Y0145445D01*
X0110781Y0145195D01*
X0110531Y0144945D01*
X0110781Y0144695D01*
X0110781Y0144444D01*
X0110531Y0144945D02*
X0110281Y0144945D01*
X0111254Y0145695D02*
X0112255Y0145695D01*
X0112058Y0133294D02*
X0112058Y0133044D01*
X0111057Y0132043D01*
X0111057Y0131793D01*
X0110585Y0132043D02*
X0110585Y0132293D01*
X0110334Y0132543D01*
X0109584Y0132543D01*
X0109584Y0132043D01*
X0109834Y0131793D01*
X0110334Y0131793D01*
X0110585Y0132043D01*
X0109584Y0132543D02*
X0110084Y0133044D01*
X0110585Y0133294D01*
X0111057Y0133294D02*
X0112058Y0133294D01*
X0109111Y0133044D02*
X0109111Y0132543D01*
X0108861Y0132293D01*
X0108111Y0132293D01*
X0108611Y0132293D02*
X0109111Y0131793D01*
X0108111Y0131793D02*
X0108111Y0133294D01*
X0108861Y0133294D01*
X0109111Y0133044D01*
X0092745Y0163408D02*
X0091745Y0163408D01*
X0091272Y0163408D02*
X0090271Y0163408D01*
X0091272Y0164409D01*
X0091272Y0164659D01*
X0091022Y0164910D01*
X0090521Y0164910D01*
X0090271Y0164659D01*
X0089799Y0164659D02*
X0089799Y0164159D01*
X0089549Y0163909D01*
X0088798Y0163909D01*
X0089298Y0163909D02*
X0089799Y0163408D01*
X0088798Y0163408D02*
X0088798Y0164910D01*
X0089549Y0164910D01*
X0089799Y0164659D01*
X0091745Y0164409D02*
X0092245Y0164910D01*
X0092245Y0163408D01*
X0129822Y0197700D02*
X0129822Y0199201D01*
X0130572Y0199201D01*
X0130823Y0198951D01*
X0130823Y0198450D01*
X0130572Y0198200D01*
X0129822Y0198200D01*
X0130322Y0198200D02*
X0130823Y0197700D01*
X0131295Y0197700D02*
X0132296Y0198700D01*
X0132296Y0198951D01*
X0132046Y0199201D01*
X0131545Y0199201D01*
X0131295Y0198951D01*
X0131295Y0197700D02*
X0132296Y0197700D01*
X0178171Y0222284D02*
X0178171Y0223034D01*
X0178421Y0223285D01*
X0178921Y0223285D01*
X0179172Y0223034D01*
X0179172Y0222284D01*
X0179672Y0222284D02*
X0178171Y0222284D01*
X0179172Y0222784D02*
X0179672Y0223285D01*
X0179422Y0223757D02*
X0179672Y0224007D01*
X0179672Y0224508D01*
X0179422Y0224758D01*
X0179172Y0224758D01*
X0178921Y0224508D01*
X0178921Y0224257D01*
X0178921Y0224508D02*
X0178671Y0224758D01*
X0178421Y0224758D01*
X0178171Y0224508D01*
X0178171Y0224007D01*
X0178421Y0223757D01*
X0178171Y0225230D02*
X0178921Y0225230D01*
X0178671Y0225731D01*
X0178671Y0225981D01*
X0178921Y0226231D01*
X0179422Y0226231D01*
X0179672Y0225981D01*
X0179672Y0225480D01*
X0179422Y0225230D01*
X0178171Y0225230D02*
X0178171Y0226231D01*
X0214665Y0249231D02*
X0214665Y0249982D01*
X0214915Y0250232D01*
X0215416Y0250232D01*
X0215666Y0249982D01*
X0215666Y0249231D01*
X0215666Y0249732D02*
X0216167Y0250232D01*
X0215916Y0250704D02*
X0216167Y0250955D01*
X0216167Y0251455D01*
X0215916Y0251705D01*
X0215666Y0251705D01*
X0215416Y0251455D01*
X0215416Y0251205D01*
X0215416Y0251455D02*
X0215166Y0251705D01*
X0214915Y0251705D01*
X0214665Y0251455D01*
X0214665Y0250955D01*
X0214915Y0250704D01*
X0214665Y0249231D02*
X0216167Y0249231D01*
X0215416Y0252178D02*
X0215416Y0253178D01*
X0216167Y0252928D02*
X0214665Y0252928D01*
X0215416Y0252178D01*
X0215059Y0268129D02*
X0215059Y0268879D01*
X0215309Y0269130D01*
X0215810Y0269130D01*
X0216060Y0268879D01*
X0216060Y0268129D01*
X0216060Y0268629D02*
X0216560Y0269130D01*
X0216310Y0269602D02*
X0216560Y0269852D01*
X0216560Y0270353D01*
X0216310Y0270603D01*
X0216060Y0270603D01*
X0215810Y0270353D01*
X0215810Y0270102D01*
X0215810Y0270353D02*
X0215559Y0270603D01*
X0215309Y0270603D01*
X0215059Y0270353D01*
X0215059Y0269852D01*
X0215309Y0269602D01*
X0215309Y0271075D02*
X0215059Y0271325D01*
X0215059Y0271826D01*
X0215309Y0272076D01*
X0215559Y0272076D01*
X0215810Y0271826D01*
X0216060Y0272076D01*
X0216310Y0272076D01*
X0216560Y0271826D01*
X0216560Y0271325D01*
X0216310Y0271075D01*
X0215810Y0271576D02*
X0215810Y0271826D01*
X0216560Y0268129D02*
X0215059Y0268129D01*
X0270571Y0248162D02*
X0270571Y0247161D01*
X0270821Y0246689D02*
X0271321Y0246689D01*
X0271572Y0246438D01*
X0271572Y0245688D01*
X0272072Y0245688D02*
X0270571Y0245688D01*
X0270571Y0246438D01*
X0270821Y0246689D01*
X0271572Y0246188D02*
X0272072Y0246689D01*
X0272072Y0247161D02*
X0271822Y0247161D01*
X0270821Y0248162D01*
X0270571Y0248162D01*
X0255980Y0227806D02*
X0256981Y0226805D01*
X0257231Y0226805D01*
X0257231Y0226333D02*
X0257231Y0225332D01*
X0257231Y0224859D02*
X0256731Y0224359D01*
X0256731Y0224609D02*
X0256731Y0223859D01*
X0257231Y0223859D02*
X0255730Y0223859D01*
X0255730Y0224609D01*
X0255980Y0224859D01*
X0256480Y0224859D01*
X0256731Y0224609D01*
X0256230Y0225332D02*
X0255730Y0225832D01*
X0257231Y0225832D01*
X0255730Y0226805D02*
X0255730Y0227806D01*
X0255980Y0227806D01*
X0256124Y0213239D02*
X0256374Y0212739D01*
X0256874Y0212238D01*
X0256874Y0212989D01*
X0257124Y0213239D01*
X0257375Y0213239D01*
X0257625Y0212989D01*
X0257625Y0212488D01*
X0257375Y0212238D01*
X0256874Y0212238D01*
X0257625Y0211766D02*
X0257625Y0210765D01*
X0257625Y0210292D02*
X0257124Y0209792D01*
X0257124Y0210042D02*
X0257124Y0209292D01*
X0257625Y0209292D02*
X0256124Y0209292D01*
X0256124Y0210042D01*
X0256374Y0210292D01*
X0256874Y0210292D01*
X0257124Y0210042D01*
X0256624Y0210765D02*
X0256124Y0211265D01*
X0257625Y0211265D01*
X0260335Y0210409D02*
X0260585Y0210659D01*
X0260835Y0210659D01*
X0261085Y0210409D01*
X0261085Y0209908D01*
X0260835Y0209658D01*
X0260585Y0209658D01*
X0260335Y0209908D01*
X0260335Y0210409D01*
X0261085Y0210409D02*
X0261335Y0210659D01*
X0261586Y0210659D01*
X0261836Y0210409D01*
X0261836Y0209908D01*
X0261586Y0209658D01*
X0261335Y0209658D01*
X0261085Y0209908D01*
X0261836Y0209186D02*
X0261836Y0208185D01*
X0261836Y0207712D02*
X0261335Y0207212D01*
X0261335Y0207462D02*
X0261335Y0206711D01*
X0261836Y0206711D02*
X0260335Y0206711D01*
X0260335Y0207462D01*
X0260585Y0207712D01*
X0261085Y0207712D01*
X0261335Y0207462D01*
X0260835Y0208185D02*
X0260335Y0208685D01*
X0261836Y0208685D01*
X0270964Y0208989D02*
X0271215Y0208488D01*
X0271715Y0207988D01*
X0271715Y0208738D01*
X0271965Y0208989D01*
X0272216Y0208989D01*
X0272466Y0208738D01*
X0272466Y0208238D01*
X0272216Y0207988D01*
X0271715Y0207988D01*
X0271715Y0207515D02*
X0271965Y0207265D01*
X0271965Y0206515D01*
X0271965Y0207015D02*
X0272466Y0207515D01*
X0271715Y0207515D02*
X0271215Y0207515D01*
X0270964Y0207265D01*
X0270964Y0206515D01*
X0272466Y0206515D01*
X0289982Y0208898D02*
X0289982Y0209649D01*
X0290232Y0209899D01*
X0290732Y0209899D01*
X0290983Y0209649D01*
X0290983Y0208898D01*
X0291483Y0208898D02*
X0289982Y0208898D01*
X0290983Y0209398D02*
X0291483Y0209899D01*
X0291483Y0210371D02*
X0291483Y0211372D01*
X0291483Y0210872D02*
X0289982Y0210872D01*
X0290482Y0210371D01*
X0290732Y0211844D02*
X0290732Y0212845D01*
X0289982Y0212595D02*
X0290732Y0211844D01*
X0289982Y0212595D02*
X0291483Y0212595D01*
X0301793Y0211020D02*
X0302543Y0210270D01*
X0302543Y0211270D01*
X0301793Y0211020D02*
X0303294Y0211020D01*
X0303294Y0209797D02*
X0303294Y0208796D01*
X0302293Y0209797D01*
X0302043Y0209797D01*
X0301793Y0209547D01*
X0301793Y0209047D01*
X0302043Y0208796D01*
X0302043Y0208324D02*
X0302543Y0208324D01*
X0302794Y0208074D01*
X0302794Y0207323D01*
X0303294Y0207323D02*
X0301793Y0207323D01*
X0301793Y0208074D01*
X0302043Y0208324D01*
X0302794Y0207824D02*
X0303294Y0208324D01*
X0304035Y0208690D02*
X0304035Y0207689D01*
X0304786Y0207689D01*
X0304536Y0208190D01*
X0304536Y0208440D01*
X0304786Y0208690D01*
X0305286Y0208690D01*
X0305537Y0208440D01*
X0305537Y0207940D01*
X0305286Y0207689D01*
X0305537Y0207217D02*
X0305537Y0206216D01*
X0304536Y0207217D01*
X0304286Y0207217D01*
X0304035Y0206967D01*
X0304035Y0206466D01*
X0304286Y0206216D01*
X0304286Y0205744D02*
X0304786Y0205744D01*
X0305036Y0205494D01*
X0305036Y0204743D01*
X0305036Y0205243D02*
X0305537Y0205744D01*
X0305537Y0204743D02*
X0304035Y0204743D01*
X0304035Y0205494D01*
X0304286Y0205744D01*
X0318522Y0200539D02*
X0319273Y0200539D01*
X0319523Y0200289D01*
X0319523Y0199789D01*
X0319273Y0199539D01*
X0318522Y0199539D01*
X0318522Y0199038D02*
X0318522Y0200539D01*
X0319023Y0199539D02*
X0319523Y0199038D01*
X0319996Y0199038D02*
X0320997Y0200039D01*
X0320997Y0200289D01*
X0320746Y0200539D01*
X0320246Y0200539D01*
X0319996Y0200289D01*
X0319996Y0199038D02*
X0320997Y0199038D01*
X0321469Y0199038D02*
X0322470Y0200039D01*
X0322470Y0200289D01*
X0322220Y0200539D01*
X0321719Y0200539D01*
X0321469Y0200289D01*
X0321469Y0199038D02*
X0322470Y0199038D01*
X0322192Y0207323D02*
X0320690Y0207323D01*
X0320690Y0208074D01*
X0320941Y0208324D01*
X0321441Y0208324D01*
X0321691Y0208074D01*
X0321691Y0207323D01*
X0321691Y0207824D02*
X0322192Y0208324D01*
X0322192Y0208796D02*
X0322192Y0209797D01*
X0322192Y0209297D02*
X0320690Y0209297D01*
X0321191Y0208796D01*
X0321191Y0210270D02*
X0321441Y0210520D01*
X0321441Y0211270D01*
X0320941Y0211270D02*
X0321942Y0211270D01*
X0322192Y0211020D01*
X0322192Y0210520D01*
X0321942Y0210270D01*
X0321191Y0210270D02*
X0320941Y0210270D01*
X0320690Y0210520D01*
X0320690Y0211020D01*
X0320941Y0211270D01*
X0291483Y0223465D02*
X0289982Y0223465D01*
X0289982Y0224216D01*
X0290232Y0224466D01*
X0290732Y0224466D01*
X0290983Y0224216D01*
X0290983Y0223465D01*
X0290983Y0223965D02*
X0291483Y0224466D01*
X0291483Y0224938D02*
X0291483Y0225939D01*
X0291483Y0225439D02*
X0289982Y0225439D01*
X0290482Y0224938D01*
X0290732Y0226411D02*
X0290482Y0226912D01*
X0290482Y0227162D01*
X0290732Y0227412D01*
X0291233Y0227412D01*
X0291483Y0227162D01*
X0291483Y0226662D01*
X0291233Y0226411D01*
X0290732Y0226411D02*
X0289982Y0226411D01*
X0289982Y0227412D01*
X0315846Y0243326D02*
X0315846Y0244076D01*
X0316097Y0244326D01*
X0316597Y0244326D01*
X0316847Y0244076D01*
X0316847Y0243326D01*
X0316847Y0243826D02*
X0317348Y0244326D01*
X0317348Y0244799D02*
X0317348Y0245800D01*
X0317348Y0245299D02*
X0315846Y0245299D01*
X0316347Y0244799D01*
X0316097Y0246272D02*
X0315846Y0246522D01*
X0315846Y0247023D01*
X0316097Y0247273D01*
X0316347Y0247273D01*
X0316597Y0247023D01*
X0316847Y0247273D01*
X0317097Y0247273D01*
X0317348Y0247023D01*
X0317348Y0246522D01*
X0317097Y0246272D01*
X0316597Y0246773D02*
X0316597Y0247023D01*
X0317348Y0243326D02*
X0315846Y0243326D01*
X0310774Y0245512D02*
X0309273Y0245512D01*
X0309273Y0246263D01*
X0309523Y0246513D01*
X0310024Y0246513D01*
X0310274Y0246263D01*
X0310274Y0245512D01*
X0310274Y0246013D02*
X0310774Y0246513D01*
X0310774Y0246985D02*
X0310774Y0247986D01*
X0310774Y0248459D02*
X0309774Y0249459D01*
X0309523Y0249459D01*
X0309273Y0249209D01*
X0309273Y0248709D01*
X0309523Y0248459D01*
X0309273Y0247486D02*
X0310774Y0247486D01*
X0310774Y0248459D02*
X0310774Y0249459D01*
X0309273Y0247486D02*
X0309774Y0246985D01*
X0205759Y0190721D02*
X0205508Y0190971D01*
X0205008Y0190971D01*
X0204758Y0190721D01*
X0204285Y0190721D02*
X0204285Y0190471D01*
X0204035Y0190220D01*
X0204285Y0189970D01*
X0204285Y0189720D01*
X0204035Y0189470D01*
X0203535Y0189470D01*
X0203285Y0189720D01*
X0202812Y0189470D02*
X0202312Y0189970D01*
X0202562Y0189970D02*
X0201811Y0189970D01*
X0201811Y0189470D02*
X0201811Y0190971D01*
X0202562Y0190971D01*
X0202812Y0190721D01*
X0202812Y0190220D01*
X0202562Y0189970D01*
X0203285Y0190721D02*
X0203535Y0190971D01*
X0204035Y0190971D01*
X0204285Y0190721D01*
X0204035Y0190220D02*
X0203785Y0190220D01*
X0204758Y0189470D02*
X0205759Y0190471D01*
X0205759Y0190721D01*
X0205759Y0189470D02*
X0204758Y0189470D01*
X0283701Y0170105D02*
X0283701Y0168604D01*
X0283701Y0169104D02*
X0284452Y0169104D01*
X0284702Y0169354D01*
X0284702Y0169855D01*
X0284452Y0170105D01*
X0283701Y0170105D01*
X0284202Y0169104D02*
X0284702Y0168604D01*
X0285174Y0168604D02*
X0286175Y0169604D01*
X0286175Y0169855D01*
X0285925Y0170105D01*
X0285425Y0170105D01*
X0285174Y0169855D01*
X0285174Y0168604D02*
X0286175Y0168604D01*
X0286648Y0168854D02*
X0286898Y0168604D01*
X0287398Y0168604D01*
X0287648Y0168854D01*
X0287648Y0169855D01*
X0286648Y0168854D01*
X0286648Y0169855D01*
X0286898Y0170105D01*
X0287398Y0170105D01*
X0287648Y0169855D01*
X0287398Y0159475D02*
X0287648Y0159225D01*
X0287648Y0158974D01*
X0287398Y0158724D01*
X0287648Y0158474D01*
X0287648Y0158224D01*
X0287398Y0157974D01*
X0286898Y0157974D01*
X0286648Y0158224D01*
X0286175Y0157974D02*
X0285174Y0157974D01*
X0286175Y0158974D01*
X0286175Y0159225D01*
X0285925Y0159475D01*
X0285425Y0159475D01*
X0285174Y0159225D01*
X0284702Y0159225D02*
X0284702Y0158724D01*
X0284452Y0158474D01*
X0283701Y0158474D01*
X0283701Y0157974D02*
X0283701Y0159475D01*
X0284452Y0159475D01*
X0284702Y0159225D01*
X0284202Y0158474D02*
X0284702Y0157974D01*
X0286648Y0159225D02*
X0286898Y0159475D01*
X0287398Y0159475D01*
X0287398Y0158724D02*
X0287148Y0158724D01*
X0290506Y0143730D02*
X0291507Y0142729D01*
X0291757Y0142979D01*
X0291757Y0143479D01*
X0291507Y0143730D01*
X0290506Y0143730D01*
X0290256Y0143479D01*
X0290256Y0142979D01*
X0290506Y0142729D01*
X0291507Y0142729D01*
X0291507Y0142256D02*
X0291757Y0142006D01*
X0291757Y0141506D01*
X0291507Y0141256D01*
X0291757Y0140783D02*
X0291257Y0140283D01*
X0291257Y0140533D02*
X0291257Y0139782D01*
X0291757Y0139782D02*
X0290256Y0139782D01*
X0290256Y0140533D01*
X0290506Y0140783D01*
X0291006Y0140783D01*
X0291257Y0140533D01*
X0290506Y0141256D02*
X0290256Y0141506D01*
X0290256Y0142006D01*
X0290506Y0142256D01*
X0290756Y0142256D01*
X0291006Y0142006D01*
X0291257Y0142256D01*
X0291507Y0142256D01*
X0291006Y0142006D02*
X0291006Y0141756D01*
X0321872Y0142363D02*
X0321872Y0143113D01*
X0322122Y0143363D01*
X0322622Y0143363D01*
X0322872Y0143113D01*
X0322872Y0142363D01*
X0322872Y0142863D02*
X0323373Y0143363D01*
X0323123Y0143836D02*
X0323373Y0144086D01*
X0323373Y0144586D01*
X0323123Y0144837D01*
X0322872Y0144837D01*
X0322622Y0144586D01*
X0322622Y0144336D01*
X0322622Y0144586D02*
X0322372Y0144837D01*
X0322122Y0144837D01*
X0321872Y0144586D01*
X0321872Y0144086D01*
X0322122Y0143836D01*
X0322372Y0145309D02*
X0321872Y0145809D01*
X0323373Y0145809D01*
X0323373Y0145309D02*
X0323373Y0146310D01*
X0323373Y0142363D02*
X0321872Y0142363D01*
X0208515Y0091508D02*
X0208515Y0091258D01*
X0208264Y0091008D01*
X0207764Y0091008D01*
X0207514Y0091258D01*
X0207514Y0091508D01*
X0207764Y0091758D01*
X0208264Y0091758D01*
X0208515Y0091508D01*
X0208264Y0091008D02*
X0208515Y0090758D01*
X0208515Y0090507D01*
X0208264Y0090257D01*
X0207764Y0090257D01*
X0207514Y0090507D01*
X0207514Y0090758D01*
X0207764Y0091008D01*
X0207041Y0091258D02*
X0206791Y0091008D01*
X0207041Y0090758D01*
X0207041Y0090507D01*
X0206791Y0090257D01*
X0206291Y0090257D01*
X0206040Y0090507D01*
X0205568Y0090257D02*
X0205068Y0090758D01*
X0205318Y0090758D02*
X0204567Y0090758D01*
X0204567Y0090257D02*
X0204567Y0091758D01*
X0205318Y0091758D01*
X0205568Y0091508D01*
X0205568Y0091008D01*
X0205318Y0090758D01*
X0206040Y0091508D02*
X0206291Y0091758D01*
X0206791Y0091758D01*
X0207041Y0091508D01*
X0207041Y0091258D01*
X0206791Y0091008D02*
X0206541Y0091008D01*
X0205434Y0086051D02*
X0205434Y0084550D01*
X0204934Y0084550D02*
X0205934Y0084550D01*
X0204934Y0085551D02*
X0205434Y0086051D01*
X0204211Y0086051D02*
X0203460Y0085301D01*
X0204461Y0085301D01*
X0204211Y0086051D02*
X0204211Y0084550D01*
X0202988Y0084550D02*
X0202487Y0085050D01*
X0202738Y0085050D02*
X0201987Y0085050D01*
X0201987Y0084550D02*
X0201987Y0086051D01*
X0202738Y0086051D01*
X0202988Y0085801D01*
X0202988Y0085301D01*
X0202738Y0085050D01*
X0205158Y0065065D02*
X0205908Y0065065D01*
X0206159Y0064815D01*
X0206159Y0064315D01*
X0205908Y0064065D01*
X0205158Y0064065D01*
X0205658Y0064065D02*
X0206159Y0063564D01*
X0206631Y0064315D02*
X0207632Y0064315D01*
X0208104Y0064815D02*
X0208355Y0065065D01*
X0208855Y0065065D01*
X0209105Y0064815D01*
X0208104Y0063814D01*
X0208355Y0063564D01*
X0208855Y0063564D01*
X0209105Y0063814D01*
X0209105Y0064815D01*
X0208104Y0064815D02*
X0208104Y0063814D01*
X0207382Y0063564D02*
X0207382Y0065065D01*
X0206631Y0064315D01*
X0205158Y0065065D02*
X0205158Y0063564D01*
X0205121Y0052782D02*
X0205371Y0052532D01*
X0205371Y0052031D01*
X0205121Y0051781D01*
X0204370Y0051781D01*
X0204370Y0051281D02*
X0204370Y0052782D01*
X0205121Y0052782D01*
X0205844Y0052532D02*
X0206094Y0052782D01*
X0206594Y0052782D01*
X0206844Y0052532D01*
X0206844Y0052282D01*
X0206594Y0052031D01*
X0206844Y0051781D01*
X0206844Y0051531D01*
X0206594Y0051281D01*
X0206094Y0051281D01*
X0205844Y0051531D01*
X0205371Y0051281D02*
X0204871Y0051781D01*
X0206344Y0052031D02*
X0206594Y0052031D01*
X0207317Y0052282D02*
X0207567Y0052031D01*
X0208318Y0052031D01*
X0208318Y0051531D02*
X0208318Y0052532D01*
X0208068Y0052782D01*
X0207567Y0052782D01*
X0207317Y0052532D01*
X0207317Y0052282D01*
X0207317Y0051531D02*
X0207567Y0051281D01*
X0208068Y0051281D01*
X0208318Y0051531D01*
X0188294Y0051375D02*
X0188294Y0050874D01*
X0188044Y0050624D01*
X0188044Y0050152D02*
X0188294Y0049901D01*
X0188294Y0049401D01*
X0188044Y0049151D01*
X0187543Y0049151D02*
X0187293Y0049651D01*
X0187293Y0049901D01*
X0187543Y0050152D01*
X0188044Y0050152D01*
X0187543Y0050624D02*
X0187293Y0051124D01*
X0187293Y0051375D01*
X0187543Y0051625D01*
X0188044Y0051625D01*
X0188294Y0051375D01*
X0187543Y0050624D02*
X0186793Y0050624D01*
X0186793Y0051625D01*
X0186793Y0050152D02*
X0186793Y0049151D01*
X0187543Y0049151D01*
X0187543Y0048678D02*
X0187794Y0048428D01*
X0187794Y0047677D01*
X0188294Y0047677D02*
X0186793Y0047677D01*
X0186793Y0048428D01*
X0187043Y0048678D01*
X0187543Y0048678D01*
X0187794Y0048178D02*
X0188294Y0048678D01*
X0170261Y0054940D02*
X0168760Y0054940D01*
X0168760Y0055690D01*
X0169010Y0055941D01*
X0169510Y0055941D01*
X0169761Y0055690D01*
X0169761Y0054940D01*
X0169761Y0055440D02*
X0170261Y0055941D01*
X0170011Y0056413D02*
X0170261Y0056663D01*
X0170261Y0057164D01*
X0170011Y0057414D01*
X0169510Y0057414D01*
X0169260Y0057164D01*
X0169260Y0056913D01*
X0169510Y0056413D01*
X0168760Y0056413D01*
X0168760Y0057414D01*
X0169510Y0057886D02*
X0169510Y0058887D01*
X0168760Y0058637D02*
X0169510Y0057886D01*
X0168760Y0058637D02*
X0170261Y0058637D01*
X0159631Y0049084D02*
X0159631Y0048083D01*
X0158630Y0049084D01*
X0158380Y0049084D01*
X0158130Y0048834D01*
X0158130Y0048333D01*
X0158380Y0048083D01*
X0158130Y0047611D02*
X0158130Y0046610D01*
X0158880Y0046610D01*
X0158630Y0047110D01*
X0158630Y0047361D01*
X0158880Y0047611D01*
X0159381Y0047611D01*
X0159631Y0047361D01*
X0159631Y0046860D01*
X0159381Y0046610D01*
X0159631Y0046137D02*
X0159131Y0045637D01*
X0159131Y0045887D02*
X0159131Y0045137D01*
X0159631Y0045137D02*
X0158130Y0045137D01*
X0158130Y0045887D01*
X0158380Y0046137D01*
X0158880Y0046137D01*
X0159131Y0045887D01*
X0168563Y0043139D02*
X0168563Y0042138D01*
X0168563Y0041666D02*
X0168563Y0040665D01*
X0169314Y0040665D01*
X0169063Y0041165D01*
X0169063Y0041416D01*
X0169314Y0041666D01*
X0169814Y0041666D01*
X0170064Y0041416D01*
X0170064Y0040915D01*
X0169814Y0040665D01*
X0170064Y0040193D02*
X0169564Y0039692D01*
X0169564Y0039942D02*
X0169564Y0039192D01*
X0170064Y0039192D02*
X0168563Y0039192D01*
X0168563Y0039942D01*
X0168813Y0040193D01*
X0169314Y0040193D01*
X0169564Y0039942D01*
X0169814Y0042138D02*
X0170064Y0042138D01*
X0169814Y0042138D02*
X0168813Y0043139D01*
X0168563Y0043139D01*
X0166784Y0036310D02*
X0167034Y0036060D01*
X0167034Y0035559D01*
X0166784Y0035309D01*
X0166784Y0034837D02*
X0167034Y0034586D01*
X0167034Y0034086D01*
X0166784Y0033836D01*
X0166284Y0033836D02*
X0166033Y0034336D01*
X0166033Y0034586D01*
X0166284Y0034837D01*
X0166784Y0034837D01*
X0166284Y0035809D02*
X0166284Y0036060D01*
X0166534Y0036310D01*
X0166784Y0036310D01*
X0166284Y0036060D02*
X0166033Y0036310D01*
X0165783Y0036310D01*
X0165533Y0036060D01*
X0165533Y0035559D01*
X0165783Y0035309D01*
X0165533Y0034837D02*
X0165533Y0033836D01*
X0166284Y0033836D01*
X0166284Y0033363D02*
X0166534Y0033113D01*
X0166534Y0032363D01*
X0166534Y0032863D02*
X0167034Y0033363D01*
X0166284Y0033363D02*
X0165783Y0033363D01*
X0165533Y0033113D01*
X0165533Y0032363D01*
X0167034Y0032363D01*
X0156601Y0032284D02*
X0155100Y0032284D01*
X0155100Y0033034D01*
X0155350Y0033285D01*
X0155851Y0033285D01*
X0156101Y0033034D01*
X0156101Y0032284D01*
X0156101Y0032784D02*
X0156601Y0033285D01*
X0156351Y0033757D02*
X0156601Y0034007D01*
X0156601Y0034508D01*
X0156351Y0034758D01*
X0155851Y0034758D01*
X0155600Y0034508D01*
X0155600Y0034257D01*
X0155851Y0033757D01*
X0155100Y0033757D01*
X0155100Y0034758D01*
X0155350Y0035230D02*
X0155600Y0035230D01*
X0155851Y0035480D01*
X0155851Y0035981D01*
X0156101Y0036231D01*
X0156351Y0036231D01*
X0156601Y0035981D01*
X0156601Y0035480D01*
X0156351Y0035230D01*
X0156101Y0035230D01*
X0155851Y0035480D01*
X0155851Y0035981D02*
X0155600Y0036231D01*
X0155350Y0036231D01*
X0155100Y0035981D01*
X0155100Y0035480D01*
X0155350Y0035230D01*
X0149198Y0045137D02*
X0147697Y0045137D01*
X0147697Y0045887D01*
X0147947Y0046137D01*
X0148447Y0046137D01*
X0148698Y0045887D01*
X0148698Y0045137D01*
X0148698Y0045637D02*
X0149198Y0046137D01*
X0148948Y0046610D02*
X0149198Y0046860D01*
X0149198Y0047361D01*
X0148948Y0047611D01*
X0148447Y0047611D01*
X0148197Y0047361D01*
X0148197Y0047110D01*
X0148447Y0046610D01*
X0147697Y0046610D01*
X0147697Y0047611D01*
X0148197Y0048083D02*
X0147697Y0048584D01*
X0149198Y0048584D01*
X0149198Y0049084D02*
X0149198Y0048083D01*
X0137978Y0042535D02*
X0137978Y0042034D01*
X0137727Y0041784D01*
X0136727Y0042785D01*
X0137727Y0042785D01*
X0137978Y0042535D01*
X0137727Y0041784D02*
X0136727Y0041784D01*
X0136476Y0042034D01*
X0136476Y0042535D01*
X0136727Y0042785D01*
X0136476Y0041312D02*
X0136476Y0040311D01*
X0137227Y0040311D01*
X0136977Y0040811D01*
X0136977Y0041061D01*
X0137227Y0041312D01*
X0137727Y0041312D01*
X0137978Y0041061D01*
X0137978Y0040561D01*
X0137727Y0040311D01*
X0137978Y0039838D02*
X0137477Y0039338D01*
X0137477Y0039588D02*
X0137477Y0038837D01*
X0137978Y0038837D02*
X0136476Y0038837D01*
X0136476Y0039588D01*
X0136727Y0039838D01*
X0137227Y0039838D01*
X0137477Y0039588D01*
X0134554Y0048032D02*
X0133053Y0048032D01*
X0133053Y0048782D01*
X0133303Y0049033D01*
X0133803Y0049033D01*
X0134054Y0048782D01*
X0134054Y0048032D01*
X0134054Y0048532D02*
X0134554Y0049033D01*
X0134304Y0049505D02*
X0134554Y0049755D01*
X0134554Y0050256D01*
X0134304Y0050506D01*
X0134054Y0050506D01*
X0133803Y0050256D01*
X0133803Y0049505D01*
X0134304Y0049505D01*
X0133803Y0049505D02*
X0133303Y0050005D01*
X0133053Y0050506D01*
X0133303Y0050978D02*
X0133053Y0051229D01*
X0133053Y0051729D01*
X0133303Y0051979D01*
X0134304Y0050978D01*
X0134554Y0051229D01*
X0134554Y0051729D01*
X0134304Y0051979D01*
X0133303Y0051979D01*
X0133303Y0050978D02*
X0134304Y0050978D01*
X0143761Y0058544D02*
X0143761Y0059294D01*
X0144012Y0059544D01*
X0144512Y0059544D01*
X0144762Y0059294D01*
X0144762Y0058544D01*
X0144762Y0059044D02*
X0145263Y0059544D01*
X0144512Y0060017D02*
X0144512Y0061018D01*
X0144262Y0061490D02*
X0144512Y0061740D01*
X0144512Y0062491D01*
X0145012Y0062491D02*
X0144012Y0062491D01*
X0143761Y0062241D01*
X0143761Y0061740D01*
X0144012Y0061490D01*
X0144262Y0061490D01*
X0145012Y0061490D02*
X0145263Y0061740D01*
X0145263Y0062241D01*
X0145012Y0062491D01*
X0145263Y0060768D02*
X0143761Y0060768D01*
X0144512Y0060017D01*
X0145263Y0058544D02*
X0143761Y0058544D01*
X0126901Y0033257D02*
X0125900Y0033257D01*
X0125650Y0033007D01*
X0125650Y0032507D01*
X0125900Y0032256D01*
X0126150Y0032256D01*
X0126400Y0032507D01*
X0126400Y0033257D01*
X0126901Y0033257D02*
X0127151Y0033007D01*
X0127151Y0032507D01*
X0126901Y0032256D01*
X0126901Y0031784D02*
X0127151Y0031534D01*
X0127151Y0031033D01*
X0126901Y0030783D01*
X0126400Y0030783D02*
X0126150Y0031284D01*
X0126150Y0031534D01*
X0126400Y0031784D01*
X0126901Y0031784D01*
X0126400Y0030783D02*
X0125650Y0030783D01*
X0125650Y0031784D01*
X0125900Y0030311D02*
X0126400Y0030311D01*
X0126650Y0030060D01*
X0126650Y0029310D01*
X0126650Y0029810D02*
X0127151Y0030311D01*
X0127151Y0029310D02*
X0125650Y0029310D01*
X0125650Y0030060D01*
X0125900Y0030311D01*
X0097374Y0033603D02*
X0097124Y0033353D01*
X0096624Y0033353D01*
X0096374Y0033603D01*
X0095901Y0033603D02*
X0095651Y0033353D01*
X0095151Y0033353D01*
X0094900Y0033603D01*
X0095151Y0034104D02*
X0095651Y0034104D01*
X0095901Y0033854D01*
X0095901Y0033603D01*
X0095151Y0034104D02*
X0094900Y0034354D01*
X0094900Y0034604D01*
X0095151Y0034854D01*
X0095651Y0034854D01*
X0095901Y0034604D01*
X0096374Y0034604D02*
X0096624Y0034854D01*
X0097124Y0034854D01*
X0097374Y0034604D01*
X0097374Y0034354D01*
X0097124Y0034104D01*
X0097374Y0033854D01*
X0097374Y0033603D01*
X0097124Y0034104D02*
X0096874Y0034104D01*
X0059579Y0033353D02*
X0058578Y0033353D01*
X0059079Y0033353D02*
X0059079Y0034854D01*
X0058578Y0034354D01*
X0058106Y0034604D02*
X0057856Y0034854D01*
X0057355Y0034854D01*
X0057105Y0034604D01*
X0057105Y0034354D01*
X0057355Y0034104D01*
X0057856Y0034104D01*
X0058106Y0033854D01*
X0058106Y0033603D01*
X0057856Y0033353D01*
X0057355Y0033353D01*
X0057105Y0033603D01*
X0156300Y0016365D02*
X0156300Y0014863D01*
X0156300Y0015364D02*
X0157050Y0015364D01*
X0157300Y0015614D01*
X0157300Y0016114D01*
X0157050Y0016365D01*
X0156300Y0016365D01*
X0156800Y0015364D02*
X0157300Y0014863D01*
X0157773Y0015114D02*
X0158023Y0014863D01*
X0158523Y0014863D01*
X0158774Y0015114D01*
X0158774Y0015614D01*
X0158523Y0015864D01*
X0158273Y0015864D01*
X0157773Y0015614D01*
X0157773Y0016365D01*
X0158774Y0016365D01*
X0159246Y0015614D02*
X0159997Y0015614D01*
X0160247Y0015364D01*
X0160247Y0015114D01*
X0159997Y0014863D01*
X0159496Y0014863D01*
X0159246Y0015114D01*
X0159246Y0015614D01*
X0159746Y0016114D01*
X0160247Y0016365D01*
X0179193Y0029704D02*
X0179193Y0030454D01*
X0179443Y0030704D01*
X0179943Y0030704D01*
X0180194Y0030454D01*
X0180194Y0029704D01*
X0180194Y0030204D02*
X0180694Y0030704D01*
X0180444Y0031177D02*
X0180694Y0031427D01*
X0180694Y0031927D01*
X0180444Y0032178D01*
X0180194Y0032178D01*
X0179943Y0031927D01*
X0179943Y0031177D01*
X0180444Y0031177D01*
X0179943Y0031177D02*
X0179443Y0031677D01*
X0179193Y0032178D01*
X0179693Y0032650D02*
X0179193Y0033150D01*
X0180694Y0033150D01*
X0180694Y0032650D02*
X0180694Y0033651D01*
X0180694Y0029704D02*
X0179193Y0029704D01*
X0048633Y0243680D02*
X0048883Y0243930D01*
X0048883Y0244931D01*
X0048633Y0245181D01*
X0048133Y0245181D01*
X0047882Y0244931D01*
X0047882Y0244681D01*
X0048133Y0244431D01*
X0048883Y0244431D01*
X0048633Y0243680D02*
X0048133Y0243680D01*
X0047882Y0243930D01*
X0047410Y0243930D02*
X0047160Y0243680D01*
X0046659Y0243680D01*
X0046409Y0243930D01*
X0045937Y0243930D02*
X0045686Y0243680D01*
X0045186Y0243680D01*
X0044936Y0243930D01*
X0044936Y0244931D01*
X0045186Y0245181D01*
X0045686Y0245181D01*
X0045937Y0244931D01*
X0046409Y0244931D02*
X0046659Y0245181D01*
X0047160Y0245181D01*
X0047410Y0244931D01*
X0047410Y0244681D01*
X0047160Y0244431D01*
X0047410Y0244180D01*
X0047410Y0243930D01*
X0047160Y0244431D02*
X0046909Y0244431D01*
X0046530Y0259428D02*
X0046029Y0259428D01*
X0045779Y0259678D01*
X0045307Y0259678D02*
X0045057Y0259428D01*
X0044556Y0259428D01*
X0044306Y0259678D01*
X0044306Y0260679D01*
X0044556Y0260929D01*
X0045057Y0260929D01*
X0045307Y0260679D01*
X0045779Y0260679D02*
X0046029Y0260929D01*
X0046530Y0260929D01*
X0046780Y0260679D01*
X0046780Y0260429D01*
X0046530Y0260179D01*
X0046780Y0259928D01*
X0046780Y0259678D01*
X0046530Y0259428D01*
X0046530Y0260179D02*
X0046280Y0260179D01*
X0047252Y0260429D02*
X0047252Y0260679D01*
X0047503Y0260929D01*
X0048003Y0260929D01*
X0048253Y0260679D01*
X0048253Y0260429D01*
X0048003Y0260179D01*
X0047503Y0260179D01*
X0047252Y0260429D01*
X0047503Y0260179D02*
X0047252Y0259928D01*
X0047252Y0259678D01*
X0047503Y0259428D01*
X0048003Y0259428D01*
X0048253Y0259678D01*
X0048253Y0259928D01*
X0048003Y0260179D01*
X0070886Y0260262D02*
X0070886Y0260763D01*
X0071136Y0261013D01*
X0071386Y0261013D01*
X0071636Y0260763D01*
X0071887Y0261013D01*
X0072137Y0261013D01*
X0072387Y0260763D01*
X0072387Y0260262D01*
X0072137Y0260012D01*
X0072137Y0259540D02*
X0071887Y0259540D01*
X0071636Y0259290D01*
X0071636Y0258539D01*
X0072137Y0258539D01*
X0072387Y0258789D01*
X0072387Y0259290D01*
X0072137Y0259540D01*
X0071636Y0260513D02*
X0071636Y0260763D01*
X0070886Y0260262D02*
X0071136Y0260012D01*
X0070886Y0259540D02*
X0071136Y0259039D01*
X0071636Y0258539D01*
X0071636Y0258067D02*
X0071887Y0257816D01*
X0071887Y0257066D01*
X0072387Y0257066D02*
X0070886Y0257066D01*
X0070886Y0257816D01*
X0071136Y0258067D01*
X0071636Y0258067D01*
X0071887Y0257566D02*
X0072387Y0258067D01*
X0079744Y0257895D02*
X0079994Y0258145D01*
X0080495Y0258145D01*
X0080745Y0257895D01*
X0080745Y0257144D01*
X0081245Y0257144D02*
X0079744Y0257144D01*
X0079744Y0257895D01*
X0080745Y0257645D02*
X0081245Y0258145D01*
X0080995Y0258618D02*
X0081245Y0258868D01*
X0081245Y0259368D01*
X0080995Y0259619D01*
X0080745Y0259619D01*
X0080495Y0259368D01*
X0080495Y0258618D01*
X0080995Y0258618D01*
X0080495Y0258618D02*
X0079994Y0259118D01*
X0079744Y0259619D01*
X0080495Y0260091D02*
X0079744Y0260842D01*
X0081245Y0260842D01*
X0080495Y0261092D02*
X0080495Y0260091D01*
D19*
X0075634Y0212878D03*
X0092169Y0212957D03*
X0133272Y0194650D03*
X0126500Y0161343D03*
X0109177Y0148744D03*
X0108980Y0136343D03*
X0092248Y0160358D03*
X0202681Y0194020D03*
X0284571Y0173154D03*
X0284571Y0162524D03*
X0321972Y0195988D03*
X0157169Y0019413D03*
D20*
X0152051Y0033154D03*
X0162484Y0033232D03*
X0173114Y0042642D03*
X0162681Y0048587D03*
X0152248Y0048587D03*
X0141028Y0042287D03*
X0130004Y0048902D03*
X0140713Y0059413D03*
X0173311Y0058390D03*
X0183744Y0048547D03*
X0183744Y0033154D03*
X0130201Y0032760D03*
X0294807Y0143232D03*
X0318823Y0143232D03*
X0317642Y0208193D03*
X0308587Y0208193D03*
X0298744Y0208193D03*
X0286933Y0209768D03*
X0275516Y0209965D03*
X0264886Y0210161D03*
X0253075Y0210161D03*
X0252681Y0224728D03*
X0286933Y0224335D03*
X0306224Y0246382D03*
X0320398Y0246776D03*
X0275122Y0249138D03*
X0219217Y0252681D03*
X0219610Y0271579D03*
X0175122Y0223154D03*
X0121500Y0238941D03*
X0084295Y0260594D03*
X0075437Y0260516D03*
D21*
X0107327Y0238982D02*
X0107327Y0238742D01*
D22*
X0124925Y0210555D02*
X0124925Y0207406D01*
X0131224Y0207406D01*
X0131224Y0210555D01*
X0124925Y0210555D01*
X0080358Y0140476D02*
X0077209Y0140476D01*
X0077209Y0134177D01*
X0080358Y0134177D01*
X0080358Y0140476D01*
X0223744Y0120949D02*
X0242248Y0120949D01*
X0242445Y0120949D01*
X0239793Y0119177D02*
X0239795Y0119236D01*
X0239801Y0119294D01*
X0239811Y0119352D01*
X0239824Y0119409D01*
X0239842Y0119466D01*
X0239863Y0119521D01*
X0239888Y0119574D01*
X0239916Y0119625D01*
X0239947Y0119675D01*
X0239982Y0119722D01*
X0240020Y0119767D01*
X0240061Y0119810D01*
X0240105Y0119849D01*
X0240151Y0119885D01*
X0240199Y0119919D01*
X0240250Y0119949D01*
X0240303Y0119975D01*
X0240357Y0119998D01*
X0240412Y0120017D01*
X0240469Y0120033D01*
X0240527Y0120045D01*
X0240585Y0120053D01*
X0240644Y0120057D01*
X0240702Y0120057D01*
X0240761Y0120053D01*
X0240819Y0120045D01*
X0240877Y0120033D01*
X0240934Y0120017D01*
X0240989Y0119998D01*
X0241043Y0119975D01*
X0241096Y0119949D01*
X0241147Y0119919D01*
X0241195Y0119885D01*
X0241241Y0119849D01*
X0241285Y0119810D01*
X0241326Y0119767D01*
X0241364Y0119722D01*
X0241399Y0119675D01*
X0241430Y0119625D01*
X0241458Y0119574D01*
X0241483Y0119521D01*
X0241504Y0119466D01*
X0241522Y0119409D01*
X0241535Y0119352D01*
X0241545Y0119294D01*
X0241551Y0119236D01*
X0241553Y0119177D01*
X0241551Y0119118D01*
X0241545Y0119060D01*
X0241535Y0119002D01*
X0241522Y0118945D01*
X0241504Y0118888D01*
X0241483Y0118833D01*
X0241458Y0118780D01*
X0241430Y0118729D01*
X0241399Y0118679D01*
X0241364Y0118632D01*
X0241326Y0118587D01*
X0241285Y0118544D01*
X0241241Y0118505D01*
X0241195Y0118469D01*
X0241147Y0118435D01*
X0241096Y0118405D01*
X0241043Y0118379D01*
X0240989Y0118356D01*
X0240934Y0118337D01*
X0240877Y0118321D01*
X0240819Y0118309D01*
X0240761Y0118301D01*
X0240702Y0118297D01*
X0240644Y0118297D01*
X0240585Y0118301D01*
X0240527Y0118309D01*
X0240469Y0118321D01*
X0240412Y0118337D01*
X0240357Y0118356D01*
X0240303Y0118379D01*
X0240250Y0118405D01*
X0240199Y0118435D01*
X0240151Y0118469D01*
X0240105Y0118505D01*
X0240061Y0118544D01*
X0240020Y0118587D01*
X0239982Y0118632D01*
X0239947Y0118679D01*
X0239916Y0118729D01*
X0239888Y0118780D01*
X0239863Y0118833D01*
X0239842Y0118888D01*
X0239824Y0118945D01*
X0239811Y0119002D01*
X0239801Y0119060D01*
X0239795Y0119118D01*
X0239793Y0119177D01*
X0223744Y0120949D02*
X0223744Y0034335D01*
X0242248Y0034335D01*
X0242445Y0034335D01*
X0239990Y0035909D02*
X0239992Y0035968D01*
X0239998Y0036026D01*
X0240008Y0036084D01*
X0240021Y0036141D01*
X0240039Y0036198D01*
X0240060Y0036253D01*
X0240085Y0036306D01*
X0240113Y0036357D01*
X0240144Y0036407D01*
X0240179Y0036454D01*
X0240217Y0036499D01*
X0240258Y0036542D01*
X0240302Y0036581D01*
X0240348Y0036617D01*
X0240396Y0036651D01*
X0240447Y0036681D01*
X0240500Y0036707D01*
X0240554Y0036730D01*
X0240609Y0036749D01*
X0240666Y0036765D01*
X0240724Y0036777D01*
X0240782Y0036785D01*
X0240841Y0036789D01*
X0240899Y0036789D01*
X0240958Y0036785D01*
X0241016Y0036777D01*
X0241074Y0036765D01*
X0241131Y0036749D01*
X0241186Y0036730D01*
X0241240Y0036707D01*
X0241293Y0036681D01*
X0241344Y0036651D01*
X0241392Y0036617D01*
X0241438Y0036581D01*
X0241482Y0036542D01*
X0241523Y0036499D01*
X0241561Y0036454D01*
X0241596Y0036407D01*
X0241627Y0036357D01*
X0241655Y0036306D01*
X0241680Y0036253D01*
X0241701Y0036198D01*
X0241719Y0036141D01*
X0241732Y0036084D01*
X0241742Y0036026D01*
X0241748Y0035968D01*
X0241750Y0035909D01*
X0241748Y0035850D01*
X0241742Y0035792D01*
X0241732Y0035734D01*
X0241719Y0035677D01*
X0241701Y0035620D01*
X0241680Y0035565D01*
X0241655Y0035512D01*
X0241627Y0035461D01*
X0241596Y0035411D01*
X0241561Y0035364D01*
X0241523Y0035319D01*
X0241482Y0035276D01*
X0241438Y0035237D01*
X0241392Y0035201D01*
X0241344Y0035167D01*
X0241293Y0035137D01*
X0241240Y0035111D01*
X0241186Y0035088D01*
X0241131Y0035069D01*
X0241074Y0035053D01*
X0241016Y0035041D01*
X0240958Y0035033D01*
X0240899Y0035029D01*
X0240841Y0035029D01*
X0240782Y0035033D01*
X0240724Y0035041D01*
X0240666Y0035053D01*
X0240609Y0035069D01*
X0240554Y0035088D01*
X0240500Y0035111D01*
X0240447Y0035137D01*
X0240396Y0035167D01*
X0240348Y0035201D01*
X0240302Y0035237D01*
X0240258Y0035276D01*
X0240217Y0035319D01*
X0240179Y0035364D01*
X0240144Y0035411D01*
X0240113Y0035461D01*
X0240085Y0035512D01*
X0240060Y0035565D01*
X0240039Y0035620D01*
X0240021Y0035677D01*
X0240008Y0035734D01*
X0239998Y0035792D01*
X0239992Y0035850D01*
X0239990Y0035909D01*
D23*
X0166303Y0090122D03*
X0164335Y0090122D03*
X0162366Y0090122D03*
X0160398Y0090122D03*
X0158429Y0090122D03*
X0156461Y0090122D03*
X0154492Y0090122D03*
X0152524Y0090122D03*
X0150555Y0090122D03*
X0148587Y0090122D03*
X0146618Y0090122D03*
X0144650Y0090122D03*
X0142681Y0090122D03*
X0140713Y0090122D03*
X0138744Y0090122D03*
X0136776Y0090122D03*
X0136776Y0132642D03*
X0138744Y0132642D03*
X0140713Y0132642D03*
X0142681Y0132642D03*
X0144650Y0132642D03*
X0146618Y0132642D03*
X0148587Y0132642D03*
X0150555Y0132642D03*
X0152524Y0132642D03*
X0154492Y0132642D03*
X0156461Y0132642D03*
X0158429Y0132642D03*
X0160398Y0132642D03*
X0162366Y0132642D03*
X0164335Y0132642D03*
X0166303Y0132642D03*
D24*
X0172799Y0126146D03*
X0172799Y0124177D03*
X0172799Y0122209D03*
X0172799Y0120240D03*
X0172799Y0118272D03*
X0172799Y0116303D03*
X0172799Y0114335D03*
X0172799Y0112366D03*
X0172799Y0110398D03*
X0172799Y0108429D03*
X0172799Y0106461D03*
X0172799Y0104492D03*
X0172799Y0102524D03*
X0172799Y0100555D03*
X0172799Y0098587D03*
X0172799Y0096618D03*
X0130280Y0096618D03*
X0130280Y0098587D03*
X0130280Y0100555D03*
X0130280Y0102524D03*
X0130280Y0104492D03*
X0130280Y0106461D03*
X0130280Y0108429D03*
X0130280Y0110398D03*
X0130280Y0112366D03*
X0130280Y0114335D03*
X0130280Y0116303D03*
X0130280Y0118272D03*
X0130280Y0120240D03*
X0130280Y0122209D03*
X0130280Y0124177D03*
X0130280Y0126146D03*
D25*
X0323665Y0178035D03*
D26*
X0368311Y0246382D03*
D27*
X0219563Y0185436D02*
X0219563Y0182967D01*
X0219563Y0181752D02*
X0219563Y0179284D01*
X0219563Y0178069D02*
X0218328Y0176835D01*
X0218328Y0177452D02*
X0218328Y0175601D01*
X0219563Y0175601D02*
X0215859Y0175601D01*
X0215859Y0177452D01*
X0216477Y0178069D01*
X0217711Y0178069D01*
X0218328Y0177452D01*
X0217094Y0179284D02*
X0215859Y0180518D01*
X0219563Y0180518D01*
X0217094Y0182967D02*
X0215859Y0184201D01*
X0219563Y0184201D01*
X0186885Y0196922D02*
X0183182Y0196922D01*
X0183182Y0198773D01*
X0183799Y0199390D01*
X0185034Y0199390D01*
X0185651Y0198773D01*
X0185651Y0196922D01*
X0185651Y0198156D02*
X0186885Y0199390D01*
X0186268Y0200605D02*
X0185651Y0200605D01*
X0185034Y0201222D01*
X0185034Y0202456D01*
X0185651Y0203073D01*
X0186268Y0203073D01*
X0186885Y0202456D01*
X0186885Y0201222D01*
X0186268Y0200605D01*
X0185034Y0201222D02*
X0184417Y0200605D01*
X0183799Y0200605D01*
X0183182Y0201222D01*
X0183182Y0202456D01*
X0183799Y0203073D01*
X0184417Y0203073D01*
X0185034Y0202456D01*
D28*
X0254729Y0175555D02*
X0254729Y0135555D01*
M02*
