%
M48
M72
T01C0.02400
T02C0.02756
T03C0.03200
T04C0.03346
T05C0.04000
T06C0.04921
T07C0.11811
%
T01
X60555Y33685
X64984Y22366
X98449Y34669
X135850Y38606
X141264Y50909
X135850Y56323
X135850Y61244
X136343Y66657
X118626Y65181
X121579Y77484
X142248Y83390
X149138Y83390
X158488Y79945
X166362Y83390
X169807Y91756
X181618Y100122
X186539Y100122
X189492Y109965
X179157Y112425
X168331Y114394
X163409Y114394
X168331Y120791
X160949Y128173
X172268Y129650
X175713Y134571
X179157Y130142
X181618Y122760
X195398Y134571
X195398Y140476
X207209Y139984
X216067Y144413
X200811Y152780
X206717Y158685
X206224Y165575
X203272Y177386
X204256Y182307
X216067Y175417
X224925Y175417
X240181Y185752
X253961Y167543
X253961Y157701
X247563Y148843
X253961Y147366
X226402Y128665
X214591Y128665
X218035Y108980
X215575Y101598
X210654Y86343
X196874Y82898
X189984Y78469
X186539Y75024
X196874Y68134
X198843Y63213
X193921Y53370
X183587Y62228
X178173Y61736
X161441Y57307
X152583Y63213
X167346Y48449
X168331Y42051
X157012Y35161
X157012Y30240
X148154Y22366
X191461Y31224
X202287Y36146
X190969Y42051
X215083Y55831
X220496Y50417
X242642Y84866
X154551Y94709
X155535Y104059
X141264Y107504
X134374Y110457
X141264Y117346
X147661Y114886
X144217Y124236
X134374Y120791
X123055Y118331
X116165Y122268
X123055Y132602
X116657Y144413
X100417Y148843
X90083Y155240
X98449Y165083
X105339Y162130
X112720Y174925
X127484Y189689
X121087Y196087
X121087Y201008
X106815Y205929
X103370Y210358
X115181Y220201
X121087Y224138
X122563Y247268
X116657Y268921
X122563Y276795
X89098Y259571
X68921Y244315
X53173Y247760
X179157Y175909
X186047Y173449
X186539Y164591
X176697Y144413
X144709Y139984
X142740Y144906
X139295Y151795
X97465Y131618
X100417Y108980
X109276Y109965
X116165Y109472
X116165Y102583
X123055Y109472
X135850Y98646
X116165Y93724
X111244Y93724
X104354Y94217
X103370Y100122
X84669Y80929
X198350Y199039
X215083Y219217
X211638Y244807
X186539Y253173
X269709Y203469
X291854Y208390
X293331Y201992
X303665Y208390
X322366Y201008
X313016Y195594
X321874Y191165
X314492Y185752
X307602Y184768
X299236Y184768
X293331Y172957
X297268Y168035
X303665Y164098
X297760Y157701
X290870Y150811
X311047Y151303
X314000Y144906
X325319Y156224
X313508Y173941
X282012Y228075
X292346Y247760
X331717Y244315
X346480Y247760
T02
X360831Y250122
X360831Y242642
T03
X256453Y259295
X242453Y259295
X195705Y260634
X181705Y260634
X145083Y263287
X145083Y251287
X54484Y205988
X40484Y205988
T04
X89138Y269059
X104098Y269059
T05
X102799Y64965
X92799Y64965
X82799Y64965
X72799Y64965
T06
X140634Y29610
X172130Y29610
T07
X29846Y38508
X260949Y26303
X354650Y197957
X26697Y251106
M30
