G75*
%MOIN*%
%OFA0B0*%
%FSLAX25Y25*%
%IPPOS*%
%LPD*%
%AMOC8*
5,1,8,0,0,1.08239X$1,22.5*
%
%ADD10C,0.04000*%
%ADD11OC8,0.07100*%
%ADD12C,0.07100*%
%ADD13R,0.12611X0.24422*%
%ADD14R,0.02375X0.06312*%
%ADD15C,0.04146*%
%ADD16R,0.46800X0.07800*%
%ADD17R,0.04737X0.05131*%
%ADD18R,0.03950X0.03162*%
%ADD19R,0.05131X0.04737*%
%ADD20C,0.06800*%
%ADD21R,0.06312X0.08674*%
%ADD22R,0.05839X0.06312*%
%ADD23R,0.08477X0.06312*%
%ADD24R,0.03556X0.06312*%
%ADD25C,0.05721*%
%ADD26C,0.05556*%
%ADD27C,0.01075*%
%ADD28C,0.04800*%
%ADD29C,0.16611*%
D10*
X0145083Y0251287D03*
X0145083Y0263287D03*
D11*
X0181705Y0260634D03*
X0242453Y0259295D03*
X0054484Y0205988D03*
D12*
X0040484Y0205988D03*
X0195705Y0260634D03*
X0256453Y0259295D03*
D13*
X0051224Y0165122D03*
X0031539Y0165122D03*
D14*
X0091500Y0267091D03*
X0094059Y0267091D03*
X0096618Y0267091D03*
X0099177Y0267091D03*
X0101736Y0267091D03*
D15*
X0104098Y0269059D03*
X0089138Y0269059D03*
D16*
X0096618Y0277720D03*
D17*
X0095634Y0250043D03*
X0095634Y0243350D03*
X0106657Y0243350D03*
X0106657Y0250043D03*
X0084807Y0250043D03*
X0084807Y0243350D03*
X0074177Y0243350D03*
X0074177Y0250043D03*
X0060555Y0046972D03*
X0060555Y0040280D03*
X0098744Y0039886D03*
X0098744Y0046579D03*
D18*
X0074295Y0255909D03*
X0074295Y0262602D03*
D19*
X0195004Y0169413D03*
X0201697Y0169413D03*
X0201697Y0157602D03*
X0195004Y0157602D03*
X0200161Y0145122D03*
X0206854Y0145122D03*
X0207130Y0135201D03*
X0200437Y0135201D03*
X0189335Y0134886D03*
X0182642Y0134886D03*
X0182051Y0144728D03*
X0188744Y0144728D03*
D20*
X0102799Y0067965D02*
X0102799Y0061965D01*
X0092799Y0061965D02*
X0092799Y0067965D01*
X0082799Y0067965D02*
X0082799Y0061965D01*
X0072799Y0061965D02*
X0072799Y0067965D01*
D21*
X0121736Y0031185D03*
X0183941Y0031185D03*
D22*
X0184177Y0068980D03*
D23*
X0125181Y0068980D03*
D24*
X0144177Y0072406D03*
X0148508Y0072406D03*
X0152839Y0072406D03*
X0157169Y0072406D03*
X0161500Y0072406D03*
X0165831Y0072406D03*
X0170161Y0072406D03*
X0174492Y0072406D03*
X0178823Y0072406D03*
D25*
X0172130Y0029610D03*
X0140634Y0029610D03*
D26*
X0360831Y0242642D03*
X0360831Y0250122D03*
D27*
X0097131Y0031310D02*
X0097131Y0028084D01*
X0097131Y0031310D02*
X0100357Y0031310D01*
X0100357Y0028084D01*
X0097131Y0028084D01*
X0097131Y0029158D02*
X0100357Y0029158D01*
X0100357Y0030232D02*
X0097131Y0030232D01*
X0097131Y0031306D02*
X0100357Y0031306D01*
X0097131Y0025310D02*
X0097131Y0022084D01*
X0097131Y0025310D02*
X0100357Y0025310D01*
X0100357Y0022084D01*
X0097131Y0022084D01*
X0097131Y0023158D02*
X0100357Y0023158D01*
X0100357Y0024232D02*
X0097131Y0024232D01*
X0097131Y0025306D02*
X0100357Y0025306D01*
X0058548Y0024129D02*
X0058548Y0020903D01*
X0058548Y0024129D02*
X0061774Y0024129D01*
X0061774Y0020903D01*
X0058548Y0020903D01*
X0058548Y0021977D02*
X0061774Y0021977D01*
X0061774Y0023051D02*
X0058548Y0023051D01*
X0058548Y0024125D02*
X0061774Y0024125D01*
X0058548Y0026903D02*
X0058548Y0030129D01*
X0061774Y0030129D01*
X0061774Y0026903D01*
X0058548Y0026903D01*
X0058548Y0027977D02*
X0061774Y0027977D01*
X0061774Y0029051D02*
X0058548Y0029051D01*
X0058548Y0030125D02*
X0061774Y0030125D01*
D28*
X0060555Y0033685D03*
X0064984Y0022366D03*
X0098449Y0034669D03*
X0135850Y0038606D03*
X0141264Y0050909D03*
X0135850Y0056323D03*
X0135850Y0061244D03*
X0136343Y0066657D03*
X0118626Y0065181D03*
X0121579Y0077484D03*
X0142248Y0083390D03*
X0149138Y0083390D03*
X0158488Y0079945D03*
X0166362Y0083390D03*
X0169807Y0091756D03*
X0181618Y0100122D03*
X0186539Y0100122D03*
X0189492Y0109965D03*
X0179157Y0112425D03*
X0168331Y0114394D03*
X0163409Y0114394D03*
X0168331Y0120791D03*
X0160949Y0128173D03*
X0172268Y0129650D03*
X0175713Y0134571D03*
X0179157Y0130142D03*
X0181618Y0122760D03*
X0195398Y0134571D03*
X0195398Y0140476D03*
X0207209Y0139984D03*
X0216067Y0144413D03*
X0200811Y0152780D03*
X0206717Y0158685D03*
X0206224Y0165575D03*
X0203272Y0177386D03*
X0204256Y0182307D03*
X0216067Y0175417D03*
X0224925Y0175417D03*
X0240181Y0185752D03*
X0253961Y0167543D03*
X0253961Y0157701D03*
X0247563Y0148843D03*
X0253961Y0147366D03*
X0226402Y0128665D03*
X0214591Y0128665D03*
X0218035Y0108980D03*
X0215575Y0101598D03*
X0210654Y0086343D03*
X0196874Y0082898D03*
X0189984Y0078469D03*
X0186539Y0075024D03*
X0196874Y0068134D03*
X0198843Y0063213D03*
X0193921Y0053370D03*
X0183587Y0062228D03*
X0178173Y0061736D03*
X0161441Y0057307D03*
X0152583Y0063213D03*
X0167346Y0048449D03*
X0168331Y0042051D03*
X0157012Y0035161D03*
X0157012Y0030240D03*
X0148154Y0022366D03*
X0191461Y0031224D03*
X0202287Y0036146D03*
X0190969Y0042051D03*
X0215083Y0055831D03*
X0220496Y0050417D03*
X0242642Y0084866D03*
X0154551Y0094709D03*
X0155535Y0104059D03*
X0141264Y0107504D03*
X0134374Y0110457D03*
X0141264Y0117346D03*
X0147661Y0114886D03*
X0144217Y0124236D03*
X0134374Y0120791D03*
X0123055Y0118331D03*
X0116165Y0122268D03*
X0123055Y0132602D03*
X0116657Y0144413D03*
X0100417Y0148843D03*
X0090083Y0155240D03*
X0098449Y0165083D03*
X0105339Y0162130D03*
X0112720Y0174925D03*
X0127484Y0189689D03*
X0121087Y0196087D03*
X0121087Y0201008D03*
X0106815Y0205929D03*
X0103370Y0210358D03*
X0115181Y0220201D03*
X0121087Y0224138D03*
X0122563Y0247268D03*
X0116657Y0268921D03*
X0122563Y0276795D03*
X0089098Y0259571D03*
X0068921Y0244315D03*
X0053173Y0247760D03*
X0179157Y0175909D03*
X0186047Y0173449D03*
X0186539Y0164591D03*
X0176697Y0144413D03*
X0144709Y0139984D03*
X0142740Y0144906D03*
X0139295Y0151795D03*
X0097465Y0131618D03*
X0100417Y0108980D03*
X0109276Y0109965D03*
X0116165Y0109472D03*
X0116165Y0102583D03*
X0123055Y0109472D03*
X0135850Y0098646D03*
X0116165Y0093724D03*
X0111244Y0093724D03*
X0104354Y0094217D03*
X0103370Y0100122D03*
X0084669Y0080929D03*
X0198350Y0199039D03*
X0215083Y0219217D03*
X0211638Y0244807D03*
X0186539Y0253173D03*
X0269709Y0203469D03*
X0291854Y0208390D03*
X0293331Y0201992D03*
X0303665Y0208390D03*
X0322366Y0201008D03*
X0313016Y0195594D03*
X0321874Y0191165D03*
X0314492Y0185752D03*
X0307602Y0184768D03*
X0299236Y0184768D03*
X0293331Y0172957D03*
X0297268Y0168035D03*
X0303665Y0164098D03*
X0297760Y0157701D03*
X0290870Y0150811D03*
X0311047Y0151303D03*
X0314000Y0144906D03*
X0325319Y0156224D03*
X0313508Y0173941D03*
X0282012Y0228075D03*
X0292346Y0247760D03*
X0331717Y0244315D03*
X0346480Y0247760D03*
D29*
X0029846Y0038508D03*
X0260949Y0026303D03*
X0354650Y0197957D03*
X0026697Y0251106D03*
M02*
